G04*
G04 #@! TF.GenerationSoftware,Altium Limited,Altium Designer,21.1.1 (26)*
G04*
G04 Layer_Physical_Order=2*
G04 Layer_Color=16711680*
%FSLAX25Y25*%
%MOIN*%
G70*
G04*
G04 #@! TF.SameCoordinates,FB3CC9E6-9328-4A98-A2C4-C3437A6BD050*
G04*
G04*
G04 #@! TF.FilePolarity,Positive*
G04*
G01*
G75*
%ADD11C,0.01000*%
%ADD19C,0.00800*%
%ADD23R,0.02362X0.02559*%
%ADD29R,0.02559X0.02362*%
%ADD42R,0.03937X0.04921*%
%ADD119C,0.03000*%
%ADD120C,0.00900*%
%ADD121C,0.01800*%
%ADD122C,0.01200*%
%ADD123C,0.02800*%
%ADD124C,0.01400*%
%ADD125C,0.01600*%
%ADD126C,0.02000*%
%ADD128C,0.05906*%
%ADD129R,0.05906X0.05906*%
%ADD130R,0.05906X0.05906*%
%ADD131C,0.02362*%
%ADD132C,0.06299*%
%ADD133O,0.07874X0.04724*%
%ADD134O,0.07087X0.04724*%
%ADD135C,0.02953*%
%ADD136C,0.02500*%
%ADD137C,0.04500*%
G04:AMPARAMS|DCode=138|XSize=23.62mil|YSize=25.59mil|CornerRadius=0mil|HoleSize=0mil|Usage=FLASHONLY|Rotation=45.000|XOffset=0mil|YOffset=0mil|HoleType=Round|Shape=Rectangle|*
%AMROTATEDRECTD138*
4,1,4,0.00070,-0.01740,-0.01740,0.00070,-0.00070,0.01740,0.01740,-0.00070,0.00070,-0.01740,0.0*
%
%ADD138ROTATEDRECTD138*%

G04:AMPARAMS|DCode=139|XSize=23.62mil|YSize=25.59mil|CornerRadius=0mil|HoleSize=0mil|Usage=FLASHONLY|Rotation=315.000|XOffset=0mil|YOffset=0mil|HoleType=Round|Shape=Rectangle|*
%AMROTATEDRECTD139*
4,1,4,-0.01740,-0.00070,0.00070,0.01740,0.01740,0.00070,-0.00070,-0.01740,-0.01740,-0.00070,0.0*
%
%ADD139ROTATEDRECTD139*%

%ADD140C,0.02500*%
G36*
X393701D02*
X0D01*
Y393701D01*
X393701D01*
Y0D01*
D02*
G37*
%LPC*%
G36*
X12249Y386899D02*
X9887D01*
X9009Y386784D01*
X8192Y386445D01*
X7489Y385906D01*
X6950Y385203D01*
X6611Y384385D01*
X6496Y383508D01*
X6611Y382630D01*
X6950Y381812D01*
X7489Y381110D01*
X8192Y380571D01*
X9009Y380232D01*
X9887Y380117D01*
X12249D01*
X13127Y380232D01*
X13945Y380571D01*
X14647Y381110D01*
X15186Y381812D01*
X15525Y382630D01*
X15641Y383508D01*
X15525Y384385D01*
X15186Y385203D01*
X14647Y385906D01*
X13945Y386445D01*
X13127Y386784D01*
X12249Y386899D01*
D02*
G37*
G36*
X29100Y386899D02*
X25951D01*
X25073Y386783D01*
X24255Y386444D01*
X23553Y385905D01*
X23014Y385203D01*
X22675Y384385D01*
X22559Y383507D01*
X22675Y382630D01*
X23014Y381812D01*
X23553Y381109D01*
X24188Y380622D01*
X24240Y380331D01*
X24221Y380043D01*
X23653Y379663D01*
X23106Y378844D01*
X22914Y377878D01*
X23106Y376912D01*
X23653Y376093D01*
X24472Y375545D01*
X25438Y375353D01*
X26405Y375545D01*
X27224Y376093D01*
X27771Y376912D01*
X27963Y377878D01*
X27771Y378844D01*
X27255Y379616D01*
X27378Y380116D01*
X29100D01*
X29978Y380232D01*
X30796Y380571D01*
X31498Y381109D01*
X32037Y381812D01*
X32376Y382630D01*
X32491Y383507D01*
X32376Y384385D01*
X32037Y385203D01*
X31498Y385905D01*
X30796Y386444D01*
X29978Y386783D01*
X29100Y386899D01*
D02*
G37*
G36*
X12250Y352883D02*
X9888D01*
X9010Y352768D01*
X8192Y352429D01*
X7490Y351890D01*
X6951Y351188D01*
X6612Y350370D01*
X6496Y349492D01*
X6612Y348615D01*
X6951Y347797D01*
X7490Y347094D01*
X8192Y346555D01*
X9010Y346217D01*
X9888Y346101D01*
X12250D01*
X13127Y346217D01*
X13945Y346555D01*
X14648Y347094D01*
X15187Y347797D01*
X15526Y348615D01*
X15641Y349492D01*
X15526Y350370D01*
X15187Y351188D01*
X14648Y351890D01*
X13945Y352429D01*
X13127Y352768D01*
X12250Y352883D01*
D02*
G37*
G36*
X25438Y357647D02*
X24472Y357455D01*
X23653Y356907D01*
X23106Y356088D01*
X22914Y355122D01*
X23106Y354156D01*
X23653Y353337D01*
X24222Y352957D01*
X24240Y352667D01*
X24188Y352378D01*
X23552Y351890D01*
X23013Y351187D01*
X22674Y350370D01*
X22559Y349492D01*
X22674Y348614D01*
X23013Y347796D01*
X23552Y347094D01*
X24254Y346555D01*
X25072Y346216D01*
X25950Y346101D01*
X29100D01*
X29978Y346216D01*
X30795Y346555D01*
X31498Y347094D01*
X32037Y347796D01*
X32375Y348614D01*
X32491Y349492D01*
X32375Y350370D01*
X32037Y351187D01*
X31498Y351890D01*
X30795Y352429D01*
X29978Y352767D01*
X29100Y352883D01*
X27377D01*
X27255Y353383D01*
X27771Y354156D01*
X27963Y355122D01*
X27771Y356088D01*
X27224Y356907D01*
X26405Y357455D01*
X25438Y357647D01*
D02*
G37*
G36*
X152400Y391949D02*
X146500D01*
X145525Y391755D01*
X144698Y391202D01*
X144145Y390375D01*
X143951Y389400D01*
X144145Y388425D01*
X144698Y387598D01*
X145393Y387133D01*
X145241Y386633D01*
X124500D01*
X123837Y386501D01*
X123274Y386126D01*
X119574Y382426D01*
X119199Y381863D01*
X119067Y381200D01*
Y343200D01*
X119199Y342537D01*
X119574Y341974D01*
X122174Y339374D01*
X122174Y339374D01*
X122737Y338999D01*
X123400Y338867D01*
X123400Y338867D01*
X126044D01*
X126622Y338480D01*
X127500Y338306D01*
X128378Y338480D01*
X129122Y338978D01*
X129620Y339722D01*
X129794Y340600D01*
X129620Y341478D01*
X129122Y342222D01*
X128378Y342720D01*
X127500Y342894D01*
X127154Y342825D01*
X126956Y343053D01*
X126824Y343269D01*
X126985Y344078D01*
X130470Y347563D01*
X167283D01*
X167475Y347101D01*
X164847Y344473D01*
X164493Y343944D01*
X164369Y343319D01*
Y317100D01*
X164493Y316476D01*
X164847Y315947D01*
X166502Y314291D01*
X166310Y313829D01*
X158684D01*
X155779Y316734D01*
Y317993D01*
X156279Y318243D01*
X156822Y317881D01*
X157700Y317706D01*
X158578Y317881D01*
X159322Y318378D01*
X159819Y319122D01*
X159994Y320000D01*
X159819Y320878D01*
X159322Y321622D01*
X159127Y321752D01*
Y329414D01*
X159822Y329878D01*
X160319Y330622D01*
X160494Y331500D01*
X160319Y332378D01*
X159822Y333122D01*
X159078Y333619D01*
X158200Y333794D01*
X157322Y333619D01*
X156578Y333122D01*
X156279Y332676D01*
X155779Y332827D01*
Y339166D01*
X155872Y339228D01*
X156369Y339972D01*
X156544Y340850D01*
X156369Y341728D01*
X155872Y342472D01*
X155128Y342969D01*
X154250Y343144D01*
X153372Y342969D01*
X152628Y342472D01*
X152130Y341728D01*
X151956Y340850D01*
X152130Y339972D01*
X152628Y339228D01*
X152721Y339166D01*
Y316100D01*
X152837Y315515D01*
X153169Y315019D01*
X156969Y311219D01*
X157465Y310887D01*
X158050Y310771D01*
X176366D01*
X180471Y306666D01*
Y291800D01*
X180587Y291215D01*
X180919Y290719D01*
X185519Y286119D01*
X186015Y285787D01*
X186600Y285671D01*
X188600D01*
X250143Y285671D01*
X250410Y285171D01*
X250080Y284678D01*
X249906Y283800D01*
X249992Y283366D01*
X249675Y282979D01*
X165954D01*
X165718Y283420D01*
X165919Y283722D01*
X166094Y284600D01*
X165919Y285478D01*
X165422Y286222D01*
X165227Y286352D01*
Y290848D01*
X165422Y290978D01*
X165919Y291722D01*
X166094Y292600D01*
X165919Y293478D01*
X165422Y294222D01*
X164678Y294720D01*
X163800Y294894D01*
X162922Y294720D01*
X162178Y294222D01*
X161680Y293478D01*
X161506Y292600D01*
X161680Y291722D01*
X162178Y290978D01*
X162373Y290848D01*
Y286352D01*
X162178Y286222D01*
X161680Y285478D01*
X161506Y284600D01*
X161589Y284181D01*
X161128Y283934D01*
X160329Y284734D01*
Y305066D01*
X161420Y306157D01*
X165202D01*
X165264Y306064D01*
X166009Y305567D01*
X166887Y305393D01*
X167764Y305567D01*
X168509Y306064D01*
X169006Y306809D01*
X169181Y307687D01*
X169006Y308564D01*
X168509Y309309D01*
X167764Y309806D01*
X166887Y309981D01*
X166009Y309806D01*
X165264Y309309D01*
X165202Y309216D01*
X160787D01*
X160201Y309100D01*
X159705Y308768D01*
X157719Y306781D01*
X157387Y306285D01*
X157271Y305700D01*
Y284100D01*
X157387Y283515D01*
X157719Y283019D01*
X160369Y280369D01*
X160865Y280037D01*
X161450Y279921D01*
X161565D01*
X161717Y279421D01*
X161455Y279245D01*
X157655Y275445D01*
X157334Y274966D01*
X157222Y274400D01*
Y238166D01*
X146009Y226953D01*
X145300Y227094D01*
X144422Y226920D01*
X143678Y226422D01*
X143181Y225678D01*
X143006Y224800D01*
X143181Y223922D01*
X143678Y223178D01*
X144422Y222680D01*
X145300Y222506D01*
X146178Y222680D01*
X146922Y223178D01*
X147420Y223922D01*
X147484Y224247D01*
X148853Y225616D01*
X149331Y225470D01*
X149381Y225222D01*
X149878Y224478D01*
X150622Y223980D01*
X150766Y223952D01*
X150911Y223474D01*
X149309Y221872D01*
X149200Y221894D01*
X148322Y221720D01*
X147578Y221222D01*
X147081Y220478D01*
X146906Y219600D01*
X147081Y218722D01*
X147578Y217978D01*
X148322Y217480D01*
X149200Y217306D01*
X150078Y217480D01*
X150822Y217978D01*
X151320Y218722D01*
X151494Y219600D01*
X151472Y219709D01*
X163281Y231519D01*
X163613Y232015D01*
X163729Y232600D01*
Y271667D01*
X165134Y273071D01*
X266266D01*
X267130Y272207D01*
X267278Y271722D01*
X266780Y270978D01*
X266606Y270100D01*
X266740Y269428D01*
X266521Y268928D01*
X266521D01*
Y265439D01*
X265545D01*
X262769Y268215D01*
X262107Y268657D01*
X261327Y268812D01*
X261221D01*
X260780Y268954D01*
X260623Y269390D01*
X260608Y269454D01*
X260772Y270278D01*
X260597Y271156D01*
X260100Y271900D01*
X259356Y272397D01*
X258478Y272572D01*
X257600Y272397D01*
X256856Y271900D01*
X256359Y271156D01*
X256184Y270278D01*
X256348Y269454D01*
X256336Y269406D01*
X256221Y268954D01*
X255779Y268812D01*
X255673D01*
X254893Y268657D01*
X254231Y268215D01*
X252307Y266291D01*
X184552D01*
X183772Y266136D01*
X183110Y265694D01*
X168958Y251542D01*
X168516Y250880D01*
X168361Y250100D01*
Y210845D01*
X139850Y182334D01*
X126314Y195870D01*
Y226102D01*
X126394Y226222D01*
X126569Y227100D01*
X126394Y227978D01*
X125897Y228722D01*
X125152Y229220D01*
X124275Y229394D01*
X123397Y229220D01*
X123276Y229139D01*
X104445D01*
X102039Y231545D01*
Y240465D01*
X102119Y240585D01*
X102294Y241463D01*
X102119Y242341D01*
X102039Y242461D01*
Y262002D01*
X102119Y262122D01*
X102294Y263000D01*
X102119Y263878D01*
X101622Y264622D01*
X100878Y265120D01*
X100000Y265294D01*
X99122Y265120D01*
X98378Y264622D01*
X97881Y263878D01*
X97706Y263000D01*
X97881Y262122D01*
X97961Y262002D01*
Y242461D01*
X97881Y242341D01*
X97706Y241463D01*
X97881Y240585D01*
X97961Y240465D01*
Y230700D01*
X98116Y229920D01*
X98558Y229258D01*
X102158Y225658D01*
X102820Y225216D01*
X103600Y225061D01*
X122235D01*
Y195026D01*
X122390Y194245D01*
X122833Y193584D01*
X138408Y178008D01*
X167358Y149058D01*
X168020Y148616D01*
X168800Y148461D01*
X177550D01*
X177912Y148129D01*
X177912D01*
X181136Y144905D01*
X184221Y147989D01*
X180997Y151213D01*
X180997D01*
X180629Y151552D01*
X180247Y152122D01*
X179503Y152620D01*
X178625Y152794D01*
X177747Y152620D01*
X177627Y152539D01*
X169645D01*
X142734Y179450D01*
X171842Y208558D01*
X171842Y208558D01*
X172284Y209220D01*
X172439Y210000D01*
Y249255D01*
X185397Y262213D01*
X251113D01*
Y255000D01*
Y243148D01*
X251268Y242368D01*
X251710Y241706D01*
X254301Y239115D01*
X254110Y238653D01*
X246826D01*
X246826Y238653D01*
X246280Y238545D01*
X245817Y238235D01*
X245817Y238235D01*
X243529Y235947D01*
X243219Y235484D01*
X243196Y235368D01*
X241569D01*
Y228447D01*
X247506D01*
Y235368D01*
X247506Y235368D01*
X247674Y235799D01*
X256174D01*
X256304Y235604D01*
X257048Y235106D01*
X257926Y234932D01*
X258804Y235106D01*
X259548Y235604D01*
X259610Y235697D01*
X260340D01*
X260519Y235518D01*
Y233221D01*
X260898D01*
X261258Y232681D01*
X265149Y228790D01*
X264956Y228276D01*
X264278Y227822D01*
X263780Y227078D01*
X263717Y226756D01*
X263700Y226740D01*
X262680D01*
Y227030D01*
X258120D01*
Y225893D01*
X257620Y225597D01*
X256900Y225741D01*
X256022Y225566D01*
X255967Y225529D01*
X240022D01*
X239593Y225444D01*
X239361Y225587D01*
X239150Y225777D01*
X239194Y226000D01*
X239019Y226878D01*
X238554Y227575D01*
X239019Y228272D01*
X239194Y229150D01*
X239019Y230028D01*
X238554Y230724D01*
X239019Y231421D01*
X239194Y232299D01*
X239019Y233177D01*
X238554Y233874D01*
X239019Y234571D01*
X239194Y235449D01*
X239019Y236327D01*
X238522Y237071D01*
X237778Y237568D01*
X236900Y237743D01*
X236022Y237568D01*
X235278Y237071D01*
X235148Y236876D01*
X232437D01*
X232273Y237376D01*
X232704Y238022D01*
X232879Y238900D01*
X232704Y239778D01*
X232238Y240475D01*
X232704Y241172D01*
X232879Y242050D01*
X232704Y242928D01*
X232238Y243624D01*
X232704Y244321D01*
X232879Y245199D01*
X232704Y246077D01*
X232238Y246774D01*
X232704Y247471D01*
X232879Y248349D01*
X232704Y249227D01*
X232207Y249971D01*
X231462Y250468D01*
X230585Y250643D01*
X229707Y250468D01*
X228962Y249971D01*
X228832Y249776D01*
X181952D01*
X181822Y249971D01*
X181078Y250468D01*
X180200Y250643D01*
X179322Y250468D01*
X178578Y249971D01*
X178080Y249227D01*
X177906Y248349D01*
X178080Y247471D01*
X178546Y246774D01*
X178080Y246077D01*
X177906Y245199D01*
X178080Y244321D01*
X178546Y243624D01*
X178080Y242928D01*
X177906Y242050D01*
X178080Y241172D01*
X178546Y240475D01*
X178080Y239778D01*
X177906Y238900D01*
X178080Y238022D01*
X178578Y237278D01*
X179322Y236781D01*
X180200Y236606D01*
X181078Y236781D01*
X181822Y237278D01*
X181952Y237473D01*
X185147D01*
X185312Y236973D01*
X184880Y236327D01*
X184706Y235449D01*
X184880Y234571D01*
X185346Y233874D01*
X184880Y233177D01*
X184706Y232299D01*
X184880Y231421D01*
X185346Y230724D01*
X184880Y230028D01*
X184706Y229150D01*
X184880Y228272D01*
X185346Y227575D01*
X184880Y226878D01*
X184706Y226000D01*
X184880Y225122D01*
X185378Y224378D01*
X186122Y223881D01*
X187000Y223706D01*
X187878Y223881D01*
X188622Y224378D01*
X188752Y224573D01*
X197156D01*
X197348Y224111D01*
X189619Y216381D01*
X189287Y215885D01*
X189171Y215300D01*
Y211800D01*
X189287Y211215D01*
X189619Y210719D01*
X199519Y200819D01*
X200015Y200487D01*
X200600Y200371D01*
X203542D01*
X204127Y200487D01*
X204624Y200819D01*
X206533Y202728D01*
X206642Y202706D01*
X207520Y202881D01*
X208264Y203378D01*
X208762Y204122D01*
X208936Y205000D01*
X208762Y205878D01*
X208264Y206622D01*
X207520Y207119D01*
X207114Y207200D01*
X206949Y207743D01*
X207579Y208373D01*
X247027D01*
X247294Y207873D01*
X247130Y207628D01*
X246956Y206750D01*
X247002Y206520D01*
X237209Y196727D01*
X230700D01*
X230651Y196718D01*
X229969Y196628D01*
X229288Y196346D01*
X228703Y195897D01*
X228427Y195538D01*
X227927Y195708D01*
Y197346D01*
X227918Y197395D01*
X227828Y198077D01*
X227546Y198758D01*
X227097Y199343D01*
X226512Y199792D01*
X225831Y200074D01*
X225600Y200105D01*
X225506Y200245D01*
X225399Y200636D01*
X225819Y201265D01*
X225994Y202143D01*
X225819Y203021D01*
X225322Y203765D01*
X224578Y204262D01*
X223700Y204437D01*
X223591Y204415D01*
X222307Y205698D01*
X221811Y206030D01*
X221226Y206146D01*
X221178D01*
X219553Y207771D01*
X216329Y204547D01*
X219413Y201463D01*
X220815Y202865D01*
X221428Y202252D01*
X221406Y202143D01*
X221581Y201265D01*
X222078Y200521D01*
X222822Y200023D01*
X223097Y199969D01*
X223221Y199434D01*
X223103Y199343D01*
X222654Y198758D01*
X222571Y198557D01*
X222029D01*
X221946Y198758D01*
X221497Y199343D01*
X220912Y199792D01*
X220231Y200074D01*
X219549Y200164D01*
X219500Y200174D01*
X219451Y200164D01*
X218769Y200074D01*
X218088Y199792D01*
X217503Y199343D01*
X217054Y198758D01*
X216971Y198557D01*
X216429D01*
X216346Y198758D01*
X215897Y199343D01*
X215312Y199792D01*
X214631Y200074D01*
X213949Y200164D01*
X213900Y200174D01*
X213851Y200164D01*
X213169Y200074D01*
X212488Y199792D01*
X211903Y199343D01*
X211454Y198758D01*
X211172Y198077D01*
X211082Y197395D01*
X211073Y197346D01*
Y196743D01*
X211062Y196738D01*
X211057Y196727D01*
X183580D01*
X183033Y196619D01*
X182570Y196309D01*
X182570Y196309D01*
X168519Y182259D01*
X168290Y182304D01*
X167412Y182130D01*
X166668Y181632D01*
X166170Y180888D01*
X165996Y180010D01*
X166170Y179132D01*
X166668Y178388D01*
X167412Y177891D01*
X168234Y177727D01*
X168397Y176905D01*
X168895Y176161D01*
X169639Y175664D01*
X170461Y175500D01*
X170624Y174678D01*
X171122Y173934D01*
X171866Y173437D01*
X172688Y173273D01*
X172852Y172451D01*
X173349Y171707D01*
X174093Y171210D01*
X174915Y171046D01*
X175079Y170224D01*
X175576Y169480D01*
X176320Y168982D01*
X177198Y168808D01*
X178076Y168982D01*
X178820Y169480D01*
X179318Y170224D01*
X179492Y171102D01*
X179447Y171332D01*
X184588Y176473D01*
X198857D01*
X198862Y176462D01*
X198873Y176457D01*
Y171996D01*
X198882Y171948D01*
X198972Y171265D01*
X199254Y170584D01*
X199703Y170000D01*
X199887Y169858D01*
X199887Y169228D01*
X190731Y160072D01*
X190622Y160094D01*
X189744Y159920D01*
X188999Y159422D01*
X188502Y158678D01*
X188328Y157800D01*
X188502Y156922D01*
X188999Y156178D01*
X189744Y155681D01*
X190622Y155506D01*
X191499Y155681D01*
X192244Y156178D01*
X192741Y156922D01*
X192916Y157800D01*
X192894Y157909D01*
X201823Y166839D01*
X213376D01*
X213438Y166746D01*
X214183Y166249D01*
X215061Y166074D01*
X215170Y166096D01*
X215417Y165635D01*
X214791Y165009D01*
X214791Y165009D01*
X209926Y160145D01*
X209915Y160150D01*
X209905Y160145D01*
X208017Y162033D01*
X208017Y162033D01*
X208017Y162033D01*
X207975Y162061D01*
X207429Y162479D01*
X206748Y162762D01*
X206017Y162858D01*
X205286Y162762D01*
X204605Y162479D01*
X204059Y162061D01*
X204018Y162033D01*
X203990Y161992D01*
X203572Y161446D01*
X203289Y160765D01*
X203193Y160034D01*
X203289Y159303D01*
X203373Y159101D01*
X202990Y158718D01*
X202788Y158802D01*
X202058Y158898D01*
X201327Y158802D01*
X200645Y158520D01*
X200100Y158101D01*
X200058Y158073D01*
X200031Y158032D01*
X199612Y157486D01*
X199330Y156805D01*
X199233Y156074D01*
X199330Y155343D01*
X199612Y154662D01*
X200031Y154116D01*
X200058Y154075D01*
X200058Y154075D01*
X200058Y154075D01*
X200412Y153721D01*
X201608Y152525D01*
Y151827D01*
X200891Y151109D01*
X200581Y150646D01*
X200473Y150100D01*
X200473Y150100D01*
Y145800D01*
X200473Y145800D01*
X200581Y145254D01*
X200891Y144791D01*
X203602Y142079D01*
X203556Y141849D01*
X203731Y140972D01*
X204228Y140227D01*
X204973Y139730D01*
X205795Y139567D01*
X205958Y138744D01*
X206455Y138000D01*
X207200Y137503D01*
X208078Y137328D01*
X208138Y137340D01*
X208280Y136622D01*
X208778Y135878D01*
X209522Y135380D01*
X210251Y135236D01*
X210238Y135168D01*
X210413Y134290D01*
X210910Y133546D01*
X211654Y133049D01*
X212476Y132885D01*
X212640Y132063D01*
X213137Y131319D01*
X213881Y130822D01*
X214759Y130647D01*
X215637Y130822D01*
X216381Y131319D01*
X216879Y132063D01*
X217053Y132941D01*
X217007Y133173D01*
X220714Y136888D01*
X222324Y138501D01*
X223023Y138502D01*
X225074Y136455D01*
X225074Y136454D01*
X225074Y136454D01*
X225075Y136453D01*
X225120Y136423D01*
X225660Y136009D01*
X226341Y135727D01*
X227072Y135631D01*
X227803Y135727D01*
X228484Y136009D01*
X229033Y136431D01*
X229072Y136457D01*
X229073Y136458D01*
X229101Y136500D01*
X229518Y137043D01*
X229800Y137724D01*
X229896Y138455D01*
X229800Y139186D01*
X229715Y139391D01*
X230098Y139773D01*
X230297Y139691D01*
X231028Y139594D01*
X231759Y139691D01*
X232440Y139973D01*
X232989Y140394D01*
X233028Y140420D01*
X233029Y140422D01*
X233057Y140464D01*
X233474Y141007D01*
X233756Y141688D01*
X233852Y142419D01*
X233756Y143150D01*
X233671Y143354D01*
X234054Y143737D01*
X234253Y143655D01*
X234984Y143558D01*
X235715Y143655D01*
X236396Y143937D01*
X236945Y144358D01*
X236984Y144384D01*
X236985Y144385D01*
X237013Y144428D01*
X237429Y144970D01*
X237712Y145651D01*
X237808Y146382D01*
X237712Y147113D01*
X237429Y147795D01*
X237006Y148347D01*
X236981Y148384D01*
X234590Y150770D01*
X234594Y150781D01*
X234590Y150792D01*
X244937Y161160D01*
X265323Y181588D01*
X265567Y181539D01*
X266445Y181714D01*
X267189Y182211D01*
X267686Y182955D01*
X267861Y183833D01*
X267686Y184711D01*
X267189Y185455D01*
X266445Y185953D01*
X265623Y186116D01*
X265459Y186938D01*
X264962Y187682D01*
X264218Y188180D01*
X263425Y188338D01*
X263267Y189130D01*
X262770Y189874D01*
X262025Y190372D01*
X261167Y190543D01*
X260996Y191401D01*
X260499Y192145D01*
X259755Y192643D01*
X258933Y192806D01*
X258769Y193628D01*
X258272Y194372D01*
X257758Y194716D01*
X257670Y195210D01*
X258036Y195572D01*
X258158Y195547D01*
X259036Y195722D01*
X259781Y196219D01*
X260278Y196964D01*
X260453Y197842D01*
X260278Y198720D01*
X259781Y199464D01*
X259036Y199961D01*
X258214Y200125D01*
X258051Y200947D01*
X257554Y201691D01*
X256809Y202188D01*
X255987Y202352D01*
X255824Y203174D01*
X255326Y203918D01*
X254582Y204415D01*
X253760Y204579D01*
X253597Y205401D01*
X253099Y206145D01*
X252355Y206642D01*
X251533Y206806D01*
X251370Y207628D01*
X251206Y207873D01*
X251473Y208373D01*
X308909D01*
X312902Y204380D01*
X312856Y204150D01*
X313031Y203272D01*
X313528Y202528D01*
X314272Y202030D01*
X315150Y201856D01*
X316028Y202030D01*
X316772Y202528D01*
X317269Y203272D01*
X317433Y204094D01*
X318255Y204258D01*
X318999Y204755D01*
X319497Y205499D01*
X319660Y206321D01*
X320482Y206485D01*
X321226Y206982D01*
X321724Y207726D01*
X321898Y208604D01*
X321724Y209482D01*
X321226Y210226D01*
X320482Y210724D01*
X319604Y210898D01*
X319374Y210853D01*
X313918Y216309D01*
X313455Y216619D01*
X312908Y216727D01*
X312908Y216727D01*
X253392D01*
X253312Y216989D01*
X253267Y217227D01*
X253755Y217957D01*
X253929Y218835D01*
X253755Y219713D01*
X253258Y220458D01*
X252513Y220955D01*
X251635Y221129D01*
X250758Y220955D01*
X250013Y220458D01*
X249883Y220263D01*
X247506D01*
Y222471D01*
X254846D01*
X255278Y221824D01*
X256022Y221327D01*
X256900Y221152D01*
X257778Y221327D01*
X257824Y221358D01*
X258274Y221057D01*
X258152Y220446D01*
X258327Y219569D01*
X258824Y218824D01*
X259569Y218327D01*
X260447Y218152D01*
X261324Y218327D01*
X262069Y218824D01*
X262566Y219569D01*
X262740Y220446D01*
X262566Y221324D01*
X262069Y222069D01*
X261976Y222131D01*
Y222668D01*
X262680D01*
Y222865D01*
X264502D01*
X265244Y223012D01*
X265872Y223432D01*
X266456Y224017D01*
X266778Y224080D01*
X267522Y224578D01*
X267976Y225256D01*
X268490Y225449D01*
X270681Y223258D01*
X271343Y222816D01*
X272123Y222661D01*
X275321D01*
Y222646D01*
X280166D01*
X280246Y222564D01*
X280478Y222122D01*
X279980Y221378D01*
X279806Y220500D01*
X279980Y219622D01*
X280478Y218878D01*
X281222Y218380D01*
X282100Y218206D01*
X282978Y218380D01*
X283722Y218878D01*
X284220Y219622D01*
X284394Y220500D01*
X284220Y221378D01*
X283722Y222122D01*
X283954Y222564D01*
X284034Y222646D01*
X284380D01*
Y227008D01*
X275874D01*
X275556Y227394D01*
X275648Y227854D01*
X275473Y228732D01*
X275291Y229004D01*
Y230351D01*
X278170Y233230D01*
X278590Y233859D01*
X278737Y234600D01*
Y238026D01*
X279199Y238217D01*
X284658Y232758D01*
X285320Y232316D01*
X286100Y232161D01*
X286100Y232161D01*
X317955D01*
X325961Y224155D01*
Y187145D01*
X244755Y105939D01*
X207582D01*
X159780Y153742D01*
X159118Y154184D01*
X158338Y154339D01*
X108645D01*
X96466Y166518D01*
Y262002D01*
X96546Y262122D01*
X96721Y263000D01*
X96546Y263878D01*
X96049Y264622D01*
X95305Y265120D01*
X94427Y265294D01*
X93549Y265120D01*
X92805Y264622D01*
X92307Y263878D01*
X92133Y263000D01*
X92307Y262122D01*
X92388Y262002D01*
Y165673D01*
X92543Y164893D01*
X92985Y164231D01*
X106358Y150858D01*
X107020Y150416D01*
X107800Y150261D01*
X157493D01*
X205296Y102458D01*
X205957Y102016D01*
X206738Y101861D01*
X206738Y101861D01*
X245600D01*
X246380Y102016D01*
X247042Y102458D01*
X329442Y184858D01*
X329884Y185520D01*
X330039Y186300D01*
Y225000D01*
X329884Y225780D01*
X329442Y226442D01*
X329442Y226442D01*
X320242Y235642D01*
X319580Y236084D01*
X318800Y236239D01*
X304045D01*
X303412Y236871D01*
Y238920D01*
X303554D01*
Y239634D01*
X304579D01*
X304641Y239541D01*
X305385Y239043D01*
X306263Y238869D01*
X307141Y239043D01*
X307885Y239541D01*
X308382Y240285D01*
X308557Y241163D01*
X308382Y242041D01*
X307885Y242785D01*
X307141Y243282D01*
X306263Y243457D01*
X305385Y243282D01*
X304641Y242785D01*
X304579Y242692D01*
X303554D01*
Y243479D01*
X299192D01*
Y238920D01*
X299334D01*
Y236239D01*
X286945D01*
X278839Y244345D01*
Y251900D01*
X278824Y251976D01*
X279141Y252363D01*
X280000D01*
X280741Y252510D01*
X281370Y252930D01*
X281983Y253543D01*
X282305Y253607D01*
X283049Y254105D01*
X283546Y254849D01*
X283721Y255727D01*
X283546Y256605D01*
X283308Y256961D01*
X283576Y257461D01*
X299192D01*
Y253820D01*
Y249321D01*
Y244820D01*
X303554D01*
Y245539D01*
X304447D01*
X304509Y245446D01*
X305254Y244949D01*
X306132Y244774D01*
X307009Y244949D01*
X307754Y245446D01*
X308251Y246191D01*
X308426Y247069D01*
X308251Y247946D01*
X307754Y248691D01*
X307200Y249061D01*
X307351Y249561D01*
X337500D01*
X338280Y249716D01*
X338942Y250158D01*
X339936Y251152D01*
X340078Y251181D01*
X340822Y251678D01*
X341319Y252422D01*
X341494Y253300D01*
X341319Y254178D01*
X340822Y254922D01*
X340078Y255419D01*
X339200Y255594D01*
X338322Y255419D01*
X337578Y254922D01*
X337081Y254178D01*
X337052Y254036D01*
X336655Y253639D01*
X303554D01*
Y258380D01*
X303412D01*
Y264827D01*
X303257Y265607D01*
X302815Y266269D01*
X301496Y267588D01*
X300834Y268030D01*
X300054Y268186D01*
X298074D01*
Y268328D01*
X297409D01*
Y268936D01*
X297502Y268998D01*
X297999Y269743D01*
X298174Y270620D01*
X297999Y271498D01*
X297502Y272243D01*
X297249Y272411D01*
X297198Y272667D01*
X296889Y273130D01*
X296889Y273130D01*
X295209Y274809D01*
X294746Y275119D01*
X294200Y275227D01*
X294200Y275227D01*
X283500D01*
X283500Y275227D01*
X282954Y275119D01*
X282491Y274809D01*
X282491Y274809D01*
X281091Y273409D01*
X280781Y272946D01*
X280673Y272400D01*
X280673Y272400D01*
Y271752D01*
X280478Y271622D01*
X279980Y270878D01*
X279806Y270000D01*
X279980Y269122D01*
X280478Y268378D01*
X280155Y268029D01*
X279805Y267795D01*
X279307Y267051D01*
X279133Y266173D01*
X279307Y265295D01*
X279805Y264551D01*
X280549Y264054D01*
X281427Y263879D01*
X282305Y264054D01*
X282577Y264236D01*
X284521D01*
Y263992D01*
X289015D01*
Y263965D01*
X298074D01*
Y264107D01*
X299209D01*
X299334Y263982D01*
Y261539D01*
X281145D01*
X277842Y264842D01*
X277180Y265284D01*
X276400Y265439D01*
X275780D01*
Y268928D01*
X275719D01*
X275484Y269369D01*
X275519Y269422D01*
X275694Y270300D01*
X275519Y271178D01*
X275022Y271922D01*
X274929Y271984D01*
Y272800D01*
X274813Y273385D01*
X274481Y273881D01*
X272103Y276260D01*
X272295Y276722D01*
X280500D01*
X281066Y276834D01*
X281545Y277155D01*
X283930Y279540D01*
X284100Y279506D01*
X284978Y279680D01*
X285722Y280178D01*
X286220Y280922D01*
X286324Y281447D01*
X286421Y281531D01*
X286874Y281755D01*
X287300Y281671D01*
X306649D01*
X306778Y281478D01*
X307522Y280980D01*
X308400Y280806D01*
X309278Y280980D01*
X310022Y281478D01*
X310084Y281571D01*
X354867D01*
X355577Y280860D01*
X355413Y280317D01*
X354922Y280220D01*
X354178Y279722D01*
X353680Y278978D01*
X353506Y278100D01*
X353680Y277222D01*
X354178Y276478D01*
X354922Y275980D01*
X355800Y275806D01*
X355909Y275828D01*
X374271Y257467D01*
X374271Y108933D01*
X369619Y104281D01*
X369287Y103785D01*
X369171Y103200D01*
Y84884D01*
X369078Y84822D01*
X368581Y84078D01*
X368406Y83200D01*
X368581Y82322D01*
X369078Y81578D01*
X369822Y81081D01*
X370700Y80906D01*
X371578Y81081D01*
X372322Y81578D01*
X372819Y82322D01*
X372994Y83200D01*
X372819Y84078D01*
X372322Y84822D01*
X372229Y84884D01*
Y102567D01*
X376409Y106746D01*
X376871Y106554D01*
Y80334D01*
X375751Y79214D01*
X367799D01*
X367737Y79307D01*
X366993Y79804D01*
X366115Y79979D01*
X365237Y79804D01*
X364749Y79478D01*
X364249Y79746D01*
Y100544D01*
X365302Y101598D01*
X365855Y102425D01*
X366049Y103400D01*
X365855Y104376D01*
X365302Y105202D01*
X364475Y105755D01*
X363500Y105949D01*
X362525Y105755D01*
X361698Y105202D01*
X359898Y103402D01*
X359345Y102576D01*
X359151Y101600D01*
Y89849D01*
X322400D01*
X321425Y89655D01*
X320598Y89102D01*
X320045Y88275D01*
X319851Y87300D01*
X320045Y86325D01*
X320598Y85498D01*
X321425Y84945D01*
X322400Y84751D01*
X359151D01*
Y68276D01*
X358651Y68180D01*
X358222Y68822D01*
X357478Y69319D01*
X356600Y69494D01*
X356542Y69482D01*
X356036Y69892D01*
X355920Y70478D01*
X355422Y71222D01*
X354678Y71719D01*
X353800Y71894D01*
X352922Y71719D01*
X352178Y71222D01*
X351680Y70478D01*
X351506Y69600D01*
X351680Y68722D01*
X352178Y67978D01*
X352373Y67848D01*
Y59291D01*
X349409Y56327D01*
X321295D01*
X321088Y56827D01*
X322830Y58570D01*
X323361Y59364D01*
X323547Y60300D01*
Y65000D01*
X323361Y65936D01*
X322830Y66730D01*
X320830Y68730D01*
X320036Y69261D01*
X319100Y69447D01*
X312114D01*
X310947Y70614D01*
Y91100D01*
X310761Y92036D01*
X310230Y92830D01*
X303330Y99730D01*
X302536Y100261D01*
X301600Y100447D01*
X281700D01*
X281197Y100347D01*
X205014D01*
X158693Y146668D01*
X157899Y147198D01*
X156962Y147385D01*
X103576D01*
X84647Y166314D01*
Y344286D01*
X93030Y352670D01*
X93030Y352670D01*
X96130Y355770D01*
X96661Y356564D01*
X96847Y357500D01*
X96661Y358436D01*
X96130Y359230D01*
X95336Y359761D01*
X94400Y359947D01*
X93464Y359761D01*
X92670Y359230D01*
X90286Y356847D01*
X45900D01*
X44964Y356661D01*
X44170Y356130D01*
X22686Y334647D01*
X10753D01*
Y336153D01*
X2847D01*
Y328247D01*
X10753D01*
Y329753D01*
X23700D01*
X24636Y329939D01*
X25430Y330470D01*
X46914Y351953D01*
X84739D01*
X84930Y351491D01*
X80470Y347030D01*
X79939Y346236D01*
X79753Y345300D01*
Y165300D01*
X79939Y164364D01*
X80470Y163570D01*
X100832Y143207D01*
X101626Y142677D01*
X102562Y142491D01*
X155949D01*
X202270Y96170D01*
X203064Y95639D01*
X203517Y95549D01*
X203468Y95049D01*
X201300D01*
X158946Y137402D01*
X158119Y137955D01*
X157144Y138149D01*
X81056D01*
X76549Y142656D01*
Y311800D01*
Y345050D01*
X76355Y346025D01*
X75802Y346852D01*
X74976Y347405D01*
X74000Y347599D01*
X47550D01*
X46575Y347405D01*
X45748Y346852D01*
X23644Y324749D01*
X9826D01*
X9619Y325019D01*
X8793Y325653D01*
X7832Y326051D01*
X6800Y326187D01*
X5768Y326051D01*
X4807Y325653D01*
X3981Y325019D01*
X3347Y324193D01*
X2949Y323232D01*
X2813Y322200D01*
X2949Y321168D01*
X3347Y320207D01*
X3981Y319381D01*
X4807Y318747D01*
X5768Y318349D01*
X6800Y318213D01*
X7832Y318349D01*
X8793Y318747D01*
X9619Y319381D01*
X9826Y319651D01*
X24700D01*
X25675Y319845D01*
X26502Y320398D01*
X48606Y342501D01*
X71451D01*
Y311800D01*
Y141600D01*
Y133656D01*
X67798Y130002D01*
X67245Y129175D01*
X67051Y128200D01*
X67245Y127225D01*
X67798Y126398D01*
X68625Y125845D01*
X69600Y125651D01*
X70575Y125845D01*
X71402Y126398D01*
X75802Y130798D01*
X76355Y131624D01*
X76549Y132600D01*
Y134793D01*
X77011Y134984D01*
X78198Y133798D01*
X79024Y133245D01*
X80000Y133051D01*
X126851D01*
Y119300D01*
Y96200D01*
X127045Y95224D01*
X127598Y94398D01*
X128425Y93845D01*
X129400Y93651D01*
X130376Y93845D01*
X131202Y94398D01*
X131453Y94773D01*
X132209D01*
X134632Y92350D01*
Y62693D01*
X134437Y62563D01*
X133940Y61819D01*
X133765Y60941D01*
X133940Y60063D01*
X134437Y59319D01*
X135181Y58822D01*
X136059Y58647D01*
X136937Y58822D01*
X137681Y59319D01*
X138178Y60063D01*
X138353Y60941D01*
X138178Y61819D01*
X137681Y62563D01*
X137486Y62693D01*
Y92941D01*
X137486Y92941D01*
X137378Y93487D01*
X137068Y93950D01*
X137068Y93950D01*
X133809Y97209D01*
X133346Y97519D01*
X132800Y97627D01*
X132800Y97627D01*
X131949D01*
Y116751D01*
X153644D01*
X154998Y115398D01*
X155824Y114845D01*
X156800Y114651D01*
X157775Y114845D01*
X158602Y115398D01*
X159155Y116225D01*
X159349Y117200D01*
X159155Y118175D01*
X158602Y119002D01*
X156502Y121102D01*
X155675Y121655D01*
X154700Y121849D01*
X131949D01*
Y133051D01*
X156088D01*
X198442Y90698D01*
X199268Y90145D01*
X200244Y89951D01*
X243244D01*
X245251Y87944D01*
Y66300D01*
Y58803D01*
X240877D01*
X240747Y58998D01*
X240002Y59495D01*
X239124Y59670D01*
X238246Y59495D01*
X237502Y58998D01*
X237005Y58254D01*
X236830Y57376D01*
X237005Y56498D01*
X237502Y55753D01*
X238246Y55256D01*
X239124Y55081D01*
X240002Y55256D01*
X240747Y55753D01*
X240877Y55948D01*
X245251D01*
Y40200D01*
Y21256D01*
X244544Y20549D01*
X235500D01*
X234524Y20355D01*
X233698Y19802D01*
X233145Y18975D01*
X232951Y18000D01*
X233145Y17025D01*
X233698Y16198D01*
X234524Y15645D01*
X235500Y15451D01*
X264744D01*
X272106Y8089D01*
X271915Y7627D01*
X227091D01*
X223827Y10891D01*
Y27721D01*
X223827Y27721D01*
X223719Y28268D01*
X223409Y28731D01*
X223409Y28731D01*
X217731Y34409D01*
X217268Y34719D01*
X216721Y34827D01*
X216721Y34827D01*
X202879D01*
X202879Y34827D01*
X202332Y34719D01*
X201869Y34409D01*
X201869Y34409D01*
X196991Y29531D01*
X196681Y29068D01*
X196573Y28521D01*
X196573Y28521D01*
Y7791D01*
X194809Y6027D01*
X47991D01*
X28927Y25091D01*
Y281831D01*
X29178Y281880D01*
X29922Y282378D01*
X30419Y283122D01*
X30594Y284000D01*
X30419Y284878D01*
X29922Y285622D01*
X29178Y286120D01*
X28300Y286294D01*
X27422Y286120D01*
X26750Y285670D01*
X26078Y286120D01*
X25200Y286294D01*
X24322Y286120D01*
X23578Y285622D01*
X23080Y284878D01*
X22906Y284000D01*
X23080Y283122D01*
X23578Y282378D01*
X24322Y281880D01*
X24573Y281831D01*
Y23879D01*
X24573Y23879D01*
X24681Y23332D01*
X24991Y22869D01*
X45769Y2091D01*
X45769Y2091D01*
X46232Y1781D01*
X46779Y1673D01*
X46779Y1673D01*
X196021D01*
X196021Y1673D01*
X196568Y1781D01*
X197031Y2091D01*
X200509Y5569D01*
X200509Y5569D01*
X200819Y6032D01*
X200927Y6579D01*
X200927Y6579D01*
Y27309D01*
X204091Y30473D01*
X215509D01*
X219473Y26509D01*
Y9679D01*
X219473Y9679D01*
X219581Y9132D01*
X219891Y8669D01*
X224869Y3691D01*
X224869Y3691D01*
X225332Y3381D01*
X225879Y3273D01*
X225879Y3273D01*
X323421D01*
X323421Y3273D01*
X323968Y3381D01*
X324431Y3691D01*
X326809Y6069D01*
X326809Y6069D01*
X327119Y6532D01*
X327227Y7079D01*
X327227Y7079D01*
Y16131D01*
X327478Y16181D01*
X328222Y16678D01*
X328719Y17422D01*
X328894Y18300D01*
X328719Y19178D01*
X328222Y19922D01*
X327478Y20419D01*
X326600Y20594D01*
X325722Y20419D01*
X325050Y19970D01*
X324378Y20419D01*
X323500Y20594D01*
X322653Y20426D01*
X322546Y20427D01*
X322153Y20637D01*
Y38948D01*
X326356Y43151D01*
X357000D01*
X357976Y43345D01*
X358802Y43898D01*
X363502Y48598D01*
X364055Y49424D01*
X364249Y50400D01*
Y52029D01*
X364749Y52297D01*
X365222Y51981D01*
X366100Y51806D01*
X366978Y51981D01*
X367722Y52478D01*
X367784Y52571D01*
X379000D01*
X379585Y52687D01*
X380081Y53019D01*
X381871Y54808D01*
X382371Y54601D01*
Y26484D01*
X382278Y26422D01*
X381781Y25678D01*
X381606Y24800D01*
X381781Y23922D01*
X382278Y23178D01*
X383022Y22681D01*
X383900Y22506D01*
X384778Y22681D01*
X385471Y23143D01*
X385971Y23018D01*
Y20868D01*
X385222Y20719D01*
X384478Y20222D01*
X383980Y19478D01*
X383806Y18600D01*
X383980Y17722D01*
X384478Y16978D01*
X385222Y16480D01*
X386100Y16306D01*
X386978Y16480D01*
X387722Y16978D01*
X388219Y17722D01*
X388394Y18600D01*
X388372Y18709D01*
X388581Y18919D01*
X388913Y19415D01*
X389029Y20000D01*
Y205889D01*
X389529Y206299D01*
X390000Y206206D01*
X390878Y206381D01*
X391622Y206878D01*
X392120Y207622D01*
X392294Y208500D01*
X392120Y209378D01*
X391733Y209956D01*
Y270692D01*
X391783Y270944D01*
Y381450D01*
X391651Y382113D01*
X391276Y382676D01*
X387726Y386226D01*
X387163Y386601D01*
X386500Y386733D01*
X269909D01*
X269757Y387233D01*
X270302Y387598D01*
X270855Y388424D01*
X271049Y389400D01*
X270855Y390375D01*
X270302Y391202D01*
X269476Y391755D01*
X268500Y391949D01*
X152400D01*
X152400Y391949D01*
D02*
G37*
G36*
X62897Y318073D02*
X10124D01*
X9148Y317879D01*
X8321Y317326D01*
X7138Y316142D01*
X6800Y316187D01*
X5768Y316051D01*
X4807Y315653D01*
X3981Y315019D01*
X3347Y314193D01*
X2949Y313232D01*
X2813Y312200D01*
X2949Y311168D01*
X3347Y310207D01*
X3981Y309381D01*
X4807Y308747D01*
X5768Y308349D01*
X6800Y308213D01*
X7832Y308349D01*
X8793Y308747D01*
X9619Y309381D01*
X10253Y310207D01*
X10651Y311168D01*
X10787Y312200D01*
X10742Y312538D01*
X11179Y312975D01*
X62897D01*
X63872Y313169D01*
X64699Y313721D01*
X65252Y314548D01*
X65446Y315524D01*
X65252Y316499D01*
X64699Y317326D01*
X63872Y317879D01*
X62897Y318073D01*
D02*
G37*
G36*
X68200Y312794D02*
X67322Y312619D01*
X67049Y312437D01*
X38600D01*
X37859Y312290D01*
X37230Y311870D01*
X33230Y307870D01*
X32810Y307241D01*
X32663Y306500D01*
Y282951D01*
X32480Y282678D01*
X32306Y281800D01*
X32480Y280922D01*
X32978Y280178D01*
X33722Y279680D01*
X34600Y279506D01*
X35478Y279680D01*
X36222Y280178D01*
X36720Y280922D01*
X36894Y281800D01*
X36720Y282678D01*
X36537Y282951D01*
Y305698D01*
X39402Y308563D01*
X67049D01*
X67322Y308381D01*
X68200Y308206D01*
X69078Y308381D01*
X69822Y308878D01*
X70319Y309622D01*
X70494Y310500D01*
X70319Y311378D01*
X69822Y312122D01*
X69078Y312619D01*
X68200Y312794D01*
D02*
G37*
G36*
X113876Y318073D02*
X112901Y317879D01*
X112074Y317326D01*
X111521Y316499D01*
X111327Y315524D01*
X111521Y314548D01*
X112074Y313721D01*
X130598Y295198D01*
X131424Y294645D01*
X132400Y294451D01*
X151900D01*
X152875Y294645D01*
X153702Y295198D01*
X154255Y296024D01*
X154449Y297000D01*
X154255Y297975D01*
X153702Y298802D01*
X152875Y299355D01*
X151900Y299549D01*
X133456D01*
X115679Y317326D01*
X114852Y317879D01*
X113876Y318073D01*
D02*
G37*
G36*
X6900Y276787D02*
X5868Y276651D01*
X4907Y276253D01*
X4081Y275619D01*
X3447Y274793D01*
X3049Y273832D01*
X2913Y272800D01*
X3049Y271768D01*
X3447Y270807D01*
X4081Y269981D01*
X4907Y269347D01*
X5868Y268949D01*
X6900Y268813D01*
X7932Y268949D01*
X8893Y269347D01*
X9719Y269981D01*
X10353Y270807D01*
X10751Y271768D01*
X10887Y272800D01*
X10751Y273832D01*
X10353Y274793D01*
X9719Y275619D01*
X8893Y276253D01*
X7932Y276651D01*
X6900Y276787D01*
D02*
G37*
G36*
X142700Y270687D02*
X141668Y270551D01*
X140707Y270153D01*
X139881Y269519D01*
X139247Y268693D01*
X138849Y267732D01*
X138713Y266700D01*
X138849Y265668D01*
X139247Y264707D01*
X139881Y263881D01*
X140707Y263247D01*
X141668Y262849D01*
X142700Y262713D01*
X143732Y262849D01*
X144693Y263247D01*
X145519Y263881D01*
X146153Y264707D01*
X146551Y265668D01*
X146687Y266700D01*
X146551Y267732D01*
X146153Y268693D01*
X145519Y269519D01*
X144693Y270153D01*
X143732Y270551D01*
X142700Y270687D01*
D02*
G37*
G36*
X16900Y266787D02*
X15868Y266651D01*
X14907Y266253D01*
X14081Y265619D01*
X13447Y264793D01*
X13049Y263832D01*
X12913Y262800D01*
X13049Y261768D01*
X13262Y261253D01*
X10855Y258845D01*
X10534Y258366D01*
X10422Y257800D01*
Y255525D01*
X9922Y255355D01*
X9719Y255619D01*
X8893Y256253D01*
X7932Y256651D01*
X6900Y256787D01*
X5868Y256651D01*
X4907Y256253D01*
X4081Y255619D01*
X3447Y254793D01*
X3049Y253832D01*
X2913Y252800D01*
X3049Y251768D01*
X3447Y250807D01*
X4081Y249981D01*
X4907Y249347D01*
X5868Y248949D01*
X6900Y248813D01*
X7932Y248949D01*
X8893Y249347D01*
X9719Y249981D01*
X9922Y250245D01*
X10422Y250075D01*
Y245525D01*
X9922Y245355D01*
X9719Y245619D01*
X8893Y246253D01*
X7932Y246651D01*
X6900Y246787D01*
X5868Y246651D01*
X4907Y246253D01*
X4081Y245619D01*
X3447Y244793D01*
X3049Y243832D01*
X2913Y242800D01*
X3049Y241768D01*
X3447Y240807D01*
X4081Y239981D01*
X4907Y239347D01*
X5868Y238949D01*
X6900Y238813D01*
X7932Y238949D01*
X8893Y239347D01*
X9719Y239981D01*
X9922Y240245D01*
X10422Y240075D01*
Y235525D01*
X9922Y235355D01*
X9719Y235619D01*
X8893Y236253D01*
X7932Y236651D01*
X6900Y236787D01*
X5868Y236651D01*
X4907Y236253D01*
X4081Y235619D01*
X3447Y234793D01*
X3049Y233832D01*
X2913Y232800D01*
X3049Y231768D01*
X3447Y230807D01*
X4081Y229981D01*
X4907Y229347D01*
X5671Y229031D01*
Y223162D01*
X5578Y223100D01*
X5081Y222356D01*
X4906Y221478D01*
X5081Y220600D01*
X5578Y219856D01*
X6322Y219358D01*
X7200Y219184D01*
X8078Y219358D01*
X8822Y219856D01*
X9319Y220600D01*
X9494Y221478D01*
X9319Y222356D01*
X8822Y223100D01*
X8729Y223162D01*
Y229279D01*
X8893Y229347D01*
X9719Y229981D01*
X9922Y230245D01*
X10422Y230075D01*
Y225124D01*
X10534Y224559D01*
X10713Y224290D01*
X10668Y224062D01*
X10843Y223184D01*
X11340Y222440D01*
X12084Y221943D01*
X12962Y221768D01*
X13840Y221943D01*
X14584Y222440D01*
X14871Y222868D01*
X15371Y222717D01*
Y220611D01*
X14881Y219878D01*
X14706Y219000D01*
X14881Y218122D01*
X15378Y217378D01*
X16122Y216880D01*
X17000Y216706D01*
X17878Y216880D01*
X18622Y217378D01*
X19119Y218122D01*
X19294Y219000D01*
X19119Y219878D01*
X18622Y220622D01*
X18429Y220751D01*
Y228847D01*
X20853D01*
Y236753D01*
X13378D01*
Y240075D01*
X13878Y240245D01*
X14081Y239981D01*
X14907Y239347D01*
X15868Y238949D01*
X16900Y238813D01*
X17932Y238949D01*
X18893Y239347D01*
X19719Y239981D01*
X20353Y240807D01*
X20751Y241768D01*
X20887Y242800D01*
X20751Y243832D01*
X20353Y244793D01*
X19719Y245619D01*
X18893Y246253D01*
X17932Y246651D01*
X16900Y246787D01*
X15868Y246651D01*
X14907Y246253D01*
X14081Y245619D01*
X13878Y245355D01*
X13378Y245525D01*
Y250075D01*
X13878Y250245D01*
X14081Y249981D01*
X14907Y249347D01*
X15868Y248949D01*
X16900Y248813D01*
X17932Y248949D01*
X18893Y249347D01*
X19719Y249981D01*
X20353Y250807D01*
X20751Y251768D01*
X20887Y252800D01*
X20751Y253832D01*
X20353Y254793D01*
X19719Y255619D01*
X18893Y256253D01*
X17932Y256651D01*
X16900Y256787D01*
X15868Y256651D01*
X14907Y256253D01*
X14081Y255619D01*
X13878Y255355D01*
X13378Y255525D01*
Y257188D01*
X15353Y259162D01*
X15868Y258949D01*
X16900Y258813D01*
X17932Y258949D01*
X18893Y259347D01*
X19719Y259981D01*
X20353Y260807D01*
X20751Y261768D01*
X20887Y262800D01*
X20751Y263832D01*
X20353Y264793D01*
X19719Y265619D01*
X18893Y266253D01*
X17932Y266651D01*
X16900Y266787D01*
D02*
G37*
G36*
X6900D02*
X5868Y266651D01*
X4907Y266253D01*
X4081Y265619D01*
X3447Y264793D01*
X3049Y263832D01*
X2913Y262800D01*
X3049Y261768D01*
X3447Y260807D01*
X4081Y259981D01*
X4907Y259347D01*
X5868Y258949D01*
X6900Y258813D01*
X7932Y258949D01*
X8893Y259347D01*
X9719Y259981D01*
X10353Y260807D01*
X10751Y261768D01*
X10887Y262800D01*
X10751Y263832D01*
X10353Y264793D01*
X9719Y265619D01*
X8893Y266253D01*
X7932Y266651D01*
X6900Y266787D01*
D02*
G37*
G36*
X142700Y260687D02*
X141668Y260551D01*
X140707Y260153D01*
X139881Y259519D01*
X139247Y258693D01*
X138849Y257732D01*
X138713Y256700D01*
X138849Y255668D01*
X139247Y254707D01*
X139881Y253881D01*
X140707Y253247D01*
X141668Y252849D01*
X142700Y252713D01*
X143732Y252849D01*
X144693Y253247D01*
X145519Y253881D01*
X146153Y254707D01*
X146551Y255668D01*
X146687Y256700D01*
X146551Y257732D01*
X146153Y258693D01*
X145519Y259519D01*
X144693Y260153D01*
X143732Y260551D01*
X142700Y260687D01*
D02*
G37*
G36*
Y250687D02*
X141668Y250551D01*
X140707Y250153D01*
X139881Y249519D01*
X139247Y248693D01*
X138849Y247732D01*
X138713Y246700D01*
X138849Y245668D01*
X139247Y244707D01*
X139881Y243881D01*
X140707Y243247D01*
X141668Y242849D01*
X142700Y242713D01*
X143732Y242849D01*
X144693Y243247D01*
X145519Y243881D01*
X146153Y244707D01*
X146551Y245668D01*
X146687Y246700D01*
X146551Y247732D01*
X146153Y248693D01*
X145519Y249519D01*
X144693Y250153D01*
X143732Y250551D01*
X142700Y250687D01*
D02*
G37*
G36*
X146653Y240653D02*
X138747D01*
Y232747D01*
X146653D01*
Y240653D01*
D02*
G37*
G36*
X7100Y210287D02*
X6068Y210151D01*
X5107Y209753D01*
X4281Y209119D01*
X3647Y208293D01*
X3249Y207332D01*
X3113Y206300D01*
X3249Y205268D01*
X3647Y204307D01*
X4281Y203481D01*
X5107Y202847D01*
X6068Y202449D01*
X7100Y202313D01*
X8132Y202449D01*
X9093Y202847D01*
X9919Y203481D01*
X10553Y204307D01*
X10951Y205268D01*
X11087Y206300D01*
X10951Y207332D01*
X10553Y208293D01*
X9919Y209119D01*
X9093Y209753D01*
X8132Y210151D01*
X7100Y210287D01*
D02*
G37*
G36*
X279100Y203729D02*
X273400D01*
X272815Y203613D01*
X272319Y203281D01*
X271987Y202785D01*
X271871Y202200D01*
X271987Y201615D01*
X272319Y201119D01*
X272815Y200787D01*
X273400Y200671D01*
X279100D01*
X279685Y200787D01*
X280181Y201119D01*
X280513Y201615D01*
X280629Y202200D01*
X280513Y202785D01*
X280181Y203281D01*
X279685Y203613D01*
X279100Y203729D01*
D02*
G37*
G36*
X7100Y200287D02*
X6068Y200151D01*
X5107Y199753D01*
X4281Y199119D01*
X3647Y198293D01*
X3249Y197332D01*
X3113Y196300D01*
X3249Y195268D01*
X3647Y194307D01*
X4281Y193481D01*
X5107Y192847D01*
X6068Y192449D01*
X7100Y192313D01*
X8132Y192449D01*
X9093Y192847D01*
X9919Y193481D01*
X10553Y194307D01*
X10951Y195268D01*
X11087Y196300D01*
X10951Y197332D01*
X10553Y198293D01*
X9919Y199119D01*
X9093Y199753D01*
X8132Y200151D01*
X7100Y200287D01*
D02*
G37*
G36*
Y190287D02*
X6068Y190151D01*
X5107Y189753D01*
X4281Y189119D01*
X3647Y188293D01*
X3249Y187332D01*
X3113Y186300D01*
X3249Y185268D01*
X3647Y184307D01*
X4281Y183481D01*
X5107Y182847D01*
X6068Y182449D01*
X7100Y182313D01*
X8132Y182449D01*
X9093Y182847D01*
X9919Y183481D01*
X10553Y184307D01*
X10951Y185268D01*
X11087Y186300D01*
X10951Y187332D01*
X10553Y188293D01*
X9919Y189119D01*
X9093Y189753D01*
X8132Y190151D01*
X7100Y190287D01*
D02*
G37*
G36*
X11053Y180253D02*
X3147D01*
Y172347D01*
X11053D01*
Y180253D01*
D02*
G37*
G36*
X11353Y160753D02*
X3447D01*
Y152847D01*
X11353D01*
Y160753D01*
D02*
G37*
G36*
X7400Y150787D02*
X6368Y150651D01*
X5407Y150253D01*
X4581Y149619D01*
X3947Y148793D01*
X3549Y147832D01*
X3413Y146800D01*
X3549Y145768D01*
X3947Y144807D01*
X4581Y143981D01*
X5407Y143347D01*
X6368Y142949D01*
X7400Y142813D01*
X8432Y142949D01*
X9393Y143347D01*
X10219Y143981D01*
X10853Y144807D01*
X11251Y145768D01*
X11387Y146800D01*
X11251Y147832D01*
X10853Y148793D01*
X10219Y149619D01*
X9393Y150253D01*
X8432Y150651D01*
X7400Y150787D01*
D02*
G37*
G36*
X194200Y137094D02*
X193322Y136919D01*
X192578Y136422D01*
X192080Y135678D01*
X191906Y134800D01*
X191928Y134691D01*
X190493Y133256D01*
X190300Y133294D01*
X189422Y133119D01*
X188678Y132622D01*
X188180Y131878D01*
X188006Y131000D01*
X188180Y130122D01*
X188678Y129378D01*
X189422Y128881D01*
X190300Y128706D01*
X191178Y128881D01*
X191922Y129378D01*
X192420Y130122D01*
X192594Y131000D01*
X192589Y131026D01*
X194091Y132528D01*
X194200Y132506D01*
X195078Y132680D01*
X195822Y133178D01*
X196319Y133922D01*
X196494Y134800D01*
X196319Y135678D01*
X195822Y136422D01*
X195078Y136919D01*
X194200Y137094D01*
D02*
G37*
G36*
X7400Y140787D02*
X6368Y140651D01*
X5407Y140253D01*
X4581Y139619D01*
X3947Y138793D01*
X3549Y137832D01*
X3413Y136800D01*
X3549Y135768D01*
X3947Y134807D01*
X4581Y133981D01*
X5407Y133347D01*
X6368Y132949D01*
X7400Y132813D01*
X8432Y132949D01*
X9393Y133347D01*
X10219Y133981D01*
X10853Y134807D01*
X11251Y135768D01*
X11387Y136800D01*
X11251Y137832D01*
X10853Y138793D01*
X10219Y139619D01*
X9393Y140253D01*
X8432Y140651D01*
X7400Y140787D01*
D02*
G37*
G36*
Y130787D02*
X6368Y130651D01*
X5407Y130253D01*
X4581Y129619D01*
X3947Y128793D01*
X3549Y127832D01*
X3413Y126800D01*
X3549Y125768D01*
X3947Y124807D01*
X4581Y123981D01*
X5407Y123347D01*
X6368Y122949D01*
X7400Y122813D01*
X8432Y122949D01*
X9393Y123347D01*
X10219Y123981D01*
X10853Y124807D01*
X11251Y125768D01*
X11387Y126800D01*
X11251Y127832D01*
X10853Y128793D01*
X10219Y129619D01*
X9393Y130253D01*
X8432Y130651D01*
X7400Y130787D01*
D02*
G37*
G36*
X63200Y118794D02*
X62322Y118620D01*
X61578Y118122D01*
X61448Y117927D01*
X51652D01*
X51522Y118122D01*
X50778Y118620D01*
X49900Y118794D01*
X49022Y118620D01*
X48278Y118122D01*
X47780Y117378D01*
X47606Y116500D01*
X47780Y115622D01*
X48278Y114878D01*
X49022Y114381D01*
X49900Y114206D01*
X50778Y114381D01*
X51522Y114878D01*
X51652Y115073D01*
X61448D01*
X61578Y114878D01*
X62322Y114381D01*
X63200Y114206D01*
X64078Y114381D01*
X64822Y114878D01*
X65319Y115622D01*
X65494Y116500D01*
X65319Y117378D01*
X64822Y118122D01*
X64078Y118620D01*
X63200Y118794D01*
D02*
G37*
G36*
X319000Y125687D02*
X317968Y125551D01*
X317007Y125153D01*
X316181Y124519D01*
X315547Y123693D01*
X315149Y122732D01*
X315013Y121700D01*
X315149Y120668D01*
X315547Y119707D01*
X316181Y118881D01*
X317007Y118247D01*
X317968Y117849D01*
X319000Y117713D01*
X320032Y117849D01*
X320993Y118247D01*
X321819Y118881D01*
X322453Y119707D01*
X322851Y120668D01*
X322987Y121700D01*
X322851Y122732D01*
X322453Y123693D01*
X321819Y124519D01*
X320993Y125153D01*
X320032Y125551D01*
X319000Y125687D01*
D02*
G37*
G36*
X118700Y129694D02*
X117822Y129519D01*
X117078Y129022D01*
X116580Y128278D01*
X116406Y127400D01*
X116580Y126522D01*
X117078Y125778D01*
X117273Y125648D01*
Y120753D01*
X114747D01*
Y112847D01*
X122653D01*
Y120753D01*
X120127D01*
Y125648D01*
X120322Y125778D01*
X120819Y126522D01*
X120994Y127400D01*
X120819Y128278D01*
X120322Y129022D01*
X119578Y129519D01*
X118700Y129694D01*
D02*
G37*
G36*
X108600Y127094D02*
X107722Y126919D01*
X106978Y126422D01*
X106481Y125678D01*
X106306Y124800D01*
X106481Y123922D01*
X106978Y123178D01*
X107273Y122981D01*
Y120487D01*
X106707Y120253D01*
X105881Y119619D01*
X105247Y118793D01*
X104849Y117832D01*
X104713Y116800D01*
X104849Y115768D01*
X105247Y114807D01*
X105881Y113981D01*
X106707Y113347D01*
X107668Y112949D01*
X108700Y112813D01*
X109732Y112949D01*
X110693Y113347D01*
X111519Y113981D01*
X112153Y114807D01*
X112551Y115768D01*
X112687Y116800D01*
X112551Y117832D01*
X112153Y118793D01*
X111519Y119619D01*
X110693Y120253D01*
X110127Y120487D01*
Y123115D01*
X110222Y123178D01*
X110720Y123922D01*
X110894Y124800D01*
X110720Y125678D01*
X110222Y126422D01*
X109478Y126919D01*
X108600Y127094D01*
D02*
G37*
G36*
X98700Y120787D02*
X97668Y120651D01*
X96707Y120253D01*
X95881Y119619D01*
X95247Y118793D01*
X94849Y117832D01*
X94713Y116800D01*
X94849Y115768D01*
X95247Y114807D01*
X95881Y113981D01*
X96707Y113347D01*
X97668Y112949D01*
X98700Y112813D01*
X99732Y112949D01*
X100693Y113347D01*
X101519Y113981D01*
X102153Y114807D01*
X102551Y115768D01*
X102687Y116800D01*
X102551Y117832D01*
X102153Y118793D01*
X101519Y119619D01*
X100693Y120253D01*
X99732Y120651D01*
X98700Y120787D01*
D02*
G37*
G36*
X88700D02*
X87668Y120651D01*
X86707Y120253D01*
X85881Y119619D01*
X85247Y118793D01*
X84849Y117832D01*
X84713Y116800D01*
X84849Y115768D01*
X85247Y114807D01*
X85881Y113981D01*
X86707Y113347D01*
X87668Y112949D01*
X88700Y112813D01*
X89732Y112949D01*
X90693Y113347D01*
X91519Y113981D01*
X92153Y114807D01*
X92551Y115768D01*
X92687Y116800D01*
X92551Y117832D01*
X92153Y118793D01*
X91519Y119619D01*
X90693Y120253D01*
X89732Y120651D01*
X88700Y120787D01*
D02*
G37*
G36*
X7400D02*
X6368Y120651D01*
X5407Y120253D01*
X4581Y119619D01*
X3947Y118793D01*
X3549Y117832D01*
X3413Y116800D01*
X3549Y115768D01*
X3947Y114807D01*
X4581Y113981D01*
X5407Y113347D01*
X6368Y112949D01*
X7400Y112813D01*
X8432Y112949D01*
X9393Y113347D01*
X10219Y113981D01*
X10853Y114807D01*
X11251Y115768D01*
X11387Y116800D01*
X11251Y117832D01*
X10853Y118793D01*
X10219Y119619D01*
X9393Y120253D01*
X8432Y120651D01*
X7400Y120787D01*
D02*
G37*
G36*
X282300Y129494D02*
X281422Y129320D01*
X280678Y128822D01*
X280181Y128078D01*
X280006Y127200D01*
X280181Y126322D01*
X280678Y125578D01*
X280873Y125448D01*
Y113652D01*
X280678Y113522D01*
X280181Y112778D01*
X280006Y111900D01*
X280181Y111022D01*
X280678Y110278D01*
X281422Y109781D01*
X282300Y109606D01*
X283178Y109781D01*
X283922Y110278D01*
X284419Y111022D01*
X284594Y111900D01*
X284419Y112778D01*
X283922Y113522D01*
X283727Y113652D01*
Y125448D01*
X283922Y125578D01*
X284419Y126322D01*
X284594Y127200D01*
X284419Y128078D01*
X283922Y128822D01*
X283178Y129320D01*
X282300Y129494D01*
D02*
G37*
G36*
X322953Y115653D02*
X315047D01*
Y107747D01*
X322953D01*
Y115653D01*
D02*
G37*
G36*
X7400Y110787D02*
X6368Y110651D01*
X5407Y110253D01*
X4581Y109619D01*
X3947Y108793D01*
X3549Y107832D01*
X3413Y106800D01*
X3549Y105768D01*
X3947Y104807D01*
X4581Y103981D01*
X5407Y103347D01*
X6368Y102949D01*
X7400Y102813D01*
X8432Y102949D01*
X9393Y103347D01*
X10219Y103981D01*
X10853Y104807D01*
X11251Y105768D01*
X11387Y106800D01*
X11251Y107832D01*
X10853Y108793D01*
X10219Y109619D01*
X9393Y110253D01*
X8432Y110651D01*
X7400Y110787D01*
D02*
G37*
G36*
X183500Y64985D02*
X182417Y64843D01*
X181407Y64425D01*
X180541Y63759D01*
X179875Y62893D01*
X179600Y62227D01*
X167986D01*
X167722Y62622D01*
X166978Y63119D01*
X166100Y63294D01*
X165222Y63119D01*
X164478Y62622D01*
X163980Y61878D01*
X163806Y61000D01*
X163980Y60122D01*
X164478Y59378D01*
X164893Y59101D01*
Y58499D01*
X164478Y58222D01*
X163980Y57478D01*
X163806Y56600D01*
X163980Y55722D01*
X164478Y54978D01*
Y54689D01*
X164378Y54622D01*
X163881Y53878D01*
X163706Y53000D01*
X163881Y52122D01*
X164378Y51378D01*
X165122Y50880D01*
X166000Y50706D01*
X166878Y50880D01*
X167622Y51378D01*
X167752Y51573D01*
X173219D01*
X173349Y51378D01*
X174093Y50880D01*
X174971Y50706D01*
X175849Y50880D01*
X176593Y51378D01*
X177091Y52122D01*
X177265Y53000D01*
X177091Y53878D01*
X176593Y54622D01*
X176594Y54625D01*
X176741Y55099D01*
X177136Y55145D01*
X179733Y52548D01*
X179457Y51883D01*
X179315Y50800D01*
X179457Y49717D01*
X179875Y48707D01*
X180541Y47840D01*
X181407Y47175D01*
X182417Y46757D01*
X183500Y46615D01*
X184583Y46757D01*
X185593Y47175D01*
X186460Y47840D01*
X187125Y48707D01*
X187543Y49717D01*
X187685Y50800D01*
X187543Y51883D01*
X187125Y52893D01*
X186460Y53759D01*
X185593Y54425D01*
X184583Y54843D01*
X183500Y54985D01*
X182417Y54843D01*
X181752Y54567D01*
X178709Y57609D01*
X178246Y57919D01*
X177700Y58027D01*
X177700Y58027D01*
X167852D01*
X167722Y58222D01*
X167307Y58499D01*
Y59101D01*
X167714Y59373D01*
X179600D01*
X179875Y58707D01*
X180541Y57841D01*
X181407Y57175D01*
X182417Y56757D01*
X183500Y56615D01*
X184583Y56757D01*
X185593Y57175D01*
X186460Y57841D01*
X187125Y58707D01*
X187543Y59717D01*
X187685Y60800D01*
X187543Y61883D01*
X187125Y62893D01*
X186460Y63759D01*
X185593Y64425D01*
X184583Y64843D01*
X183500Y64985D01*
D02*
G37*
G36*
X331474Y83120D02*
X330596Y82946D01*
X329852Y82448D01*
X329355Y81704D01*
X329180Y80826D01*
X329355Y79948D01*
X329435Y79828D01*
Y67719D01*
X326264Y64548D01*
X326122Y64519D01*
X325378Y64022D01*
X324881Y63278D01*
X324706Y62400D01*
X324881Y61522D01*
X325378Y60778D01*
X326122Y60281D01*
X327000Y60106D01*
X327878Y60281D01*
X328622Y60778D01*
X329119Y61522D01*
X329148Y61664D01*
X332916Y65432D01*
X333358Y66094D01*
X333513Y66874D01*
Y79828D01*
X333593Y79948D01*
X333768Y80826D01*
X333593Y81704D01*
X333096Y82448D01*
X332352Y82946D01*
X331474Y83120D01*
D02*
G37*
G36*
X153500Y64985D02*
X152417Y64843D01*
X151407Y64425D01*
X150540Y63759D01*
X149875Y62893D01*
X149457Y61883D01*
X149315Y60800D01*
X149457Y59717D01*
X149875Y58707D01*
X150540Y57841D01*
X151407Y57175D01*
X152417Y56757D01*
X153500Y56615D01*
X154583Y56757D01*
X155593Y57175D01*
X156459Y57841D01*
X157125Y58707D01*
X157543Y59717D01*
X157685Y60800D01*
X157543Y61883D01*
X157125Y62893D01*
X156459Y63759D01*
X155593Y64425D01*
X154583Y64843D01*
X153500Y64985D01*
D02*
G37*
G36*
X174600Y49994D02*
X173722Y49819D01*
X172978Y49322D01*
X172848Y49127D01*
X167752D01*
X167622Y49322D01*
X166878Y49819D01*
X166000Y49994D01*
X165122Y49819D01*
X164378Y49322D01*
X163881Y48578D01*
X163706Y47700D01*
X163881Y46822D01*
X164378Y46078D01*
X165122Y45581D01*
X166000Y45406D01*
X166878Y45581D01*
X167622Y46078D01*
X167752Y46273D01*
X172848D01*
X172978Y46078D01*
X173722Y45581D01*
X174600Y45406D01*
X175478Y45581D01*
X176222Y46078D01*
X176719Y46822D01*
X176894Y47700D01*
X176719Y48578D01*
X176222Y49322D01*
X175478Y49819D01*
X174600Y49994D01*
D02*
G37*
G36*
X153500Y54985D02*
X152417Y54843D01*
X151407Y54425D01*
X150540Y53759D01*
X149875Y52893D01*
X149457Y51883D01*
X149315Y50800D01*
X149457Y49717D01*
X149875Y48707D01*
X150540Y47840D01*
X151407Y47175D01*
X152417Y46757D01*
X153500Y46615D01*
X154583Y46757D01*
X155593Y47175D01*
X156459Y47840D01*
X157125Y48707D01*
X157543Y49717D01*
X157685Y50800D01*
X157543Y51883D01*
X157125Y52893D01*
X156459Y53759D01*
X155593Y54425D01*
X154583Y54843D01*
X153500Y54985D01*
D02*
G37*
G36*
Y36685D02*
X152417Y36543D01*
X151407Y36125D01*
X150540Y35460D01*
X149875Y34593D01*
X149457Y33583D01*
X149315Y32500D01*
X149457Y31417D01*
X149875Y30407D01*
X150540Y29541D01*
X151407Y28875D01*
X152417Y28457D01*
X153500Y28315D01*
X154583Y28457D01*
X155593Y28875D01*
X156459Y29541D01*
X157125Y30407D01*
X157543Y31417D01*
X157685Y32500D01*
X157543Y33583D01*
X157125Y34593D01*
X156459Y35460D01*
X155593Y36125D01*
X154583Y36543D01*
X153500Y36685D01*
D02*
G37*
G36*
Y26685D02*
X152417Y26543D01*
X151407Y26125D01*
X150540Y25460D01*
X149875Y24593D01*
X149457Y23583D01*
X149315Y22500D01*
X149457Y21417D01*
X149875Y20407D01*
X150540Y19541D01*
X151407Y18875D01*
X152417Y18457D01*
X153500Y18315D01*
X154583Y18457D01*
X155593Y18875D01*
X156459Y19541D01*
X157125Y20407D01*
X157543Y21417D01*
X157685Y22500D01*
X157543Y23583D01*
X157125Y24593D01*
X156459Y25460D01*
X155593Y26125D01*
X154583Y26543D01*
X153500Y26685D01*
D02*
G37*
G36*
X207000Y20587D02*
X205968Y20451D01*
X205007Y20053D01*
X204181Y19419D01*
X203547Y18593D01*
X203149Y17632D01*
X203013Y16600D01*
X203149Y15568D01*
X203547Y14607D01*
X204181Y13781D01*
X205007Y13147D01*
X205968Y12749D01*
X207000Y12613D01*
X208032Y12749D01*
X208993Y13147D01*
X209819Y13781D01*
X210453Y14607D01*
X210851Y15568D01*
X210987Y16600D01*
X210851Y17632D01*
X210453Y18593D01*
X209819Y19419D01*
X208993Y20053D01*
X208032Y20451D01*
X207000Y20587D01*
D02*
G37*
G36*
X153500Y16685D02*
X152417Y16543D01*
X151407Y16125D01*
X150540Y15460D01*
X149875Y14593D01*
X149457Y13583D01*
X149315Y12500D01*
X149457Y11417D01*
X149875Y10407D01*
X150540Y9540D01*
X151407Y8875D01*
X152417Y8457D01*
X153500Y8315D01*
X154583Y8457D01*
X155593Y8875D01*
X156459Y9540D01*
X157125Y10407D01*
X157543Y11417D01*
X157685Y12500D01*
X157543Y13583D01*
X157125Y14593D01*
X156459Y15460D01*
X155593Y16125D01*
X154583Y16543D01*
X153500Y16685D01*
D02*
G37*
G36*
X210953Y10553D02*
X203047D01*
Y2647D01*
X210953D01*
Y10553D01*
D02*
G37*
%LPD*%
G36*
X388114Y380935D02*
X388067Y380763D01*
X387511Y380628D01*
X387370Y380770D01*
X386741Y381190D01*
X386000Y381337D01*
X262651D01*
X262378Y381520D01*
X261500Y381694D01*
X260622Y381520D01*
X259878Y381022D01*
X259381Y380278D01*
X259206Y379400D01*
X259381Y378522D01*
X259592Y378205D01*
X259325Y377705D01*
X257733D01*
X257308Y377990D01*
X256430Y378164D01*
X255552Y377990D01*
X254808Y377492D01*
X254310Y376748D01*
X254136Y375870D01*
X254310Y374992D01*
X254808Y374248D01*
X255552Y373751D01*
X256430Y373576D01*
X257308Y373751D01*
X257733Y374035D01*
X289653D01*
X289702Y373535D01*
X289122Y373419D01*
X288392Y372931D01*
X274200D01*
X273576Y372807D01*
X273046Y372453D01*
X258574Y357981D01*
X156258D01*
X155528Y358470D01*
X154650Y358644D01*
X153772Y358470D01*
X153028Y357972D01*
X152531Y357228D01*
X152356Y356350D01*
X152531Y355472D01*
X153028Y354728D01*
X153772Y354230D01*
X154650Y354056D01*
X155528Y354230D01*
X156258Y354719D01*
X252469D01*
X252522Y354220D01*
X251778Y353722D01*
X251280Y352978D01*
X251106Y352100D01*
X251260Y351326D01*
X250990Y350826D01*
X173484D01*
X172753Y351314D01*
X171875Y351489D01*
X170997Y351314D01*
X170267Y350826D01*
X129795D01*
X129170Y350702D01*
X128641Y350348D01*
X124678Y346385D01*
X123817Y346214D01*
X123072Y345717D01*
X123033Y345658D01*
X122533Y345810D01*
Y380482D01*
X125218Y383167D01*
X262034D01*
X262462Y382880D01*
X263340Y382706D01*
X264218Y382880D01*
X264795Y383267D01*
X385782D01*
X388114Y380935D01*
D02*
G37*
G36*
X289122Y369180D02*
X289984Y369009D01*
X292189Y366804D01*
X292024Y366262D01*
X292005Y366258D01*
X291281Y366981D01*
X290785Y367313D01*
X290200Y367429D01*
X276000D01*
X275415Y367313D01*
X274919Y366981D01*
X261566Y353629D01*
X255084D01*
X255022Y353722D01*
X254278Y354220D01*
X254331Y354719D01*
X259250D01*
X259874Y354843D01*
X260403Y355196D01*
X274876Y369669D01*
X288392D01*
X289122Y369180D01*
D02*
G37*
G36*
X323571Y362467D02*
Y355134D01*
X322780Y354343D01*
X311098D01*
X311035Y354435D01*
X310291Y354933D01*
X309413Y355107D01*
X308536Y354933D01*
X307791Y354435D01*
X307294Y353691D01*
X307119Y352813D01*
X307294Y351936D01*
X307762Y351236D01*
X307819Y351071D01*
X307819Y350673D01*
X307644Y350556D01*
X307162Y349834D01*
X306993Y348984D01*
X307162Y348132D01*
X307644Y347411D01*
X308146Y347076D01*
Y346502D01*
X307644Y346166D01*
X307162Y345445D01*
X306993Y344594D01*
X307162Y343743D01*
X307644Y343021D01*
X308366Y342539D01*
X309216Y342370D01*
X310068Y342539D01*
X310789Y343021D01*
X311124Y343523D01*
X311698D01*
X312034Y343021D01*
X312755Y342539D01*
X313606Y342370D01*
X314457Y342539D01*
X315179Y343021D01*
X315661Y343743D01*
X315830Y344594D01*
X315661Y345445D01*
X315179Y346166D01*
X314677Y346502D01*
Y347076D01*
X315179Y347411D01*
X315661Y348132D01*
X315830Y348984D01*
X315661Y349834D01*
X315179Y350556D01*
X314838Y350784D01*
X314989Y351284D01*
X317617D01*
X317769Y350784D01*
X317427Y350556D01*
X316945Y349834D01*
X316776Y348984D01*
X316945Y348132D01*
X317427Y347411D01*
X317930Y347076D01*
Y346502D01*
X317427Y346166D01*
X316945Y345445D01*
X316776Y344594D01*
X316945Y343743D01*
X317427Y343021D01*
X318149Y342539D01*
X319000Y342370D01*
X319851Y342539D01*
X320572Y343021D01*
X320908Y343523D01*
X321482D01*
X321817Y343021D01*
X322539Y342539D01*
X323390Y342370D01*
X324241Y342539D01*
X324962Y343021D01*
X325444Y343743D01*
X325614Y344594D01*
X325444Y345445D01*
X324962Y346166D01*
X324460Y346502D01*
Y347076D01*
X324962Y347411D01*
X325444Y348132D01*
X325614Y348984D01*
X325444Y349834D01*
X324962Y350556D01*
X324621Y350784D01*
X324773Y351284D01*
X361053D01*
X361671Y350666D01*
Y281900D01*
X361787Y281315D01*
X362119Y280819D01*
X369019Y273919D01*
X369451Y273629D01*
X369449Y273383D01*
X369368Y273129D01*
X367634D01*
X356581Y284181D01*
X356085Y284513D01*
X355500Y284629D01*
X321710D01*
X321558Y285129D01*
X321745Y285255D01*
X326207Y289716D01*
X326527Y290196D01*
X326640Y290761D01*
Y304656D01*
X326822Y304778D01*
X327320Y305522D01*
X327494Y306400D01*
X327320Y307278D01*
X326822Y308022D01*
X326078Y308520D01*
X325200Y308694D01*
X324322Y308520D01*
X323578Y308022D01*
X323152Y307385D01*
X322652Y307490D01*
Y329872D01*
X322847Y330002D01*
X323344Y330747D01*
X323518Y331624D01*
X323422Y332109D01*
X323790Y332666D01*
X324241Y332756D01*
X324962Y333238D01*
X325444Y333959D01*
X325614Y334810D01*
X325444Y335661D01*
X324962Y336383D01*
X324460Y336718D01*
Y337292D01*
X324962Y337628D01*
X325444Y338349D01*
X325614Y339200D01*
X325444Y340051D01*
X324962Y340773D01*
X324241Y341255D01*
X323390Y341424D01*
X322539Y341255D01*
X321817Y340773D01*
X321482Y340270D01*
X320908D01*
X320572Y340773D01*
X319851Y341255D01*
X319000Y341424D01*
X318149Y341255D01*
X317427Y340773D01*
X316945Y340051D01*
X316776Y339200D01*
X316945Y338349D01*
X317427Y337628D01*
X317930Y337292D01*
Y336718D01*
X317427Y336383D01*
X316945Y335661D01*
X316776Y334810D01*
X316945Y333959D01*
X317427Y333238D01*
X318149Y332756D01*
X318652Y332656D01*
X319026Y332126D01*
X319027Y332110D01*
X318930Y331624D01*
X319105Y330747D01*
X319602Y330002D01*
X319797Y329872D01*
Y294877D01*
X319602Y294747D01*
X319105Y294002D01*
X318930Y293124D01*
X319105Y292247D01*
X319602Y291502D01*
X320346Y291005D01*
X321224Y290830D01*
X322102Y291005D01*
X322847Y291502D01*
X323183Y292006D01*
X323683Y291854D01*
Y291374D01*
X320088Y287778D01*
X310587D01*
X310351Y288219D01*
X310420Y288322D01*
X310594Y289200D01*
X310420Y290078D01*
X309929Y290811D01*
Y294999D01*
X310316Y295316D01*
X310500Y295279D01*
X311378Y295454D01*
X312122Y295951D01*
X312619Y296695D01*
X312794Y297573D01*
X312619Y298451D01*
X312122Y299195D01*
X311927Y299325D01*
Y328109D01*
X313121Y329302D01*
X313350Y329256D01*
X314228Y329431D01*
X314973Y329928D01*
X315470Y330673D01*
X315645Y331550D01*
X315470Y332428D01*
X315122Y332950D01*
X315179Y333238D01*
X315661Y333959D01*
X315830Y334810D01*
X315661Y335661D01*
X315179Y336383D01*
X314677Y336718D01*
Y337292D01*
X315179Y337628D01*
X315661Y338349D01*
X315830Y339200D01*
X315661Y340051D01*
X315179Y340773D01*
X314457Y341255D01*
X313606Y341424D01*
X312755Y341255D01*
X312034Y340773D01*
X311698Y340270D01*
X311124D01*
X310789Y340773D01*
X310068Y341255D01*
X309216Y341424D01*
X308366Y341255D01*
X307644Y340773D01*
X307162Y340051D01*
X306993Y339200D01*
X307162Y338349D01*
X307644Y337628D01*
X308146Y337292D01*
Y336718D01*
X307644Y336383D01*
X307162Y335661D01*
X306993Y334810D01*
X307162Y333959D01*
X307644Y333238D01*
X308366Y332756D01*
X309216Y332586D01*
X310068Y332756D01*
X310789Y333238D01*
X311124Y333740D01*
X311698D01*
X311970Y333334D01*
X311728Y333173D01*
X311231Y332428D01*
X311056Y331550D01*
X311102Y331321D01*
X309491Y329709D01*
X309181Y329246D01*
X309073Y328700D01*
X309073Y328700D01*
Y299325D01*
X308878Y299195D01*
X308632Y298827D01*
X308134Y298778D01*
X305229Y301683D01*
Y314967D01*
X306481Y316219D01*
X306813Y316715D01*
X306929Y317300D01*
Y321316D01*
X307022Y321378D01*
X307520Y322122D01*
X307694Y323000D01*
X307520Y323878D01*
X307022Y324622D01*
X306278Y325119D01*
X305400Y325294D01*
X304522Y325119D01*
X303778Y324622D01*
X303280Y323878D01*
X303106Y323000D01*
X303280Y322122D01*
X303778Y321378D01*
X303871Y321316D01*
Y317934D01*
X302619Y316681D01*
X302287Y316185D01*
X302171Y315600D01*
Y301050D01*
X302287Y300465D01*
X302619Y299968D01*
X304636Y297951D01*
X304490Y297473D01*
X304222Y297420D01*
X303478Y296922D01*
X303382Y296778D01*
X301586D01*
X299878Y298486D01*
Y323588D01*
X300220Y323771D01*
X300378Y323811D01*
X301200Y323648D01*
X302078Y323822D01*
X302822Y324320D01*
X303320Y325064D01*
X303491Y325925D01*
X303854Y326288D01*
X304207Y326817D01*
X304331Y327442D01*
Y354334D01*
X309868Y359871D01*
X310700Y359706D01*
X311578Y359880D01*
X312322Y360378D01*
X312820Y361122D01*
X312994Y362000D01*
X312898Y362484D01*
X313215Y362871D01*
X323166D01*
X323571Y362467D01*
D02*
G37*
G36*
X289941Y359869D02*
X289806Y359191D01*
X289981Y358313D01*
X290478Y357568D01*
X290571Y357506D01*
Y290984D01*
X290478Y290922D01*
X289981Y290178D01*
X289806Y289300D01*
X289981Y288422D01*
X290116Y288219D01*
X289880Y287778D01*
X287812D01*
X284978Y290612D01*
Y292934D01*
X285493Y293147D01*
X286319Y293781D01*
X286953Y294607D01*
X287351Y295568D01*
X287487Y296600D01*
X287351Y297632D01*
X286953Y298593D01*
X286319Y299419D01*
X285493Y300053D01*
X284730Y300369D01*
X284545Y300645D01*
X282445Y302745D01*
X281966Y303066D01*
X281400Y303178D01*
X270600D01*
X270034Y303066D01*
X269555Y302745D01*
X267355Y300545D01*
X267034Y300066D01*
X266922Y299500D01*
Y299412D01*
X266448Y299251D01*
X266319Y299419D01*
X265493Y300053D01*
X264532Y300451D01*
X263500Y300587D01*
X262468Y300451D01*
X261507Y300053D01*
X260681Y299419D01*
X260047Y298593D01*
X259649Y297632D01*
X259513Y296600D01*
X259649Y295568D01*
X260047Y294607D01*
X260681Y293781D01*
X260719Y293752D01*
X260558Y293278D01*
X256442D01*
X256281Y293752D01*
X256319Y293781D01*
X256953Y294607D01*
X257351Y295568D01*
X257487Y296600D01*
X257351Y297632D01*
X256953Y298593D01*
X256319Y299419D01*
X255493Y300053D01*
X254532Y300451D01*
X253500Y300587D01*
X252468Y300451D01*
X251507Y300053D01*
X250681Y299419D01*
X250047Y298593D01*
X249649Y297632D01*
X249513Y296600D01*
X249649Y295568D01*
X249883Y295002D01*
X247209Y292327D01*
X244821D01*
X244721Y292827D01*
X245493Y293147D01*
X246319Y293781D01*
X246953Y294607D01*
X247351Y295568D01*
X247487Y296600D01*
X247351Y297632D01*
X246953Y298593D01*
X246319Y299419D01*
X245493Y300053D01*
X244532Y300451D01*
X243500Y300587D01*
X242468Y300451D01*
X241507Y300053D01*
X240681Y299419D01*
X240047Y298593D01*
X239649Y297632D01*
X239513Y296600D01*
X239649Y295568D01*
X240047Y294607D01*
X240681Y293781D01*
X241507Y293147D01*
X242279Y292827D01*
X242179Y292327D01*
X234821D01*
X234721Y292827D01*
X235493Y293147D01*
X236319Y293781D01*
X236953Y294607D01*
X237351Y295568D01*
X237487Y296600D01*
X237351Y297632D01*
X236953Y298593D01*
X236319Y299419D01*
X235493Y300053D01*
X234532Y300451D01*
X233500Y300587D01*
X232468Y300451D01*
X231507Y300053D01*
X230681Y299419D01*
X230047Y298593D01*
X229649Y297632D01*
X229513Y296600D01*
X229649Y295568D01*
X230047Y294607D01*
X230681Y293781D01*
X231507Y293147D01*
X232279Y292827D01*
X232179Y292327D01*
X227820D01*
X227453Y292647D01*
X227453Y292827D01*
Y300553D01*
X219547D01*
Y292827D01*
X219547Y292647D01*
X219180Y292327D01*
X217791D01*
X217527Y292591D01*
Y293448D01*
X217722Y293578D01*
X218219Y294322D01*
X218394Y295200D01*
X218219Y296078D01*
X217722Y296822D01*
X216978Y297320D01*
X216100Y297494D01*
X215222Y297320D01*
X214478Y296822D01*
X213981Y296078D01*
X213806Y295200D01*
X213981Y294322D01*
X214478Y293578D01*
X214673Y293448D01*
Y292000D01*
X214673Y292000D01*
X214781Y291454D01*
X214965Y291178D01*
X214726Y290678D01*
X194512D01*
X190692Y294499D01*
Y305482D01*
X190835Y305578D01*
X191333Y306322D01*
X191357Y306442D01*
X191911Y306664D01*
X192166Y306498D01*
X192280Y305922D01*
X192778Y305178D01*
X193522Y304680D01*
X194400Y304506D01*
X195278Y304680D01*
X196022Y305178D01*
X196519Y305922D01*
X196694Y306800D01*
X196519Y307678D01*
X196022Y308422D01*
X195278Y308920D01*
X194416Y309091D01*
X187654Y315854D01*
X187124Y316207D01*
X186500Y316331D01*
X169076D01*
X167631Y317776D01*
Y342644D01*
X171891Y346904D01*
X172753Y347075D01*
X173484Y347563D01*
X252255D01*
X252297Y347452D01*
X252338Y347063D01*
X251678Y346622D01*
X251181Y345878D01*
X251006Y345000D01*
X251028Y344891D01*
X248170Y342033D01*
X173181D01*
X173119Y342125D01*
X172375Y342623D01*
X171497Y342797D01*
X170619Y342623D01*
X169875Y342125D01*
X169377Y341381D01*
X169203Y340503D01*
X169377Y339625D01*
X169794Y339002D01*
X169780Y338391D01*
X169728Y338356D01*
X169246Y337634D01*
X169076Y336784D01*
X169246Y335932D01*
X169728Y335211D01*
X170229Y334876D01*
Y334302D01*
X169728Y333966D01*
X169246Y333245D01*
X169076Y332394D01*
X169246Y331543D01*
X169728Y330821D01*
X170449Y330339D01*
X171300Y330170D01*
X172151Y330339D01*
X172872Y330821D01*
X173208Y331323D01*
X173782D01*
X174117Y330821D01*
X174839Y330339D01*
X175690Y330170D01*
X176541Y330339D01*
X177262Y330821D01*
X177744Y331543D01*
X177914Y332394D01*
X177744Y333245D01*
X177262Y333966D01*
X176760Y334302D01*
Y334876D01*
X177262Y335211D01*
X177744Y335932D01*
X177914Y336784D01*
X177744Y337634D01*
X177262Y338356D01*
X177086Y338474D01*
X177238Y338974D01*
X179536D01*
X179687Y338474D01*
X179511Y338356D01*
X179029Y337634D01*
X178860Y336784D01*
X179029Y335932D01*
X179511Y335211D01*
X180013Y334876D01*
Y334302D01*
X179511Y333966D01*
X179029Y333245D01*
X178860Y332394D01*
X179029Y331543D01*
X179511Y330821D01*
X180232Y330339D01*
X181084Y330170D01*
X181934Y330339D01*
X182656Y330821D01*
X182991Y331323D01*
X183565D01*
X183901Y330821D01*
X184622Y330339D01*
X185473Y330170D01*
X186324Y330339D01*
X187046Y330821D01*
X187528Y331543D01*
X187697Y332394D01*
X187528Y333245D01*
X187046Y333966D01*
X186544Y334302D01*
Y334876D01*
X187046Y335211D01*
X187528Y335932D01*
X187697Y336784D01*
X187528Y337634D01*
X187046Y338356D01*
X186869Y338474D01*
X187021Y338974D01*
X248803D01*
X249388Y339090D01*
X249885Y339422D01*
X253191Y342728D01*
X253300Y342706D01*
X254178Y342881D01*
X254922Y343378D01*
X255419Y344122D01*
X255594Y345000D01*
X255419Y345878D01*
X254922Y346622D01*
X254262Y347063D01*
X254303Y347452D01*
X254345Y347563D01*
X261917D01*
X262153Y347122D01*
X262056Y346978D01*
X261881Y346100D01*
X262056Y345222D01*
X262553Y344478D01*
X263298Y343981D01*
X264176Y343806D01*
X265054Y343981D01*
X265631Y344367D01*
X267400D01*
X268063Y344499D01*
X268626Y344874D01*
X273096Y349345D01*
X273778Y349481D01*
X274522Y349978D01*
X275020Y350722D01*
X275194Y351600D01*
X275020Y352478D01*
X274522Y353222D01*
X273778Y353719D01*
X273074Y353859D01*
X272865Y354358D01*
X274416Y355909D01*
X275278Y356081D01*
X276022Y356578D01*
X276519Y357322D01*
X276691Y358184D01*
X278876Y360369D01*
X289626D01*
X289941Y359869D01*
D02*
G37*
G36*
X294231Y342478D02*
X294976Y341981D01*
X295853Y341806D01*
X296023Y341840D01*
X296922Y340941D01*
Y333274D01*
X296422Y333007D01*
X296148Y333190D01*
X295270Y333364D01*
X294392Y333190D01*
X294129Y333014D01*
X293629Y333281D01*
Y342479D01*
X294129Y342631D01*
X294231Y342478D01*
D02*
G37*
G36*
X305289Y359907D02*
X301547Y356164D01*
X301193Y355634D01*
X301069Y355010D01*
Y328210D01*
X300378Y328072D01*
X300220Y328112D01*
X299878Y328295D01*
Y341553D01*
X299766Y342119D01*
X299445Y342599D01*
X298114Y343930D01*
X298148Y344100D01*
X297973Y344978D01*
X297476Y345722D01*
X296731Y346219D01*
X295853Y346394D01*
X294976Y346219D01*
X294231Y345722D01*
X294129Y345569D01*
X293629Y345721D01*
Y357506D01*
X293722Y357568D01*
X294219Y358313D01*
X294394Y359191D01*
X294259Y359869D01*
X294574Y360369D01*
X305098D01*
X305289Y359907D01*
D02*
G37*
G36*
X380381Y371724D02*
X380481Y371222D01*
X380765Y370797D01*
Y300160D01*
X380006Y299402D01*
X379618Y299721D01*
X379819Y300022D01*
X379994Y300900D01*
X379819Y301778D01*
X379331Y302508D01*
Y364700D01*
X379207Y365324D01*
X378854Y365854D01*
X376554Y368154D01*
X376024Y368507D01*
X375400Y368631D01*
X305608D01*
X304878Y369120D01*
X304000Y369294D01*
X303122Y369120D01*
X302392Y368631D01*
X294976D01*
X292291Y371316D01*
X292120Y372178D01*
X291622Y372922D01*
X290878Y373419D01*
X290298Y373535D01*
X290347Y374035D01*
X378070D01*
X380381Y371724D01*
D02*
G37*
G36*
X385217Y377444D02*
X385280Y377122D01*
X385563Y376700D01*
Y277196D01*
X385063Y276929D01*
X384778Y277119D01*
X383900Y277294D01*
X383022Y277119D01*
X382278Y276622D01*
X382216Y276529D01*
X370733D01*
X364729Y282534D01*
Y351300D01*
X364613Y351885D01*
X364281Y352381D01*
X362768Y353895D01*
X362272Y354226D01*
X361687Y354343D01*
X326758D01*
X326629Y354500D01*
Y363100D01*
X326513Y363685D01*
X326181Y364181D01*
X325456Y364907D01*
X325647Y365369D01*
X374724D01*
X376069Y364024D01*
Y302508D01*
X375581Y301778D01*
X375406Y300900D01*
X375581Y300022D01*
X376078Y299278D01*
X376822Y298780D01*
X377050Y298735D01*
X377000Y298235D01*
X376103D01*
X375678Y298519D01*
X374800Y298694D01*
X373922Y298519D01*
X373178Y298022D01*
X372680Y297278D01*
X372506Y296400D01*
X372680Y295522D01*
X373178Y294778D01*
X373922Y294281D01*
X374800Y294106D01*
X375678Y294281D01*
X376103Y294565D01*
X379600D01*
X380302Y294704D01*
X380898Y295102D01*
X383898Y298102D01*
X384296Y298698D01*
X384435Y299400D01*
Y370797D01*
X384719Y371222D01*
X384894Y372100D01*
X384719Y372978D01*
X384222Y373722D01*
X383478Y374219D01*
X382976Y374319D01*
X380333Y376963D01*
X380540Y377463D01*
X385198D01*
X385217Y377444D01*
D02*
G37*
G36*
X280685Y300005D02*
X280681Y299419D01*
X280047Y298593D01*
X279649Y297632D01*
X279513Y296600D01*
X279649Y295568D01*
X280047Y294607D01*
X280681Y293781D01*
X281507Y293147D01*
X282022Y292934D01*
Y290000D01*
X282134Y289434D01*
X282455Y288955D01*
X283818Y287591D01*
X283627Y287129D01*
X280100D01*
X279515Y287013D01*
X279019Y286681D01*
X275317Y282979D01*
X267672D01*
X267437Y283420D01*
X267571Y283622D01*
X267746Y284500D01*
X268211Y284728D01*
X268978Y284880D01*
X269722Y285378D01*
X270219Y286122D01*
X270394Y287000D01*
X270219Y287878D01*
X269722Y288622D01*
X268978Y289120D01*
X268834Y289148D01*
X268689Y289627D01*
X272004Y292941D01*
X272468Y292749D01*
X273500Y292613D01*
X274532Y292749D01*
X275493Y293147D01*
X276319Y293781D01*
X276953Y294607D01*
X277351Y295568D01*
X277487Y296600D01*
X277351Y297632D01*
X276953Y298593D01*
X276319Y299419D01*
X275925Y299722D01*
X276095Y300222D01*
X280481D01*
X280685Y300005D01*
D02*
G37*
G36*
X297355Y296828D02*
X299928Y294255D01*
X300408Y293934D01*
X300973Y293822D01*
X303382D01*
X303478Y293678D01*
X304222Y293180D01*
X305100Y293006D01*
X305978Y293180D01*
X306371Y293443D01*
X306871Y293176D01*
Y290951D01*
X306678Y290822D01*
X306181Y290078D01*
X306006Y289200D01*
X306181Y288322D01*
X306249Y288219D01*
X306013Y287778D01*
X294320D01*
X294084Y288219D01*
X294219Y288422D01*
X294394Y289300D01*
X294840Y289621D01*
X295270Y289536D01*
X296148Y289710D01*
X296892Y290208D01*
X297390Y290952D01*
X297564Y291830D01*
X297390Y292708D01*
X296892Y293452D01*
X296697Y293582D01*
Y296911D01*
X297198Y297063D01*
X297355Y296828D01*
D02*
G37*
G36*
X188943Y309950D02*
X188778Y309407D01*
X188336Y309319D01*
X187591Y308822D01*
X187094Y308078D01*
X186919Y307200D01*
X187094Y306322D01*
X187591Y305578D01*
X187735Y305482D01*
Y293887D01*
X187847Y293321D01*
X188168Y292841D01*
X191818Y289191D01*
X191627Y288729D01*
X187233D01*
X183529Y292434D01*
Y307300D01*
X183413Y307885D01*
X183081Y308381D01*
X178856Y312607D01*
X179048Y313069D01*
X185824D01*
X188943Y309950D01*
D02*
G37*
G36*
X367000Y270071D02*
X379316D01*
X379378Y269978D01*
X379471Y269916D01*
Y268979D01*
X378971Y268661D01*
X378300Y268794D01*
X377422Y268619D01*
X376678Y268122D01*
X376181Y267378D01*
X376006Y266500D01*
X376181Y265622D01*
X376678Y264878D01*
X376871Y264749D01*
Y259846D01*
X376409Y259654D01*
X366378Y269685D01*
X366625Y270145D01*
X367000Y270071D01*
D02*
G37*
G36*
X263258Y261958D02*
X263920Y261516D01*
X264700Y261361D01*
X266521D01*
Y261219D01*
X271079D01*
Y261219D01*
X271220D01*
Y261219D01*
X275697D01*
X278858Y258058D01*
X279456Y257659D01*
X279523Y257599D01*
X279628Y257085D01*
X279307Y256605D01*
X279243Y256283D01*
X279198Y256237D01*
X274913D01*
X274400Y256339D01*
X264400D01*
X263620Y256184D01*
X262958Y255742D01*
X261185Y253969D01*
X260743Y253307D01*
X260588Y252527D01*
Y251379D01*
X260446D01*
Y250629D01*
X259779D01*
X259759Y250659D01*
X259015Y251156D01*
X258137Y251331D01*
X257259Y251156D01*
X256515Y250659D01*
X256018Y249915D01*
X255843Y249037D01*
X256018Y248159D01*
X256515Y247415D01*
X257259Y246918D01*
X258137Y246743D01*
X259015Y246918D01*
X259759Y247415D01*
X259863Y247571D01*
X260446D01*
Y246820D01*
X260519Y246779D01*
Y242039D01*
X257145D01*
X255191Y243993D01*
Y253573D01*
X256652D01*
X256820Y253320D01*
X257565Y252823D01*
X258442Y252648D01*
X259320Y252823D01*
X260065Y253320D01*
X260562Y254065D01*
X260737Y254942D01*
X260562Y255820D01*
X260065Y256565D01*
X259320Y257062D01*
X258442Y257237D01*
X257565Y257062D01*
X256820Y256565D01*
X256729Y256427D01*
X255191D01*
Y263407D01*
X256376Y264592D01*
X260624D01*
X263258Y261958D01*
D02*
G37*
G36*
X274761Y251055D02*
Y243500D01*
X274863Y242987D01*
Y235402D01*
X271984Y232523D01*
X271564Y231895D01*
X271416Y231154D01*
Y229004D01*
X271414Y229000D01*
X270798Y228908D01*
X264881Y234826D01*
Y237720D01*
Y242220D01*
Y246779D01*
X264808Y246820D01*
Y251379D01*
X264808D01*
X264847Y251863D01*
X265245Y252261D01*
X273555D01*
X274761Y251055D01*
D02*
G37*
G36*
X233396Y221819D02*
X233892Y221487D01*
X234478Y221371D01*
X238922D01*
X239508Y221487D01*
X240004Y221819D01*
X240656Y222471D01*
X241569D01*
Y216832D01*
X241113Y216727D01*
X203579D01*
X203579Y216727D01*
X203033Y216619D01*
X202570Y216309D01*
X202570Y216309D01*
X200119Y213859D01*
X199890Y213904D01*
X199012Y213730D01*
X198268Y213232D01*
X197770Y212488D01*
X197596Y211610D01*
X197770Y210732D01*
X198268Y209988D01*
X199012Y209491D01*
X199834Y209327D01*
X199997Y208505D01*
X200495Y207761D01*
X201239Y207264D01*
X202061Y207100D01*
X202224Y206278D01*
X202722Y205534D01*
X203466Y205037D01*
X203821Y204966D01*
X203967Y204487D01*
X202909Y203429D01*
X201234D01*
X192229Y212434D01*
Y214667D01*
X200133Y222571D01*
X232644D01*
X233396Y221819D01*
D02*
G37*
G36*
X309683Y211701D02*
X309601Y211490D01*
X309384Y211227D01*
X207104D01*
X206887Y211489D01*
X206805Y211701D01*
X206848Y211773D01*
X309640D01*
X309683Y211701D01*
D02*
G37*
G36*
X238885Y180587D02*
X237626Y179327D01*
X210100D01*
X210051Y179318D01*
X209369Y179228D01*
X208688Y178946D01*
X208103Y178497D01*
X207787Y178085D01*
X207274Y178002D01*
X207244Y178009D01*
X207292Y178576D01*
X207597Y178810D01*
X208046Y179395D01*
X208328Y180076D01*
X208418Y180758D01*
X208427Y180807D01*
Y180957D01*
X208438Y180962D01*
X208443Y180973D01*
X238263D01*
X238263Y180973D01*
X238638Y181047D01*
X238885Y180587D01*
D02*
G37*
G36*
X239721Y173387D02*
X239162Y172827D01*
X233600D01*
X233600Y172827D01*
X233054Y172719D01*
X232591Y172409D01*
X232591Y172409D01*
X231991Y171809D01*
X231991Y171809D01*
X230592Y170410D01*
X230564Y170369D01*
X230145Y169823D01*
X229863Y169142D01*
X229767Y168411D01*
X229826Y167962D01*
X229352Y167728D01*
X227703Y169378D01*
X227703Y169378D01*
X227703Y169378D01*
X227662Y169405D01*
X227116Y169824D01*
X226435Y170106D01*
X225704Y170203D01*
X224973Y170106D01*
X224391Y169865D01*
X224108Y170289D01*
X227591Y173773D01*
X239099D01*
X239099Y173773D01*
X239475Y173847D01*
X239721Y173387D01*
D02*
G37*
G36*
X225754Y175973D02*
X217794Y168012D01*
X217333Y168259D01*
X217355Y168368D01*
X217180Y169246D01*
X216683Y169991D01*
X215938Y170488D01*
X215061Y170662D01*
X214183Y170488D01*
X213438Y169991D01*
X213376Y169898D01*
X209849D01*
X209602Y170398D01*
X209746Y170584D01*
X210028Y171265D01*
X210118Y171948D01*
X210127Y171996D01*
Y176457D01*
X210138Y176462D01*
X210143Y176473D01*
X225547D01*
X225754Y175973D01*
D02*
G37*
G36*
X219257Y164731D02*
X219016Y164149D01*
X218920Y163418D01*
X219016Y162688D01*
X219298Y162006D01*
X219717Y161460D01*
X219745Y161419D01*
X219745Y161419D01*
X219745Y161419D01*
X220323Y160840D01*
Y160142D01*
X212377Y152195D01*
X211903Y152429D01*
X211971Y152944D01*
X211875Y153675D01*
X211593Y154357D01*
X211174Y154902D01*
X211146Y154944D01*
X211146Y154944D01*
X211146Y154944D01*
X209233Y156857D01*
X209467Y157330D01*
X209915Y157271D01*
X210647Y157368D01*
X211328Y157650D01*
X211874Y158069D01*
X211915Y158096D01*
X216809Y162991D01*
X216809Y162991D01*
X218833Y165014D01*
X219257Y164731D01*
D02*
G37*
G36*
X207148Y150945D02*
X207148Y150945D01*
X207148Y150945D01*
X207189Y150918D01*
X207735Y150499D01*
X208416Y150216D01*
X209147Y150120D01*
X209662Y150188D01*
X209896Y149715D01*
X207091Y146910D01*
X206782Y146447D01*
X206673Y145901D01*
X206673Y145900D01*
Y144374D01*
X206287Y144057D01*
X205851Y144143D01*
X205621Y144098D01*
X203327Y146391D01*
Y149509D01*
X203995Y150177D01*
X203995Y150177D01*
X203995Y150177D01*
X204023Y150218D01*
X204442Y150764D01*
X204724Y151445D01*
X204820Y152176D01*
X204761Y152625D01*
X205235Y152858D01*
X207148Y150945D01*
D02*
G37*
G36*
X276853Y85520D02*
X274627D01*
Y86158D01*
X275247Y86571D01*
X275744Y87316D01*
X275919Y88194D01*
X275744Y89071D01*
X275247Y89816D01*
X274502Y90313D01*
X273624Y90488D01*
X272746Y90313D01*
X272002Y89816D01*
X271505Y89071D01*
X271330Y88194D01*
X271505Y87316D01*
X271773Y86915D01*
Y85520D01*
X265627D01*
Y86300D01*
X265627Y86300D01*
X265519Y86846D01*
X265209Y87309D01*
X265209Y87309D01*
X265148Y87370D01*
X265194Y87600D01*
X265019Y88478D01*
X264522Y89222D01*
X263778Y89719D01*
X262900Y89894D01*
X262022Y89719D01*
X261278Y89222D01*
X261113Y88976D01*
X254904D01*
X254774Y89170D01*
X254030Y89667D01*
X253152Y89842D01*
X252274Y89667D01*
X251530Y89170D01*
X251032Y88426D01*
X250858Y87548D01*
X251032Y86670D01*
X251530Y85926D01*
X252274Y85429D01*
X253152Y85254D01*
X254030Y85429D01*
X254774Y85926D01*
X254904Y86121D01*
X261182D01*
X261278Y85978D01*
X261730Y85676D01*
X261920Y85254D01*
Y83915D01*
X261753Y83073D01*
X261863Y82521D01*
X261506Y82021D01*
X258900D01*
X258332Y81908D01*
X256621D01*
Y79800D01*
X256606Y79727D01*
X256621Y79654D01*
Y77546D01*
X258332D01*
X258900Y77433D01*
X295742D01*
X295791Y76933D01*
X294898Y76755D01*
X294785Y76679D01*
X290346D01*
Y72579D01*
X290346Y72120D01*
X290346D01*
Y72079D01*
X290346D01*
Y67520D01*
Y63020D01*
X290346D01*
X290346Y62980D01*
X290346D01*
X290346Y62520D01*
Y58420D01*
X290538D01*
X290643Y57893D01*
X291085Y57231D01*
X291958Y56358D01*
X292620Y55916D01*
X293400Y55761D01*
X298263D01*
X298499Y55320D01*
X298355Y55104D01*
X298180Y54226D01*
X298355Y53348D01*
X298852Y52604D01*
X299596Y52106D01*
X300474Y51932D01*
X301352Y52106D01*
X302096Y52604D01*
X302226Y52799D01*
X306053D01*
Y34814D01*
X303886Y32647D01*
X292914D01*
X288547Y37014D01*
Y42527D01*
X288415Y43192D01*
X288719Y43692D01*
X292424D01*
X295352Y40764D01*
X295380Y40622D01*
X295878Y39878D01*
X296622Y39380D01*
X297500Y39206D01*
X298378Y39380D01*
X299122Y39878D01*
X299620Y40622D01*
X299794Y41500D01*
X299620Y42378D01*
X299122Y43122D01*
X298378Y43619D01*
X298236Y43648D01*
X294569Y47315D01*
X293907Y47757D01*
X293127Y47912D01*
X292880D01*
Y48054D01*
X288320D01*
Y48054D01*
X274820D01*
Y43369D01*
X274653Y42527D01*
X274820Y41685D01*
Y40346D01*
X276044D01*
X276164Y40266D01*
X277100Y40080D01*
X283653D01*
Y36000D01*
X283839Y35064D01*
X284370Y34270D01*
X290170Y28470D01*
X290964Y27939D01*
X291900Y27753D01*
X304900D01*
X305553Y27883D01*
X305894Y27691D01*
X306053Y27528D01*
Y18814D01*
X304220Y16980D01*
X303689Y16186D01*
X303503Y15250D01*
X303689Y14314D01*
X304220Y13520D01*
X305014Y12989D01*
X305950Y12803D01*
X306886Y12989D01*
X307680Y13520D01*
X310230Y16070D01*
X310761Y16864D01*
X310947Y17800D01*
Y33800D01*
Y50304D01*
X310973Y50318D01*
X311447Y50517D01*
X312251Y50357D01*
X313129Y50532D01*
X313873Y51029D01*
X314003Y51223D01*
X354150D01*
X354150Y51223D01*
X354696Y51331D01*
X355159Y51641D01*
X357609Y54091D01*
X357609Y54091D01*
X357919Y54554D01*
X358027Y55100D01*
Y65448D01*
X358222Y65578D01*
X358651Y66220D01*
X359151Y66124D01*
Y51456D01*
X355944Y48249D01*
X325300D01*
X324324Y48055D01*
X323498Y47502D01*
X317802Y41807D01*
X317249Y40980D01*
X317055Y40004D01*
Y12960D01*
X315344Y11249D01*
X276156D01*
X267602Y19802D01*
X266775Y20355D01*
X265800Y20549D01*
X250349D01*
Y23936D01*
X250849Y24228D01*
X251577Y24083D01*
X252455Y24258D01*
X253199Y24755D01*
X253697Y25499D01*
X253871Y26377D01*
X253697Y27255D01*
X253199Y27999D01*
X253005Y28129D01*
Y34051D01*
X264500D01*
X265476Y34245D01*
X266302Y34798D01*
X266855Y35625D01*
X267049Y36600D01*
X266855Y37576D01*
X266549Y38033D01*
Y42327D01*
X266417Y42992D01*
X266781Y43489D01*
X266788Y43492D01*
X270779D01*
Y47854D01*
X270539D01*
Y49321D01*
X270694Y50100D01*
X270519Y50978D01*
X270022Y51722D01*
X269278Y52219D01*
X268400Y52394D01*
X267522Y52219D01*
X266778Y51722D01*
X266281Y50978D01*
X266106Y50100D01*
X266281Y49222D01*
X266461Y48952D01*
Y47854D01*
X266220D01*
Y47854D01*
X252720D01*
Y43415D01*
X252645Y43302D01*
X252451Y42327D01*
X252645Y41351D01*
X252720Y41238D01*
Y40146D01*
X253764D01*
X254025Y39972D01*
X255000Y39778D01*
X261451D01*
Y39149D01*
X252756D01*
X250349Y41556D01*
Y57300D01*
Y63751D01*
X251978D01*
Y57300D01*
Y52800D01*
X252172Y51825D01*
X252346Y51564D01*
Y50520D01*
X253438D01*
X253551Y50445D01*
X254527Y50251D01*
X255502Y50445D01*
X255615Y50520D01*
X260054D01*
Y55020D01*
Y59579D01*
X260028D01*
Y64021D01*
X260054D01*
Y68520D01*
X260054D01*
Y73080D01*
X255692D01*
Y69088D01*
X255689Y69081D01*
X255192Y68717D01*
X254527Y68849D01*
X250349D01*
Y89000D01*
X250155Y89976D01*
X249602Y90802D01*
X246102Y94302D01*
X245275Y94855D01*
X244783Y94953D01*
X244832Y95453D01*
X276853D01*
Y85520D01*
D02*
G37*
G36*
X379471Y77954D02*
Y56734D01*
X378366Y55629D01*
X367784D01*
X367722Y55722D01*
X366978Y56219D01*
X366100Y56394D01*
X365222Y56219D01*
X364749Y55903D01*
X364249Y56171D01*
Y75624D01*
X364749Y75892D01*
X365237Y75565D01*
X366115Y75391D01*
X366993Y75565D01*
X367737Y76063D01*
X367799Y76156D01*
X376385D01*
X376970Y76272D01*
X377466Y76604D01*
X379009Y78146D01*
X379471Y77954D01*
D02*
G37*
G36*
X306053Y90086D02*
Y69600D01*
X306239Y68664D01*
X306770Y67870D01*
X309370Y65270D01*
X309864Y64939D01*
X309713Y64439D01*
X307400D01*
X306620Y64284D01*
X305958Y63842D01*
X301955Y59839D01*
X294708D01*
Y62512D01*
X294711Y62519D01*
X295208Y62883D01*
X295873Y62751D01*
X296849Y62945D01*
X296962Y63020D01*
X298054D01*
Y64064D01*
X298228Y64324D01*
X298422Y65300D01*
Y69800D01*
Y72536D01*
X298600Y72973D01*
X299146Y73081D01*
X299609Y73391D01*
X301757Y75538D01*
X302066Y76001D01*
X302175Y76547D01*
X302175Y76547D01*
Y82395D01*
X302369Y82525D01*
X302867Y83269D01*
X303041Y84147D01*
X302867Y85025D01*
X302369Y85769D01*
X301625Y86267D01*
X300747Y86441D01*
X299869Y86267D01*
X299172Y85801D01*
X298869Y86178D01*
X299366Y86922D01*
X299540Y87800D01*
X299366Y88678D01*
X298869Y89422D01*
X298124Y89919D01*
X297247Y90094D01*
X296369Y89919D01*
X295624Y89422D01*
X295127Y88678D01*
X294952Y87800D01*
X294998Y87570D01*
X294791Y87363D01*
X294481Y86900D01*
X294373Y86354D01*
X294373Y86353D01*
Y85520D01*
X289432D01*
X289330Y86020D01*
X289420Y86080D01*
X289917Y86825D01*
X290092Y87702D01*
X289917Y88580D01*
X289420Y89324D01*
X288675Y89822D01*
X287798Y89996D01*
X286920Y89822D01*
X286175Y89324D01*
X285678Y88580D01*
X285504Y87702D01*
X285678Y86825D01*
X286175Y86080D01*
X286265Y86020D01*
X286163Y85520D01*
X281747D01*
Y94586D01*
X282714Y95553D01*
X300586D01*
X306053Y90086D01*
D02*
G37*
G36*
X385971Y269838D02*
Y27174D01*
X385471Y26930D01*
X385429Y26962D01*
Y269626D01*
X385929Y269870D01*
X385971Y269838D01*
D02*
G37*
%LPC*%
G36*
X315319Y326313D02*
X314441Y326138D01*
X313697Y325641D01*
X313199Y324897D01*
X313025Y324019D01*
X313199Y323141D01*
X313697Y322397D01*
X313892Y322267D01*
Y302071D01*
X313697Y301941D01*
X313199Y301197D01*
X313025Y300319D01*
X313199Y299441D01*
X313697Y298697D01*
X314441Y298199D01*
X315319Y298025D01*
X316197Y298199D01*
X316941Y298697D01*
X317438Y299441D01*
X317613Y300319D01*
X317438Y301197D01*
X316941Y301941D01*
X316746Y302071D01*
Y322267D01*
X316941Y322397D01*
X317438Y323141D01*
X317613Y324019D01*
X317438Y324897D01*
X316941Y325641D01*
X316197Y326138D01*
X315319Y326313D01*
D02*
G37*
G36*
X185473Y329224D02*
X184622Y329055D01*
X183901Y328573D01*
X183565Y328070D01*
X182991D01*
X182656Y328573D01*
X181934Y329055D01*
X181084Y329224D01*
X180232Y329055D01*
X179511Y328573D01*
X179029Y327851D01*
X178860Y327000D01*
X179029Y326149D01*
X179511Y325428D01*
X180013Y325092D01*
Y324518D01*
X179511Y324183D01*
X179029Y323461D01*
X178860Y322610D01*
X179029Y321759D01*
X179511Y321038D01*
X180232Y320556D01*
X181084Y320386D01*
X181934Y320556D01*
X182656Y321038D01*
X182991Y321540D01*
X183565D01*
X183901Y321038D01*
X184622Y320556D01*
X185473Y320386D01*
X186324Y320556D01*
X187046Y321038D01*
X187528Y321759D01*
X187697Y322610D01*
X187528Y323461D01*
X187046Y324183D01*
X186544Y324518D01*
Y325092D01*
X187046Y325428D01*
X187528Y326149D01*
X187697Y327000D01*
X187528Y327851D01*
X187046Y328573D01*
X186324Y329055D01*
X185473Y329224D01*
D02*
G37*
G36*
X175690D02*
X174839Y329055D01*
X174117Y328573D01*
X173782Y328070D01*
X173208D01*
X172872Y328573D01*
X172151Y329055D01*
X171300Y329224D01*
X170449Y329055D01*
X169728Y328573D01*
X169246Y327851D01*
X169076Y327000D01*
X169246Y326149D01*
X169728Y325428D01*
X170229Y325092D01*
Y324518D01*
X169728Y324183D01*
X169246Y323461D01*
X169076Y322610D01*
X169246Y321759D01*
X169728Y321038D01*
X170449Y320556D01*
X171300Y320386D01*
X172151Y320556D01*
X172872Y321038D01*
X173208Y321540D01*
X173782D01*
X174117Y321038D01*
X174839Y320556D01*
X175690Y320386D01*
X176541Y320556D01*
X177262Y321038D01*
X177744Y321759D01*
X177914Y322610D01*
X177744Y323461D01*
X177262Y324183D01*
X176760Y324518D01*
Y325092D01*
X177262Y325428D01*
X177744Y326149D01*
X177914Y327000D01*
X177744Y327851D01*
X177262Y328573D01*
X176541Y329055D01*
X175690Y329224D01*
D02*
G37*
G36*
X314148Y31446D02*
X313270Y31271D01*
X312526Y30774D01*
X312029Y30030D01*
X311854Y29152D01*
X312029Y28274D01*
X312109Y28154D01*
Y22246D01*
X312029Y22126D01*
X311854Y21248D01*
X312029Y20370D01*
X312526Y19626D01*
X313270Y19129D01*
X314148Y18954D01*
X315026Y19129D01*
X315770Y19626D01*
X316267Y20370D01*
X316442Y21248D01*
X316267Y22126D01*
X316187Y22246D01*
Y28154D01*
X316267Y28274D01*
X316442Y29152D01*
X316267Y30030D01*
X315770Y30774D01*
X315026Y31271D01*
X314148Y31446D01*
D02*
G37*
%LPD*%
D11*
X370700Y103200D02*
X375800Y108300D01*
X375800Y258100D02*
X375800Y108300D01*
X355800Y278100D02*
X375800Y258100D01*
X370700Y83200D02*
Y103200D01*
X367000Y271600D02*
X381000D01*
X355500Y283100D02*
X367000Y271600D01*
X308400Y283100D02*
X355500D01*
X378400Y79700D02*
Y266400D01*
X376385Y77685D02*
X378400Y79700D01*
X366115Y77685D02*
X376385D01*
X370100Y275000D02*
X383900D01*
Y24800D02*
Y275000D01*
X381000Y271600D02*
X381000Y56100D01*
X363200Y281900D02*
X370100Y275000D01*
X378300Y266500D02*
X378400Y266400D01*
X379000Y54100D02*
X381000Y56100D01*
X366100Y54100D02*
X379000D01*
X386100Y18600D02*
X387500Y20000D01*
Y272000D01*
X363200Y281900D02*
Y351300D01*
X361687Y352813D02*
X363200Y351300D01*
X323413Y352813D02*
X361687D01*
X325100Y354500D02*
Y363100D01*
X323413Y352813D02*
X325100Y354500D01*
X309413Y352813D02*
X323413D01*
X323800Y364400D02*
X325100Y363100D01*
X291700Y364400D02*
X323800D01*
X290200Y365900D02*
X291700Y364400D01*
X276000Y365900D02*
X290200D01*
X262200Y352100D02*
X276000Y365900D01*
X253400Y352100D02*
X262200D01*
X248803Y340503D02*
X253300Y345000D01*
X171497Y340503D02*
X248803D01*
X287300Y283200D02*
X307800D01*
X284900Y285600D02*
X287300Y283200D01*
X308300Y289200D02*
X308400Y289300D01*
Y296350D01*
X303700Y301050D02*
X308400Y296350D01*
X303700Y301050D02*
Y315600D01*
X305400Y317300D01*
Y323000D01*
X280100Y285600D02*
X284900D01*
X275950Y281450D02*
X280100Y285600D01*
X256700Y287000D02*
X268100D01*
X266100Y289200D02*
X273500Y296600D01*
X253100Y289200D02*
X266100D01*
X256400Y286700D02*
X256700Y287000D01*
X251100Y287200D02*
X253100Y289200D01*
X265302Y284350D02*
X265452Y284500D01*
X161450Y281450D02*
X275950D01*
X158800Y284100D02*
X161450Y281450D01*
X158800Y284100D02*
Y305700D01*
X160787Y307687D01*
X166887D01*
X154250Y316100D02*
Y340850D01*
Y316100D02*
X158050Y312300D01*
X177000D01*
X182000Y307300D01*
Y291800D02*
Y307300D01*
Y291800D02*
X186600Y287200D01*
X188600D01*
X219483Y204617D02*
X221226D01*
X223700Y202143D01*
X201190Y168368D02*
X215061D01*
X190622Y157800D02*
X201190Y168368D01*
X190700Y215300D02*
X199500Y224100D01*
X190700Y211800D02*
Y215300D01*
Y211800D02*
X200600Y201900D01*
X203542D01*
X206642Y205000D01*
X273400Y270300D02*
Y272800D01*
X269550Y276650D02*
X273400Y272800D01*
X163850Y276650D02*
X269550D01*
X162200Y232600D02*
Y272300D01*
X149200Y219600D02*
X162200Y232600D01*
X151500Y226100D02*
X151700D01*
X160400Y234800D01*
X16900Y219100D02*
Y232800D01*
Y219100D02*
X17000Y219000D01*
X6900Y232800D02*
X7200Y232500D01*
Y221478D02*
Y232500D01*
X160400Y234800D02*
Y273200D01*
X163850Y276650D01*
X162200Y272300D02*
X164500Y274600D01*
X266900D01*
X268900Y272600D01*
Y270100D02*
Y272600D01*
X258478Y266795D02*
Y270278D01*
Y266795D02*
X258500Y266773D01*
X292100Y289300D02*
Y359191D01*
X188600Y287200D02*
X251100Y287200D01*
X252350Y284350D02*
X265302D01*
X252200Y283800D02*
Y284200D01*
X252350Y284350D01*
X273400Y202200D02*
X279100D01*
X268900Y266846D02*
Y270100D01*
X190300Y131000D02*
X190400D01*
X194200Y134800D01*
X256900Y223446D02*
Y223600D01*
X256500Y224000D02*
X256900Y223600D01*
X240022Y224000D02*
X256500D01*
X238922Y222900D02*
X240022Y224000D01*
X234478Y222900D02*
X238922D01*
X233278Y224100D02*
X234478Y222900D01*
X199500Y224100D02*
X233278D01*
X258200Y249100D02*
X262627D01*
X258137Y249037D02*
X258200Y249100D01*
X260974Y237226D02*
X262700Y235500D01*
X257926Y237226D02*
X260974D01*
X260447Y220446D02*
Y224802D01*
X282100Y220500D02*
Y224827D01*
Y220500D02*
X282100Y220500D01*
X301373Y241200D02*
X301410Y241163D01*
X306263D01*
X301373Y247100D02*
X301405Y247069D01*
X306132D01*
X295795Y266146D02*
X295880Y266231D01*
Y270620D01*
X286800Y266173D02*
Y269700D01*
X287300Y270200D01*
X273500Y266746D02*
Y270200D01*
X273400Y270300D02*
X273500Y270200D01*
X268800Y266746D02*
X268900Y266846D01*
D19*
X234129Y156314D02*
G03*
X233634Y156314I-247J-248D01*
G01*
X234129Y156314D02*
G03*
X236109Y156316I989J991D01*
G01*
D02*
G03*
X236107Y158296I-991J989D01*
G01*
X235627Y160752D02*
G03*
X235629Y158773I991J-989D01*
G01*
X237607Y160755D02*
G03*
X235627Y160752I-989J-991D01*
G01*
X238085Y160278D02*
G03*
X240065Y160280I989J991D01*
G01*
D02*
G03*
X240063Y162260I-991J989D01*
G01*
X239587Y164712D02*
G03*
X239589Y162732I991J-989D01*
G01*
X241567Y164714D02*
G03*
X239587Y164712I-989J-991D01*
G01*
X242041Y164242D02*
G03*
X244021Y164244I989J991D01*
G01*
D02*
G03*
X244019Y166224I-991J989D01*
G01*
X243547Y168672D02*
G03*
X243549Y166692I991J-989D01*
G01*
X245527Y168674D02*
G03*
X243547Y168672I-989J-991D01*
G01*
X245996Y168206D02*
G03*
X247976Y168208I989J991D01*
G01*
D02*
G03*
X247974Y170188I-991J989D01*
G01*
X247507Y172632D02*
G03*
X247509Y170652I991J-989D01*
G01*
X249487Y172634D02*
G03*
X247507Y172632I-989J-991D01*
G01*
X249952Y172169D02*
G03*
X251932Y172171I989J991D01*
G01*
D02*
G03*
X251930Y174151I-991J989D01*
G01*
X251467Y176592D02*
G03*
X251469Y174612I991J-989D01*
G01*
X253447Y176594D02*
G03*
X251467Y176592I-989J-991D01*
G01*
X253908Y176133D02*
G03*
X255888Y176135I989J991D01*
G01*
D02*
G03*
X255886Y178115I-991J989D01*
G01*
X255426Y180552D02*
G03*
X255429Y178572I991J-989D01*
G01*
X257406Y180553D02*
G03*
X255426Y180552I-989J-991D01*
G01*
X257864Y180097D02*
G03*
X259843Y180099I989J991D01*
G01*
D02*
G03*
X259841Y182079I-991J989D01*
G01*
X259841Y182574D02*
G03*
X259841Y182079I248J-247D01*
G01*
X230700Y195300D02*
G03*
X229300Y193900I0J-1400D01*
G01*
X227900Y192686D02*
G03*
X229300Y194086I0J1400D01*
G01*
X226500D02*
G03*
X227900Y192686I1400J0D01*
G01*
X226500Y197346D02*
G03*
X225100Y198746I-1400J0D01*
G01*
D02*
G03*
X223700Y197346I0J-1400D01*
G01*
X222300Y192686D02*
G03*
X223700Y194086I0J1400D01*
G01*
X220900D02*
G03*
X222300Y192686I1400J0D01*
G01*
X220900Y197346D02*
G03*
X219500Y198746I-1400J0D01*
G01*
D02*
G03*
X218100Y197346I0J-1400D01*
G01*
X216700Y192686D02*
G03*
X218100Y194086I0J1400D01*
G01*
X215300D02*
G03*
X216700Y192686I1400J0D01*
G01*
X215300Y197346D02*
G03*
X213900Y198746I-1400J0D01*
G01*
D02*
G03*
X212500Y197346I0J-1400D01*
G01*
X211100Y195300D02*
G03*
X212500Y196700I0J1400D01*
G01*
X206700Y191000D02*
G03*
X205300Y189600I0J-1400D01*
G01*
X203900Y188100D02*
G03*
X205300Y189500I0J1400D01*
G01*
X202500D02*
G03*
X203900Y188100I1400J0D01*
G01*
X202500Y192500D02*
G03*
X201100Y193900I-1400J0D01*
G01*
D02*
G03*
X199700Y192500I0J-1400D01*
G01*
X198300Y188100D02*
G03*
X199700Y189500I0J1400D01*
G01*
X196900D02*
G03*
X198300Y188100I1400J0D01*
G01*
X196900Y192500D02*
G03*
X195500Y193900I-1400J0D01*
G01*
D02*
G03*
X194100Y192500I0J-1400D01*
G01*
X192700Y188100D02*
G03*
X194100Y189500I0J1400D01*
G01*
X191300D02*
G03*
X192700Y188100I1400J0D01*
G01*
X191300Y192500D02*
G03*
X189900Y193900I-1400J0D01*
G01*
D02*
G03*
X188500Y192500I0J-1400D01*
G01*
X187100Y191000D02*
G03*
X188500Y192400I0J1400D01*
G01*
X228800Y186700D02*
G03*
X227400Y185300I0J-1400D01*
G01*
X226000Y183800D02*
G03*
X227400Y185200I0J1400D01*
G01*
X224600D02*
G03*
X226000Y183800I1400J0D01*
G01*
X224600Y188200D02*
G03*
X223200Y189600I-1400J0D01*
G01*
D02*
G03*
X221800Y188200I0J-1400D01*
G01*
X220400Y183800D02*
G03*
X221800Y185200I0J1400D01*
G01*
X219000D02*
G03*
X220400Y183800I1400J0D01*
G01*
X219000Y188200D02*
G03*
X217600Y189600I-1400J0D01*
G01*
D02*
G03*
X216200Y188200I0J-1400D01*
G01*
X214800Y183800D02*
G03*
X216200Y185200I0J1400D01*
G01*
X213400D02*
G03*
X214800Y183800I1400J0D01*
G01*
X213400Y188200D02*
G03*
X212000Y189600I-1400J0D01*
G01*
D02*
G03*
X210600Y188200I0J-1400D01*
G01*
X209200Y186700D02*
G03*
X210600Y188100I0J1400D01*
G01*
X208400Y182400D02*
G03*
X207000Y181000I0J-1400D01*
G01*
X205600Y179407D02*
G03*
X207000Y180807I0J1400D01*
G01*
X204200D02*
G03*
X205600Y179407I1400J0D01*
G01*
X204200Y183647D02*
G03*
X202800Y185047I-1400J0D01*
G01*
D02*
G03*
X201400Y183647I0J-1400D01*
G01*
X200000Y179407D02*
G03*
X201400Y180807I0J1400D01*
G01*
X198600D02*
G03*
X200000Y179407I1400J0D01*
G01*
X198600Y183647D02*
G03*
X197200Y185047I-1400J0D01*
G01*
D02*
G03*
X195800Y183647I0J-1400D01*
G01*
X194400Y179553D02*
G03*
X195800Y180953I0J1400D01*
G01*
X193000D02*
G03*
X194400Y179553I1400J0D01*
G01*
X193000Y183800D02*
G03*
X191600Y185200I-1400J0D01*
G01*
D02*
G03*
X190200Y183800I0J-1400D01*
G01*
X188800Y182400D02*
G03*
X190200Y183800I0J1400D01*
G01*
X210100Y177900D02*
G03*
X208700Y176500I0J-1400D01*
G01*
X207300Y170596D02*
G03*
X208700Y171996I0J1400D01*
G01*
X205900D02*
G03*
X207300Y170596I1400J0D01*
G01*
X205900Y176500D02*
G03*
X204500Y177900I-1400J0D01*
G01*
D02*
G03*
X203100Y176500I0J-1400D01*
G01*
X201700Y170596D02*
G03*
X203100Y171996I0J1400D01*
G01*
X200300D02*
G03*
X201700Y170596I1400J0D01*
G01*
X200300Y176500D02*
G03*
X198900Y177900I-1400J0D01*
G01*
X208926Y159105D02*
G03*
X210906Y159105I990J990D01*
G01*
X207007Y161024D02*
G03*
X205027Y161024I-990J-990D01*
G01*
D02*
G03*
X205027Y159044I990J-990D01*
G01*
X210137Y151954D02*
G03*
X210137Y153934I-990J990D01*
G01*
X208157Y151954D02*
G03*
X210137Y151954I990J990D01*
G01*
X203047Y157064D02*
G03*
X201068Y157064I-990J-990D01*
G01*
D02*
G03*
X201068Y155084I990J-990D01*
G01*
X202986Y151186D02*
G03*
X202986Y153166I-990J990D01*
G01*
X231601Y169401D02*
G03*
X231601Y167421I990J-990D01*
G01*
X233339Y163703D02*
G03*
X233339Y165683I-990J990D01*
G01*
X231359Y163703D02*
G03*
X233339Y163703I990J990D01*
G01*
X226694Y168368D02*
G03*
X224714Y168368I-990J-990D01*
G01*
D02*
G03*
X224714Y166388I990J-990D01*
G01*
X229379Y159743D02*
G03*
X229379Y161723I-990J990D01*
G01*
X227399Y159743D02*
G03*
X229379Y159743I990J990D01*
G01*
X222734Y164409D02*
G03*
X220754Y164409I-990J-990D01*
G01*
D02*
G03*
X220754Y162429I990J-990D01*
G01*
X221701Y159501D02*
G03*
X221701Y161481I-990J990D01*
G01*
X223580Y152664D02*
G03*
X225560Y152664I990J990D01*
G01*
X221407Y154837D02*
G03*
X219427Y154837I-990J-990D01*
G01*
D02*
G03*
X219427Y152857I990J-990D01*
G01*
X222628Y147677D02*
G03*
X222628Y149657I-990J990D01*
G01*
X220648Y147677D02*
G03*
X222628Y147677I990J990D01*
G01*
X217447Y150877D02*
G03*
X215467Y150877I-990J-990D01*
G01*
D02*
G03*
X215467Y148898I990J-990D01*
G01*
X218672Y143713D02*
G03*
X218672Y145693I-990J990D01*
G01*
X216692Y143713D02*
G03*
X218672Y143713I990J990D01*
G01*
X213487Y146918D02*
G03*
X211507Y146918I-990J-990D01*
G01*
D02*
G03*
X211507Y144938I990J-990D01*
G01*
X213680Y140785D02*
G03*
X213680Y142765I-990J990D01*
G01*
X233549Y151770D02*
G03*
X233551Y149790I991J-989D01*
G01*
X235975Y145394D02*
G03*
X235973Y147373I-991J989D01*
G01*
X233995Y145391D02*
G03*
X235975Y145394I989J991D01*
G01*
X231574Y147808D02*
G03*
X229594Y147806I-989J-991D01*
G01*
D02*
G03*
X229596Y145826I991J-989D01*
G01*
X232019Y141430D02*
G03*
X232017Y143410I-991J989D01*
G01*
X230039Y141428D02*
G03*
X232019Y141430I989J991D01*
G01*
X227618Y143844D02*
G03*
X225638Y143842I-989J-991D01*
G01*
D02*
G03*
X225640Y141862I991J-989D01*
G01*
X228063Y137466D02*
G03*
X228061Y139446I-991J989D01*
G01*
X226083Y137464D02*
G03*
X228063Y137466I989J991D01*
G01*
X223662Y139880D02*
G03*
X221682Y139878I-989J-991D01*
G01*
X288000Y373800D02*
X292191D01*
X276688Y218012D02*
X284600D01*
X274100Y220600D02*
X276688Y218012D01*
X312908Y215300D02*
X319604Y208604D01*
X203579Y215300D02*
X312908D01*
X199890Y211610D02*
X203579Y215300D01*
X354150Y52650D02*
X356600Y55100D01*
X312252Y52650D02*
X354150D01*
X356600Y55100D02*
Y67200D01*
X353800Y58700D02*
Y69600D01*
X350000Y54900D02*
X353800Y58700D01*
X316800Y54900D02*
X350000D01*
X244538Y220293D02*
X245995Y218835D01*
X251635D01*
X246826Y237226D02*
X257926D01*
X244538Y234938D02*
X246826Y237226D01*
X244538Y231907D02*
Y234938D01*
X295880Y270620D02*
Y272120D01*
X294200Y273800D02*
X295880Y272120D01*
X283500Y273800D02*
X294200D01*
X282100Y272400D02*
X283500Y273800D01*
X282100Y270000D02*
Y272400D01*
X253152Y255000D02*
X258385D01*
X258442Y254942D01*
X129400Y96200D02*
X132800D01*
X136059Y92941D01*
Y60941D02*
Y92941D01*
X312251Y52651D02*
X312252Y52650D01*
X282300Y111900D02*
Y127200D01*
X295873Y74400D02*
X298600D01*
X300747Y76547D01*
Y84147D01*
X251577Y36477D02*
X251700Y36600D01*
X251577Y26377D02*
Y36477D01*
X247724Y57376D02*
X247800Y57300D01*
X239124Y57376D02*
X247724D01*
X286100Y38400D02*
X286223Y38277D01*
X285900Y38600D02*
X286100Y38400D01*
X260583Y183317D02*
X262432Y185170D01*
X233561Y156240D02*
X233634Y156314D01*
X235859Y158543D02*
X236107Y158296D01*
X235629Y158773D02*
X235859Y158543D01*
X237607Y160755D02*
X237837Y160525D01*
X238085Y160278D01*
X239815Y162507D02*
X240063Y162260D01*
X239589Y162732D02*
X239815Y162507D01*
X241567Y164714D02*
X241793Y164489D01*
X242041Y164242D01*
X243771Y166471D02*
X244019Y166224D01*
X243549Y166692D02*
X243771Y166471D01*
X245527Y168674D02*
X245749Y168453D01*
X245996Y168206D01*
X247727Y170435D02*
X247974Y170188D01*
X247509Y170652D02*
X247727Y170435D01*
X249487Y172634D02*
X249705Y172417D01*
X249952Y172169D01*
X251682Y174399D02*
X251930Y174151D01*
X251469Y174612D02*
X251682Y174399D01*
X253447Y176594D02*
X253660Y176380D01*
X253908Y176133D01*
X255638Y178362D02*
X255886Y178115D01*
X255429Y178572D02*
X255638Y178362D01*
X257406Y180553D02*
X257616Y180344D01*
X257864Y180097D01*
X259841Y182574D02*
X260583Y183317D01*
X300474Y54226D02*
X308474D01*
X262848Y87548D02*
X262900Y87600D01*
X253152Y87548D02*
X262848D01*
X295800Y83073D02*
X296979D01*
X295800D02*
Y86354D01*
X297247Y87800D01*
X286800Y83073D02*
X287798Y84071D01*
Y87702D01*
X273200Y83073D02*
Y87769D01*
X273624Y88194D01*
X264200Y83073D02*
Y86300D01*
X262900Y87600D02*
X264200Y86300D01*
X26000Y23879D02*
Y283200D01*
Y23879D02*
X46779Y3100D01*
X202879Y33400D02*
X216721D01*
X222400Y27721D01*
X198000Y28521D02*
X202879Y33400D01*
X323500Y18300D02*
X324300Y17500D01*
Y7700D02*
Y17500D01*
X322800Y6200D02*
X324300Y7700D01*
X222400Y10300D02*
Y27721D01*
Y10300D02*
X226500Y6200D01*
X198000Y7200D02*
Y28521D01*
X226500Y6200D02*
X322800D01*
X195400Y4600D02*
X198000Y7200D01*
X27500Y24500D02*
X47400Y4600D01*
X195400D01*
X27500Y24500D02*
Y283200D01*
X28300Y284000D01*
X203500Y31900D02*
X216100D01*
X220900Y27100D01*
X199500Y27900D02*
X203500Y31900D01*
X325800Y17500D02*
X326600Y18300D01*
X325800Y7079D02*
Y17500D01*
X323421Y4700D02*
X325800Y7079D01*
X220900Y9679D02*
Y27100D01*
Y9679D02*
X225879Y4700D01*
X199500Y6579D02*
Y27900D01*
X225879Y4700D02*
X323421D01*
X196021Y3100D02*
X199500Y6579D01*
X46779Y3100D02*
X196021D01*
X25200Y284000D02*
X26000Y283200D01*
X49900Y116500D02*
X63200D01*
X295270Y291830D02*
Y331070D01*
X321224Y293124D02*
Y331624D01*
X310500Y297573D02*
Y328700D01*
X313350Y331550D01*
X315319Y300319D02*
Y324019D01*
X247800Y290900D02*
X253500Y296600D01*
X217200Y290900D02*
X247800D01*
X216100Y292000D02*
X217200Y290900D01*
X163800Y284600D02*
Y292600D01*
X216100Y292000D02*
Y295200D01*
X157700Y320000D02*
Y331000D01*
X158200Y331500D01*
X7400Y116800D02*
X7700Y116500D01*
X166000Y47700D02*
X174600D01*
X166000Y53000D02*
X174971D01*
X166100Y56600D02*
X177700D01*
X183500Y50800D01*
X166100Y61000D02*
X166300Y60800D01*
X183500D01*
X118700Y116800D02*
Y127400D01*
X108700Y116800D02*
Y124700D01*
X108600Y124800D02*
X108700Y124700D01*
X309500Y209800D02*
X315150Y204150D01*
X206988Y209800D02*
X309500D01*
X204344Y207156D02*
X206988Y209800D01*
X187000Y235449D02*
X236900D01*
X187000Y232299D02*
X236900D01*
X187000Y226000D02*
X236900D01*
X187000Y229150D02*
X236900D01*
X202117Y209383D02*
X205934Y213200D01*
X180200Y248349D02*
X230585D01*
X180200Y245199D02*
X230585D01*
X180200Y238900D02*
X230585D01*
X180200Y242050D02*
X230585D01*
X205934Y213200D02*
X310554D01*
X317377Y206377D01*
X237800Y195300D02*
X249250Y206750D01*
X231900Y195300D02*
X237800D01*
X183580D02*
X211100D01*
X230700D02*
X231900D01*
X229300Y193901D02*
Y194085D01*
X226500Y194086D02*
Y195300D01*
Y197346D01*
X223700Y195300D02*
Y197346D01*
Y194086D02*
Y195300D01*
X220900Y194086D02*
Y195300D01*
Y197346D01*
X218100Y195300D02*
Y197346D01*
Y194086D02*
Y195300D01*
X215300Y194086D02*
Y195300D01*
Y197346D01*
X212500Y196700D02*
Y197346D01*
X168290Y180010D02*
X183580Y195300D01*
X237954Y191000D02*
X251477Y204523D01*
X209200Y191000D02*
X237954D01*
X183734D02*
X187100D01*
X206700D02*
X209200D01*
X205300Y189500D02*
Y189600D01*
X202500Y189500D02*
Y191000D01*
Y192500D01*
X199700Y191000D02*
Y192500D01*
Y189500D02*
Y191000D01*
X196900Y189500D02*
Y191000D01*
Y192500D01*
X194100Y191000D02*
Y192500D01*
Y189500D02*
Y191000D01*
X191300Y189500D02*
Y191000D01*
Y192500D01*
X188500Y192400D02*
Y192500D01*
X170517Y177783D02*
X183734Y191000D01*
X238108Y186700D02*
X253704Y202296D01*
X232900Y186700D02*
X238108D01*
X183888D02*
X209200D01*
X228800D02*
X232900D01*
X227400Y185200D02*
Y185300D01*
X224600Y185200D02*
Y186700D01*
Y188200D01*
X221800Y186700D02*
Y188200D01*
Y185200D02*
Y186700D01*
X219000Y185200D02*
Y186700D01*
Y188200D01*
X216200Y186700D02*
Y188200D01*
Y185200D02*
Y186700D01*
X213400Y185200D02*
Y186700D01*
Y188200D01*
X210600Y188100D02*
Y188200D01*
X172744Y175556D02*
X183888Y186700D01*
X238263Y182400D02*
X255931Y200069D01*
X221100Y182400D02*
X238263D01*
X184042D02*
X188800D01*
X208400D02*
X221100D01*
X207000Y180807D02*
Y181000D01*
X204200Y180807D02*
Y182400D01*
Y183647D01*
X201400Y182400D02*
Y183647D01*
Y180807D02*
Y182400D01*
X198600Y180807D02*
Y182400D01*
Y183647D01*
X195800Y182400D02*
Y183647D01*
Y180953D02*
Y182400D01*
X193000Y180953D02*
Y182400D01*
Y183800D01*
X174971Y173329D02*
X184042Y182400D01*
X238217Y177900D02*
X258158Y197842D01*
X216400Y177900D02*
X238217D01*
X216200D02*
X216400D01*
X183996D02*
X196100D01*
X210100D02*
X216200D01*
X208700Y171996D02*
Y176500D01*
X205900Y171996D02*
Y176500D01*
X203100Y171996D02*
Y176500D01*
X200300Y171996D02*
Y176500D01*
X197500Y177900D02*
X198900D01*
X196100D02*
X197500D01*
X177198Y171102D02*
X183996Y177900D01*
X239099Y175200D02*
X256650Y192750D01*
X227000Y175200D02*
X239099D01*
X215800Y164000D02*
X227000Y175200D01*
X201900Y150100D02*
X202986Y151186D01*
X210906Y159105D02*
X215800Y164000D01*
X207007Y161024D02*
X208926Y159105D01*
X205027Y159044D02*
X207936Y156136D01*
X210137Y153934D01*
X205956Y154156D02*
X208157Y151954D01*
X203047Y157064D02*
X205956Y154156D01*
X201068Y155084D02*
X202986Y153166D01*
X201900Y145800D02*
Y150100D01*
Y145800D02*
X205851Y141849D01*
X239754Y171400D02*
X258877Y190523D01*
X233600Y171400D02*
X239754D01*
X233000Y170800D02*
X233600Y171400D01*
X208101Y145901D02*
X221701Y159501D01*
X231601Y169401D02*
X233000Y170800D01*
X231601Y167421D02*
X233339Y165683D01*
X228631Y166431D02*
X231359Y163703D01*
X226694Y168368D02*
X228631Y166431D01*
X224714Y166388D02*
X226651Y164451D01*
X229379Y161723D01*
X224671Y162471D02*
X227399Y159743D01*
X222734Y164409D02*
X224671Y162471D01*
X220754Y162429D02*
X221701Y161481D01*
X208101Y139645D02*
Y145901D01*
X230598Y157702D02*
X261148Y188252D01*
X210400Y137505D02*
X213680Y140785D01*
X225560Y152664D02*
X230598Y157702D01*
X221407Y154837D02*
X223580Y152664D01*
X219427Y152857D02*
X222590Y149695D01*
X222628Y149657D01*
X220610Y147715D02*
X220648Y147677D01*
X217447Y150877D02*
X220610Y147715D01*
X215467Y148898D02*
X218630Y145735D01*
X218672Y145693D01*
X216650Y143755D02*
X216692Y143713D01*
X213487Y146918D02*
X216650Y143755D01*
X211507Y144938D02*
X213680Y142765D01*
X233410Y156089D02*
X233561Y156240D01*
X212532Y135168D02*
X233410Y156089D01*
X208078Y139622D02*
X208101Y139645D01*
X243927Y162168D02*
X264662Y182945D01*
X233549Y151770D02*
X243927Y162168D01*
X233551Y149790D02*
X235973Y147373D01*
X231574Y147808D02*
X233995Y145391D01*
X229596Y145826D02*
X232017Y143410D01*
X227618Y143844D02*
X230039Y141428D01*
X225640Y141862D02*
X228061Y139446D01*
X223662Y139880D02*
X226083Y137464D01*
X220693Y138887D02*
X221682Y139878D01*
X219704Y137896D02*
X220693Y138887D01*
X214759Y132941D02*
X219704Y137896D01*
X210400Y137500D02*
Y137505D01*
X265549Y183833D02*
X265567D01*
X264662Y182945D02*
X265549Y183833D01*
X263322Y186060D02*
X263340D01*
X262432Y185170D02*
X263322Y186060D01*
X256650Y192750D02*
Y192750D01*
X255744Y191845D02*
X256650Y192750D01*
D23*
X295873Y69800D02*
D03*
X292527D02*
D03*
X295873Y74400D02*
D03*
X292527D02*
D03*
X295873Y65300D02*
D03*
X292527D02*
D03*
X292527Y60700D02*
D03*
X295873D02*
D03*
X254527Y52800D02*
D03*
X257873D02*
D03*
X254527Y57300D02*
D03*
X257873D02*
D03*
X254500Y61800D02*
D03*
X257846D02*
D03*
X254527Y66300D02*
D03*
X257873D02*
D03*
X257873Y70800D02*
D03*
X254527D02*
D03*
X262700Y235500D02*
D03*
X266047D02*
D03*
X262700Y240000D02*
D03*
X266047D02*
D03*
X262700Y244500D02*
D03*
X266047D02*
D03*
X262627Y249100D02*
D03*
X265973D02*
D03*
X301373Y256100D02*
D03*
X298027D02*
D03*
X301373Y251600D02*
D03*
X298027D02*
D03*
X301373Y247100D02*
D03*
X298027D02*
D03*
X301373Y241200D02*
D03*
X298027D02*
D03*
D29*
X255000Y42327D02*
D03*
Y45673D02*
D03*
X264000Y42327D02*
D03*
Y45673D02*
D03*
X259500Y42327D02*
D03*
Y45673D02*
D03*
X268500Y45673D02*
D03*
Y42327D02*
D03*
X295800Y83073D02*
D03*
Y79727D02*
D03*
X291300Y83073D02*
D03*
Y79727D02*
D03*
X286800Y83073D02*
D03*
Y79727D02*
D03*
X282300Y83073D02*
D03*
Y79727D02*
D03*
X277800Y83073D02*
D03*
Y79727D02*
D03*
X273200Y83073D02*
D03*
Y79727D02*
D03*
X268700Y83073D02*
D03*
Y79727D02*
D03*
X264200Y83073D02*
D03*
Y79727D02*
D03*
X258900Y79727D02*
D03*
Y83073D02*
D03*
X277100Y42527D02*
D03*
Y45873D02*
D03*
X281600Y42527D02*
D03*
Y45873D02*
D03*
X286100Y42527D02*
D03*
Y45873D02*
D03*
X290600Y45873D02*
D03*
Y42527D02*
D03*
X268800Y263400D02*
D03*
Y266746D02*
D03*
X273500Y263400D02*
D03*
Y266746D02*
D03*
X260400Y224849D02*
D03*
Y228195D02*
D03*
X282100Y224827D02*
D03*
Y228173D02*
D03*
X277600Y224827D02*
D03*
Y228173D02*
D03*
X258500Y266773D02*
D03*
Y263427D02*
D03*
X286800Y266173D02*
D03*
Y262827D02*
D03*
X295795Y266146D02*
D03*
Y262800D02*
D03*
X291295Y266146D02*
D03*
Y262800D02*
D03*
D42*
X244538Y220293D02*
D03*
Y231907D02*
D03*
D119*
X132400Y297000D02*
X151900D01*
X113876Y315524D02*
X132400Y297000D01*
X254527Y57300D02*
Y66300D01*
X251700Y36600D02*
X264500D01*
X200244Y92500D02*
X244300D01*
X6800Y312200D02*
X10124Y315524D01*
X62897D01*
X24700Y322200D02*
X47550Y345050D01*
X6800Y322200D02*
X24700D01*
X47550Y345050D02*
X74000D01*
X361700Y101600D02*
X363500Y103400D01*
X361700Y50400D02*
Y101600D01*
X322400Y87300D02*
X359900D01*
X357000Y45700D02*
X361700Y50400D01*
X325300Y45700D02*
X357000D01*
X74000Y311800D02*
Y345050D01*
Y141600D02*
Y311800D01*
X157144Y135600D02*
X200244Y92500D01*
X129400Y135600D02*
X157144D01*
X264000Y38700D02*
Y42327D01*
Y37100D02*
Y38700D01*
Y37100D02*
X264500Y36600D01*
X275100Y8700D02*
X316400D01*
X265800Y18000D02*
X275100Y8700D01*
X245600Y18000D02*
X265800D01*
X319604Y40004D02*
X325300Y45700D01*
X319604Y11904D02*
Y40004D01*
X316400Y8700D02*
X319604Y11904D01*
X235500Y18000D02*
X245600D01*
X295873Y69800D02*
Y74400D01*
Y65300D02*
Y69800D01*
X245600Y18000D02*
X247800Y20200D01*
Y40200D01*
Y57300D02*
Y66300D01*
Y40200D02*
Y57300D01*
X129400Y119300D02*
Y135600D01*
Y96200D02*
Y119300D01*
X154700D02*
X156800Y117200D01*
X129400Y119300D02*
X154700D01*
X80000Y135600D02*
X129400D01*
X69600Y128200D02*
X74000Y132600D01*
Y141600D01*
X247800Y66300D02*
Y89000D01*
Y66300D02*
X247800Y66300D01*
X254527D01*
X259500Y42327D02*
X264000D01*
X255000D02*
X259500D01*
X254527Y52800D02*
Y57300D01*
X248100Y40200D02*
X251700Y36600D01*
X247800Y40200D02*
X248100D01*
X244300Y92500D02*
X247800Y89000D01*
X74000Y141600D02*
X80000Y135600D01*
X152400Y389400D02*
X268500D01*
X152400Y389400D02*
X152400Y389400D01*
X146500Y389400D02*
X152400D01*
D120*
X287200Y286300D02*
X320700D01*
X280500Y278200D02*
X284100Y281800D01*
X162500Y278200D02*
X280500D01*
X265700Y291800D02*
X268400Y294500D01*
X252800Y291800D02*
X265700D01*
X145300Y224800D02*
X145946D01*
X158700Y237554D01*
Y274400D01*
X11900Y257800D02*
X16900Y262800D01*
X11900Y225124D02*
Y257800D01*
Y225124D02*
X12962Y224062D01*
X158700Y274400D02*
X162500Y278200D01*
X325161Y290761D02*
Y306400D01*
X320700Y286300D02*
X325161Y290761D01*
X283500Y290000D02*
X287200Y286300D01*
X283500Y290000D02*
Y296600D01*
X295853Y344100D02*
X298400Y341553D01*
Y297873D02*
Y341553D01*
Y297873D02*
X300973Y295300D01*
X305100D01*
X283500Y296600D02*
Y299600D01*
X281400Y301700D02*
X283500Y299600D01*
X270600Y301700D02*
X281400D01*
X268400Y299500D02*
X270600Y301700D01*
X268400Y294500D02*
Y299500D01*
X250200Y289200D02*
X252800Y291800D01*
X193900Y289200D02*
X250200D01*
X189213Y293887D02*
X193900Y289200D01*
X189213Y293887D02*
Y307200D01*
D121*
X387400Y378000D02*
X387500Y377900D01*
X386000Y379400D02*
X387400Y378000D01*
X387500Y272000D02*
Y377900D01*
X261500Y379400D02*
X386000D01*
X38600Y310500D02*
X68200D01*
X34600Y306500D02*
X38600Y310500D01*
X34600Y281800D02*
Y306500D01*
X276800Y234600D02*
Y243500D01*
X273354Y231154D02*
X276800Y234600D01*
X273354Y227854D02*
Y231154D01*
X264502Y224802D02*
X265900Y226200D01*
X260447Y224802D02*
X264502D01*
X274400Y254300D02*
X280000D01*
X281427Y255727D01*
Y266173D02*
X286800D01*
D122*
X171875Y349195D02*
X265394D01*
X375400Y367000D02*
X377700Y364700D01*
Y300900D02*
Y364700D01*
X304000Y367000D02*
X375400D01*
X278200Y362000D02*
X309690D01*
X274400Y358200D02*
X278200Y362000D01*
X186500Y314700D02*
X194400Y306800D01*
X168400Y314700D02*
X186500D01*
X166000Y317100D02*
X168400Y314700D01*
X166000Y317100D02*
Y343319D01*
X274200Y371300D02*
X290000D01*
X259250Y356350D02*
X274200Y371300D01*
X154650Y356350D02*
X259250D01*
X290000Y371300D02*
X294300Y367000D01*
X304000D01*
X309690Y362000D02*
X310700D01*
X302700Y355010D02*
X309690Y362000D01*
X302700Y327442D02*
Y355010D01*
X301200Y325942D02*
X302700Y327442D01*
X265394Y349195D02*
X274400Y358200D01*
X166000Y343319D02*
X171875Y349195D01*
X124695Y344094D02*
X129795Y349195D01*
X171875D01*
D123*
X6800Y332200D02*
X23700D01*
X45900Y354400D01*
X279300Y83073D02*
Y95600D01*
X286100Y36000D02*
Y38400D01*
X305950Y15250D02*
X308500Y17800D01*
X45900Y354400D02*
X91300D01*
X82200Y345300D02*
X91300Y354400D01*
X82200Y165300D02*
Y345300D01*
Y165300D02*
X102562Y144938D01*
X204000Y97900D02*
X281600D01*
X156962Y144938D02*
X204000Y97900D01*
X102562Y144938D02*
X156962D01*
X321100Y60300D02*
Y65000D01*
X319200Y58400D02*
X321100Y60300D01*
X311400Y58400D02*
X319200D01*
X281600Y97900D02*
X281700Y98000D01*
X279300Y95600D02*
X281600Y97900D01*
X301600Y98000D02*
X308500Y91100D01*
X281700Y98000D02*
X301600D01*
X311100Y67000D02*
X319100D01*
X308500Y69600D02*
X311100Y67000D01*
X308500Y69600D02*
Y91100D01*
X308474Y54226D02*
Y55474D01*
X311400Y58400D01*
X319100Y67000D02*
X321100Y65000D01*
X91300Y354400D02*
X94400Y357500D01*
X308500Y17800D02*
Y33800D01*
X279300Y83073D02*
X282300D01*
X277800D02*
X279300D01*
X286100Y38400D02*
Y42527D01*
X281600D02*
X286100D01*
X277100D02*
X281600D01*
X308500Y33800D02*
Y54200D01*
X291300Y83073D02*
X295800D01*
X286800D02*
X291300D01*
X282300D02*
X286800D01*
X273200D02*
X277800D01*
X268700D02*
X273200D01*
X264200D02*
X268700D01*
X286100Y36000D02*
X291900Y30200D01*
X304900D01*
X308500Y33800D01*
D124*
X124500Y384900D02*
X263340D01*
X390000Y208500D02*
Y270894D01*
X390050Y270944D01*
Y381450D01*
X386500Y385000D02*
X390050Y381450D01*
X263340Y385000D02*
X386500D01*
X264176Y346100D02*
X267400D01*
X272900Y351600D01*
X120800Y381200D02*
X124500Y384900D01*
X120800Y343200D02*
Y381200D01*
Y343200D02*
X123400Y340600D01*
X127500D01*
D125*
X382600Y299400D02*
Y372100D01*
X379600Y296400D02*
X382600Y299400D01*
X374800Y296400D02*
X379600D01*
X378830Y375870D02*
X382600Y372100D01*
X256430Y375870D02*
X378830D01*
D126*
X301373Y259500D02*
Y264827D01*
X300054Y266146D02*
X301373Y264827D01*
X295795Y266146D02*
X300054D01*
X272123Y224700D02*
X277473D01*
X262700Y234123D02*
Y235500D01*
Y234123D02*
X272123Y224700D01*
X274400Y254300D02*
X276800Y251900D01*
X264400Y254300D02*
X274400D01*
X276800Y243500D02*
Y251900D01*
X262627Y249100D02*
Y252527D01*
X264400Y254300D01*
X276800Y243500D02*
X286100Y234200D01*
X303200D01*
X301373Y236027D02*
Y241200D01*
Y236027D02*
X303200Y234200D01*
X318800D01*
X328000Y225000D01*
Y186300D02*
Y225000D01*
X245600Y103900D02*
X328000Y186300D01*
X206738Y103900D02*
X245600D01*
X158338Y152300D02*
X206738Y103900D01*
X107800Y152300D02*
X158338D01*
X94427Y165673D02*
X107800Y152300D01*
X94427Y165673D02*
Y263000D01*
X337500Y251600D02*
X339200Y253300D01*
X301373Y251600D02*
X337500D01*
X280300Y259500D02*
X301373D01*
X253152Y255000D02*
Y264252D01*
Y243148D02*
Y255000D01*
X139850Y179450D02*
X168800Y150500D01*
X124275Y195026D02*
X139850Y179450D01*
X184552Y264252D02*
X253152D01*
X170400Y250100D02*
X184552Y264252D01*
X170400Y210000D02*
Y250100D01*
X139850Y179450D02*
X170400Y210000D01*
X178625Y150500D02*
X181066Y148059D01*
X168800Y150500D02*
X178625D01*
X124275Y195026D02*
Y227100D01*
X103600D02*
X124275D01*
X100000Y230700D02*
X103600Y227100D01*
X100000Y230700D02*
Y241463D01*
Y263000D01*
X301373Y256100D02*
Y259500D01*
X273500Y263400D02*
X276400D01*
X280300Y259500D01*
X256300Y240000D02*
X262700D01*
X253152Y243148D02*
X256300Y240000D01*
X253152Y264252D02*
X255673Y266773D01*
X258500D01*
X277473Y224700D02*
X277600Y224827D01*
X282100D01*
X262700Y240000D02*
Y244500D01*
Y235500D02*
Y240000D01*
X264700Y263400D02*
X268800D01*
X261327Y266773D02*
X264700Y263400D01*
X258500Y266773D02*
X261327D01*
X268800Y263400D02*
X273500D01*
X301373Y251600D02*
Y256100D01*
Y247100D02*
Y251600D01*
X291295Y266146D02*
X295795D01*
X331474Y66874D02*
Y80826D01*
X327000Y62400D02*
X331474Y66874D01*
X307400Y62400D02*
X314600D01*
X302800Y57800D02*
X307400Y62400D01*
X293400Y57800D02*
X302800D01*
X292527Y58673D02*
X293400Y57800D01*
X292527Y58673D02*
Y60700D01*
X286100Y45873D02*
X293127D01*
X297500Y41500D01*
X314148Y21248D02*
Y29152D01*
X255000Y45673D02*
X268500D01*
Y50000D01*
X268400Y50100D02*
X268500Y50000D01*
X257873Y66300D02*
Y70800D01*
Y57300D02*
Y66300D01*
Y52800D02*
Y57300D01*
Y70800D02*
X257873Y70800D01*
X255000Y45673D02*
X255000Y45673D01*
X281600Y45873D02*
X286100D01*
X277100D02*
X281600D01*
X292527Y69800D02*
Y74400D01*
Y65300D02*
Y69800D01*
Y60700D02*
Y65300D01*
X292527Y60700D02*
X292527Y60700D01*
D128*
X243500Y296600D02*
D03*
X233500D02*
D03*
X253500D02*
D03*
X263500D02*
D03*
X273500D02*
D03*
X283500D02*
D03*
X6900Y232800D02*
D03*
X16900Y242800D02*
D03*
X6900D02*
D03*
X16900Y252800D02*
D03*
X6900D02*
D03*
X16900Y262800D02*
D03*
X6900D02*
D03*
X16900Y272800D02*
D03*
X6900D02*
D03*
X142700Y276700D02*
D03*
Y266700D02*
D03*
Y256700D02*
D03*
Y246700D02*
D03*
X207000Y26600D02*
D03*
Y16600D02*
D03*
X7400Y136800D02*
D03*
Y146800D02*
D03*
Y126800D02*
D03*
Y116800D02*
D03*
Y106800D02*
D03*
Y96800D02*
D03*
X6800Y322200D02*
D03*
Y312200D02*
D03*
Y302200D02*
D03*
X319000Y121700D02*
D03*
Y131700D02*
D03*
X7100Y186300D02*
D03*
Y196300D02*
D03*
Y206300D02*
D03*
X78700Y116800D02*
D03*
X88700D02*
D03*
X98700D02*
D03*
X108700D02*
D03*
D129*
X223500Y296600D02*
D03*
X118700Y116800D02*
D03*
D130*
X16900Y232800D02*
D03*
X142700Y236700D02*
D03*
X207000Y6600D02*
D03*
X7400Y156800D02*
D03*
X6800Y332200D02*
D03*
X319000Y111700D02*
D03*
X7100Y176300D02*
D03*
D131*
X313606Y348984D02*
D03*
X319000D02*
D03*
X323390D02*
D03*
X309216D02*
D03*
X313606Y334810D02*
D03*
X319000D02*
D03*
X323390D02*
D03*
X309216D02*
D03*
Y339200D02*
D03*
X323390D02*
D03*
Y344594D02*
D03*
X309216D02*
D03*
X319000Y339200D02*
D03*
X313606D02*
D03*
Y344594D02*
D03*
X319000D02*
D03*
X175690Y336784D02*
D03*
X181084D02*
D03*
X185473D02*
D03*
X171300D02*
D03*
X175690Y322610D02*
D03*
X181084D02*
D03*
X185473D02*
D03*
X171300D02*
D03*
Y327000D02*
D03*
X185473D02*
D03*
Y332394D02*
D03*
X171300D02*
D03*
X181084Y327000D02*
D03*
X175690D02*
D03*
Y332394D02*
D03*
X181084D02*
D03*
D132*
X153500Y60800D02*
D03*
Y50800D02*
D03*
X183500D02*
D03*
Y60800D02*
D03*
Y32500D02*
D03*
Y22500D02*
D03*
Y12500D02*
D03*
X153500Y32500D02*
D03*
Y22500D02*
D03*
Y12500D02*
D03*
D133*
X27525Y383507D02*
D03*
X27525Y349492D02*
D03*
D134*
X11069Y349492D02*
D03*
X11068Y383508D02*
D03*
D135*
X25438Y355122D02*
D03*
Y377878D02*
D03*
D136*
X380006Y317100D02*
D03*
X210100Y201300D02*
D03*
X186122Y143700D02*
D03*
X135100Y248000D02*
D03*
X169400Y291500D02*
D03*
X151900Y297000D02*
D03*
X113876Y315524D02*
D03*
X179700Y358800D02*
D03*
X188973Y334800D02*
D03*
X163600Y346476D02*
D03*
X170517Y319202D02*
D03*
X136200Y324600D02*
D03*
X364700Y371900D02*
D03*
X364400Y358300D02*
D03*
X275194Y382400D02*
D03*
X355400Y382200D02*
D03*
X272400Y372700D02*
D03*
X273592Y342930D02*
D03*
X251069Y313891D02*
D03*
X316600Y288900D02*
D03*
X369000Y312100D02*
D03*
X366400Y284800D02*
D03*
X359400Y284728D02*
D03*
X373400Y356449D02*
D03*
X387400Y378000D02*
D03*
X370672Y350037D02*
D03*
X358900Y349200D02*
D03*
X319256Y359856D02*
D03*
X306176Y350600D02*
D03*
X327300Y344793D02*
D03*
X305500Y342800D02*
D03*
X301244Y309200D02*
D03*
X330000Y261400D02*
D03*
X263900Y259000D02*
D03*
X280000Y235000D02*
D03*
X296989Y226800D02*
D03*
X274100Y220600D02*
D03*
X298648Y220800D02*
D03*
X368100Y255700D02*
D03*
X366600Y65700D02*
D03*
X366400Y73038D02*
D03*
X300000Y67800D02*
D03*
X287798Y11687D02*
D03*
X310910Y96100D02*
D03*
X221429Y84400D02*
D03*
X247700Y93800D02*
D03*
X167700Y110000D02*
D03*
X171300Y72419D02*
D03*
X82300Y81849D02*
D03*
X370700Y83200D02*
D03*
X355800Y278100D02*
D03*
X366115Y77685D02*
D03*
X381000Y271600D02*
D03*
X378300Y266500D02*
D03*
X377700Y300900D02*
D03*
X366100Y54100D02*
D03*
X356600Y67200D02*
D03*
X353800Y69600D02*
D03*
X383900Y24800D02*
D03*
X386100Y18600D02*
D03*
X390000Y208500D02*
D03*
X387500Y272000D02*
D03*
X383900Y275000D02*
D03*
X374800Y296400D02*
D03*
X263340Y385000D02*
D03*
X264176Y346100D02*
D03*
X272900Y351600D02*
D03*
X127500Y340600D02*
D03*
X382600Y372100D02*
D03*
X261500Y379400D02*
D03*
X309413Y352813D02*
D03*
X253400Y352100D02*
D03*
X253300Y345000D02*
D03*
X171497Y340503D02*
D03*
X308400Y283100D02*
D03*
X308300Y289200D02*
D03*
X305400Y323000D02*
D03*
X284100Y281800D02*
D03*
X268100Y287000D02*
D03*
X265452Y284500D02*
D03*
X166887Y307687D02*
D03*
X154650Y356350D02*
D03*
X290000Y371300D02*
D03*
X304000Y367000D02*
D03*
X310700Y362000D02*
D03*
X256430Y375870D02*
D03*
X68200Y310500D02*
D03*
X34600Y281800D02*
D03*
X301200Y325942D02*
D03*
X274400Y358200D02*
D03*
X194400Y306800D02*
D03*
X124695Y344094D02*
D03*
X171875Y349195D02*
D03*
X74000Y311800D02*
D03*
X273354Y227854D02*
D03*
X265900Y226200D02*
D03*
X281427Y255727D02*
D03*
Y266173D02*
D03*
X94427Y263000D02*
D03*
X223700Y202143D02*
D03*
X215061Y168368D02*
D03*
X190622Y157800D02*
D03*
X251635Y218835D02*
D03*
X339200Y253300D02*
D03*
X282100Y270000D02*
D03*
X258442Y254942D02*
D03*
X178625Y150500D02*
D03*
X124275Y227100D02*
D03*
X100000Y241463D02*
D03*
Y263000D02*
D03*
X136059Y60941D02*
D03*
X331474Y80826D02*
D03*
X327000Y62400D02*
D03*
X314600D02*
D03*
X312251Y52651D02*
D03*
X297500Y41500D02*
D03*
X314148Y29152D02*
D03*
Y21248D02*
D03*
X282300Y111900D02*
D03*
Y127200D02*
D03*
X264000Y38700D02*
D03*
X268400Y50100D02*
D03*
X363500Y103400D02*
D03*
X322400Y87300D02*
D03*
X300747Y84147D02*
D03*
X235500Y18000D02*
D03*
X251577Y26377D02*
D03*
X239124Y57376D02*
D03*
X156800Y117200D02*
D03*
X129400Y96200D02*
D03*
X69600Y128200D02*
D03*
X239300Y92400D02*
D03*
X74000Y345050D02*
D03*
X305900Y15300D02*
D03*
X286223Y38277D02*
D03*
X300474Y54226D02*
D03*
X253152Y87548D02*
D03*
X297247Y87800D02*
D03*
X287798Y87702D02*
D03*
X273624Y88194D02*
D03*
X262900Y87600D02*
D03*
X94400Y357500D02*
D03*
X62897Y315524D02*
D03*
X268500Y389400D02*
D03*
X152400D02*
D03*
X146500Y389400D02*
D03*
X323500Y18300D02*
D03*
X28300Y284000D02*
D03*
X326600Y18300D02*
D03*
X25200Y284000D02*
D03*
X49900Y116500D02*
D03*
X151500Y226100D02*
D03*
X149200Y219600D02*
D03*
X145300Y224800D02*
D03*
X17000Y219000D02*
D03*
X7200Y221478D02*
D03*
X258478Y270278D02*
D03*
X12962Y224062D02*
D03*
X325200Y306400D02*
D03*
X292100Y289300D02*
D03*
X295270Y291830D02*
D03*
Y331070D02*
D03*
X321224Y293124D02*
D03*
X305100Y295300D02*
D03*
X321224Y331624D02*
D03*
X295853Y344100D02*
D03*
X310500Y297573D02*
D03*
X313350Y331550D02*
D03*
X315319Y300319D02*
D03*
Y324019D02*
D03*
X189213Y307200D02*
D03*
X154250Y340850D02*
D03*
X163800Y292600D02*
D03*
Y284600D02*
D03*
X216100Y295200D02*
D03*
X157700Y320000D02*
D03*
X158200Y331500D02*
D03*
X256400Y286700D02*
D03*
X252200Y283800D02*
D03*
X292100Y359191D02*
D03*
X63200Y116500D02*
D03*
X166000Y47700D02*
D03*
X174600D02*
D03*
X174971Y53000D02*
D03*
X166000D02*
D03*
X166100Y56600D02*
D03*
Y61000D02*
D03*
X268900Y270100D02*
D03*
X190300Y131000D02*
D03*
X118700Y127400D02*
D03*
X108600Y124800D02*
D03*
X194200Y134800D02*
D03*
X256900Y223446D02*
D03*
X206642Y205000D02*
D03*
X316800Y54900D02*
D03*
X258137Y249037D02*
D03*
X257926Y237226D02*
D03*
X260447Y220446D02*
D03*
X282100Y220500D02*
D03*
X306263Y241163D02*
D03*
X306132Y247069D02*
D03*
X295880Y270620D02*
D03*
X287300Y270200D02*
D03*
X273400Y270300D02*
D03*
X236900Y235449D02*
D03*
Y232299D02*
D03*
Y226000D02*
D03*
Y229150D02*
D03*
X187000Y235449D02*
D03*
Y232299D02*
D03*
Y229150D02*
D03*
Y226000D02*
D03*
X202117Y209383D02*
D03*
X204344Y207156D02*
D03*
X199890Y211610D02*
D03*
X230585Y248349D02*
D03*
Y245199D02*
D03*
Y238900D02*
D03*
Y242050D02*
D03*
X180200Y248349D02*
D03*
Y245199D02*
D03*
Y238900D02*
D03*
Y242050D02*
D03*
X210400Y137500D02*
D03*
X319604Y208604D02*
D03*
X315150Y204150D02*
D03*
X317377Y206377D02*
D03*
X205851Y141849D02*
D03*
X208078Y139622D02*
D03*
X214759Y132941D02*
D03*
X212532Y135168D02*
D03*
X265567Y183833D02*
D03*
X263340Y186060D02*
D03*
X256650Y192750D02*
D03*
X258877Y190523D02*
D03*
X261148Y188252D02*
D03*
X258158Y197842D02*
D03*
X249250Y206750D02*
D03*
X251477Y204523D02*
D03*
X255931Y200069D02*
D03*
X253704Y202296D02*
D03*
X168290Y180010D02*
D03*
X170517Y177783D02*
D03*
X177198Y171102D02*
D03*
X174971Y173329D02*
D03*
X172744Y175556D02*
D03*
D137*
X370000Y200000D02*
D03*
X360000Y180000D02*
D03*
X370000Y160000D02*
D03*
X360000Y20000D02*
D03*
X350000Y200000D02*
D03*
X340000Y180000D02*
D03*
X350000Y160000D02*
D03*
X340000Y20000D02*
D03*
X330000Y160000D02*
D03*
Y40000D02*
D03*
X310000Y200000D02*
D03*
Y160000D02*
D03*
X290000Y240000D02*
D03*
Y160000D02*
D03*
X280000Y60000D02*
D03*
X260000Y340000D02*
D03*
X270000Y240000D02*
D03*
X230000Y40000D02*
D03*
X160000Y180000D02*
D03*
X170000Y80000D02*
D03*
X140000Y380000D02*
D03*
X150000Y280000D02*
D03*
Y200000D02*
D03*
Y160000D02*
D03*
Y80000D02*
D03*
Y40000D02*
D03*
X130000Y360000D02*
D03*
Y200000D02*
D03*
X120000Y180000D02*
D03*
X130000Y160000D02*
D03*
X120000Y100000D02*
D03*
Y20000D02*
D03*
X100000Y300000D02*
D03*
X110000Y280000D02*
D03*
Y240000D02*
D03*
Y200000D02*
D03*
X100000Y180000D02*
D03*
X110000Y160000D02*
D03*
X100000Y100000D02*
D03*
X110000Y40000D02*
D03*
X100000Y20000D02*
D03*
X90000Y200000D02*
D03*
Y40000D02*
D03*
X80000Y20000D02*
D03*
X70000Y360000D02*
D03*
X60000Y180000D02*
D03*
X70000Y40000D02*
D03*
X60000Y20000D02*
D03*
X50000Y280000D02*
D03*
Y200000D02*
D03*
X40000Y140000D02*
D03*
Y100000D02*
D03*
Y60000D02*
D03*
X50000Y40000D02*
D03*
X40000Y20000D02*
D03*
X20000Y340000D02*
D03*
Y300000D02*
D03*
Y100000D02*
D03*
Y60000D02*
D03*
Y20000D02*
D03*
D138*
X181066Y148059D02*
D03*
X178700Y145693D02*
D03*
D139*
X219483Y204617D02*
D03*
X217117Y206983D02*
D03*
D140*
X258900Y79727D02*
X295800D01*
X295800Y79727D01*
M02*
