G04*
G04 #@! TF.GenerationSoftware,Altium Limited,Altium Designer,21.1.1 (26)*
G04*
G04 Layer_Color=16711935*
%FSLAX25Y25*%
%MOIN*%
G70*
G04*
G04 #@! TF.SameCoordinates,FB3CC9E6-9328-4A98-A2C4-C3437A6BD050*
G04*
G04*
G04 #@! TF.FilePolarity,Positive*
G04*
G01*
G75*
%ADD17C,0.00394*%
D17*
X116680Y251613D02*
G03*
X116680Y251613I-1969J0D01*
G01*
X308429Y351739D02*
G03*
X308429Y351739I-1969J0D01*
G01*
X169330Y179639D02*
G03*
X169330Y179639I-1969J0D01*
G01*
X110883Y80306D02*
G03*
X110883Y80306I-1969J0D01*
G01*
X170513Y339539D02*
G03*
X170513Y339539I-1969J0D01*
G01*
X241290Y220785D02*
Y231415D01*
X247786D01*
Y220785D02*
Y231415D01*
X241290Y220785D02*
X247786D01*
X132231Y248070D02*
Y269330D01*
X111169Y248070D02*
Y269330D01*
X132231D01*
X111169Y248070D02*
X132231D01*
X53824Y299168D02*
X57564Y302909D01*
X53824Y291491D02*
Y302909D01*
Y291491D02*
X60123D01*
Y302909D01*
X53824D02*
X60123D01*
X54324Y266369D02*
X58064Y270109D01*
X54324Y258691D02*
Y270109D01*
Y258691D02*
X60623D01*
Y270109D01*
X54324D02*
X60623D01*
X66897Y384809D02*
X81503D01*
X66897Y358391D02*
X81503D01*
X66897D02*
Y384809D01*
X81503Y358391D02*
Y384809D01*
X373144Y370642D02*
Y382139D01*
X378262Y370642D02*
Y382139D01*
X373144D02*
X378262D01*
X373144Y370642D02*
X378262D01*
X373144D02*
Y382139D01*
X378262Y370642D02*
Y382139D01*
X373144D02*
X378262D01*
X373144Y370642D02*
X378262D01*
X373144D02*
X378262D01*
X373144Y382139D02*
X378262D01*
Y370642D02*
Y382139D01*
X373144Y370642D02*
Y382139D01*
X373044Y344143D02*
Y355639D01*
X378162Y344143D02*
Y355639D01*
X373044D02*
X378162D01*
X373044Y344143D02*
X378162D01*
X373044D02*
Y355639D01*
X378162Y344143D02*
Y355639D01*
X373044D02*
X378162D01*
X373044Y344143D02*
X378162D01*
X373044D02*
X378162D01*
X373044Y355639D02*
X378162D01*
Y344143D02*
Y355639D01*
X373044Y344143D02*
Y355639D01*
X349549Y319694D02*
X356045D01*
X349549D02*
Y330324D01*
X356045D01*
Y319694D02*
Y330324D01*
X310088Y369243D02*
Y375739D01*
X320718D01*
Y369243D02*
Y375739D01*
X310088Y369243D02*
X320718D01*
X302917Y328511D02*
X329689D01*
X302917Y355283D02*
X329689D01*
Y328511D02*
Y355283D01*
X302917Y328511D02*
Y355283D01*
X214687Y127302D02*
X243083Y155697D01*
X162350Y179639D02*
X190746Y208034D01*
X243083Y155697D01*
X162350Y179639D02*
X214687Y127302D01*
X254541Y217541D02*
X309659D01*
X254541D02*
Y272659D01*
X309659D01*
Y217541D02*
Y272659D01*
X307691Y217541D02*
X309659Y219510D01*
X91198Y97826D02*
X112458D01*
X91198Y76763D02*
X112458D01*
X91198D02*
Y97826D01*
X112458Y76763D02*
Y97826D01*
X232728Y373862D02*
Y385358D01*
X237846Y373862D02*
Y385358D01*
X232728D02*
X237846D01*
X232728Y373862D02*
X237846D01*
X232728D02*
Y385358D01*
X237846Y373862D02*
Y385358D01*
X232728D02*
X237846D01*
X232728Y373862D02*
X237846D01*
X232728D02*
X237846D01*
X232728Y385358D02*
X237846D01*
Y373862D02*
Y385358D01*
X232728Y373862D02*
Y385358D01*
X233028Y345662D02*
Y357158D01*
X238146Y345662D02*
Y357158D01*
X233028D02*
X238146D01*
X233028Y345662D02*
X238146D01*
X233028D02*
Y357158D01*
X238146Y345662D02*
Y357158D01*
X233028D02*
X238146D01*
X233028Y345662D02*
X238146D01*
X233028D02*
X238146D01*
X233028Y357158D02*
X238146D01*
Y345662D02*
Y357158D01*
X233028Y345662D02*
Y357158D01*
X197172Y298349D02*
Y304845D01*
X207802D01*
Y298349D02*
Y304845D01*
X197172Y298349D02*
X207802D01*
X174202Y360949D02*
Y367445D01*
X163572Y360949D02*
X174202D01*
X163572D02*
Y367445D01*
X174202D01*
X165001Y316311D02*
X191772D01*
X165001Y343083D02*
X191772D01*
Y316311D02*
Y343083D01*
X165001Y316311D02*
Y343083D01*
X248428Y90447D02*
X303546D01*
Y35328D02*
Y90447D01*
X248428Y35328D02*
X303546D01*
X248428D02*
Y90447D01*
Y88872D02*
X250002Y90447D01*
M02*
