G04*
G04 #@! TF.GenerationSoftware,Altium Limited,Altium Designer,21.1.1 (26)*
G04*
G04 Layer_Color=16711935*
%FSLAX25Y25*%
%MOIN*%
G70*
G04*
G04 #@! TF.SameCoordinates,FB3CC9E6-9328-4A98-A2C4-C3437A6BD050*
G04*
G04*
G04 #@! TF.FilePolarity,Negative*
G04*
G01*
G75*
%ADD68R,0.02762X0.02959*%
%ADD74R,0.02959X0.02762*%
%ADD87R,0.04737X0.05721*%
%ADD111C,0.06706*%
%ADD112R,0.06706X0.06706*%
%ADD113R,0.06706X0.06706*%
%ADD114C,0.03162*%
%ADD115C,0.07099*%
%ADD116O,0.08674X0.05524*%
%ADD117O,0.07887X0.05524*%
%ADD118C,0.03753*%
G04:AMPARAMS|DCode=141|XSize=27.62mil|YSize=29.59mil|CornerRadius=0mil|HoleSize=0mil|Usage=FLASHONLY|Rotation=45.000|XOffset=0mil|YOffset=0mil|HoleType=Round|Shape=Rectangle|*
%AMROTATEDRECTD141*
4,1,4,0.00070,-0.02023,-0.02023,0.00070,-0.00070,0.02023,0.02023,-0.00070,0.00070,-0.02023,0.0*
%
%ADD141ROTATEDRECTD141*%

G04:AMPARAMS|DCode=142|XSize=27.62mil|YSize=29.59mil|CornerRadius=0mil|HoleSize=0mil|Usage=FLASHONLY|Rotation=315.000|XOffset=0mil|YOffset=0mil|HoleType=Round|Shape=Rectangle|*
%AMROTATEDRECTD142*
4,1,4,-0.02023,-0.00070,0.00070,0.02023,0.02023,0.00070,-0.00070,-0.02023,-0.02023,-0.00070,0.0*
%
%ADD142ROTATEDRECTD142*%

D68*
X295873Y69800D02*
D03*
X292527D02*
D03*
X295873Y74400D02*
D03*
X292527D02*
D03*
X295873Y65300D02*
D03*
X292527D02*
D03*
X292527Y60700D02*
D03*
X295873D02*
D03*
X254527Y52800D02*
D03*
X257873D02*
D03*
X254527Y57300D02*
D03*
X257873D02*
D03*
X254500Y61800D02*
D03*
X257846D02*
D03*
X254527Y66300D02*
D03*
X257873D02*
D03*
X257873Y70800D02*
D03*
X254527D02*
D03*
X262700Y235500D02*
D03*
X266047D02*
D03*
X262700Y240000D02*
D03*
X266047D02*
D03*
X262700Y244500D02*
D03*
X266047D02*
D03*
X262627Y249100D02*
D03*
X265973D02*
D03*
X301373Y256100D02*
D03*
X298027D02*
D03*
X301373Y251600D02*
D03*
X298027D02*
D03*
X301373Y247100D02*
D03*
X298027D02*
D03*
X301373Y241200D02*
D03*
X298027D02*
D03*
D74*
X255000Y42327D02*
D03*
Y45673D02*
D03*
X264000Y42327D02*
D03*
Y45673D02*
D03*
X259500Y42327D02*
D03*
Y45673D02*
D03*
X268500Y45673D02*
D03*
Y42327D02*
D03*
X295800Y83073D02*
D03*
Y79727D02*
D03*
X291300Y83073D02*
D03*
Y79727D02*
D03*
X286800Y83073D02*
D03*
Y79727D02*
D03*
X282300Y83073D02*
D03*
Y79727D02*
D03*
X277800Y83073D02*
D03*
Y79727D02*
D03*
X273200Y83073D02*
D03*
Y79727D02*
D03*
X268700Y83073D02*
D03*
Y79727D02*
D03*
X264200Y83073D02*
D03*
Y79727D02*
D03*
X258900Y79727D02*
D03*
Y83073D02*
D03*
X277100Y42527D02*
D03*
Y45873D02*
D03*
X281600Y42527D02*
D03*
Y45873D02*
D03*
X286100Y42527D02*
D03*
Y45873D02*
D03*
X290600Y45873D02*
D03*
Y42527D02*
D03*
X268800Y263400D02*
D03*
Y266746D02*
D03*
X273500Y263400D02*
D03*
Y266746D02*
D03*
X260400Y224849D02*
D03*
Y228195D02*
D03*
X282100Y224827D02*
D03*
Y228173D02*
D03*
X277600Y224827D02*
D03*
Y228173D02*
D03*
X258500Y266773D02*
D03*
Y263427D02*
D03*
X286800Y266173D02*
D03*
Y262827D02*
D03*
X295795Y266146D02*
D03*
Y262800D02*
D03*
X291295Y266146D02*
D03*
Y262800D02*
D03*
D87*
X244538Y220293D02*
D03*
Y231907D02*
D03*
D111*
X243500Y296600D02*
D03*
X233500D02*
D03*
X253500D02*
D03*
X263500D02*
D03*
X273500D02*
D03*
X283500D02*
D03*
X6900Y232800D02*
D03*
X16900Y242800D02*
D03*
X6900D02*
D03*
X16900Y252800D02*
D03*
X6900D02*
D03*
X16900Y262800D02*
D03*
X6900D02*
D03*
X16900Y272800D02*
D03*
X6900D02*
D03*
X142700Y276700D02*
D03*
Y266700D02*
D03*
Y256700D02*
D03*
Y246700D02*
D03*
X207000Y26600D02*
D03*
Y16600D02*
D03*
X7400Y136800D02*
D03*
Y146800D02*
D03*
Y126800D02*
D03*
Y116800D02*
D03*
Y106800D02*
D03*
Y96800D02*
D03*
X6800Y322200D02*
D03*
Y312200D02*
D03*
Y302200D02*
D03*
X319000Y121700D02*
D03*
Y131700D02*
D03*
X7100Y186300D02*
D03*
Y196300D02*
D03*
Y206300D02*
D03*
X78700Y116800D02*
D03*
X88700D02*
D03*
X98700D02*
D03*
X108700D02*
D03*
D112*
X223500Y296600D02*
D03*
X118700Y116800D02*
D03*
D113*
X16900Y232800D02*
D03*
X142700Y236700D02*
D03*
X207000Y6600D02*
D03*
X7400Y156800D02*
D03*
X6800Y332200D02*
D03*
X319000Y111700D02*
D03*
X7100Y176300D02*
D03*
D114*
X313606Y348984D02*
D03*
X319000D02*
D03*
X323390D02*
D03*
X309216D02*
D03*
X313606Y334810D02*
D03*
X319000D02*
D03*
X323390D02*
D03*
X309216D02*
D03*
Y339200D02*
D03*
X323390D02*
D03*
Y344594D02*
D03*
X309216D02*
D03*
X319000Y339200D02*
D03*
X313606D02*
D03*
Y344594D02*
D03*
X319000D02*
D03*
X175690Y336784D02*
D03*
X181084D02*
D03*
X185473D02*
D03*
X171300D02*
D03*
X175690Y322610D02*
D03*
X181084D02*
D03*
X185473D02*
D03*
X171300D02*
D03*
Y327000D02*
D03*
X185473D02*
D03*
Y332394D02*
D03*
X171300D02*
D03*
X181084Y327000D02*
D03*
X175690D02*
D03*
Y332394D02*
D03*
X181084D02*
D03*
D115*
X153500Y60800D02*
D03*
Y50800D02*
D03*
X183500D02*
D03*
Y60800D02*
D03*
Y32500D02*
D03*
Y22500D02*
D03*
Y12500D02*
D03*
X153500Y32500D02*
D03*
Y22500D02*
D03*
Y12500D02*
D03*
D116*
X27525Y383507D02*
D03*
X27525Y349492D02*
D03*
D117*
X11069Y349492D02*
D03*
X11068Y383508D02*
D03*
D118*
X25438Y355122D02*
D03*
Y377878D02*
D03*
D141*
X181066Y148059D02*
D03*
X178700Y145693D02*
D03*
D142*
X219483Y204617D02*
D03*
X217117Y206983D02*
D03*
M02*
