G04*
G04 #@! TF.GenerationSoftware,Altium Limited,Altium Designer,21.1.1 (26)*
G04*
G04 Layer_Color=255*
%FSLAX25Y25*%
%MOIN*%
G70*
G04*
G04 #@! TF.SameCoordinates,FB3CC9E6-9328-4A98-A2C4-C3437A6BD050*
G04*
G04*
G04 #@! TF.FilePolarity,Positive*
G04*
G01*
G75*
%ADD23R,0.02362X0.02559*%
%ADD29R,0.02559X0.02362*%
%ADD42R,0.03937X0.04921*%
%ADD128C,0.05906*%
%ADD129R,0.05906X0.05906*%
%ADD130R,0.05906X0.05906*%
%ADD131C,0.02362*%
%ADD132C,0.06299*%
%ADD133O,0.07874X0.04724*%
%ADD134O,0.07087X0.04724*%
%ADD135C,0.02953*%
G04:AMPARAMS|DCode=138|XSize=23.62mil|YSize=25.59mil|CornerRadius=0mil|HoleSize=0mil|Usage=FLASHONLY|Rotation=45.000|XOffset=0mil|YOffset=0mil|HoleType=Round|Shape=Rectangle|*
%AMROTATEDRECTD138*
4,1,4,0.00070,-0.01740,-0.01740,0.00070,-0.00070,0.01740,0.01740,-0.00070,0.00070,-0.01740,0.0*
%
%ADD138ROTATEDRECTD138*%

G04:AMPARAMS|DCode=139|XSize=23.62mil|YSize=25.59mil|CornerRadius=0mil|HoleSize=0mil|Usage=FLASHONLY|Rotation=315.000|XOffset=0mil|YOffset=0mil|HoleType=Round|Shape=Rectangle|*
%AMROTATEDRECTD139*
4,1,4,-0.01740,-0.00070,0.00070,0.01740,0.01740,0.00070,-0.00070,-0.01740,-0.01740,-0.00070,0.0*
%
%ADD139ROTATEDRECTD139*%

D23*
X295873Y69800D02*
D03*
X292527D02*
D03*
X295873Y74400D02*
D03*
X292527D02*
D03*
X295873Y65300D02*
D03*
X292527D02*
D03*
X292527Y60700D02*
D03*
X295873D02*
D03*
X254527Y52800D02*
D03*
X257873D02*
D03*
X254527Y57300D02*
D03*
X257873D02*
D03*
X254500Y61800D02*
D03*
X257846D02*
D03*
X254527Y66300D02*
D03*
X257873D02*
D03*
X257873Y70800D02*
D03*
X254527D02*
D03*
X262700Y235500D02*
D03*
X266047D02*
D03*
X262700Y240000D02*
D03*
X266047D02*
D03*
X262700Y244500D02*
D03*
X266047D02*
D03*
X262627Y249100D02*
D03*
X265973D02*
D03*
X301373Y256100D02*
D03*
X298027D02*
D03*
X301373Y251600D02*
D03*
X298027D02*
D03*
X301373Y247100D02*
D03*
X298027D02*
D03*
X301373Y241200D02*
D03*
X298027D02*
D03*
D29*
X255000Y42327D02*
D03*
Y45673D02*
D03*
X264000Y42327D02*
D03*
Y45673D02*
D03*
X259500Y42327D02*
D03*
Y45673D02*
D03*
X268500Y45673D02*
D03*
Y42327D02*
D03*
X295800Y83073D02*
D03*
Y79727D02*
D03*
X291300Y83073D02*
D03*
Y79727D02*
D03*
X286800Y83073D02*
D03*
Y79727D02*
D03*
X282300Y83073D02*
D03*
Y79727D02*
D03*
X277800Y83073D02*
D03*
Y79727D02*
D03*
X273200Y83073D02*
D03*
Y79727D02*
D03*
X268700Y83073D02*
D03*
Y79727D02*
D03*
X264200Y83073D02*
D03*
Y79727D02*
D03*
X258900Y79727D02*
D03*
Y83073D02*
D03*
X277100Y42527D02*
D03*
Y45873D02*
D03*
X281600Y42527D02*
D03*
Y45873D02*
D03*
X286100Y42527D02*
D03*
Y45873D02*
D03*
X290600Y45873D02*
D03*
Y42527D02*
D03*
X268800Y263400D02*
D03*
Y266746D02*
D03*
X273500Y263400D02*
D03*
Y266746D02*
D03*
X260400Y224849D02*
D03*
Y228195D02*
D03*
X282100Y224827D02*
D03*
Y228173D02*
D03*
X277600Y224827D02*
D03*
Y228173D02*
D03*
X258500Y266773D02*
D03*
Y263427D02*
D03*
X286800Y266173D02*
D03*
Y262827D02*
D03*
X295795Y266146D02*
D03*
Y262800D02*
D03*
X291295Y266146D02*
D03*
Y262800D02*
D03*
D42*
X244538Y220293D02*
D03*
Y231907D02*
D03*
D128*
X243500Y296600D02*
D03*
X233500D02*
D03*
X253500D02*
D03*
X263500D02*
D03*
X273500D02*
D03*
X283500D02*
D03*
X6900Y232800D02*
D03*
X16900Y242800D02*
D03*
X6900D02*
D03*
X16900Y252800D02*
D03*
X6900D02*
D03*
X16900Y262800D02*
D03*
X6900D02*
D03*
X16900Y272800D02*
D03*
X6900D02*
D03*
X142700Y276700D02*
D03*
Y266700D02*
D03*
Y256700D02*
D03*
Y246700D02*
D03*
X207000Y26600D02*
D03*
Y16600D02*
D03*
X7400Y136800D02*
D03*
Y146800D02*
D03*
Y126800D02*
D03*
Y116800D02*
D03*
Y106800D02*
D03*
Y96800D02*
D03*
X6800Y322200D02*
D03*
Y312200D02*
D03*
Y302200D02*
D03*
X319000Y121700D02*
D03*
Y131700D02*
D03*
X7100Y186300D02*
D03*
Y196300D02*
D03*
Y206300D02*
D03*
X78700Y116800D02*
D03*
X88700D02*
D03*
X98700D02*
D03*
X108700D02*
D03*
D129*
X223500Y296600D02*
D03*
X118700Y116800D02*
D03*
D130*
X16900Y232800D02*
D03*
X142700Y236700D02*
D03*
X207000Y6600D02*
D03*
X7400Y156800D02*
D03*
X6800Y332200D02*
D03*
X319000Y111700D02*
D03*
X7100Y176300D02*
D03*
D131*
X313606Y348984D02*
D03*
X319000D02*
D03*
X323390D02*
D03*
X309216D02*
D03*
X313606Y334810D02*
D03*
X319000D02*
D03*
X323390D02*
D03*
X309216D02*
D03*
Y339200D02*
D03*
X323390D02*
D03*
Y344594D02*
D03*
X309216D02*
D03*
X319000Y339200D02*
D03*
X313606D02*
D03*
Y344594D02*
D03*
X319000D02*
D03*
X175690Y336784D02*
D03*
X181084D02*
D03*
X185473D02*
D03*
X171300D02*
D03*
X175690Y322610D02*
D03*
X181084D02*
D03*
X185473D02*
D03*
X171300D02*
D03*
Y327000D02*
D03*
X185473D02*
D03*
Y332394D02*
D03*
X171300D02*
D03*
X181084Y327000D02*
D03*
X175690D02*
D03*
Y332394D02*
D03*
X181084D02*
D03*
D132*
X153500Y60800D02*
D03*
Y50800D02*
D03*
X183500D02*
D03*
Y60800D02*
D03*
Y32500D02*
D03*
Y22500D02*
D03*
Y12500D02*
D03*
X153500Y32500D02*
D03*
Y22500D02*
D03*
Y12500D02*
D03*
D133*
X27525Y383507D02*
D03*
X27525Y349492D02*
D03*
D134*
X11069Y349492D02*
D03*
X11068Y383508D02*
D03*
D135*
X25438Y355122D02*
D03*
Y377878D02*
D03*
D138*
X181066Y148059D02*
D03*
X178700Y145693D02*
D03*
D139*
X219483Y204617D02*
D03*
X217117Y206983D02*
D03*
M02*
