G04*
G04 #@! TF.GenerationSoftware,Altium Limited,Altium Designer,21.1.1 (26)*
G04*
G04 Layer_Color=2752767*
%FSLAX25Y25*%
%MOIN*%
G70*
G04*
G04 #@! TF.SameCoordinates,FB3CC9E6-9328-4A98-A2C4-C3437A6BD050*
G04*
G04*
G04 #@! TF.FilePolarity,Positive*
G04*
G01*
G75*
%ADD144C,0.00200*%
%ADD145C,0.00267*%
D144*
X242700Y295800D02*
Y297400D01*
X244300D01*
Y295800D01*
X242700D01*
X222700D02*
Y297400D01*
X224300D01*
Y295800D01*
X222700D01*
X232700D02*
Y297400D01*
X234300D01*
Y295800D01*
X232700D01*
X252700D02*
Y297400D01*
X254300D01*
Y295800D01*
X252700D01*
X262700D02*
Y297400D01*
X264300D01*
Y295800D01*
X262700D01*
X272700D02*
Y297400D01*
X274300D01*
Y295800D01*
X272700D01*
X282700D02*
Y297400D01*
X284300D01*
Y295800D01*
X282700D01*
X16100Y232000D02*
Y233600D01*
X17700D01*
Y232000D01*
X16100D01*
X6100D02*
Y233600D01*
X7700D01*
Y232000D01*
X6100D01*
X16100Y242000D02*
Y243600D01*
X17700D01*
Y242000D01*
X16100D01*
X6100D02*
Y243600D01*
X7700D01*
Y242000D01*
X6100D01*
X16100Y252000D02*
Y253600D01*
X17700D01*
Y252000D01*
X16100D01*
X6100D02*
Y253600D01*
X7700D01*
Y252000D01*
X6100D01*
X16100Y262000D02*
Y263600D01*
X17700D01*
Y262000D01*
X16100D01*
X6100D02*
Y263600D01*
X7700D01*
Y262000D01*
X6100D01*
X16100Y272000D02*
Y273600D01*
X17700D01*
Y272000D01*
X16100D01*
X6100D02*
Y273600D01*
X7700D01*
Y272000D01*
X6100D01*
X141900Y275900D02*
Y277500D01*
X143500D01*
Y275900D01*
X141900D01*
Y265900D02*
Y267500D01*
X143500D01*
Y265900D01*
X141900D01*
Y255900D02*
Y257500D01*
X143500D01*
Y255900D01*
X141900D01*
Y245900D02*
Y247500D01*
X143500D01*
Y245900D01*
X141900D01*
Y235900D02*
Y237500D01*
X143500D01*
Y235900D01*
X141900D01*
X206200Y25800D02*
Y27400D01*
X207800D01*
Y25800D01*
X206200D01*
Y15800D02*
Y17400D01*
X207800D01*
Y15800D01*
X206200D01*
Y5800D02*
Y7400D01*
X207800D01*
Y5800D01*
X206200D01*
X6600Y136000D02*
Y137600D01*
X8200D01*
Y136000D01*
X6600D01*
Y156000D02*
Y157600D01*
X8200D01*
Y156000D01*
X6600D01*
Y146000D02*
Y147600D01*
X8200D01*
Y146000D01*
X6600D01*
Y126000D02*
Y127600D01*
X8200D01*
Y126000D01*
X6600D01*
Y116000D02*
Y117600D01*
X8200D01*
Y116000D01*
X6600D01*
Y106000D02*
Y107600D01*
X8200D01*
Y106000D01*
X6600D01*
Y96000D02*
Y97600D01*
X8200D01*
Y96000D01*
X6600D01*
X153500Y60000D02*
X152700Y61600D01*
X154300D01*
X153500Y60000D01*
Y50000D02*
X152700Y51600D01*
X154300D01*
X153500Y50000D01*
X183500D02*
X182700Y51600D01*
X184300D01*
X183500Y50000D01*
Y60000D02*
X182700Y61600D01*
X184300D01*
X183500Y60000D01*
X6000Y331400D02*
Y333000D01*
X7600D01*
Y331400D01*
X6000D01*
Y321400D02*
Y323000D01*
X7600D01*
Y321400D01*
X6000D01*
Y311400D02*
Y313000D01*
X7600D01*
Y311400D01*
X6000D01*
Y301400D02*
Y303000D01*
X7600D01*
Y301400D01*
X6000D01*
X318200Y110900D02*
Y112500D01*
X319800D01*
Y110900D01*
X318200D01*
Y120900D02*
Y122500D01*
X319800D01*
Y120900D01*
X318200D01*
Y130900D02*
Y132500D01*
X319800D01*
Y130900D01*
X318200D01*
X183500Y31700D02*
X182700Y33300D01*
X184300D01*
X183500Y31700D01*
Y21700D02*
X182700Y23300D01*
X184300D01*
X183500Y21700D01*
Y11700D02*
X182700Y13300D01*
X184300D01*
X183500Y11700D01*
X153500Y31700D02*
X152700Y33300D01*
X154300D01*
X153500Y31700D01*
Y21700D02*
X152700Y23300D01*
X154300D01*
X153500Y21700D01*
Y11700D02*
X152700Y13300D01*
X154300D01*
X153500Y11700D01*
X6300Y175500D02*
Y177100D01*
X7900D01*
Y175500D01*
X6300D01*
Y185500D02*
Y187100D01*
X7900D01*
Y185500D01*
X6300D01*
Y195500D02*
Y197100D01*
X7900D01*
Y195500D01*
X6300D01*
Y205500D02*
Y207100D01*
X7900D01*
Y205500D01*
X6300D01*
X27525Y382708D02*
X27925Y383108D01*
X28325D01*
X27925Y383508D01*
X28325Y383908D01*
X27925D01*
X27525Y384308D01*
X27125Y383908D01*
X26725D01*
X27125Y383508D01*
X26725Y383108D01*
X27125D01*
X27525Y382708D01*
X26725Y348692D02*
X27125Y349492D01*
X26725Y350292D01*
X27525Y349892D01*
X28325Y350292D01*
X27925Y349492D01*
X28325Y348692D01*
X27525Y349092D01*
X26725Y348692D01*
X10668Y349092D02*
Y348692D01*
X11468D01*
Y349092D01*
X11868D01*
Y349892D01*
X11468D01*
Y350292D01*
X10668D01*
Y349892D01*
X10268D01*
Y349092D01*
X10668D01*
Y383108D02*
Y382708D01*
X11468D01*
Y383108D01*
X11868D01*
Y383908D01*
X11468D01*
Y384308D01*
X10668D01*
Y383908D01*
X10268D01*
Y383108D01*
X10668D01*
X24638Y354322D02*
X25038D01*
X25438Y354722D01*
X25839Y354322D01*
X26239D01*
Y354722D01*
X25839Y355122D01*
X26239Y355522D01*
Y355922D01*
X25839D01*
X25438Y355522D01*
X25038Y355922D01*
X24638D01*
Y355522D01*
X25038Y355122D01*
X24638Y354722D01*
Y354322D01*
Y377078D02*
X25038D01*
X25438Y377478D01*
X25839Y377078D01*
X26239D01*
Y377478D01*
X25839Y377878D01*
X26239Y378278D01*
Y378678D01*
X25839D01*
X25438Y378278D01*
X25038Y378678D01*
X24638D01*
Y378278D01*
X25038Y377878D01*
X24638Y377478D01*
Y377078D01*
X77900Y116000D02*
Y117600D01*
X79500D01*
Y116000D01*
X77900D01*
X87900D02*
Y117600D01*
X89500D01*
Y116000D01*
X87900D01*
X97900D02*
Y117600D01*
X99500D01*
Y116000D01*
X97900D01*
X107900D02*
Y117600D01*
X109500D01*
Y116000D01*
X107900D01*
X117900D02*
Y117600D01*
X119500D01*
Y116000D01*
X117900D01*
X379206Y317100D02*
X380006Y317900D01*
X380806Y317100D01*
X380006Y316300D01*
X379206Y317100D01*
X209300Y201300D02*
X210100Y202100D01*
X210900Y201300D01*
X210100Y200500D01*
X209300Y201300D01*
X185322Y143700D02*
X186122Y144500D01*
X186922Y143700D01*
X186122Y142900D01*
X185322Y143700D01*
X134300Y248000D02*
X135100Y248800D01*
X135900Y248000D01*
X135100Y247200D01*
X134300Y248000D01*
X168600Y291500D02*
X169400Y292300D01*
X170200Y291500D01*
X169400Y290700D01*
X168600Y291500D01*
X151100Y297000D02*
X151900Y297800D01*
X152700Y297000D01*
X151900Y296200D01*
X151100Y297000D01*
X113076Y315524D02*
X113876Y316324D01*
X114676Y315524D01*
X113876Y314724D01*
X113076Y315524D01*
X178900Y358800D02*
X179700Y359600D01*
X180500Y358800D01*
X179700Y358000D01*
X178900Y358800D01*
X188173Y334800D02*
X188973Y335600D01*
X189773Y334800D01*
X188973Y334000D01*
X188173Y334800D01*
X162800Y346476D02*
X163600Y347276D01*
X164400Y346476D01*
X163600Y345676D01*
X162800Y346476D01*
X169717Y319202D02*
X170517Y320002D01*
X171317Y319202D01*
X170517Y318402D01*
X169717Y319202D01*
X135400Y324600D02*
X136200Y325400D01*
X137000Y324600D01*
X136200Y323800D01*
X135400Y324600D01*
X363900Y371900D02*
X364700Y372700D01*
X365500Y371900D01*
X364700Y371100D01*
X363900Y371900D01*
X363600Y358300D02*
X364400Y359100D01*
X365200Y358300D01*
X364400Y357500D01*
X363600Y358300D01*
X274394Y382400D02*
X275194Y383200D01*
X275994Y382400D01*
X275194Y381600D01*
X274394Y382400D01*
X354600Y382200D02*
X355400Y383000D01*
X356200Y382200D01*
X355400Y381400D01*
X354600Y382200D01*
X271600Y372700D02*
X272400Y373500D01*
X273200Y372700D01*
X272400Y371900D01*
X271600Y372700D01*
X272792Y342930D02*
X273592Y343730D01*
X274392Y342930D01*
X273592Y342130D01*
X272792Y342930D01*
X250269Y313891D02*
X251069Y314691D01*
X251869Y313891D01*
X251069Y313091D01*
X250269Y313891D01*
X315800Y288900D02*
X316600Y289700D01*
X317400Y288900D01*
X316600Y288100D01*
X315800Y288900D01*
X368200Y312100D02*
X369000Y312900D01*
X369800Y312100D01*
X369000Y311300D01*
X368200Y312100D01*
X365600Y284800D02*
X366400Y285600D01*
X367200Y284800D01*
X366400Y284000D01*
X365600Y284800D01*
X358600Y284728D02*
X359400Y285528D01*
X360200Y284728D01*
X359400Y283928D01*
X358600Y284728D01*
X372600Y356449D02*
X373400Y357249D01*
X374200Y356449D01*
X373400Y355649D01*
X372600Y356449D01*
X386600Y378000D02*
X387400Y378800D01*
X388200Y378000D01*
X387400Y377200D01*
X386600Y378000D01*
X369872Y350037D02*
X370672Y350836D01*
X371472Y350037D01*
X370672Y349236D01*
X369872Y350037D01*
X358100Y349200D02*
X358900Y350000D01*
X359700Y349200D01*
X358900Y348400D01*
X358100Y349200D01*
X318456Y359856D02*
X319256Y360656D01*
X320056Y359856D01*
X319256Y359056D01*
X318456Y359856D01*
X305377Y350600D02*
X306176Y351400D01*
X306977Y350600D01*
X306176Y349800D01*
X305377Y350600D01*
X326500Y344793D02*
X327300Y345593D01*
X328100Y344793D01*
X327300Y343993D01*
X326500Y344793D01*
X304700Y342800D02*
X305500Y343600D01*
X306300Y342800D01*
X305500Y342000D01*
X304700Y342800D01*
X300444Y309200D02*
X301244Y310000D01*
X302044Y309200D01*
X301244Y308400D01*
X300444Y309200D01*
X329200Y261400D02*
X330000Y262200D01*
X330800Y261400D01*
X330000Y260600D01*
X329200Y261400D01*
X263100Y259000D02*
X263900Y259800D01*
X264700Y259000D01*
X263900Y258200D01*
X263100Y259000D01*
X279200Y235000D02*
X280000Y235800D01*
X280800Y235000D01*
X280000Y234200D01*
X279200Y235000D01*
X296189Y226800D02*
X296989Y227600D01*
X297789Y226800D01*
X296989Y226000D01*
X296189Y226800D01*
X273300Y220600D02*
X274100Y221400D01*
X274900Y220600D01*
X274100Y219800D01*
X273300Y220600D01*
X297848Y220800D02*
X298648Y221600D01*
X299448Y220800D01*
X298648Y220000D01*
X297848Y220800D01*
X367300Y255700D02*
X368100Y256500D01*
X368900Y255700D01*
X368100Y254900D01*
X367300Y255700D01*
X365800Y65700D02*
X366600Y66500D01*
X367400Y65700D01*
X366600Y64900D01*
X365800Y65700D01*
X365600Y73038D02*
X366400Y73838D01*
X367200Y73038D01*
X366400Y72238D01*
X365600Y73038D01*
X299200Y67800D02*
X300000Y68600D01*
X300800Y67800D01*
X300000Y67000D01*
X299200Y67800D01*
X286998Y11687D02*
X287798Y12487D01*
X288598Y11687D01*
X287798Y10887D01*
X286998Y11687D01*
X310109Y96100D02*
X310910Y96900D01*
X311709Y96100D01*
X310910Y95300D01*
X310109Y96100D01*
X220629Y84400D02*
X221429Y85200D01*
X222229Y84400D01*
X221429Y83600D01*
X220629Y84400D01*
X246900Y93800D02*
X247700Y94600D01*
X248500Y93800D01*
X247700Y93000D01*
X246900Y93800D01*
X166900Y110000D02*
X167700Y110800D01*
X168500Y110000D01*
X167700Y109200D01*
X166900Y110000D01*
X170500Y72419D02*
X171300Y73219D01*
X172100Y72419D01*
X171300Y71619D01*
X170500Y72419D01*
X81500Y81849D02*
X82300Y82649D01*
X83100Y81849D01*
X82300Y81049D01*
X81500Y81849D01*
X369200Y199200D02*
Y200800D01*
X370800D01*
Y199200D01*
X369200D01*
X369600Y199600D02*
Y200400D01*
X370400D01*
Y199600D01*
X369600D01*
X359200Y179200D02*
Y180800D01*
X360800D01*
Y179200D01*
X359200D01*
X359600Y179600D02*
Y180400D01*
X360400D01*
Y179600D01*
X359600D01*
X369200Y159200D02*
Y160800D01*
X370800D01*
Y159200D01*
X369200D01*
X369600Y159600D02*
Y160400D01*
X370400D01*
Y159600D01*
X369600D01*
X359200Y19200D02*
Y20800D01*
X360800D01*
Y19200D01*
X359200D01*
X359600Y19600D02*
Y20400D01*
X360400D01*
Y19600D01*
X359600D01*
X349200Y199200D02*
Y200800D01*
X350800D01*
Y199200D01*
X349200D01*
X349600Y199600D02*
Y200400D01*
X350400D01*
Y199600D01*
X349600D01*
X339200Y179200D02*
Y180800D01*
X340800D01*
Y179200D01*
X339200D01*
X339600Y179600D02*
Y180400D01*
X340400D01*
Y179600D01*
X339600D01*
X349200Y159200D02*
Y160800D01*
X350800D01*
Y159200D01*
X349200D01*
X349600Y159600D02*
Y160400D01*
X350400D01*
Y159600D01*
X349600D01*
X339200Y19200D02*
Y20800D01*
X340800D01*
Y19200D01*
X339200D01*
X339600Y19600D02*
Y20400D01*
X340400D01*
Y19600D01*
X339600D01*
X329200Y159200D02*
Y160800D01*
X330800D01*
Y159200D01*
X329200D01*
X329600Y159600D02*
Y160400D01*
X330400D01*
Y159600D01*
X329600D01*
X329200Y39200D02*
Y40800D01*
X330800D01*
Y39200D01*
X329200D01*
X329600Y39600D02*
Y40400D01*
X330400D01*
Y39600D01*
X329600D01*
X309200Y199200D02*
Y200800D01*
X310800D01*
Y199200D01*
X309200D01*
X309600Y199600D02*
Y200400D01*
X310400D01*
Y199600D01*
X309600D01*
X309200Y159200D02*
Y160800D01*
X310800D01*
Y159200D01*
X309200D01*
X309600Y159600D02*
Y160400D01*
X310400D01*
Y159600D01*
X309600D01*
X289200Y239200D02*
Y240800D01*
X290800D01*
Y239200D01*
X289200D01*
X289600Y239600D02*
Y240400D01*
X290400D01*
Y239600D01*
X289600D01*
X289200Y159200D02*
Y160800D01*
X290800D01*
Y159200D01*
X289200D01*
X289600Y159600D02*
Y160400D01*
X290400D01*
Y159600D01*
X289600D01*
X279200Y59200D02*
Y60800D01*
X280800D01*
Y59200D01*
X279200D01*
X279600Y59600D02*
Y60400D01*
X280400D01*
Y59600D01*
X279600D01*
X259200Y339200D02*
Y340800D01*
X260800D01*
Y339200D01*
X259200D01*
X259600Y339600D02*
Y340400D01*
X260400D01*
Y339600D01*
X259600D01*
X269200Y239200D02*
Y240800D01*
X270800D01*
Y239200D01*
X269200D01*
X269600Y239600D02*
Y240400D01*
X270400D01*
Y239600D01*
X269600D01*
X229200Y39200D02*
Y40800D01*
X230800D01*
Y39200D01*
X229200D01*
X229600Y39600D02*
Y40400D01*
X230400D01*
Y39600D01*
X229600D01*
X159200Y179200D02*
Y180800D01*
X160800D01*
Y179200D01*
X159200D01*
X159600Y179600D02*
Y180400D01*
X160400D01*
Y179600D01*
X159600D01*
X169200Y79200D02*
Y80800D01*
X170800D01*
Y79200D01*
X169200D01*
X169600Y79600D02*
Y80400D01*
X170400D01*
Y79600D01*
X169600D01*
X139200Y379200D02*
Y380800D01*
X140800D01*
Y379200D01*
X139200D01*
X139600Y379600D02*
Y380400D01*
X140400D01*
Y379600D01*
X139600D01*
X149200Y279200D02*
Y280800D01*
X150800D01*
Y279200D01*
X149200D01*
X149600Y279600D02*
Y280400D01*
X150400D01*
Y279600D01*
X149600D01*
X149200Y199200D02*
Y200800D01*
X150800D01*
Y199200D01*
X149200D01*
X149600Y199600D02*
Y200400D01*
X150400D01*
Y199600D01*
X149600D01*
X149200Y159200D02*
Y160800D01*
X150800D01*
Y159200D01*
X149200D01*
X149600Y159600D02*
Y160400D01*
X150400D01*
Y159600D01*
X149600D01*
X149200Y79200D02*
Y80800D01*
X150800D01*
Y79200D01*
X149200D01*
X149600Y79600D02*
Y80400D01*
X150400D01*
Y79600D01*
X149600D01*
X149200Y39200D02*
Y40800D01*
X150800D01*
Y39200D01*
X149200D01*
X149600Y39600D02*
Y40400D01*
X150400D01*
Y39600D01*
X149600D01*
X129200Y359200D02*
Y360800D01*
X130800D01*
Y359200D01*
X129200D01*
X129600Y359600D02*
Y360400D01*
X130400D01*
Y359600D01*
X129600D01*
X129200Y199200D02*
Y200800D01*
X130800D01*
Y199200D01*
X129200D01*
X129600Y199600D02*
Y200400D01*
X130400D01*
Y199600D01*
X129600D01*
X119200Y179200D02*
Y180800D01*
X120800D01*
Y179200D01*
X119200D01*
X119600Y179600D02*
Y180400D01*
X120400D01*
Y179600D01*
X119600D01*
X129200Y159200D02*
Y160800D01*
X130800D01*
Y159200D01*
X129200D01*
X129600Y159600D02*
Y160400D01*
X130400D01*
Y159600D01*
X129600D01*
X119200Y99200D02*
Y100800D01*
X120800D01*
Y99200D01*
X119200D01*
X119600Y99600D02*
Y100400D01*
X120400D01*
Y99600D01*
X119600D01*
X119200Y19200D02*
Y20800D01*
X120800D01*
Y19200D01*
X119200D01*
X119600Y19600D02*
Y20400D01*
X120400D01*
Y19600D01*
X119600D01*
X99200Y299200D02*
Y300800D01*
X100800D01*
Y299200D01*
X99200D01*
X99600Y299600D02*
Y300400D01*
X100400D01*
Y299600D01*
X99600D01*
X109200Y279200D02*
Y280800D01*
X110800D01*
Y279200D01*
X109200D01*
X109600Y279600D02*
Y280400D01*
X110400D01*
Y279600D01*
X109600D01*
X109200Y239200D02*
Y240800D01*
X110800D01*
Y239200D01*
X109200D01*
X109600Y239600D02*
Y240400D01*
X110400D01*
Y239600D01*
X109600D01*
X109200Y199200D02*
Y200800D01*
X110800D01*
Y199200D01*
X109200D01*
X109600Y199600D02*
Y200400D01*
X110400D01*
Y199600D01*
X109600D01*
X99200Y179200D02*
Y180800D01*
X100800D01*
Y179200D01*
X99200D01*
X99600Y179600D02*
Y180400D01*
X100400D01*
Y179600D01*
X99600D01*
X109200Y159200D02*
Y160800D01*
X110800D01*
Y159200D01*
X109200D01*
X109600Y159600D02*
Y160400D01*
X110400D01*
Y159600D01*
X109600D01*
X99200Y99200D02*
Y100800D01*
X100800D01*
Y99200D01*
X99200D01*
X99600Y99600D02*
Y100400D01*
X100400D01*
Y99600D01*
X99600D01*
X109200Y39200D02*
Y40800D01*
X110800D01*
Y39200D01*
X109200D01*
X109600Y39600D02*
Y40400D01*
X110400D01*
Y39600D01*
X109600D01*
X99200Y19200D02*
Y20800D01*
X100800D01*
Y19200D01*
X99200D01*
X99600Y19600D02*
Y20400D01*
X100400D01*
Y19600D01*
X99600D01*
X89200Y199200D02*
Y200800D01*
X90800D01*
Y199200D01*
X89200D01*
X89600Y199600D02*
Y200400D01*
X90400D01*
Y199600D01*
X89600D01*
X89200Y39200D02*
Y40800D01*
X90800D01*
Y39200D01*
X89200D01*
X89600Y39600D02*
Y40400D01*
X90400D01*
Y39600D01*
X89600D01*
X79200Y19200D02*
Y20800D01*
X80800D01*
Y19200D01*
X79200D01*
X79600Y19600D02*
Y20400D01*
X80400D01*
Y19600D01*
X79600D01*
X69200Y359200D02*
Y360800D01*
X70800D01*
Y359200D01*
X69200D01*
X69600Y359600D02*
Y360400D01*
X70400D01*
Y359600D01*
X69600D01*
X59200Y179200D02*
Y180800D01*
X60800D01*
Y179200D01*
X59200D01*
X59600Y179600D02*
Y180400D01*
X60400D01*
Y179600D01*
X59600D01*
X69200Y39200D02*
Y40800D01*
X70800D01*
Y39200D01*
X69200D01*
X69600Y39600D02*
Y40400D01*
X70400D01*
Y39600D01*
X69600D01*
X59200Y19200D02*
Y20800D01*
X60800D01*
Y19200D01*
X59200D01*
X59600Y19600D02*
Y20400D01*
X60400D01*
Y19600D01*
X59600D01*
X49200Y279200D02*
Y280800D01*
X50800D01*
Y279200D01*
X49200D01*
X49600Y279600D02*
Y280400D01*
X50400D01*
Y279600D01*
X49600D01*
X49200Y199200D02*
Y200800D01*
X50800D01*
Y199200D01*
X49200D01*
X49600Y199600D02*
Y200400D01*
X50400D01*
Y199600D01*
X49600D01*
X39200Y139200D02*
Y140800D01*
X40800D01*
Y139200D01*
X39200D01*
X39600Y139600D02*
Y140400D01*
X40400D01*
Y139600D01*
X39600D01*
X39200Y99200D02*
Y100800D01*
X40800D01*
Y99200D01*
X39200D01*
X39600Y99600D02*
Y100400D01*
X40400D01*
Y99600D01*
X39600D01*
X39200Y59200D02*
Y60800D01*
X40800D01*
Y59200D01*
X39200D01*
X39600Y59600D02*
Y60400D01*
X40400D01*
Y59600D01*
X39600D01*
X49200Y39200D02*
Y40800D01*
X50800D01*
Y39200D01*
X49200D01*
X49600Y39600D02*
Y40400D01*
X50400D01*
Y39600D01*
X49600D01*
X39200Y19200D02*
Y20800D01*
X40800D01*
Y19200D01*
X39200D01*
X39600Y19600D02*
Y20400D01*
X40400D01*
Y19600D01*
X39600D01*
X19200Y339200D02*
Y340800D01*
X20800D01*
Y339200D01*
X19200D01*
X19600Y339600D02*
Y340400D01*
X20400D01*
Y339600D01*
X19600D01*
X19200Y299200D02*
Y300800D01*
X20800D01*
Y299200D01*
X19200D01*
X19600Y299600D02*
Y300400D01*
X20400D01*
Y299600D01*
X19600D01*
X19200Y99200D02*
Y100800D01*
X20800D01*
Y99200D01*
X19200D01*
X19600Y99600D02*
Y100400D01*
X20400D01*
Y99600D01*
X19600D01*
X19200Y59200D02*
Y60800D01*
X20800D01*
Y59200D01*
X19200D01*
X19600Y59600D02*
Y60400D01*
X20400D01*
Y59600D01*
X19600D01*
X19200Y19200D02*
Y20800D01*
X20800D01*
Y19200D01*
X19200D01*
X19600Y19600D02*
Y20400D01*
X20400D01*
Y19600D01*
X19600D01*
X369900Y83200D02*
X370700Y84000D01*
X371500Y83200D01*
X370700Y82400D01*
X369900Y83200D01*
X355000Y278100D02*
X355800Y278900D01*
X356600Y278100D01*
X355800Y277300D01*
X355000Y278100D01*
X365315Y77685D02*
X366115Y78485D01*
X366915Y77685D01*
X366115Y76885D01*
X365315Y77685D01*
X380200Y271600D02*
X381000Y272400D01*
X381800Y271600D01*
X381000Y270800D01*
X380200Y271600D01*
X377500Y266500D02*
X378300Y267300D01*
X379100Y266500D01*
X378300Y265700D01*
X377500Y266500D01*
X376900Y300900D02*
X377700Y301700D01*
X378500Y300900D01*
X377700Y300100D01*
X376900Y300900D01*
X365300Y54100D02*
X366100Y54900D01*
X366900Y54100D01*
X366100Y53300D01*
X365300Y54100D01*
X355800Y67200D02*
X356600Y68000D01*
X357400Y67200D01*
X356600Y66400D01*
X355800Y67200D01*
X353000Y69600D02*
X353800Y70400D01*
X354600Y69600D01*
X353800Y68800D01*
X353000Y69600D01*
X383100Y24800D02*
X383900Y25600D01*
X384700Y24800D01*
X383900Y24000D01*
X383100Y24800D01*
X385300Y18600D02*
X386100Y19400D01*
X386900Y18600D01*
X386100Y17800D01*
X385300Y18600D01*
X389200Y208500D02*
X390000Y209300D01*
X390800Y208500D01*
X390000Y207700D01*
X389200Y208500D01*
X386700Y272000D02*
X387500Y272800D01*
X388300Y272000D01*
X387500Y271200D01*
X386700Y272000D01*
X383100Y275000D02*
X383900Y275800D01*
X384700Y275000D01*
X383900Y274200D01*
X383100Y275000D01*
X374000Y296400D02*
X374800Y297200D01*
X375600Y296400D01*
X374800Y295600D01*
X374000Y296400D01*
X262540Y385000D02*
X263340Y385800D01*
X264140Y385000D01*
X263340Y384200D01*
X262540Y385000D01*
X263376Y346100D02*
X264176Y346900D01*
X264976Y346100D01*
X264176Y345300D01*
X263376Y346100D01*
X272100Y351600D02*
X272900Y352400D01*
X273700Y351600D01*
X272900Y350800D01*
X272100Y351600D01*
X126700Y340600D02*
X127500Y341400D01*
X128300Y340600D01*
X127500Y339800D01*
X126700Y340600D01*
X381800Y372100D02*
X382600Y372900D01*
X383400Y372100D01*
X382600Y371300D01*
X381800Y372100D01*
X260700Y379400D02*
X261500Y380200D01*
X262300Y379400D01*
X261500Y378600D01*
X260700Y379400D01*
X308613Y352813D02*
X309413Y353613D01*
X310213Y352813D01*
X309413Y352013D01*
X308613Y352813D01*
X252600Y352100D02*
X253400Y352900D01*
X254200Y352100D01*
X253400Y351300D01*
X252600Y352100D01*
X252500Y345000D02*
X253300Y345800D01*
X254100Y345000D01*
X253300Y344200D01*
X252500Y345000D01*
X170697Y340503D02*
X171497Y341303D01*
X172297Y340503D01*
X171497Y339703D01*
X170697Y340503D01*
X307600Y283100D02*
X308400Y283900D01*
X309200Y283100D01*
X308400Y282300D01*
X307600Y283100D01*
X307500Y289200D02*
X308300Y290000D01*
X309100Y289200D01*
X308300Y288400D01*
X307500Y289200D01*
X304600Y323000D02*
X305400Y323800D01*
X306200Y323000D01*
X305400Y322200D01*
X304600Y323000D01*
X283300Y281800D02*
X284100Y282600D01*
X284900Y281800D01*
X284100Y281000D01*
X283300Y281800D01*
X267300Y287000D02*
X268100Y287800D01*
X268900Y287000D01*
X268100Y286200D01*
X267300Y287000D01*
X264652Y284500D02*
X265452Y285300D01*
X266252Y284500D01*
X265452Y283700D01*
X264652Y284500D01*
X166087Y307687D02*
X166887Y308487D01*
X167687Y307687D01*
X166887Y306887D01*
X166087Y307687D01*
X153850Y356350D02*
X154650Y357150D01*
X155450Y356350D01*
X154650Y355550D01*
X153850Y356350D01*
X289200Y371300D02*
X290000Y372100D01*
X290800Y371300D01*
X290000Y370500D01*
X289200Y371300D01*
X303200Y367000D02*
X304000Y367800D01*
X304800Y367000D01*
X304000Y366200D01*
X303200Y367000D01*
X309900Y362000D02*
X310700Y362800D01*
X311500Y362000D01*
X310700Y361200D01*
X309900Y362000D01*
X255630Y375870D02*
X256430Y376670D01*
X257230Y375870D01*
X256430Y375070D01*
X255630Y375870D01*
X67400Y310500D02*
X68200Y311300D01*
X69000Y310500D01*
X68200Y309700D01*
X67400Y310500D01*
X33800Y281800D02*
X34600Y282600D01*
X35400Y281800D01*
X34600Y281000D01*
X33800Y281800D01*
X300400Y325942D02*
X301200Y326742D01*
X302000Y325942D01*
X301200Y325142D01*
X300400Y325942D01*
X273600Y358200D02*
X274400Y359000D01*
X275200Y358200D01*
X274400Y357400D01*
X273600Y358200D01*
X193600Y306800D02*
X194400Y307600D01*
X195200Y306800D01*
X194400Y306000D01*
X193600Y306800D01*
X123895Y344094D02*
X124695Y344895D01*
X125495Y344094D01*
X124695Y343295D01*
X123895Y344094D01*
X171075Y349195D02*
X171875Y349994D01*
X172675Y349195D01*
X171875Y348394D01*
X171075Y349195D01*
X73200Y311800D02*
X74000Y312600D01*
X74800Y311800D01*
X74000Y311000D01*
X73200Y311800D01*
X272554Y227854D02*
X273354Y228654D01*
X274154Y227854D01*
X273354Y227054D01*
X272554Y227854D01*
X265100Y226200D02*
X265900Y227000D01*
X266700Y226200D01*
X265900Y225400D01*
X265100Y226200D01*
X280627Y255727D02*
X281427Y256527D01*
X282227Y255727D01*
X281427Y254927D01*
X280627Y255727D01*
Y266173D02*
X281427Y266973D01*
X282227Y266173D01*
X281427Y265373D01*
X280627Y266173D01*
X93627Y263000D02*
X94427Y263800D01*
X95227Y263000D01*
X94427Y262200D01*
X93627Y263000D01*
X222900Y202143D02*
X223700Y202943D01*
X224500Y202143D01*
X223700Y201343D01*
X222900Y202143D01*
X214261Y168368D02*
X215061Y169168D01*
X215861Y168368D01*
X215061Y167568D01*
X214261Y168368D01*
X189822Y157800D02*
X190622Y158600D01*
X191422Y157800D01*
X190622Y157000D01*
X189822Y157800D01*
X250835Y218835D02*
X251635Y219635D01*
X252435Y218835D01*
X251635Y218035D01*
X250835Y218835D01*
X338400Y253300D02*
X339200Y254100D01*
X340000Y253300D01*
X339200Y252500D01*
X338400Y253300D01*
X281300Y270000D02*
X282100Y270800D01*
X282900Y270000D01*
X282100Y269200D01*
X281300Y270000D01*
X257643Y254942D02*
X258442Y255743D01*
X259243Y254942D01*
X258442Y254142D01*
X257643Y254942D01*
X177825Y150500D02*
X178625Y151300D01*
X179425Y150500D01*
X178625Y149700D01*
X177825Y150500D01*
X123475Y227100D02*
X124275Y227900D01*
X125075Y227100D01*
X124275Y226300D01*
X123475Y227100D01*
X99200Y241463D02*
X100000Y242263D01*
X100800Y241463D01*
X100000Y240663D01*
X99200Y241463D01*
Y263000D02*
X100000Y263800D01*
X100800Y263000D01*
X100000Y262200D01*
X99200Y263000D01*
X135259Y60941D02*
X136059Y61741D01*
X136859Y60941D01*
X136059Y60141D01*
X135259Y60941D01*
X330674Y80826D02*
X331474Y81626D01*
X332274Y80826D01*
X331474Y80026D01*
X330674Y80826D01*
X326200Y62400D02*
X327000Y63200D01*
X327800Y62400D01*
X327000Y61600D01*
X326200Y62400D01*
X313800D02*
X314600Y63200D01*
X315400Y62400D01*
X314600Y61600D01*
X313800Y62400D01*
X311451Y52651D02*
X312251Y53451D01*
X313051Y52651D01*
X312251Y51851D01*
X311451Y52651D01*
X296700Y41500D02*
X297500Y42300D01*
X298300Y41500D01*
X297500Y40700D01*
X296700Y41500D01*
X313348Y29152D02*
X314148Y29952D01*
X314948Y29152D01*
X314148Y28352D01*
X313348Y29152D01*
Y21248D02*
X314148Y22048D01*
X314948Y21248D01*
X314148Y20448D01*
X313348Y21248D01*
X281500Y111900D02*
X282300Y112700D01*
X283100Y111900D01*
X282300Y111100D01*
X281500Y111900D01*
Y127200D02*
X282300Y128000D01*
X283100Y127200D01*
X282300Y126400D01*
X281500Y127200D01*
X263200Y38700D02*
X264000Y39500D01*
X264800Y38700D01*
X264000Y37900D01*
X263200Y38700D01*
X267600Y50100D02*
X268400Y50900D01*
X269200Y50100D01*
X268400Y49300D01*
X267600Y50100D01*
X362700Y103400D02*
X363500Y104200D01*
X364300Y103400D01*
X363500Y102600D01*
X362700Y103400D01*
X321600Y87300D02*
X322400Y88100D01*
X323200Y87300D01*
X322400Y86500D01*
X321600Y87300D01*
X299947Y84147D02*
X300747Y84947D01*
X301547Y84147D01*
X300747Y83347D01*
X299947Y84147D01*
X234700Y18000D02*
X235500Y18800D01*
X236300Y18000D01*
X235500Y17200D01*
X234700Y18000D01*
X250777Y26377D02*
X251577Y27177D01*
X252377Y26377D01*
X251577Y25577D01*
X250777Y26377D01*
X238324Y57376D02*
X239124Y58176D01*
X239924Y57376D01*
X239124Y56576D01*
X238324Y57376D01*
X156000Y117200D02*
X156800Y118000D01*
X157600Y117200D01*
X156800Y116400D01*
X156000Y117200D01*
X128600Y96200D02*
X129400Y97000D01*
X130200Y96200D01*
X129400Y95400D01*
X128600Y96200D01*
X68800Y128200D02*
X69600Y129000D01*
X70400Y128200D01*
X69600Y127400D01*
X68800Y128200D01*
X238500Y92400D02*
X239300Y93200D01*
X240100Y92400D01*
X239300Y91600D01*
X238500Y92400D01*
X73200Y345050D02*
X74000Y345850D01*
X74800Y345050D01*
X74000Y344250D01*
X73200Y345050D01*
X305100Y15300D02*
X305900Y16100D01*
X306700Y15300D01*
X305900Y14500D01*
X305100Y15300D01*
X285423Y38277D02*
X286223Y39077D01*
X287023Y38277D01*
X286223Y37477D01*
X285423Y38277D01*
X299674Y54226D02*
X300474Y55026D01*
X301274Y54226D01*
X300474Y53426D01*
X299674Y54226D01*
X252352Y87548D02*
X253152Y88348D01*
X253952Y87548D01*
X253152Y86748D01*
X252352Y87548D01*
X296446Y87800D02*
X297247Y88600D01*
X298046Y87800D01*
X297247Y87000D01*
X296446Y87800D01*
X286998Y87702D02*
X287798Y88502D01*
X288598Y87702D01*
X287798Y86902D01*
X286998Y87702D01*
X272824Y88194D02*
X273624Y88994D01*
X274424Y88194D01*
X273624Y87393D01*
X272824Y88194D01*
X262100Y87600D02*
X262900Y88400D01*
X263700Y87600D01*
X262900Y86800D01*
X262100Y87600D01*
X93600Y357500D02*
X94400Y358300D01*
X95200Y357500D01*
X94400Y356700D01*
X93600Y357500D01*
X62097Y315524D02*
X62897Y316324D01*
X63697Y315524D01*
X62897Y314724D01*
X62097Y315524D01*
X267700Y389400D02*
X268500Y390200D01*
X269300Y389400D01*
X268500Y388600D01*
X267700Y389400D01*
X151600D02*
X152400Y390200D01*
X153200Y389400D01*
X152400Y388600D01*
X151600Y389400D01*
X145700Y389400D02*
X146500Y390200D01*
X147300Y389400D01*
X146500Y388600D01*
X145700Y389400D01*
X322700Y18300D02*
X323500Y19100D01*
X324300Y18300D01*
X323500Y17500D01*
X322700Y18300D01*
X27500Y284000D02*
X28300Y284800D01*
X29100Y284000D01*
X28300Y283200D01*
X27500Y284000D01*
X325800Y18300D02*
X326600Y19100D01*
X327400Y18300D01*
X326600Y17500D01*
X325800Y18300D01*
X24400Y284000D02*
X25200Y284800D01*
X26000Y284000D01*
X25200Y283200D01*
X24400Y284000D01*
X49100Y116500D02*
X49900Y117300D01*
X50700Y116500D01*
X49900Y115700D01*
X49100Y116500D01*
X150700Y226100D02*
X151500Y226900D01*
X152300Y226100D01*
X151500Y225300D01*
X150700Y226100D01*
X148400Y219600D02*
X149200Y220400D01*
X150000Y219600D01*
X149200Y218800D01*
X148400Y219600D01*
X144500Y224800D02*
X145300Y225600D01*
X146100Y224800D01*
X145300Y224000D01*
X144500Y224800D01*
X16200Y219000D02*
X17000Y219800D01*
X17800Y219000D01*
X17000Y218200D01*
X16200Y219000D01*
X6400Y221478D02*
X7200Y222278D01*
X8000Y221478D01*
X7200Y220678D01*
X6400Y221478D01*
X257678Y270278D02*
X258478Y271078D01*
X259278Y270278D01*
X258478Y269478D01*
X257678Y270278D01*
X12162Y224062D02*
X12962Y224862D01*
X13762Y224062D01*
X12962Y223262D01*
X12162Y224062D01*
X324400Y306400D02*
X325200Y307200D01*
X326000Y306400D01*
X325200Y305600D01*
X324400Y306400D01*
X291300Y289300D02*
X292100Y290100D01*
X292900Y289300D01*
X292100Y288500D01*
X291300Y289300D01*
X294470Y291830D02*
X295270Y292630D01*
X296070Y291830D01*
X295270Y291030D01*
X294470Y291830D01*
Y331070D02*
X295270Y331870D01*
X296070Y331070D01*
X295270Y330270D01*
X294470Y331070D01*
X320424Y293124D02*
X321224Y293924D01*
X322024Y293124D01*
X321224Y292324D01*
X320424Y293124D01*
X304300Y295300D02*
X305100Y296100D01*
X305900Y295300D01*
X305100Y294500D01*
X304300Y295300D01*
X320424Y331624D02*
X321224Y332424D01*
X322024Y331624D01*
X321224Y330824D01*
X320424Y331624D01*
X295054Y344100D02*
X295853Y344900D01*
X296654Y344100D01*
X295853Y343300D01*
X295054Y344100D01*
X309700Y297573D02*
X310500Y298373D01*
X311300Y297573D01*
X310500Y296773D01*
X309700Y297573D01*
X312550Y331550D02*
X313350Y332350D01*
X314150Y331550D01*
X313350Y330750D01*
X312550Y331550D01*
X314519Y300319D02*
X315319Y301119D01*
X316119Y300319D01*
X315319Y299519D01*
X314519Y300319D01*
Y324019D02*
X315319Y324819D01*
X316119Y324019D01*
X315319Y323219D01*
X314519Y324019D01*
X188413Y307200D02*
X189213Y308000D01*
X190013Y307200D01*
X189213Y306400D01*
X188413Y307200D01*
X153450Y340850D02*
X154250Y341650D01*
X155050Y340850D01*
X154250Y340050D01*
X153450Y340850D01*
X163000Y292600D02*
X163800Y293400D01*
X164600Y292600D01*
X163800Y291800D01*
X163000Y292600D01*
Y284600D02*
X163800Y285400D01*
X164600Y284600D01*
X163800Y283800D01*
X163000Y284600D01*
X215300Y295200D02*
X216100Y296000D01*
X216900Y295200D01*
X216100Y294400D01*
X215300Y295200D01*
X156900Y320000D02*
X157700Y320800D01*
X158500Y320000D01*
X157700Y319200D01*
X156900Y320000D01*
X157400Y331500D02*
X158200Y332300D01*
X159000Y331500D01*
X158200Y330700D01*
X157400Y331500D01*
X255600Y286700D02*
X256400Y287500D01*
X257200Y286700D01*
X256400Y285900D01*
X255600Y286700D01*
X251400Y283800D02*
X252200Y284600D01*
X253000Y283800D01*
X252200Y283000D01*
X251400Y283800D01*
X291300Y359191D02*
X292100Y359991D01*
X292900Y359191D01*
X292100Y358391D01*
X291300Y359191D01*
X62400Y116500D02*
X63200Y117300D01*
X64000Y116500D01*
X63200Y115700D01*
X62400Y116500D01*
X165200Y47700D02*
X166000Y48500D01*
X166800Y47700D01*
X166000Y46900D01*
X165200Y47700D01*
X173800D02*
X174600Y48500D01*
X175400Y47700D01*
X174600Y46900D01*
X173800Y47700D01*
X174171Y53000D02*
X174971Y53800D01*
X175771Y53000D01*
X174971Y52200D01*
X174171Y53000D01*
X165200D02*
X166000Y53800D01*
X166800Y53000D01*
X166000Y52200D01*
X165200Y53000D01*
X165300Y56600D02*
X166100Y57400D01*
X166900Y56600D01*
X166100Y55800D01*
X165300Y56600D01*
Y61000D02*
X166100Y61800D01*
X166900Y61000D01*
X166100Y60200D01*
X165300Y61000D01*
X268100Y270100D02*
X268900Y270900D01*
X269700Y270100D01*
X268900Y269300D01*
X268100Y270100D01*
X189500Y131000D02*
X190300Y131800D01*
X191100Y131000D01*
X190300Y130200D01*
X189500Y131000D01*
X117900Y127400D02*
X118700Y128200D01*
X119500Y127400D01*
X118700Y126600D01*
X117900Y127400D01*
X107800Y124800D02*
X108600Y125600D01*
X109400Y124800D01*
X108600Y124000D01*
X107800Y124800D01*
X193400Y134800D02*
X194200Y135600D01*
X195000Y134800D01*
X194200Y134000D01*
X193400Y134800D01*
X256100Y223446D02*
X256900Y224247D01*
X257700Y223446D01*
X256900Y222646D01*
X256100Y223446D01*
X205842Y205000D02*
X206642Y205800D01*
X207442Y205000D01*
X206642Y204200D01*
X205842Y205000D01*
X316000Y54900D02*
X316800Y55700D01*
X317600Y54900D01*
X316800Y54100D01*
X316000Y54900D01*
X257337Y249037D02*
X258137Y249837D01*
X258937Y249037D01*
X258137Y248237D01*
X257337Y249037D01*
X257126Y237226D02*
X257926Y238026D01*
X258726Y237226D01*
X257926Y236426D01*
X257126Y237226D01*
X259647Y220446D02*
X260447Y221247D01*
X261246Y220446D01*
X260447Y219647D01*
X259647Y220446D01*
X281300Y220500D02*
X282100Y221300D01*
X282900Y220500D01*
X282100Y219700D01*
X281300Y220500D01*
X305463Y241163D02*
X306263Y241963D01*
X307063Y241163D01*
X306263Y240363D01*
X305463Y241163D01*
X305331Y247069D02*
X306132Y247868D01*
X306931Y247069D01*
X306132Y246269D01*
X305331Y247069D01*
X295079Y270620D02*
X295880Y271421D01*
X296679Y270620D01*
X295880Y269820D01*
X295079Y270620D01*
X286500Y270200D02*
X287300Y271000D01*
X288100Y270200D01*
X287300Y269400D01*
X286500Y270200D01*
X272600Y270300D02*
X273400Y271100D01*
X274200Y270300D01*
X273400Y269500D01*
X272600Y270300D01*
X236100Y235449D02*
X236900Y236249D01*
X237700Y235449D01*
X236900Y234649D01*
X236100Y235449D01*
Y232299D02*
X236900Y233099D01*
X237700Y232299D01*
X236900Y231499D01*
X236100Y232299D01*
Y226000D02*
X236900Y226800D01*
X237700Y226000D01*
X236900Y225200D01*
X236100Y226000D01*
Y229150D02*
X236900Y229950D01*
X237700Y229150D01*
X236900Y228350D01*
X236100Y229150D01*
X186200Y235449D02*
X187000Y236249D01*
X187800Y235449D01*
X187000Y234649D01*
X186200Y235449D01*
Y232299D02*
X187000Y233099D01*
X187800Y232299D01*
X187000Y231499D01*
X186200Y232299D01*
Y229150D02*
X187000Y229950D01*
X187800Y229150D01*
X187000Y228350D01*
X186200Y229150D01*
Y226000D02*
X187000Y226800D01*
X187800Y226000D01*
X187000Y225200D01*
X186200Y226000D01*
X201317Y209383D02*
X202117Y210183D01*
X202917Y209383D01*
X202117Y208583D01*
X201317Y209383D01*
X203544Y207156D02*
X204344Y207956D01*
X205144Y207156D01*
X204344Y206356D01*
X203544Y207156D01*
X199090Y211610D02*
X199890Y212410D01*
X200690Y211610D01*
X199890Y210810D01*
X199090Y211610D01*
X229784Y248349D02*
X230585Y249149D01*
X231384Y248349D01*
X230585Y247549D01*
X229784Y248349D01*
Y245199D02*
X230585Y245999D01*
X231384Y245199D01*
X230585Y244399D01*
X229784Y245199D01*
Y238900D02*
X230585Y239700D01*
X231384Y238900D01*
X230585Y238100D01*
X229784Y238900D01*
Y242050D02*
X230585Y242850D01*
X231384Y242050D01*
X230585Y241250D01*
X229784Y242050D01*
X179400Y248349D02*
X180200Y249149D01*
X181000Y248349D01*
X180200Y247549D01*
X179400Y248349D01*
Y245199D02*
X180200Y245999D01*
X181000Y245199D01*
X180200Y244399D01*
X179400Y245199D01*
Y238900D02*
X180200Y239700D01*
X181000Y238900D01*
X180200Y238100D01*
X179400Y238900D01*
Y242050D02*
X180200Y242850D01*
X181000Y242050D01*
X180200Y241250D01*
X179400Y242050D01*
X209600Y137500D02*
X210400Y138300D01*
X211200Y137500D01*
X210400Y136700D01*
X209600Y137500D01*
X318804Y208604D02*
X319604Y209404D01*
X320404Y208604D01*
X319604Y207804D01*
X318804Y208604D01*
X314350Y204150D02*
X315150Y204950D01*
X315950Y204150D01*
X315150Y203350D01*
X314350Y204150D01*
X316577Y206377D02*
X317377Y207177D01*
X318177Y206377D01*
X317377Y205577D01*
X316577Y206377D01*
X205051Y141849D02*
X205851Y142649D01*
X206651Y141849D01*
X205851Y141049D01*
X205051Y141849D01*
X207278Y139622D02*
X208078Y140422D01*
X208878Y139622D01*
X208078Y138822D01*
X207278Y139622D01*
X213959Y132941D02*
X214759Y133741D01*
X215559Y132941D01*
X214759Y132141D01*
X213959Y132941D01*
X211732Y135168D02*
X212532Y135968D01*
X213332Y135168D01*
X212532Y134368D01*
X211732Y135168D01*
X264767Y183833D02*
X265567Y184633D01*
X266367Y183833D01*
X265567Y183033D01*
X264767Y183833D01*
X262540Y186060D02*
X263340Y186860D01*
X264140Y186060D01*
X263340Y185260D01*
X262540Y186060D01*
X255850Y192750D02*
X256650Y193550D01*
X257450Y192750D01*
X256650Y191950D01*
X255850Y192750D01*
X258077Y190523D02*
X258877Y191323D01*
X259677Y190523D01*
X258877Y189723D01*
X258077Y190523D01*
X260348Y188252D02*
X261148Y189052D01*
X261948Y188252D01*
X261148Y187452D01*
X260348Y188252D01*
X257358Y197842D02*
X258158Y198642D01*
X258958Y197842D01*
X258158Y197042D01*
X257358Y197842D01*
X248450Y206750D02*
X249250Y207550D01*
X250050Y206750D01*
X249250Y205950D01*
X248450Y206750D01*
X250677Y204523D02*
X251477Y205323D01*
X252277Y204523D01*
X251477Y203723D01*
X250677Y204523D01*
X255131Y200069D02*
X255931Y200869D01*
X256731Y200069D01*
X255931Y199269D01*
X255131Y200069D01*
X252904Y202296D02*
X253704Y203096D01*
X254504Y202296D01*
X253704Y201496D01*
X252904Y202296D01*
X167490Y180010D02*
X168290Y180810D01*
X169090Y180010D01*
X168290Y179210D01*
X167490Y180010D01*
X169717Y177783D02*
X170517Y178583D01*
X171317Y177783D01*
X170517Y176983D01*
X169717Y177783D01*
X176398Y171102D02*
X177198Y171902D01*
X177998Y171102D01*
X177198Y170302D01*
X176398Y171102D01*
X174171Y173329D02*
X174971Y174129D01*
X175771Y173329D01*
X174971Y172529D01*
X174171Y173329D01*
X171944Y175556D02*
X172744Y176356D01*
X173544Y175556D01*
X172744Y174756D01*
X171944Y175556D01*
D145*
X314406Y348984D02*
G03*
X314406Y348984I-800J0D01*
G01*
X319800D02*
G03*
X319800Y348984I-800J0D01*
G01*
X324190D02*
G03*
X324190Y348984I-800J0D01*
G01*
X310016D02*
G03*
X310016Y348984I-800J0D01*
G01*
X314406Y334810D02*
G03*
X314406Y334810I-800J0D01*
G01*
X319800D02*
G03*
X319800Y334810I-800J0D01*
G01*
X324190D02*
G03*
X324190Y334810I-800J0D01*
G01*
X310016D02*
G03*
X310016Y334810I-800J0D01*
G01*
Y339200D02*
G03*
X310016Y339200I-800J0D01*
G01*
X324190D02*
G03*
X324190Y339200I-800J0D01*
G01*
Y344594D02*
G03*
X324190Y344594I-800J0D01*
G01*
X310016D02*
G03*
X310016Y344594I-800J0D01*
G01*
X319800Y339200D02*
G03*
X319800Y339200I-800J0D01*
G01*
X314406D02*
G03*
X314406Y339200I-800J0D01*
G01*
Y344594D02*
G03*
X314406Y344594I-800J0D01*
G01*
X319800D02*
G03*
X319800Y344594I-800J0D01*
G01*
X176490Y336784D02*
G03*
X176490Y336784I-800J0D01*
G01*
X181884D02*
G03*
X181884Y336784I-800J0D01*
G01*
X186273D02*
G03*
X186273Y336784I-800J0D01*
G01*
X172100D02*
G03*
X172100Y336784I-800J0D01*
G01*
X176490Y322610D02*
G03*
X176490Y322610I-800J0D01*
G01*
X181884D02*
G03*
X181884Y322610I-800J0D01*
G01*
X186273D02*
G03*
X186273Y322610I-800J0D01*
G01*
X172100D02*
G03*
X172100Y322610I-800J0D01*
G01*
Y327000D02*
G03*
X172100Y327000I-800J0D01*
G01*
X186273D02*
G03*
X186273Y327000I-800J0D01*
G01*
Y332394D02*
G03*
X186273Y332394I-800J0D01*
G01*
X172100D02*
G03*
X172100Y332394I-800J0D01*
G01*
X181884Y327000D02*
G03*
X181884Y327000I-800J0D01*
G01*
X176490D02*
G03*
X176490Y327000I-800J0D01*
G01*
Y332394D02*
G03*
X176490Y332394I-800J0D01*
G01*
X181884D02*
G03*
X181884Y332394I-800J0D01*
G01*
M02*
