G04*
G04 #@! TF.GenerationSoftware,Altium Limited,Altium Designer,21.1.1 (26)*
G04*
G04 Layer_Color=8421504*
%FSLAX25Y25*%
%MOIN*%
G70*
G04*
G04 #@! TF.SameCoordinates,FB3CC9E6-9328-4A98-A2C4-C3437A6BD050*
G04*
G04*
G04 #@! TF.FilePolarity,Positive*
G04*
G01*
G75*
%ADD21C,0.07874*%
%ADD22R,0.03858X0.03661*%
%ADD23R,0.02362X0.02559*%
%ADD24R,0.05709X0.00787*%
%ADD25R,0.03940X0.01180*%
%ADD26R,0.03937X0.01181*%
%ADD27R,0.03937X0.01181*%
%ADD28R,0.03940X0.01180*%
%ADD29R,0.02559X0.02362*%
%ADD30R,0.07086X0.03150*%
%ADD31R,0.07874X0.05118*%
%ADD32O,0.02756X0.08661*%
%ADD33R,0.03346X0.07874*%
%ADD34R,0.04724X0.02362*%
%ADD35R,0.08500X0.13800*%
%ADD36R,0.08500X0.04300*%
%ADD37R,0.07284X0.12795*%
%ADD38R,0.07284X0.03543*%
%ADD39R,0.04921X0.02756*%
%ADD40R,0.03661X0.03858*%
%ADD41R,0.07874X0.03346*%
%ADD42R,0.03937X0.04921*%
%ADD43R,0.07087X0.04449*%
%ADD44R,0.04921X0.03937*%
%ADD45R,0.04449X0.07087*%
G04:AMPARAMS|DCode=46|XSize=46.06mil|YSize=46.06mil|CornerRadius=11.52mil|HoleSize=0mil|Usage=FLASHONLY|Rotation=0.000|XOffset=0mil|YOffset=0mil|HoleType=Round|Shape=RoundedRectangle|*
%AMROUNDEDRECTD46*
21,1,0.04606,0.02303,0,0,0.0*
21,1,0.02303,0.04606,0,0,0.0*
1,1,0.02303,0.01152,-0.01152*
1,1,0.02303,-0.01152,-0.01152*
1,1,0.02303,-0.01152,0.01152*
1,1,0.02303,0.01152,0.01152*
%
%ADD46ROUNDEDRECTD46*%
G04:AMPARAMS|DCode=47|XSize=39.37mil|YSize=9.45mil|CornerRadius=2.36mil|HoleSize=0mil|Usage=FLASHONLY|Rotation=0.000|XOffset=0mil|YOffset=0mil|HoleType=Round|Shape=RoundedRectangle|*
%AMROUNDEDRECTD47*
21,1,0.03937,0.00472,0,0,0.0*
21,1,0.03465,0.00945,0,0,0.0*
1,1,0.00472,0.01732,-0.00236*
1,1,0.00472,-0.01732,-0.00236*
1,1,0.00472,-0.01732,0.00236*
1,1,0.00472,0.01732,0.00236*
%
%ADD47ROUNDEDRECTD47*%
G04:AMPARAMS|DCode=48|XSize=9.45mil|YSize=39.37mil|CornerRadius=2.36mil|HoleSize=0mil|Usage=FLASHONLY|Rotation=0.000|XOffset=0mil|YOffset=0mil|HoleType=Round|Shape=RoundedRectangle|*
%AMROUNDEDRECTD48*
21,1,0.00945,0.03465,0,0,0.0*
21,1,0.00472,0.03937,0,0,0.0*
1,1,0.00472,0.00236,-0.01732*
1,1,0.00472,-0.00236,-0.01732*
1,1,0.00472,-0.00236,0.01732*
1,1,0.00472,0.00236,0.01732*
%
%ADD48ROUNDEDRECTD48*%
%ADD49R,0.03937X0.01181*%
%ADD50R,0.03937X0.01181*%
%ADD51R,0.07880X0.04330*%
G04:AMPARAMS|DCode=52|XSize=27.56mil|YSize=57.09mil|CornerRadius=0mil|HoleSize=0mil|Usage=FLASHONLY|Rotation=135.000|XOffset=0mil|YOffset=0mil|HoleType=Round|Shape=Round|*
%AMOVALD52*
21,1,0.02953,0.02756,0.00000,0.00000,225.0*
1,1,0.02756,0.01044,0.01044*
1,1,0.02756,-0.01044,-0.01044*
%
%ADD52OVALD52*%

%ADD53R,0.05807X0.01181*%
%ADD54R,0.01181X0.05807*%
%ADD55R,0.00787X0.05709*%
%ADD56O,0.08661X0.02756*%
%ADD57R,0.07087X0.04724*%
%ADD58O,0.01575X0.05697*%
%ADD59O,0.01575X0.05697*%
%ADD60R,0.05512X0.04528*%
%ADD61R,0.05118X0.01181*%
%ADD62R,0.05118X0.01181*%
%ADD63R,0.05118X0.01181*%
%ADD64R,0.05118X0.01181*%
%ADD65R,0.07880X0.05910*%
D21*
X7000Y289900D02*
D03*
X32000Y322900D02*
D03*
X362800Y61200D02*
D03*
X355200Y77848D02*
D03*
X355500Y291500D02*
D03*
X357600Y206700D02*
D03*
X248600Y333300D02*
D03*
X126600Y325100D02*
D03*
D22*
X289974Y384732D02*
D03*
Y378668D02*
D03*
X302703Y379591D02*
D03*
Y385653D02*
D03*
X314400Y308869D02*
D03*
Y314932D02*
D03*
X308100Y308869D02*
D03*
Y314932D02*
D03*
X316803Y379659D02*
D03*
Y385722D02*
D03*
X309803Y379659D02*
D03*
Y385722D02*
D03*
X152987Y368249D02*
D03*
Y362186D02*
D03*
X173387Y295992D02*
D03*
Y302055D02*
D03*
X162887Y378155D02*
D03*
Y372092D02*
D03*
X169187Y378142D02*
D03*
Y372079D02*
D03*
X145987Y362455D02*
D03*
Y368518D02*
D03*
D23*
X286527Y22200D02*
D03*
X289873D02*
D03*
X232773Y84300D02*
D03*
X229427D02*
D03*
X353627Y249200D02*
D03*
X356973D02*
D03*
X117373Y233900D02*
D03*
X114027D02*
D03*
X71500Y293000D02*
D03*
X74847D02*
D03*
Y288400D02*
D03*
X71500D02*
D03*
X66246Y283100D02*
D03*
X62900D02*
D03*
X62827Y287600D02*
D03*
X66173D02*
D03*
X71700Y260660D02*
D03*
X75046D02*
D03*
X75046Y255300D02*
D03*
X71700D02*
D03*
X67247D02*
D03*
X63900D02*
D03*
X98873Y322400D02*
D03*
X95527D02*
D03*
X98873Y326900D02*
D03*
X95527D02*
D03*
X98873Y331400D02*
D03*
X95527D02*
D03*
X98664Y340600D02*
D03*
X95317D02*
D03*
X98664Y345115D02*
D03*
X95317D02*
D03*
X98664Y349600D02*
D03*
X95317D02*
D03*
X97773Y385200D02*
D03*
X94427D02*
D03*
X97746Y380700D02*
D03*
X94400D02*
D03*
X97773Y376200D02*
D03*
X94427D02*
D03*
X97746Y371600D02*
D03*
X94400D02*
D03*
X97773Y367100D02*
D03*
X94427D02*
D03*
X97746Y362600D02*
D03*
X94400D02*
D03*
X347073Y343400D02*
D03*
X343727D02*
D03*
X343754Y354287D02*
D03*
X347100D02*
D03*
X347000Y349000D02*
D03*
X343653D02*
D03*
X347100Y358790D02*
D03*
X343754D02*
D03*
X347100Y363287D02*
D03*
X343754D02*
D03*
X343953Y373187D02*
D03*
X347300D02*
D03*
X343754Y367887D02*
D03*
X347100D02*
D03*
X343953Y380387D02*
D03*
X347300D02*
D03*
X332976Y379791D02*
D03*
X329630D02*
D03*
X285776Y359191D02*
D03*
X282430D02*
D03*
X285803Y333991D02*
D03*
X282457D02*
D03*
X211860Y322810D02*
D03*
X208513D02*
D03*
X208608Y318310D02*
D03*
X211954D02*
D03*
X41973Y389400D02*
D03*
X38627D02*
D03*
X78428Y84794D02*
D03*
X75081D02*
D03*
X75027Y79300D02*
D03*
X78373D02*
D03*
X124481Y89794D02*
D03*
X127828D02*
D03*
X124528Y84495D02*
D03*
X127874D02*
D03*
X335254Y138700D02*
D03*
X338600D02*
D03*
X141085Y50841D02*
D03*
X144431D02*
D03*
X141031Y60941D02*
D03*
X144378D02*
D03*
X140154Y32700D02*
D03*
X143500D02*
D03*
X140127Y22600D02*
D03*
X143473D02*
D03*
X140053Y12500D02*
D03*
X143400D02*
D03*
X290000Y16660D02*
D03*
X286653D02*
D03*
X261800Y10260D02*
D03*
X258453D02*
D03*
X148760Y324497D02*
D03*
X145413D02*
D03*
X145475Y343994D02*
D03*
X148821D02*
D03*
Y349195D02*
D03*
X145475D02*
D03*
X211454Y347800D02*
D03*
X208107D02*
D03*
X211587Y353397D02*
D03*
X208240D02*
D03*
X208387Y358997D02*
D03*
X211733D02*
D03*
X211760Y363510D02*
D03*
X208413D02*
D03*
X211733Y368097D02*
D03*
X208387D02*
D03*
X208340Y372697D02*
D03*
X211687D02*
D03*
X208375Y378999D02*
D03*
X211721D02*
D03*
Y383499D02*
D03*
X208375D02*
D03*
X184260Y375510D02*
D03*
X180913D02*
D03*
D24*
X306400Y76273D02*
D03*
Y74698D02*
D03*
Y73124D02*
D03*
Y71549D02*
D03*
Y65250D02*
D03*
Y66824D02*
D03*
Y68399D02*
D03*
Y69974D02*
D03*
X245573Y79423D02*
D03*
Y80998D02*
D03*
Y82572D02*
D03*
Y87297D02*
D03*
Y85722D02*
D03*
Y84147D02*
D03*
Y77848D02*
D03*
Y76273D02*
D03*
Y74698D02*
D03*
Y73124D02*
D03*
Y71549D02*
D03*
Y69974D02*
D03*
Y68399D02*
D03*
Y66824D02*
D03*
Y65250D02*
D03*
Y63675D02*
D03*
Y62100D02*
D03*
Y60525D02*
D03*
Y58950D02*
D03*
Y57376D02*
D03*
Y55801D02*
D03*
Y54226D02*
D03*
Y52651D02*
D03*
Y51076D02*
D03*
Y49502D02*
D03*
Y47927D02*
D03*
Y46352D02*
D03*
Y44777D02*
D03*
Y43202D02*
D03*
Y41628D02*
D03*
Y40053D02*
D03*
Y38478D02*
D03*
X306400D02*
D03*
Y40053D02*
D03*
Y41628D02*
D03*
Y43202D02*
D03*
Y44777D02*
D03*
Y46352D02*
D03*
Y47927D02*
D03*
Y49502D02*
D03*
Y51076D02*
D03*
Y52651D02*
D03*
Y54226D02*
D03*
Y55801D02*
D03*
Y57376D02*
D03*
Y58950D02*
D03*
Y60525D02*
D03*
Y62100D02*
D03*
Y63675D02*
D03*
Y77848D02*
D03*
Y79423D02*
D03*
Y80998D02*
D03*
Y82572D02*
D03*
Y84147D02*
D03*
Y85722D02*
D03*
Y87297D02*
D03*
D25*
X371000Y52095D02*
D03*
Y48158D02*
D03*
Y46189D02*
D03*
X371980Y239814D02*
D03*
Y241783D02*
D03*
Y245721D02*
D03*
Y251625D02*
D03*
Y255562D02*
D03*
Y267373D02*
D03*
Y271310D02*
D03*
Y273279D02*
D03*
X371000Y58000D02*
D03*
Y61937D02*
D03*
Y73748D02*
D03*
Y77685D02*
D03*
Y79654D02*
D03*
D26*
Y38314D02*
D03*
Y40283D02*
D03*
X371979Y214221D02*
D03*
Y218161D02*
D03*
X371980Y222097D02*
D03*
Y224062D02*
D03*
Y226032D02*
D03*
Y228002D02*
D03*
Y229972D02*
D03*
Y231939D02*
D03*
Y233908D02*
D03*
X370999Y20596D02*
D03*
Y24536D02*
D03*
X371000Y28472D02*
D03*
Y30437D02*
D03*
Y32407D02*
D03*
Y34377D02*
D03*
Y36347D02*
D03*
D27*
Y42251D02*
D03*
Y44220D02*
D03*
X371979Y208316D02*
D03*
Y216191D02*
D03*
X371980Y235876D02*
D03*
Y237845D02*
D03*
X370999Y14691D02*
D03*
Y22566D02*
D03*
D28*
X371000Y50126D02*
D03*
X371980Y243751D02*
D03*
Y247688D02*
D03*
X371980Y249657D02*
D03*
Y253594D02*
D03*
Y257531D02*
D03*
X371980Y259499D02*
D03*
X371980Y261468D02*
D03*
X371980Y263436D02*
D03*
X371980Y265405D02*
D03*
X371980Y269342D02*
D03*
X371000Y54063D02*
D03*
X371000Y56032D02*
D03*
Y59969D02*
D03*
Y63906D02*
D03*
X371000Y65874D02*
D03*
X371000Y67843D02*
D03*
X371000Y69811D02*
D03*
X371000Y71780D02*
D03*
X371000Y75717D02*
D03*
D29*
X340900Y102954D02*
D03*
Y106300D02*
D03*
X119300Y282353D02*
D03*
Y285700D02*
D03*
X107500Y268700D02*
D03*
Y272046D02*
D03*
X106500Y245327D02*
D03*
Y248673D02*
D03*
X124200Y233973D02*
D03*
Y230627D02*
D03*
X80973Y298027D02*
D03*
Y301373D02*
D03*
X45673Y293927D02*
D03*
Y297273D02*
D03*
X45873Y267773D02*
D03*
Y264427D02*
D03*
X80573Y266467D02*
D03*
Y269813D02*
D03*
X320600Y312127D02*
D03*
Y315473D02*
D03*
X301403Y317237D02*
D03*
Y313891D02*
D03*
X325900Y312127D02*
D03*
Y315473D02*
D03*
X296403Y382064D02*
D03*
Y378717D02*
D03*
X276400Y106873D02*
D03*
Y103527D02*
D03*
X280900Y106873D02*
D03*
Y103527D02*
D03*
X181300Y74727D02*
D03*
Y78073D02*
D03*
X156900Y106827D02*
D03*
Y110173D02*
D03*
X181300Y106427D02*
D03*
Y109773D02*
D03*
X43200Y354727D02*
D03*
Y358073D02*
D03*
X43400Y376473D02*
D03*
Y373127D02*
D03*
X166887Y302884D02*
D03*
Y299537D02*
D03*
X189687Y299537D02*
D03*
Y302884D02*
D03*
X139687Y361737D02*
D03*
Y365084D02*
D03*
D30*
X243374Y18100D02*
D03*
X227626D02*
D03*
X298400Y15300D02*
D03*
X314148D02*
D03*
X331474Y87100D02*
D03*
X315726D02*
D03*
D31*
X330820Y257731D02*
D03*
X345780Y249069D02*
D03*
Y257731D02*
D03*
X330820Y249069D02*
D03*
D32*
X129200Y272086D02*
D03*
X124200D02*
D03*
X119200D02*
D03*
X114200D02*
D03*
X129200Y245314D02*
D03*
X124200D02*
D03*
X119200D02*
D03*
X114200D02*
D03*
D33*
X69106Y300100D02*
D03*
X75641D02*
D03*
X68706Y268100D02*
D03*
X75241D02*
D03*
X333671Y372391D02*
D03*
X327136D02*
D03*
X208319Y310410D02*
D03*
X214854D02*
D03*
D34*
X61895Y300940D02*
D03*
Y293460D02*
D03*
X52052D02*
D03*
Y297200D02*
D03*
Y300940D02*
D03*
X62394Y268140D02*
D03*
Y260660D02*
D03*
X52552D02*
D03*
Y264400D02*
D03*
Y268140D02*
D03*
D35*
X62500Y336050D02*
D03*
D36*
X86900Y345050D02*
D03*
Y336050D02*
D03*
Y326950D02*
D03*
D37*
X63255Y371600D02*
D03*
D38*
X85145Y380616D02*
D03*
Y371600D02*
D03*
Y362584D02*
D03*
D39*
X370782Y380131D02*
D03*
Y372650D02*
D03*
X380624Y376391D02*
D03*
X370682Y353631D02*
D03*
Y346150D02*
D03*
X380524Y349890D02*
D03*
X230365Y383350D02*
D03*
Y375870D02*
D03*
X240208Y379610D02*
D03*
X230665Y355150D02*
D03*
Y347670D02*
D03*
X240508Y351410D02*
D03*
D40*
X370672Y366381D02*
D03*
X376735D02*
D03*
X370672Y360181D02*
D03*
X376735D02*
D03*
X358931Y337800D02*
D03*
X352869D02*
D03*
X284935Y365491D02*
D03*
X278872D02*
D03*
X285266Y352890D02*
D03*
X279203D02*
D03*
X285335Y340390D02*
D03*
X279272D02*
D03*
Y346691D02*
D03*
X285335D02*
D03*
X141982Y337183D02*
D03*
X148045D02*
D03*
X237193Y362410D02*
D03*
X231130D02*
D03*
X237145Y369397D02*
D03*
X231082D02*
D03*
X148018Y330897D02*
D03*
X141955D02*
D03*
D41*
X361297Y320515D02*
D03*
Y327050D02*
D03*
X183387Y369964D02*
D03*
Y363429D02*
D03*
D42*
X352797Y330817D02*
D03*
Y319202D02*
D03*
D43*
X333676Y302534D02*
D03*
Y314266D02*
D03*
X343276Y302534D02*
D03*
Y314266D02*
D03*
D44*
X321210Y372491D02*
D03*
X309596D02*
D03*
X208294Y301597D02*
D03*
X196679D02*
D03*
X163080Y364197D02*
D03*
X174694D02*
D03*
D45*
X273637Y316690D02*
D03*
X285369D02*
D03*
X273637Y326190D02*
D03*
X285369D02*
D03*
X149053Y306210D02*
D03*
X137320D02*
D03*
X149053Y315710D02*
D03*
X137320D02*
D03*
X209521Y340010D02*
D03*
X221253D02*
D03*
X209521Y330410D02*
D03*
X221253D02*
D03*
D46*
X321697Y341897D02*
D03*
Y347290D02*
D03*
Y336503D02*
D03*
X310910Y341897D02*
D03*
Y347290D02*
D03*
Y336503D02*
D03*
X316303D02*
D03*
Y347290D02*
D03*
Y341897D02*
D03*
X183780Y329697D02*
D03*
Y335090D02*
D03*
Y324303D02*
D03*
X172993Y329697D02*
D03*
Y335090D02*
D03*
Y324303D02*
D03*
X178387D02*
D03*
Y335090D02*
D03*
Y329697D02*
D03*
D47*
X302130Y352724D02*
D03*
Y350755D02*
D03*
Y348787D02*
D03*
Y346818D02*
D03*
Y344850D02*
D03*
Y342881D02*
D03*
Y340913D02*
D03*
Y338944D02*
D03*
Y336976D02*
D03*
Y335007D02*
D03*
Y333039D02*
D03*
Y331070D02*
D03*
X330476D02*
D03*
Y333039D02*
D03*
Y335007D02*
D03*
Y336976D02*
D03*
Y338944D02*
D03*
Y340913D02*
D03*
Y342881D02*
D03*
Y344850D02*
D03*
Y346818D02*
D03*
Y348787D02*
D03*
Y350755D02*
D03*
Y352724D02*
D03*
X164213Y340524D02*
D03*
Y338555D02*
D03*
Y336587D02*
D03*
Y334618D02*
D03*
Y332650D02*
D03*
Y330681D02*
D03*
Y328713D02*
D03*
Y326744D02*
D03*
Y324776D02*
D03*
Y322807D02*
D03*
Y320839D02*
D03*
Y318870D02*
D03*
X192560D02*
D03*
Y320839D02*
D03*
Y322807D02*
D03*
Y324776D02*
D03*
Y326744D02*
D03*
Y328713D02*
D03*
Y330681D02*
D03*
Y332650D02*
D03*
Y334618D02*
D03*
Y336587D02*
D03*
Y338555D02*
D03*
Y340524D02*
D03*
D48*
X305476Y327724D02*
D03*
X307445D02*
D03*
X309413D02*
D03*
X311382D02*
D03*
X313350D02*
D03*
X315319D02*
D03*
X317287D02*
D03*
X319256D02*
D03*
X321224D02*
D03*
X323193D02*
D03*
X325161D02*
D03*
X327130D02*
D03*
Y356070D02*
D03*
X325161D02*
D03*
X323193D02*
D03*
X321224D02*
D03*
X319256D02*
D03*
X317287D02*
D03*
X315319D02*
D03*
X313350D02*
D03*
X311382D02*
D03*
X309413D02*
D03*
X307445D02*
D03*
X305476D02*
D03*
X167560Y315524D02*
D03*
X169528D02*
D03*
X171497D02*
D03*
X173465D02*
D03*
X175434D02*
D03*
X177402D02*
D03*
X179371D02*
D03*
X181339D02*
D03*
X183308D02*
D03*
X185276D02*
D03*
X187245D02*
D03*
X189213D02*
D03*
Y343870D02*
D03*
X187245D02*
D03*
X185276D02*
D03*
X183308D02*
D03*
X181339D02*
D03*
X179371D02*
D03*
X177402D02*
D03*
X175434D02*
D03*
X173465D02*
D03*
X171497D02*
D03*
X169528D02*
D03*
X167560D02*
D03*
D49*
X371979Y210281D02*
D03*
X370999Y16656D02*
D03*
D50*
X371979Y212251D02*
D03*
Y220131D02*
D03*
X370999Y18626D02*
D03*
Y26506D02*
D03*
D51*
X381821Y282134D02*
D03*
X381821Y199462D02*
D03*
X380841Y88509D02*
D03*
X380841Y5837D02*
D03*
D52*
X242318Y160500D02*
D03*
X240090Y162727D02*
D03*
X237863Y164954D02*
D03*
X235636Y167181D02*
D03*
X233409Y169408D02*
D03*
X231182Y171635D02*
D03*
X228955Y173862D02*
D03*
X226728Y176089D02*
D03*
X224501Y178316D02*
D03*
X222274Y180544D02*
D03*
X220046Y182771D02*
D03*
X217819Y184998D02*
D03*
X215592Y187225D02*
D03*
X213365Y189452D02*
D03*
X211138Y191679D02*
D03*
X208911Y193906D02*
D03*
X206684Y196133D02*
D03*
X204457Y198360D02*
D03*
X202230Y200588D02*
D03*
X200003Y202815D02*
D03*
X197775Y205042D02*
D03*
X195548Y207269D02*
D03*
X209885Y128067D02*
D03*
X207658Y130294D02*
D03*
X205431Y132522D02*
D03*
X203204Y134749D02*
D03*
X200977Y136976D02*
D03*
X198750Y139203D02*
D03*
X196523Y141430D02*
D03*
X194296Y143657D02*
D03*
X192069Y145884D02*
D03*
X189841Y148111D02*
D03*
X187614Y150338D02*
D03*
X185387Y152566D02*
D03*
X183160Y154793D02*
D03*
X180933Y157020D02*
D03*
X178706Y159247D02*
D03*
X176479Y161474D02*
D03*
X174252Y163701D02*
D03*
X172025Y165928D02*
D03*
X169797Y168155D02*
D03*
X167570Y170382D02*
D03*
X165343Y172609D02*
D03*
X163116Y174837D02*
D03*
D53*
X312565Y221478D02*
D03*
Y223446D02*
D03*
Y225415D02*
D03*
Y227383D02*
D03*
Y229352D02*
D03*
Y231321D02*
D03*
Y233289D02*
D03*
Y235258D02*
D03*
Y237226D02*
D03*
Y239194D02*
D03*
Y241163D02*
D03*
Y243131D02*
D03*
Y245100D02*
D03*
Y247069D02*
D03*
Y249037D02*
D03*
Y251006D02*
D03*
Y252974D02*
D03*
Y254942D02*
D03*
Y256911D02*
D03*
Y258879D02*
D03*
Y260848D02*
D03*
Y262817D02*
D03*
Y264785D02*
D03*
Y266754D02*
D03*
Y268722D02*
D03*
X251635D02*
D03*
Y266754D02*
D03*
Y264785D02*
D03*
Y262817D02*
D03*
Y260848D02*
D03*
Y258879D02*
D03*
Y256911D02*
D03*
Y254942D02*
D03*
Y252974D02*
D03*
Y251006D02*
D03*
Y249037D02*
D03*
Y247069D02*
D03*
Y245100D02*
D03*
Y243131D02*
D03*
Y241163D02*
D03*
Y239194D02*
D03*
Y237226D02*
D03*
Y235258D02*
D03*
Y233289D02*
D03*
Y231321D02*
D03*
Y229352D02*
D03*
Y227383D02*
D03*
Y225415D02*
D03*
Y223446D02*
D03*
Y221478D02*
D03*
D54*
X305722Y275565D02*
D03*
X303753D02*
D03*
X301785D02*
D03*
X299816D02*
D03*
X297848D02*
D03*
X295880D02*
D03*
X293911D02*
D03*
X291943D02*
D03*
X289974D02*
D03*
X288005D02*
D03*
X286037D02*
D03*
X284068D02*
D03*
X282100D02*
D03*
X280132D02*
D03*
X278163D02*
D03*
X276195D02*
D03*
X274226D02*
D03*
X272257D02*
D03*
X270289D02*
D03*
X268320D02*
D03*
X266352D02*
D03*
X264384D02*
D03*
X262415D02*
D03*
X260447D02*
D03*
X258478D02*
D03*
Y214635D02*
D03*
X260447D02*
D03*
X262415D02*
D03*
X264384D02*
D03*
X266352D02*
D03*
X268320D02*
D03*
X270289D02*
D03*
X272257D02*
D03*
X274226D02*
D03*
X276195D02*
D03*
X278163D02*
D03*
X280132D02*
D03*
X282100D02*
D03*
X284068D02*
D03*
X286037D02*
D03*
X288005D02*
D03*
X289974D02*
D03*
X291943D02*
D03*
X293911D02*
D03*
X295880D02*
D03*
X297848D02*
D03*
X299816D02*
D03*
X301785D02*
D03*
X303753D02*
D03*
X305722D02*
D03*
D55*
X272050Y93301D02*
D03*
X270475D02*
D03*
X268900D02*
D03*
X267325D02*
D03*
X251577Y32474D02*
D03*
X253152D02*
D03*
X254727D02*
D03*
X256302D02*
D03*
X257876D02*
D03*
X259451D02*
D03*
X261026D02*
D03*
X262601D02*
D03*
X264176D02*
D03*
X265750D02*
D03*
X267325D02*
D03*
X268900D02*
D03*
X270475D02*
D03*
X272050D02*
D03*
X273624D02*
D03*
X275199D02*
D03*
X276774D02*
D03*
X278349D02*
D03*
X279924D02*
D03*
X281498D02*
D03*
X283073D02*
D03*
X284648D02*
D03*
X286223D02*
D03*
X287798D02*
D03*
X289372D02*
D03*
X290947D02*
D03*
X292522D02*
D03*
X294097D02*
D03*
X295672D02*
D03*
X297247D02*
D03*
X298821D02*
D03*
X300396D02*
D03*
Y93301D02*
D03*
X298821D02*
D03*
X297247D02*
D03*
X295672D02*
D03*
X294097D02*
D03*
X292522D02*
D03*
X290947D02*
D03*
X289372D02*
D03*
X287798D02*
D03*
X286223D02*
D03*
X284648D02*
D03*
X283073D02*
D03*
X281498D02*
D03*
X279924D02*
D03*
X278349D02*
D03*
X276774D02*
D03*
X275199D02*
D03*
X273624D02*
D03*
X265750D02*
D03*
X264176D02*
D03*
X262601D02*
D03*
X261026D02*
D03*
X259451D02*
D03*
X257876D02*
D03*
X256302D02*
D03*
X254727D02*
D03*
X253152D02*
D03*
X251577D02*
D03*
D56*
X88442Y94794D02*
D03*
Y89794D02*
D03*
Y84794D02*
D03*
Y79795D02*
D03*
X115213Y94794D02*
D03*
Y89794D02*
D03*
Y84794D02*
D03*
Y79795D02*
D03*
D57*
X156895Y99383D02*
D03*
Y84816D02*
D03*
X181305Y99383D02*
D03*
Y84816D02*
D03*
D58*
X335759Y130761D02*
D03*
X338319D02*
D03*
X340880D02*
D03*
X343440D02*
D03*
X343439Y113439D02*
D03*
X338321Y113438D02*
D03*
X335762D02*
D03*
D59*
X340880Y113438D02*
D03*
D60*
X278431Y10310D02*
D03*
X269769Y16610D02*
D03*
Y10310D02*
D03*
X278431Y16610D02*
D03*
D61*
X31728Y353311D02*
D03*
X31728Y354492D02*
D03*
X31728Y357642D02*
D03*
X31732Y361580D02*
D03*
Y373390D02*
D03*
X31728Y375358D02*
D03*
Y376539D02*
D03*
X31728Y379689D02*
D03*
D62*
X31728Y356460D02*
D03*
X31728Y359610D02*
D03*
Y363547D02*
D03*
Y365516D02*
D03*
Y367484D02*
D03*
Y369453D02*
D03*
Y371421D02*
D03*
Y378508D02*
D03*
D63*
X370882Y113819D02*
D03*
X370882Y117756D02*
D03*
Y121693D02*
D03*
Y125630D02*
D03*
D64*
X370882Y115787D02*
D03*
Y119724D02*
D03*
Y123661D02*
D03*
X370882Y127598D02*
D03*
D65*
X380918Y136645D02*
D03*
Y104755D02*
D03*
M02*
