G04*
G04 #@! TF.GenerationSoftware,Altium Limited,Altium Designer,21.1.1 (26)*
G04*
G04 Layer_Color=32896*
%FSLAX25Y25*%
%MOIN*%
G70*
G04*
G04 #@! TF.SameCoordinates,FB3CC9E6-9328-4A98-A2C4-C3437A6BD050*
G04*
G04*
G04 #@! TF.FilePolarity,Positive*
G04*
G01*
G75*
%ADD10C,0.00787*%
%ADD20C,0.00700*%
D10*
X252736Y41028D02*
G03*
X253602Y40161I866J0D01*
G01*
X256398D02*
G03*
X257264Y41028I0J866D01*
G01*
X253602Y47839D02*
G03*
X252736Y46972I0J-866D01*
G01*
X257264D02*
G03*
X256398Y47839I-866J0D01*
G01*
X261736Y41028D02*
G03*
X262602Y40161I866J0D01*
G01*
X265398D02*
G03*
X266264Y41028I0J866D01*
G01*
X262602Y47839D02*
G03*
X261736Y46972I0J-866D01*
G01*
X266264D02*
G03*
X265398Y47839I-866J0D01*
G01*
X257236Y41028D02*
G03*
X258102Y40161I866J0D01*
G01*
X260898D02*
G03*
X261764Y41028I0J866D01*
G01*
X258102Y47839D02*
G03*
X257236Y46972I0J-866D01*
G01*
X261764D02*
G03*
X260898Y47839I-866J0D01*
G01*
X297172Y67536D02*
G03*
X298039Y68402I0J866D01*
G01*
Y71198D02*
G03*
X297172Y72064I-866J0D01*
G01*
X290361Y68402D02*
G03*
X291228Y67536I866J0D01*
G01*
Y72064D02*
G03*
X290361Y71198I0J-866D01*
G01*
X297172Y72136D02*
G03*
X298039Y73002I0J866D01*
G01*
Y75798D02*
G03*
X297172Y76664I-866J0D01*
G01*
X290361Y73002D02*
G03*
X291228Y72136I866J0D01*
G01*
Y76664D02*
G03*
X290361Y75798I0J-866D01*
G01*
X297172Y63036D02*
G03*
X298039Y63902I0J866D01*
G01*
Y66698D02*
G03*
X297172Y67564I-866J0D01*
G01*
X290361Y63902D02*
G03*
X291228Y63036I866J0D01*
G01*
Y67564D02*
G03*
X290361Y66698I0J-866D01*
G01*
X298064Y84372D02*
G03*
X297198Y85239I-866J0D01*
G01*
X294402D02*
G03*
X293536Y84372I0J-866D01*
G01*
X297198Y77561D02*
G03*
X298064Y78428I0J866D01*
G01*
X293536D02*
G03*
X294402Y77561I866J0D01*
G01*
X293564Y84372D02*
G03*
X292698Y85239I-866J0D01*
G01*
X289902D02*
G03*
X289036Y84372I0J-866D01*
G01*
X292698Y77561D02*
G03*
X293564Y78428I0J866D01*
G01*
X289036D02*
G03*
X289902Y77561I866J0D01*
G01*
X289064Y84372D02*
G03*
X288198Y85239I-866J0D01*
G01*
X285402D02*
G03*
X284536Y84372I0J-866D01*
G01*
X288198Y77561D02*
G03*
X289064Y78428I0J866D01*
G01*
X284536D02*
G03*
X285402Y77561I866J0D01*
G01*
X284564Y84372D02*
G03*
X283698Y85239I-866J0D01*
G01*
X280902D02*
G03*
X280036Y84372I0J-866D01*
G01*
X283698Y77561D02*
G03*
X284564Y78428I0J866D01*
G01*
X280036D02*
G03*
X280902Y77561I866J0D01*
G01*
X280064Y84372D02*
G03*
X279198Y85239I-866J0D01*
G01*
X276402D02*
G03*
X275536Y84372I0J-866D01*
G01*
X279198Y77561D02*
G03*
X280064Y78428I0J866D01*
G01*
X275536D02*
G03*
X276402Y77561I866J0D01*
G01*
X275464Y84372D02*
G03*
X274598Y85239I-866J0D01*
G01*
X271802D02*
G03*
X270936Y84372I0J-866D01*
G01*
X274598Y77561D02*
G03*
X275464Y78428I0J866D01*
G01*
X270936D02*
G03*
X271802Y77561I866J0D01*
G01*
X270964Y84372D02*
G03*
X270098Y85239I-866J0D01*
G01*
X267302D02*
G03*
X266436Y84372I0J-866D01*
G01*
X270098Y77561D02*
G03*
X270964Y78428I0J866D01*
G01*
X266436D02*
G03*
X267302Y77561I866J0D01*
G01*
X266464Y84372D02*
G03*
X265598Y85239I-866J0D01*
G01*
X262802D02*
G03*
X261936Y84372I0J-866D01*
G01*
X265598Y77561D02*
G03*
X266464Y78428I0J866D01*
G01*
X261936D02*
G03*
X262802Y77561I866J0D01*
G01*
X253228Y55064D02*
G03*
X252361Y54198I0J-866D01*
G01*
Y51402D02*
G03*
X253228Y50536I866J0D01*
G01*
X260039Y54198D02*
G03*
X259172Y55064I-866J0D01*
G01*
Y50536D02*
G03*
X260039Y51402I0J866D01*
G01*
X253228Y59564D02*
G03*
X252361Y58698I0J-866D01*
G01*
Y55902D02*
G03*
X253228Y55036I866J0D01*
G01*
X260039Y58698D02*
G03*
X259172Y59564I-866J0D01*
G01*
Y55036D02*
G03*
X260039Y55902I0J866D01*
G01*
X253201Y64064D02*
G03*
X252335Y63198I0J-866D01*
G01*
Y60402D02*
G03*
X253201Y59536I866J0D01*
G01*
X260012Y63198D02*
G03*
X259146Y64064I-866J0D01*
G01*
Y59536D02*
G03*
X260012Y60402I0J866D01*
G01*
X253228Y68564D02*
G03*
X252361Y67698I0J-866D01*
G01*
Y64902D02*
G03*
X253228Y64036I866J0D01*
G01*
X260039Y67698D02*
G03*
X259172Y68564I-866J0D01*
G01*
Y64036D02*
G03*
X260039Y64902I0J866D01*
G01*
X274836Y41228D02*
G03*
X275702Y40361I866J0D01*
G01*
X278498D02*
G03*
X279364Y41228I0J866D01*
G01*
X275702Y48039D02*
G03*
X274836Y47172I0J-866D01*
G01*
X279364D02*
G03*
X278498Y48039I-866J0D01*
G01*
X279336Y41228D02*
G03*
X280202Y40361I866J0D01*
G01*
X282998D02*
G03*
X283864Y41228I0J866D01*
G01*
X280202Y48039D02*
G03*
X279336Y47172I0J-866D01*
G01*
X283864D02*
G03*
X282998Y48039I-866J0D01*
G01*
X283836Y41228D02*
G03*
X284702Y40361I866J0D01*
G01*
X287498D02*
G03*
X288364Y41228I0J866D01*
G01*
X284702Y48039D02*
G03*
X283836Y47172I0J-866D01*
G01*
X288364D02*
G03*
X287498Y48039I-866J0D01*
G01*
X183586Y147377D02*
G03*
X183586Y148602I-612J612D01*
G01*
X181609Y150578D02*
G03*
X180384Y150578I-612J-612D01*
G01*
X178157Y143173D02*
G03*
X179382Y143173I612J612D01*
G01*
X176181Y146375D02*
G03*
X176181Y145150I612J-612D01*
G01*
X218801Y202097D02*
G03*
X220026Y202097I612J612D01*
G01*
X222003Y204074D02*
G03*
X222003Y205299I-612J612D01*
G01*
X214597Y207526D02*
G03*
X214597Y206301I612J-612D01*
G01*
X217799Y209503D02*
G03*
X216574Y209503I-612J-612D01*
G01*
X258136Y223550D02*
G03*
X259002Y222683I866J0D01*
G01*
X261798D02*
G03*
X262664Y223550I0J866D01*
G01*
X259002Y230361D02*
G03*
X258136Y229494I0J-866D01*
G01*
X262664D02*
G03*
X261798Y230361I-866J0D01*
G01*
X279836Y223528D02*
G03*
X280702Y222661I866J0D01*
G01*
X283498D02*
G03*
X284364Y223528I0J866D01*
G01*
X280702Y230339D02*
G03*
X279836Y229472I0J-866D01*
G01*
X284364D02*
G03*
X283498Y230339I-866J0D01*
G01*
X275336Y223528D02*
G03*
X276202Y222661I866J0D01*
G01*
X278998D02*
G03*
X279864Y223528I0J866D01*
G01*
X276202Y230339D02*
G03*
X275336Y229472I0J-866D01*
G01*
X279864D02*
G03*
X278998Y230339I-866J0D01*
G01*
X261401Y237764D02*
G03*
X260535Y236898I0J-866D01*
G01*
Y234102D02*
G03*
X261401Y233236I866J0D01*
G01*
X268212Y236898D02*
G03*
X267346Y237764I-866J0D01*
G01*
Y233236D02*
G03*
X268212Y234102I0J866D01*
G01*
X261401Y242264D02*
G03*
X260535Y241398I0J-866D01*
G01*
Y238602D02*
G03*
X261401Y237736I866J0D01*
G01*
X268212Y241398D02*
G03*
X267346Y242264I-866J0D01*
G01*
Y237736D02*
G03*
X268212Y238602I0J866D01*
G01*
X261401Y246764D02*
G03*
X260535Y245898I0J-866D01*
G01*
Y243102D02*
G03*
X261401Y242236I866J0D01*
G01*
X268212Y245898D02*
G03*
X267346Y246764I-866J0D01*
G01*
Y242236D02*
G03*
X268212Y243102I0J866D01*
G01*
X261328Y251364D02*
G03*
X260461Y250498I0J-866D01*
G01*
Y247702D02*
G03*
X261328Y246836I866J0D01*
G01*
X268139Y250498D02*
G03*
X267272Y251364I-866J0D01*
G01*
Y246836D02*
G03*
X268139Y247702I0J866D01*
G01*
X260764Y268072D02*
G03*
X259898Y268939I-866J0D01*
G01*
X257102D02*
G03*
X256236Y268072I0J-866D01*
G01*
X259898Y261261D02*
G03*
X260764Y262128I0J866D01*
G01*
X256236D02*
G03*
X257102Y261261I866J0D01*
G01*
X289064Y267472D02*
G03*
X288198Y268339I-866J0D01*
G01*
X285402D02*
G03*
X284536Y267472I0J-866D01*
G01*
X288198Y260661D02*
G03*
X289064Y261528I0J866D01*
G01*
X284536D02*
G03*
X285402Y260661I866J0D01*
G01*
X298058Y267446D02*
G03*
X297192Y268312I-866J0D01*
G01*
X294397D02*
G03*
X293531Y267446I0J-866D01*
G01*
X297192Y260635D02*
G03*
X298058Y261501I0J866D01*
G01*
X293531D02*
G03*
X294397Y260635I866J0D01*
G01*
X293558Y267446D02*
G03*
X292692Y268312I-866J0D01*
G01*
X289897D02*
G03*
X289031Y267446I0J-866D01*
G01*
X292692Y260635D02*
G03*
X293558Y261501I0J866D01*
G01*
X289031D02*
G03*
X289897Y260635I866J0D01*
G01*
X302672Y253836D02*
G03*
X303539Y254702I0J866D01*
G01*
Y257498D02*
G03*
X302672Y258364I-866J0D01*
G01*
X295861Y254702D02*
G03*
X296728Y253836I866J0D01*
G01*
Y258364D02*
G03*
X295861Y257498I0J-866D01*
G01*
X302672Y249336D02*
G03*
X303539Y250202I0J866D01*
G01*
Y252998D02*
G03*
X302672Y253864I-866J0D01*
G01*
X295861Y250202D02*
G03*
X296728Y249336I866J0D01*
G01*
Y253864D02*
G03*
X295861Y252998I0J-866D01*
G01*
X302672Y244836D02*
G03*
X303539Y245702I0J866D01*
G01*
Y248498D02*
G03*
X302672Y249364I-866J0D01*
G01*
X295861Y245702D02*
G03*
X296728Y244836I866J0D01*
G01*
Y249364D02*
G03*
X295861Y248498I0J-866D01*
G01*
X302672Y238936D02*
G03*
X303539Y239802I0J866D01*
G01*
Y242598D02*
G03*
X302672Y243464I-866J0D01*
G01*
X295861Y239802D02*
G03*
X296728Y238936I866J0D01*
G01*
Y243464D02*
G03*
X295861Y242598I0J-866D01*
G01*
X241782Y225313D02*
X247294D01*
X241782Y224131D02*
X247294D01*
X241782Y228068D02*
X247294D01*
X241782Y224131D02*
Y228068D01*
X247294Y224131D02*
Y228068D01*
X253602Y40161D02*
X256398D01*
X252736Y41047D02*
Y42819D01*
X257264Y41047D02*
Y42819D01*
X252736Y45181D02*
Y46953D01*
X257264Y45181D02*
Y46953D01*
X253602Y47839D02*
X256398D01*
X262602Y40161D02*
X265398D01*
X261736Y41047D02*
Y42819D01*
X266264Y41047D02*
Y42819D01*
X261736Y45181D02*
Y46953D01*
X266264Y45181D02*
Y46953D01*
X262602Y47839D02*
X265398D01*
X258102Y40161D02*
X260898D01*
X257236Y41047D02*
Y42819D01*
X261764Y41047D02*
Y42819D01*
X257236Y45181D02*
Y46953D01*
X261764Y45181D02*
Y46953D01*
X258102Y47839D02*
X260898D01*
X266236Y40161D02*
X270764D01*
X266236Y47839D02*
X270764D01*
Y40161D02*
Y42819D01*
Y45181D02*
Y47839D01*
X266236Y40161D02*
Y42819D01*
Y45181D02*
Y47839D01*
X298039Y68402D02*
Y71198D01*
X295381Y67536D02*
X297153D01*
X295381Y72064D02*
X297153D01*
X291247Y67536D02*
X293019D01*
X291247Y72064D02*
X293019D01*
X290361Y68402D02*
Y71198D01*
X298039Y73002D02*
Y75798D01*
X295381Y72136D02*
X297153D01*
X295381Y76664D02*
X297153D01*
X291247Y72136D02*
X293019D01*
X291247Y76664D02*
X293019D01*
X290361Y73002D02*
Y75798D01*
X298039Y63902D02*
Y66698D01*
X295381Y63036D02*
X297153D01*
X295381Y67564D02*
X297153D01*
X291247Y63036D02*
X293019D01*
X291247Y67564D02*
X293019D01*
X290361Y63902D02*
Y66698D01*
X298039Y58436D02*
Y62964D01*
X290361Y58436D02*
Y62964D01*
X295381D02*
X298039D01*
X290361D02*
X293019D01*
X295381Y58436D02*
X298039D01*
X290361D02*
X293019D01*
X294402Y85239D02*
X297198D01*
X298064Y82581D02*
Y84353D01*
X293536Y82581D02*
Y84353D01*
X298064Y78447D02*
Y80219D01*
X293536Y78447D02*
Y80219D01*
X294402Y77561D02*
X297198D01*
X289902Y85239D02*
X292698D01*
X293564Y82581D02*
Y84353D01*
X289036Y82581D02*
Y84353D01*
X293564Y78447D02*
Y80219D01*
X289036Y78447D02*
Y80219D01*
X289902Y77561D02*
X292698D01*
X285402Y85239D02*
X288198D01*
X289064Y82581D02*
Y84353D01*
X284536Y82581D02*
Y84353D01*
X289064Y78447D02*
Y80219D01*
X284536Y78447D02*
Y80219D01*
X285402Y77561D02*
X288198D01*
X280902Y85239D02*
X283698D01*
X284564Y82581D02*
Y84353D01*
X280036Y82581D02*
Y84353D01*
X284564Y78447D02*
Y80219D01*
X280036Y78447D02*
Y80219D01*
X280902Y77561D02*
X283698D01*
X276402Y85239D02*
X279198D01*
X280064Y82581D02*
Y84353D01*
X275536Y82581D02*
Y84353D01*
X280064Y78447D02*
Y80219D01*
X275536Y78447D02*
Y80219D01*
X276402Y77561D02*
X279198D01*
X271802Y85239D02*
X274598D01*
X275464Y82581D02*
Y84353D01*
X270936Y82581D02*
Y84353D01*
X275464Y78447D02*
Y80219D01*
X270936Y78447D02*
Y80219D01*
X271802Y77561D02*
X274598D01*
X267302Y85239D02*
X270098D01*
X270964Y82581D02*
Y84353D01*
X266436Y82581D02*
Y84353D01*
X270964Y78447D02*
Y80219D01*
X266436Y78447D02*
Y80219D01*
X267302Y77561D02*
X270098D01*
X262802Y85239D02*
X265598D01*
X266464Y82581D02*
Y84353D01*
X261936Y82581D02*
Y84353D01*
X266464Y78447D02*
Y80219D01*
X261936Y78447D02*
Y80219D01*
X262802Y77561D02*
X265598D01*
X256636Y85239D02*
X261164D01*
X256636Y77561D02*
X261164D01*
X256636Y82581D02*
Y85239D01*
Y77561D02*
Y80219D01*
X261164Y82581D02*
Y85239D01*
Y77561D02*
Y80219D01*
X252361Y51402D02*
Y54198D01*
X253247Y55064D02*
X255019D01*
X253247Y50536D02*
X255019D01*
X257381Y55064D02*
X259153D01*
X257381Y50536D02*
X259153D01*
X260039Y51402D02*
Y54198D01*
X252361Y55902D02*
Y58698D01*
X253247Y59564D02*
X255019D01*
X253247Y55036D02*
X255019D01*
X257381Y59564D02*
X259153D01*
X257381Y55036D02*
X259153D01*
X260039Y55902D02*
Y58698D01*
X252335Y60402D02*
Y63198D01*
X253221Y64064D02*
X254992D01*
X253220Y59536D02*
X254992D01*
X257354Y64064D02*
X259126D01*
X257354Y59536D02*
X259126D01*
X260012Y60402D02*
Y63198D01*
X252361Y64902D02*
Y67698D01*
X253247Y68564D02*
X255019D01*
X253247Y64036D02*
X255019D01*
X257381Y68564D02*
X259153D01*
X257381Y64036D02*
X259153D01*
X260039Y64902D02*
Y67698D01*
X252361Y68536D02*
Y73064D01*
X260039Y68536D02*
Y73064D01*
X252361Y68536D02*
X255019D01*
X257381D02*
X260039D01*
X252361Y73064D02*
X255019D01*
X257381D02*
X260039D01*
X275702Y40361D02*
X278498D01*
X274836Y41247D02*
Y43019D01*
X279364Y41247D02*
Y43019D01*
X274836Y45381D02*
Y47153D01*
X279364Y45381D02*
Y47153D01*
X275702Y48039D02*
X278498D01*
X280202Y40361D02*
X282998D01*
X279336Y41247D02*
Y43019D01*
X283864Y41247D02*
Y43019D01*
X279336Y45381D02*
Y47153D01*
X283864Y45381D02*
Y47153D01*
X280202Y48039D02*
X282998D01*
X284702Y40361D02*
X287498D01*
X283836Y41247D02*
Y43019D01*
X288364Y41247D02*
Y43019D01*
X283836Y45381D02*
Y47153D01*
X288364Y45381D02*
Y47153D01*
X284702Y48039D02*
X287498D01*
X288336Y40361D02*
X292864D01*
X288336Y48039D02*
X292864D01*
Y40361D02*
Y43019D01*
Y45381D02*
Y48039D01*
X288336Y40361D02*
Y43019D01*
Y45381D02*
Y48039D01*
X266536Y268912D02*
X271064D01*
X266536Y261235D02*
X271064D01*
X266536Y266254D02*
Y268912D01*
Y261235D02*
Y263892D01*
X271064Y266254D02*
Y268912D01*
Y261235D02*
Y263892D01*
X271236Y268912D02*
X275764D01*
X271236Y261235D02*
X275764D01*
X271236Y266254D02*
Y268912D01*
Y261235D02*
Y263892D01*
X275764Y266254D02*
Y268912D01*
Y261235D02*
Y263892D01*
X181609Y150578D02*
X183586Y148602D01*
X182319Y146110D02*
X183572Y147363D01*
X179118Y149312D02*
X180370Y150565D01*
X179396Y143187D02*
X180649Y144440D01*
X176195Y146389D02*
X177447Y147642D01*
X176181Y145150D02*
X178157Y143173D01*
X220026Y202097D02*
X222003Y204074D01*
X217534Y203364D02*
X218787Y202111D01*
X220736Y206566D02*
X221989Y205313D01*
X214611Y206287D02*
X215864Y205034D01*
X217813Y209489D02*
X219066Y208236D01*
X214597Y207526D02*
X216574Y209503D01*
X259002Y222683D02*
X261798D01*
X258136Y223569D02*
Y225341D01*
X262664Y223569D02*
Y225341D01*
X258136Y227703D02*
Y229475D01*
X262664Y227703D02*
Y229475D01*
X259002Y230361D02*
X261798D01*
X280702Y222661D02*
X283498D01*
X279836Y223547D02*
Y225319D01*
X284364Y223547D02*
Y225319D01*
X279836Y227681D02*
Y229453D01*
X284364Y227681D02*
Y229453D01*
X280702Y230339D02*
X283498D01*
X276202Y222661D02*
X278998D01*
X275336Y223547D02*
Y225319D01*
X279864Y223547D02*
Y225319D01*
X275336Y227681D02*
Y229453D01*
X279864Y227681D02*
Y229453D01*
X276202Y230339D02*
X278998D01*
X260535Y234102D02*
Y236898D01*
X261420Y237764D02*
X263192D01*
X261420Y233236D02*
X263192D01*
X265554Y237764D02*
X267326D01*
X265554Y233236D02*
X267326D01*
X268212Y234102D02*
Y236898D01*
X260535Y238602D02*
Y241398D01*
X261420Y242264D02*
X263192D01*
X261420Y237736D02*
X263192D01*
X265554Y242264D02*
X267326D01*
X265554Y237736D02*
X267326D01*
X268212Y238602D02*
Y241398D01*
X260535Y243102D02*
Y245898D01*
X261420Y246764D02*
X263192D01*
X261420Y242236D02*
X263192D01*
X265554Y246764D02*
X267326D01*
X265554Y242236D02*
X267326D01*
X268212Y243102D02*
Y245898D01*
X260461Y247702D02*
Y250498D01*
X261347Y251364D02*
X263119D01*
X261347Y246836D02*
X263119D01*
X265481Y251364D02*
X267253D01*
X265481Y246836D02*
X267253D01*
X268139Y247702D02*
Y250498D01*
X257102Y268939D02*
X259898D01*
X260764Y266281D02*
Y268053D01*
X256236Y266281D02*
Y268053D01*
X260764Y262147D02*
Y263919D01*
X256236Y262147D02*
Y263919D01*
X257102Y261261D02*
X259898D01*
X285402Y268339D02*
X288198D01*
X289064Y265681D02*
Y267453D01*
X284536Y265681D02*
Y267453D01*
X289064Y261547D02*
Y263319D01*
X284536Y261547D02*
Y263319D01*
X285402Y260661D02*
X288198D01*
X294397Y268312D02*
X297192D01*
X298058Y265654D02*
Y267426D01*
X293531Y265654D02*
Y267426D01*
X298058Y261521D02*
Y263292D01*
X293531Y261521D02*
Y263292D01*
X294397Y260635D02*
X297192D01*
X289897Y268312D02*
X292692D01*
X293558Y265654D02*
Y267426D01*
X289031Y265654D02*
Y267426D01*
X293558Y261521D02*
Y263292D01*
X289031Y261521D02*
Y263292D01*
X289897Y260635D02*
X292692D01*
X303539Y254702D02*
Y257498D01*
X300881Y253836D02*
X302653D01*
X300881Y258364D02*
X302653D01*
X296747Y253836D02*
X298519D01*
X296747Y258364D02*
X298519D01*
X295861Y254702D02*
Y257498D01*
X303539Y250202D02*
Y252998D01*
X300881Y249336D02*
X302653D01*
X300881Y253864D02*
X302653D01*
X296747Y249336D02*
X298519D01*
X296747Y253864D02*
X298519D01*
X295861Y250202D02*
Y252998D01*
X303539Y245702D02*
Y248498D01*
X300881Y244836D02*
X302653D01*
X300881Y249364D02*
X302653D01*
X296747Y244836D02*
X298519D01*
X296747Y249364D02*
X298519D01*
X295861Y245702D02*
Y248498D01*
X303539Y239802D02*
Y242598D01*
X300881Y238936D02*
X302653D01*
X300881Y243464D02*
X302653D01*
X296747Y238936D02*
X298519D01*
X296747Y243464D02*
X298519D01*
X295861Y239802D02*
Y242598D01*
D20*
X267023Y270400D02*
X270522D01*
Y272149D01*
X269939Y272733D01*
X268773D01*
X268190Y272149D01*
Y270400D01*
Y271566D02*
X267023Y272733D01*
X269939Y273899D02*
X270522Y274482D01*
Y275648D01*
X269939Y276231D01*
X269356D01*
X268773Y275648D01*
Y275065D01*
Y275648D01*
X268190Y276231D01*
X267606D01*
X267023Y275648D01*
Y274482D01*
X267606Y273899D01*
X269939Y277398D02*
X270522Y277981D01*
Y279147D01*
X269939Y279730D01*
X269356D01*
X268773Y279147D01*
Y278564D01*
Y279147D01*
X268190Y279730D01*
X267606D01*
X267023Y279147D01*
Y277981D01*
X267606Y277398D01*
X272200Y270200D02*
X275699D01*
Y271949D01*
X275116Y272533D01*
X273949D01*
X273366Y271949D01*
Y270200D01*
Y271366D02*
X272200Y272533D01*
X275116Y273699D02*
X275699Y274282D01*
Y275448D01*
X275116Y276031D01*
X274533D01*
X273949Y275448D01*
Y274865D01*
Y275448D01*
X273366Y276031D01*
X272783D01*
X272200Y275448D01*
Y274282D01*
X272783Y273699D01*
X272200Y279530D02*
Y277198D01*
X274533Y279530D01*
X275116D01*
X275699Y278947D01*
Y277781D01*
X275116Y277198D01*
X267500Y29400D02*
X270999D01*
Y31149D01*
X270416Y31733D01*
X269249D01*
X268666Y31149D01*
Y29400D01*
Y30566D02*
X267500Y31733D01*
X270416Y32899D02*
X270999Y33482D01*
Y34648D01*
X270416Y35232D01*
X269833D01*
X269249Y34648D01*
Y34065D01*
Y34648D01*
X268666Y35232D01*
X268083D01*
X267500Y34648D01*
Y33482D01*
X268083Y32899D01*
X270416Y36398D02*
X270999Y36981D01*
Y38147D01*
X270416Y38730D01*
X268083D01*
X267500Y38147D01*
Y36981D01*
X268083Y36398D01*
X270416D01*
X299800Y62400D02*
Y58901D01*
X301549D01*
X302133Y59484D01*
Y60651D01*
X301549Y61234D01*
X299800D01*
X300966D02*
X302133Y62400D01*
X305631D02*
X303299D01*
X305631Y60067D01*
Y59484D01*
X305048Y58901D01*
X303882D01*
X303299Y59484D01*
X306798Y61817D02*
X307381Y62400D01*
X308547D01*
X309130Y61817D01*
Y59484D01*
X308547Y58901D01*
X307381D01*
X306798Y59484D01*
Y60067D01*
X307381Y60651D01*
X309130D01*
X289500Y29600D02*
X292999D01*
Y31349D01*
X292416Y31933D01*
X291249D01*
X290666Y31349D01*
Y29600D01*
Y30766D02*
X289500Y31933D01*
Y35432D02*
Y33099D01*
X291833Y35432D01*
X292416D01*
X292999Y34848D01*
Y33682D01*
X292416Y33099D01*
Y36598D02*
X292999Y37181D01*
Y38347D01*
X292416Y38930D01*
X291833D01*
X291249Y38347D01*
X290666Y38930D01*
X290083D01*
X289500Y38347D01*
Y37181D01*
X290083Y36598D01*
X290666D01*
X291249Y37181D01*
X291833Y36598D01*
X292416D01*
X291249Y37181D02*
Y38347D01*
X257000Y87078D02*
X260499D01*
Y88827D01*
X259916Y89410D01*
X258749D01*
X258166Y88827D01*
Y87078D01*
Y88244D02*
X257000Y89410D01*
Y92909D02*
Y90577D01*
X259333Y92909D01*
X259916D01*
X260499Y92326D01*
Y91160D01*
X259916Y90577D01*
X260499Y94076D02*
Y96408D01*
X259916D01*
X257583Y94076D01*
X257000D01*
X261100Y72600D02*
Y69101D01*
X262849D01*
X263433Y69684D01*
Y70851D01*
X262849Y71434D01*
X261100D01*
X262266D02*
X263433Y72600D01*
X266931D02*
X264599D01*
X266931Y70267D01*
Y69684D01*
X266348Y69101D01*
X265182D01*
X264599Y69684D01*
X270430Y69101D02*
X269264Y69684D01*
X268098Y70851D01*
Y72017D01*
X268681Y72600D01*
X269847D01*
X270430Y72017D01*
Y71434D01*
X269847Y70851D01*
X268098D01*
X247323Y243899D02*
Y240400D01*
X245573D01*
X244990Y240983D01*
Y243316D01*
X245573Y243899D01*
X247323D01*
X241491D02*
X243824D01*
Y242149D01*
X242658Y242733D01*
X242074D01*
X241491Y242149D01*
Y240983D01*
X242074Y240400D01*
X243241D01*
X243824Y240983D01*
X259771Y272933D02*
X260355Y272349D01*
Y271183D01*
X259771Y270600D01*
X257439D01*
X256856Y271183D01*
Y272349D01*
X257439Y272933D01*
X260355Y274099D02*
Y276431D01*
X259771D01*
X257439Y274099D01*
X256856D01*
X259771Y277598D02*
X260355Y278181D01*
Y279347D01*
X259771Y279930D01*
X257439D01*
X256856Y279347D01*
Y278181D01*
X257439Y277598D01*
X259771D01*
X272033Y233884D02*
X271449Y233301D01*
X270283D01*
X269700Y233884D01*
Y236217D01*
X270283Y236800D01*
X271449D01*
X272033Y236217D01*
X275531Y233301D02*
X274365Y233884D01*
X273199Y235051D01*
Y236217D01*
X273782Y236800D01*
X274948D01*
X275531Y236217D01*
Y235634D01*
X274948Y235051D01*
X273199D01*
X276698Y236217D02*
X277281Y236800D01*
X278447D01*
X279030Y236217D01*
Y233884D01*
X278447Y233301D01*
X277281D01*
X276698Y233884D01*
Y234467D01*
X277281Y235051D01*
X279030D01*
X271933Y238284D02*
X271349Y237701D01*
X270183D01*
X269600Y238284D01*
Y240617D01*
X270183Y241200D01*
X271349D01*
X271933Y240617D01*
X275431Y237701D02*
X274265Y238284D01*
X273099Y239451D01*
Y240617D01*
X273682Y241200D01*
X274848D01*
X275431Y240617D01*
Y240034D01*
X274848Y239451D01*
X273099D01*
X276598Y238284D02*
X277181Y237701D01*
X278347D01*
X278930Y238284D01*
Y238867D01*
X278347Y239451D01*
X278930Y240034D01*
Y240617D01*
X278347Y241200D01*
X277181D01*
X276598Y240617D01*
Y240034D01*
X277181Y239451D01*
X276598Y238867D01*
Y238284D01*
X277181Y239451D02*
X278347D01*
X272033Y243184D02*
X271449Y242601D01*
X270283D01*
X269700Y243184D01*
Y245517D01*
X270283Y246100D01*
X271449D01*
X272033Y245517D01*
X275531Y242601D02*
X274365Y243184D01*
X273199Y244351D01*
Y245517D01*
X273782Y246100D01*
X274948D01*
X275531Y245517D01*
Y244934D01*
X274948Y244351D01*
X273199D01*
X276698Y242601D02*
X279030D01*
Y243184D01*
X276698Y245517D01*
Y246100D01*
X272033Y247784D02*
X271449Y247201D01*
X270283D01*
X269700Y247784D01*
Y250117D01*
X270283Y250700D01*
X271449D01*
X272033Y250117D01*
X275531Y247201D02*
X274365Y247784D01*
X273199Y248951D01*
Y250117D01*
X273782Y250700D01*
X274948D01*
X275531Y250117D01*
Y249534D01*
X274948Y248951D01*
X273199D01*
X279030Y247201D02*
X277864Y247784D01*
X276698Y248951D01*
Y250117D01*
X277281Y250700D01*
X278447D01*
X279030Y250117D01*
Y249534D01*
X278447Y248951D01*
X276698D01*
X297116Y272433D02*
X297699Y271849D01*
Y270683D01*
X297116Y270100D01*
X294783D01*
X294200Y270683D01*
Y271849D01*
X294783Y272433D01*
X297699Y275931D02*
X297116Y274765D01*
X295949Y273599D01*
X294783D01*
X294200Y274182D01*
Y275348D01*
X294783Y275931D01*
X295366D01*
X295949Y275348D01*
Y273599D01*
X297699Y279430D02*
Y277098D01*
X295949D01*
X296533Y278264D01*
Y278847D01*
X295949Y279430D01*
X294783D01*
X294200Y278847D01*
Y277681D01*
X294783Y277098D01*
X292416Y272533D02*
X292999Y271949D01*
Y270783D01*
X292416Y270200D01*
X290083D01*
X289500Y270783D01*
Y271949D01*
X290083Y272533D01*
X292999Y276031D02*
X292416Y274865D01*
X291249Y273699D01*
X290083D01*
X289500Y274282D01*
Y275448D01*
X290083Y276031D01*
X290666D01*
X291249Y275448D01*
Y273699D01*
X289500Y278947D02*
X292999D01*
X291249Y277198D01*
Y279530D01*
X287616Y272533D02*
X288199Y271949D01*
Y270783D01*
X287616Y270200D01*
X285283D01*
X284700Y270783D01*
Y271949D01*
X285283Y272533D01*
X288199Y276031D02*
X287616Y274865D01*
X286449Y273699D01*
X285283D01*
X284700Y274282D01*
Y275448D01*
X285283Y276031D01*
X285866D01*
X286449Y275448D01*
Y273699D01*
X287616Y277198D02*
X288199Y277781D01*
Y278947D01*
X287616Y279530D01*
X287033D01*
X286449Y278947D01*
Y278364D01*
Y278947D01*
X285866Y279530D01*
X285283D01*
X284700Y278947D01*
Y277781D01*
X285283Y277198D01*
X212691Y202408D02*
X211867D01*
X211042Y203233D01*
Y204057D01*
X212691Y205707D01*
X213516D01*
X214341Y204882D01*
X214341Y204057D01*
X214753Y199522D02*
X214341Y200759D01*
Y202408D01*
X215165Y203233D01*
X215990D01*
X216815Y202408D01*
X216815Y201583D01*
X216402Y201171D01*
X215578Y201171D01*
X214341Y202408D01*
X219701Y199522D02*
X218052Y201171D01*
Y197872D01*
X217639Y197460D01*
X216815D01*
X215990Y198284D01*
Y199109D01*
X176313Y152379D02*
Y153204D01*
X177138Y154029D01*
X177963D01*
X179612Y152379D01*
Y151555D01*
X178788Y150730D01*
X177963Y150730D01*
X173427Y150318D02*
X174664Y150730D01*
X176313D01*
X177138Y149905D01*
Y149081D01*
X176313Y148256D01*
X175489Y148256D01*
X175076Y148668D01*
X175076Y149493D01*
X176313Y150730D01*
X175076Y147019D02*
X174252Y146194D01*
X174664Y146607D01*
X172190Y149081D01*
X173015D01*
X275702Y218410D02*
X275119Y218993D01*
Y220160D01*
X275702Y220743D01*
X278034D01*
X278618Y220160D01*
Y218993D01*
X278034Y218410D01*
X275119Y214911D02*
X275702Y216077D01*
X276868Y217244D01*
X278034D01*
X278618Y216661D01*
Y215494D01*
X278034Y214911D01*
X277451D01*
X276868Y215494D01*
Y217244D01*
X275702Y213745D02*
X275119Y213162D01*
Y211996D01*
X275702Y211412D01*
X278034D01*
X278618Y211996D01*
Y213162D01*
X278034Y213745D01*
X275702D01*
X280602Y218510D02*
X280019Y219093D01*
Y220259D01*
X280602Y220843D01*
X282934D01*
X283518Y220259D01*
Y219093D01*
X282934Y218510D01*
X280019Y215011D02*
Y217344D01*
X281768D01*
X281185Y216178D01*
Y215594D01*
X281768Y215011D01*
X282934D01*
X283518Y215594D01*
Y216761D01*
X282934Y217344D01*
Y213845D02*
X283518Y213262D01*
Y212095D01*
X282934Y211512D01*
X280602D01*
X280019Y212095D01*
Y213262D01*
X280602Y213845D01*
X281185D01*
X281768Y213262D01*
Y211512D01*
X287733Y245884D02*
X287149Y245301D01*
X285983D01*
X285400Y245884D01*
Y248217D01*
X285983Y248800D01*
X287149D01*
X287733Y248217D01*
X291231Y245301D02*
X288899D01*
Y247051D01*
X290065Y246467D01*
X290648D01*
X291231Y247051D01*
Y248217D01*
X290648Y248800D01*
X289482D01*
X288899Y248217D01*
X292398Y245884D02*
X292981Y245301D01*
X294147D01*
X294730Y245884D01*
Y246467D01*
X294147Y247051D01*
X294730Y247634D01*
Y248217D01*
X294147Y248800D01*
X292981D01*
X292398Y248217D01*
Y247634D01*
X292981Y247051D01*
X292398Y246467D01*
Y245884D01*
X292981Y247051D02*
X294147D01*
X287733Y250984D02*
X287149Y250401D01*
X285983D01*
X285400Y250984D01*
Y253317D01*
X285983Y253900D01*
X287149D01*
X287733Y253317D01*
X291231Y250401D02*
X288899D01*
Y252151D01*
X290065Y251567D01*
X290648D01*
X291231Y252151D01*
Y253317D01*
X290648Y253900D01*
X289482D01*
X288899Y253317D01*
X292398Y250401D02*
X294730D01*
Y250984D01*
X292398Y253317D01*
Y253900D01*
X287533Y255684D02*
X286949Y255101D01*
X285783D01*
X285200Y255684D01*
Y258017D01*
X285783Y258600D01*
X286949D01*
X287533Y258017D01*
X291031Y255101D02*
X288699D01*
Y256851D01*
X289865Y256267D01*
X290448D01*
X291031Y256851D01*
Y258017D01*
X290448Y258600D01*
X289282D01*
X288699Y258017D01*
X294530Y255101D02*
X293364Y255684D01*
X292198Y256851D01*
Y258017D01*
X292781Y258600D01*
X293947D01*
X294530Y258017D01*
Y257434D01*
X293947Y256851D01*
X292198D01*
X259065Y218667D02*
X258482Y219251D01*
Y220417D01*
X259065Y221000D01*
X261397D01*
X261981Y220417D01*
Y219251D01*
X261397Y218667D01*
X258482Y215169D02*
Y217501D01*
X260231D01*
X259648Y216335D01*
Y215752D01*
X260231Y215169D01*
X261397D01*
X261981Y215752D01*
Y216918D01*
X261397Y217501D01*
X258482Y211670D02*
Y214002D01*
X260231D01*
X259648Y212836D01*
Y212253D01*
X260231Y211670D01*
X261397D01*
X261981Y212253D01*
Y213419D01*
X261397Y214002D01*
X287533Y239984D02*
X286949Y239401D01*
X285783D01*
X285200Y239984D01*
Y242317D01*
X285783Y242900D01*
X286949D01*
X287533Y242317D01*
X291031Y239401D02*
X288699D01*
Y241151D01*
X289865Y240567D01*
X290448D01*
X291031Y241151D01*
Y242317D01*
X290448Y242900D01*
X289282D01*
X288699Y242317D01*
X293947Y242900D02*
Y239401D01*
X292198Y241151D01*
X294530D01*
X255416Y31533D02*
X255999Y30949D01*
Y29783D01*
X255416Y29200D01*
X253083D01*
X252500Y29783D01*
Y30949D01*
X253083Y31533D01*
X252500Y34448D02*
X255999D01*
X254249Y32699D01*
Y35032D01*
X252500Y37947D02*
X255999D01*
X254249Y36198D01*
Y38530D01*
X260416Y31533D02*
X260999Y30949D01*
Y29783D01*
X260416Y29200D01*
X258083D01*
X257500Y29783D01*
Y30949D01*
X258083Y31533D01*
X257500Y34448D02*
X260999D01*
X259249Y32699D01*
Y35032D01*
X260416Y36198D02*
X260999Y36781D01*
Y37947D01*
X260416Y38530D01*
X259833D01*
X259249Y37947D01*
Y37364D01*
Y37947D01*
X258666Y38530D01*
X258083D01*
X257500Y37947D01*
Y36781D01*
X258083Y36198D01*
X265416Y31633D02*
X265999Y31049D01*
Y29883D01*
X265416Y29300D01*
X263083D01*
X262500Y29883D01*
Y31049D01*
X263083Y31633D01*
X262500Y34548D02*
X265999D01*
X264249Y32799D01*
Y35131D01*
X262500Y38630D02*
Y36298D01*
X264833Y38630D01*
X265416D01*
X265999Y38047D01*
Y36881D01*
X265416Y36298D01*
X301933Y73384D02*
X301349Y72801D01*
X300183D01*
X299600Y73384D01*
Y75717D01*
X300183Y76300D01*
X301349D01*
X301933Y75717D01*
X304848Y76300D02*
Y72801D01*
X303099Y74551D01*
X305431D01*
X306598Y73384D02*
X307181Y72801D01*
X308347D01*
X308930Y73384D01*
Y75717D01*
X308347Y76300D01*
X307181D01*
X306598Y75717D01*
Y73384D01*
X301933Y68984D02*
X301349Y68401D01*
X300183D01*
X299600Y68984D01*
Y71317D01*
X300183Y71900D01*
X301349D01*
X301933Y71317D01*
X303099Y68984D02*
X303682Y68401D01*
X304848D01*
X305431Y68984D01*
Y69567D01*
X304848Y70151D01*
X304265D01*
X304848D01*
X305431Y70734D01*
Y71317D01*
X304848Y71900D01*
X303682D01*
X303099Y71317D01*
X306598D02*
X307181Y71900D01*
X308347D01*
X308930Y71317D01*
Y68984D01*
X308347Y68401D01*
X307181D01*
X306598Y68984D01*
Y69567D01*
X307181Y70151D01*
X308930D01*
X301933Y64484D02*
X301349Y63901D01*
X300183D01*
X299600Y64484D01*
Y66817D01*
X300183Y67400D01*
X301349D01*
X301933Y66817D01*
X303099Y64484D02*
X303682Y63901D01*
X304848D01*
X305431Y64484D01*
Y65067D01*
X304848Y65651D01*
X304265D01*
X304848D01*
X305431Y66234D01*
Y66817D01*
X304848Y67400D01*
X303682D01*
X303099Y66817D01*
X306598Y64484D02*
X307181Y63901D01*
X308347D01*
X308930Y64484D01*
Y65067D01*
X308347Y65651D01*
X308930Y66234D01*
Y66817D01*
X308347Y67400D01*
X307181D01*
X306598Y66817D01*
Y66234D01*
X307181Y65651D01*
X306598Y65067D01*
Y64484D01*
X307181Y65651D02*
X308347D01*
X283116Y31933D02*
X283699Y31349D01*
Y30183D01*
X283116Y29600D01*
X280783D01*
X280200Y30183D01*
Y31349D01*
X280783Y31933D01*
X283116Y33099D02*
X283699Y33682D01*
Y34848D01*
X283116Y35432D01*
X282533D01*
X281949Y34848D01*
Y34265D01*
Y34848D01*
X281366Y35432D01*
X280783D01*
X280200Y34848D01*
Y33682D01*
X280783Y33099D01*
X283699Y38930D02*
X283116Y37764D01*
X281949Y36598D01*
X280783D01*
X280200Y37181D01*
Y38347D01*
X280783Y38930D01*
X281366D01*
X281949Y38347D01*
Y36598D01*
X287616Y31833D02*
X288199Y31249D01*
Y30083D01*
X287616Y29500D01*
X285283D01*
X284700Y30083D01*
Y31249D01*
X285283Y31833D01*
X287616Y32999D02*
X288199Y33582D01*
Y34748D01*
X287616Y35331D01*
X287033D01*
X286449Y34748D01*
Y34165D01*
Y34748D01*
X285866Y35331D01*
X285283D01*
X284700Y34748D01*
Y33582D01*
X285283Y32999D01*
X288199Y38830D02*
Y36498D01*
X286449D01*
X287033Y37664D01*
Y38247D01*
X286449Y38830D01*
X285283D01*
X284700Y38247D01*
Y37081D01*
X285283Y36498D01*
X278516Y31833D02*
X279099Y31249D01*
Y30083D01*
X278516Y29500D01*
X276183D01*
X275600Y30083D01*
Y31249D01*
X276183Y31833D01*
X278516Y32999D02*
X279099Y33582D01*
Y34748D01*
X278516Y35331D01*
X277933D01*
X277349Y34748D01*
Y34165D01*
Y34748D01*
X276766Y35331D01*
X276183D01*
X275600Y34748D01*
Y33582D01*
X276183Y32999D01*
X275600Y38247D02*
X279099D01*
X277349Y36498D01*
Y38830D01*
X297516Y89333D02*
X298099Y88749D01*
Y87583D01*
X297516Y87000D01*
X295183D01*
X294600Y87583D01*
Y88749D01*
X295183Y89333D01*
X297516Y90499D02*
X298099Y91082D01*
Y92248D01*
X297516Y92831D01*
X296933D01*
X296349Y92248D01*
Y91665D01*
Y92248D01*
X295766Y92831D01*
X295183D01*
X294600Y92248D01*
Y91082D01*
X295183Y90499D01*
X294600Y96330D02*
Y93998D01*
X296933Y96330D01*
X297516D01*
X298099Y95747D01*
Y94581D01*
X297516Y93998D01*
X292316Y89433D02*
X292899Y88849D01*
Y87683D01*
X292316Y87100D01*
X289983D01*
X289400Y87683D01*
Y88849D01*
X289983Y89433D01*
X292316Y90599D02*
X292899Y91182D01*
Y92348D01*
X292316Y92931D01*
X291733D01*
X291149Y92348D01*
Y91765D01*
Y92348D01*
X290566Y92931D01*
X289983D01*
X289400Y92348D01*
Y91182D01*
X289983Y90599D01*
X289400Y94098D02*
Y95264D01*
Y94681D01*
X292899D01*
X292316Y94098D01*
X287751Y89233D02*
X288334Y88649D01*
Y87483D01*
X287751Y86900D01*
X285418D01*
X284835Y87483D01*
Y88649D01*
X285418Y89233D01*
X287751Y90399D02*
X288334Y90982D01*
Y92148D01*
X287751Y92731D01*
X287168D01*
X286584Y92148D01*
Y91565D01*
Y92148D01*
X286001Y92731D01*
X285418D01*
X284835Y92148D01*
Y90982D01*
X285418Y90399D01*
X287751Y93898D02*
X288334Y94481D01*
Y95647D01*
X287751Y96230D01*
X285418D01*
X284835Y95647D01*
Y94481D01*
X285418Y93898D01*
X287751D01*
X283151Y89033D02*
X283734Y88449D01*
Y87283D01*
X283151Y86700D01*
X280818D01*
X280235Y87283D01*
Y88449D01*
X280818Y89033D01*
X280235Y92531D02*
Y90199D01*
X282568Y92531D01*
X283151D01*
X283734Y91948D01*
Y90782D01*
X283151Y90199D01*
X280818Y93698D02*
X280235Y94281D01*
Y95447D01*
X280818Y96030D01*
X283151D01*
X283734Y95447D01*
Y94281D01*
X283151Y93698D01*
X282568D01*
X281984Y94281D01*
Y96030D01*
X278751Y89033D02*
X279334Y88449D01*
Y87283D01*
X278751Y86700D01*
X276418D01*
X275835Y87283D01*
Y88449D01*
X276418Y89033D01*
X275835Y92531D02*
Y90199D01*
X278168Y92531D01*
X278751D01*
X279334Y91948D01*
Y90782D01*
X278751Y90199D01*
Y93698D02*
X279334Y94281D01*
Y95447D01*
X278751Y96030D01*
X278168D01*
X277585Y95447D01*
X277001Y96030D01*
X276418D01*
X275835Y95447D01*
Y94281D01*
X276418Y93698D01*
X277001D01*
X277585Y94281D01*
X278168Y93698D01*
X278751D01*
X277585Y94281D02*
Y95447D01*
X274316Y89210D02*
X274899Y88627D01*
Y87461D01*
X274316Y86878D01*
X271983D01*
X271400Y87461D01*
Y88627D01*
X271983Y89210D01*
X271400Y92709D02*
Y90377D01*
X273733Y92709D01*
X274316D01*
X274899Y92126D01*
Y90960D01*
X274316Y90377D01*
X274899Y93876D02*
Y96208D01*
X274316D01*
X271983Y93876D01*
X271400D01*
X269416Y89310D02*
X269999Y88727D01*
Y87561D01*
X269416Y86978D01*
X267083D01*
X266500Y87561D01*
Y88727D01*
X267083Y89310D01*
X266500Y92809D02*
Y90477D01*
X268833Y92809D01*
X269416D01*
X269999Y92226D01*
Y91060D01*
X269416Y90477D01*
X269999Y96308D02*
X269416Y95142D01*
X268249Y93976D01*
X267083D01*
X266500Y94559D01*
Y95725D01*
X267083Y96308D01*
X267666D01*
X268249Y95725D01*
Y93976D01*
X264716Y89310D02*
X265299Y88727D01*
Y87561D01*
X264716Y86978D01*
X262383D01*
X261800Y87561D01*
Y88727D01*
X262383Y89310D01*
X261800Y92809D02*
Y90477D01*
X264133Y92809D01*
X264716D01*
X265299Y92226D01*
Y91060D01*
X264716Y90477D01*
X265299Y96308D02*
Y93976D01*
X263549D01*
X264133Y95142D01*
Y95725D01*
X263549Y96308D01*
X262383D01*
X261800Y95725D01*
Y94559D01*
X262383Y93976D01*
X263533Y51184D02*
X262949Y50601D01*
X261783D01*
X261200Y51184D01*
Y53517D01*
X261783Y54100D01*
X262949D01*
X263533Y53517D01*
X267031Y54100D02*
X264699D01*
X267031Y51767D01*
Y51184D01*
X266448Y50601D01*
X265282D01*
X264699Y51184D01*
X269947Y54100D02*
Y50601D01*
X268198Y52351D01*
X270530D01*
X263533Y55584D02*
X262949Y55001D01*
X261783D01*
X261200Y55584D01*
Y57917D01*
X261783Y58500D01*
X262949D01*
X263533Y57917D01*
X267031Y58500D02*
X264699D01*
X267031Y56167D01*
Y55584D01*
X266448Y55001D01*
X265282D01*
X264699Y55584D01*
X268198D02*
X268781Y55001D01*
X269947D01*
X270530Y55584D01*
Y56167D01*
X269947Y56751D01*
X269364D01*
X269947D01*
X270530Y57334D01*
Y57917D01*
X269947Y58500D01*
X268781D01*
X268198Y57917D01*
X263533Y59984D02*
X262949Y59401D01*
X261783D01*
X261200Y59984D01*
Y62317D01*
X261783Y62900D01*
X262949D01*
X263533Y62317D01*
X264699Y62900D02*
X265865D01*
X265282D01*
Y59401D01*
X264699Y59984D01*
X267615D02*
X268198Y59401D01*
X269364D01*
X269947Y59984D01*
Y60567D01*
X269364Y61151D01*
X269947Y61734D01*
Y62317D01*
X269364Y62900D01*
X268198D01*
X267615Y62317D01*
Y61734D01*
X268198Y61151D01*
X267615Y60567D01*
Y59984D01*
X268198Y61151D02*
X269364D01*
X263333Y64884D02*
X262749Y64301D01*
X261583D01*
X261000Y64884D01*
Y67217D01*
X261583Y67800D01*
X262749D01*
X263333Y67217D01*
X266831Y64301D02*
X265665Y64884D01*
X264499Y66051D01*
Y67217D01*
X265082Y67800D01*
X266248D01*
X266831Y67217D01*
Y66634D01*
X266248Y66051D01*
X264499D01*
M02*
