G04*
G04 #@! TF.GenerationSoftware,Altium Limited,Altium Designer,21.1.1 (26)*
G04*
G04 Layer_Physical_Order=2*
G04 Layer_Color=16711680*
%FSLAX25Y25*%
%MOIN*%
G70*
G04*
G04 #@! TF.SameCoordinates,B5F5DE5B-2645-439E-AC59-352A346880EA*
G04*
G04*
G04 #@! TF.FilePolarity,Positive*
G04*
G01*
G75*
%ADD10C,0.01000*%
%ADD123C,0.02800*%
%ADD124C,0.00800*%
%ADD125C,0.03200*%
%ADD129C,0.02500*%
%ADD130C,0.01500*%
%ADD133R,0.05906X0.05906*%
%ADD134C,0.05906*%
%ADD135C,0.02500*%
%ADD136C,0.02953*%
%ADD137O,0.07087X0.04724*%
%ADD138O,0.07874X0.04724*%
%ADD139C,0.03937*%
%ADD140R,0.06299X0.06299*%
%ADD141C,0.06299*%
%ADD142O,0.04724X0.07087*%
%ADD143O,0.04724X0.07874*%
%ADD144R,0.05906X0.05906*%
%ADD145C,0.04724*%
%ADD146O,0.12989X0.05906*%
%ADD147O,0.10627X0.05906*%
%ADD148C,0.03347*%
%ADD149C,0.02362*%
%ADD150C,0.03500*%
G36*
X393700D02*
X384286D01*
X384236Y500D01*
X384936Y639D01*
X385730Y1170D01*
X391730Y7170D01*
X392261Y7964D01*
X392447Y8900D01*
Y99100D01*
X392261Y100036D01*
X391730Y100830D01*
X386930Y105630D01*
X386136Y106161D01*
X385200Y106347D01*
X377953D01*
X377559Y106860D01*
X376693Y107525D01*
X375683Y107943D01*
X374600Y108085D01*
X373517Y107943D01*
X372507Y107525D01*
X371640Y106860D01*
X370975Y105993D01*
X370557Y104983D01*
X370415Y103900D01*
X370557Y102817D01*
X370975Y101807D01*
X371640Y100941D01*
X372507Y100275D01*
X373517Y99857D01*
X374600Y99715D01*
X375683Y99857D01*
X376693Y100275D01*
X377559Y100941D01*
X377953Y101453D01*
X384186D01*
X387553Y98086D01*
Y9914D01*
X382986Y5347D01*
X165779D01*
X165549Y5847D01*
X165961Y6464D01*
X166147Y7400D01*
X165961Y8336D01*
X165430Y9130D01*
X161330Y13230D01*
X160536Y13761D01*
X159600Y13947D01*
X96605D01*
X96297Y14412D01*
X96297Y14447D01*
X96447Y15200D01*
Y50800D01*
X96261Y51736D01*
X95730Y52530D01*
X94936Y53061D01*
X94000Y53247D01*
X93064Y53061D01*
X92270Y52530D01*
X91739Y51736D01*
X91553Y50800D01*
Y16214D01*
X89286Y13947D01*
X33364D01*
X28247Y19064D01*
Y102986D01*
X37006Y111745D01*
X52008D01*
X52944Y111931D01*
X53738Y112462D01*
X54269Y113256D01*
X54455Y114192D01*
Y206608D01*
X54269Y207544D01*
X53738Y208338D01*
X50747Y211330D01*
Y211700D01*
X50561Y212636D01*
X50030Y213430D01*
X49236Y213961D01*
X48300Y214147D01*
X47364Y213961D01*
X46570Y213430D01*
X46039Y212636D01*
X45853Y211700D01*
Y210316D01*
X46039Y209380D01*
X46570Y208586D01*
X49561Y205594D01*
Y116639D01*
X35992D01*
X35056Y116453D01*
X34262Y115922D01*
X24070Y105730D01*
X23539Y104936D01*
X23353Y104000D01*
Y98445D01*
X22853Y98413D01*
X22792Y98875D01*
X22493Y99597D01*
X22017Y100217D01*
X21397Y100693D01*
X20675Y100992D01*
X19900Y101094D01*
X19125Y100992D01*
X18403Y100693D01*
X17783Y100217D01*
X17307Y99597D01*
X17008Y98875D01*
X16906Y98100D01*
X17008Y97325D01*
X17307Y96603D01*
X17783Y95983D01*
X18403Y95507D01*
X19125Y95208D01*
X19900Y95106D01*
X20675Y95208D01*
X21397Y95507D01*
X22017Y95983D01*
X22493Y96603D01*
X22792Y97325D01*
X22853Y97787D01*
X23353Y97755D01*
Y18050D01*
X23539Y17114D01*
X24070Y16320D01*
X30620Y9770D01*
X31414Y9239D01*
X32350Y9053D01*
X158586D01*
X161792Y5847D01*
X161585Y5347D01*
X58300D01*
X57364Y5161D01*
X56570Y4630D01*
X56039Y3836D01*
X55853Y2900D01*
X56039Y1964D01*
X56570Y1170D01*
X57364Y639D01*
X58064Y500D01*
X58014Y0D01*
X0D01*
Y393700D01*
X393700Y393701D01*
Y0D01*
D02*
G37*
%LPC*%
G36*
X360300Y392547D02*
X216600D01*
X215664Y392361D01*
X214870Y391830D01*
X205770Y382730D01*
X205239Y381936D01*
X205053Y381000D01*
Y364900D01*
X205239Y363964D01*
X205770Y363170D01*
X206564Y362639D01*
X207192Y362514D01*
X207298Y361983D01*
X206770Y361630D01*
X206239Y360836D01*
X206053Y359900D01*
X206239Y358964D01*
X206770Y358170D01*
X207564Y357639D01*
X208500Y357453D01*
X269286D01*
X274153Y352586D01*
Y337800D01*
X274306Y337031D01*
Y319400D01*
X274481Y318522D01*
X274978Y317778D01*
X280778Y311978D01*
X281522Y311480D01*
X282400Y311306D01*
X320097D01*
X320600Y311206D01*
X321478Y311381D01*
X322222Y311878D01*
X322720Y312622D01*
X322894Y313500D01*
X322720Y314378D01*
X322222Y315122D01*
X322122Y315222D01*
X321378Y315720D01*
X320500Y315894D01*
X283350D01*
X278894Y320350D01*
Y337031D01*
X279047Y337800D01*
Y353600D01*
X278861Y354536D01*
X278330Y355330D01*
X272030Y361630D01*
X271236Y362161D01*
X270300Y362347D01*
X208899D01*
X208747Y362847D01*
X209230Y363170D01*
X209761Y363964D01*
X209947Y364900D01*
Y379986D01*
X217614Y387653D01*
X273874D01*
X274044Y387153D01*
X273687Y386879D01*
X273148Y386176D01*
X272809Y385359D01*
X272693Y384481D01*
Y382119D01*
X272809Y381241D01*
X273148Y380423D01*
X273687Y379721D01*
X274389Y379182D01*
X275207Y378843D01*
X276084Y378728D01*
X276962Y378843D01*
X277780Y379182D01*
X278482Y379721D01*
X279021Y380423D01*
X279360Y381241D01*
X279476Y382119D01*
Y384481D01*
X279360Y385359D01*
X279021Y386176D01*
X278482Y386879D01*
X278125Y387153D01*
X278295Y387653D01*
X307889D01*
X308059Y387153D01*
X307702Y386879D01*
X307163Y386177D01*
X306824Y385359D01*
X306709Y384481D01*
Y382119D01*
X306824Y381241D01*
X307163Y380423D01*
X307702Y379721D01*
X308404Y379182D01*
X309222Y378843D01*
X310100Y378728D01*
X310978Y378843D01*
X311796Y379182D01*
X312498Y379721D01*
X313037Y380423D01*
X313376Y381241D01*
X313491Y382119D01*
Y384481D01*
X313376Y385359D01*
X313037Y386177D01*
X312498Y386879D01*
X312141Y387153D01*
X312311Y387653D01*
X359286D01*
X359570Y387370D01*
X360364Y386839D01*
X361300Y386653D01*
X362236Y386839D01*
X363030Y387370D01*
X363561Y388164D01*
X363747Y389100D01*
X363561Y390036D01*
X363030Y390830D01*
X362030Y391830D01*
X361236Y392361D01*
X361081Y392392D01*
X360300Y392547D01*
D02*
G37*
G36*
X96553Y378953D02*
X88647D01*
Y371047D01*
X96553D01*
Y378953D01*
D02*
G37*
G36*
X102600Y378987D02*
X101568Y378851D01*
X100607Y378453D01*
X99781Y377819D01*
X99147Y376993D01*
X98749Y376032D01*
X98613Y375000D01*
X98749Y373968D01*
X99147Y373007D01*
X99781Y372181D01*
X100607Y371547D01*
X101568Y371149D01*
X102600Y371013D01*
X103632Y371149D01*
X104593Y371547D01*
X105419Y372181D01*
X106053Y373007D01*
X106451Y373968D01*
X106587Y375000D01*
X106451Y376032D01*
X106053Y376993D01*
X105419Y377819D01*
X104593Y378453D01*
X103632Y378851D01*
X102600Y378987D01*
D02*
G37*
G36*
X310100Y371809D02*
X309222Y371694D01*
X308404Y371355D01*
X307702Y370816D01*
X307214Y370181D01*
X306923Y370129D01*
X306635Y370147D01*
X306256Y370715D01*
X305436Y371263D01*
X304470Y371455D01*
X303504Y371263D01*
X302685Y370715D01*
X302137Y369896D01*
X301945Y368930D01*
X302137Y367964D01*
X302685Y367145D01*
X303504Y366597D01*
X304470Y366405D01*
X305436Y366597D01*
X306208Y367113D01*
X306708Y366991D01*
Y365268D01*
X306824Y364391D01*
X307163Y363573D01*
X307702Y362870D01*
X308404Y362332D01*
X309222Y361993D01*
X310100Y361877D01*
X310977Y361993D01*
X311795Y362332D01*
X312498Y362870D01*
X313036Y363573D01*
X313375Y364391D01*
X313491Y365268D01*
Y368418D01*
X313375Y369296D01*
X313036Y370113D01*
X312498Y370816D01*
X311795Y371355D01*
X310977Y371694D01*
X310100Y371809D01*
D02*
G37*
G36*
X276084Y371810D02*
X275206Y371694D01*
X274389Y371355D01*
X273686Y370816D01*
X273147Y370114D01*
X272808Y369296D01*
X272693Y368418D01*
Y365269D01*
X272808Y364391D01*
X273147Y363573D01*
X273686Y362871D01*
X274389Y362332D01*
X275206Y361993D01*
X276084Y361877D01*
X276962Y361993D01*
X277780Y362332D01*
X278482Y362871D01*
X279021Y363573D01*
X279360Y364391D01*
X279475Y365269D01*
Y366992D01*
X279975Y367114D01*
X280748Y366597D01*
X281714Y366405D01*
X282681Y366597D01*
X283500Y367145D01*
X284047Y367964D01*
X284239Y368930D01*
X284047Y369896D01*
X283500Y370715D01*
X282681Y371263D01*
X281714Y371455D01*
X280748Y371263D01*
X279929Y370715D01*
X279549Y370146D01*
X279259Y370129D01*
X278970Y370180D01*
X278482Y370816D01*
X277780Y371355D01*
X276962Y371694D01*
X276084Y371810D01*
D02*
G37*
G36*
X292092Y375186D02*
X291214Y375012D01*
X290470Y374514D01*
X289973Y373770D01*
X289798Y372892D01*
X289973Y372014D01*
X290470Y371270D01*
X290681Y371129D01*
Y369161D01*
X290486Y369030D01*
X289989Y368286D01*
X289814Y367408D01*
X289989Y366530D01*
X290486Y365786D01*
X291230Y365289D01*
X292108Y365114D01*
X292986Y365289D01*
X293730Y365786D01*
X294228Y366530D01*
X294402Y367408D01*
X294228Y368286D01*
X293730Y369030D01*
X293536Y369161D01*
Y371151D01*
X293714Y371270D01*
X294212Y372014D01*
X294386Y372892D01*
X294212Y373770D01*
X293714Y374514D01*
X292970Y375012D01*
X292092Y375186D01*
D02*
G37*
G36*
X178928Y386229D02*
X31400D01*
X30815Y386113D01*
X30319Y385781D01*
X26619Y382081D01*
X26287Y381585D01*
X26171Y381000D01*
Y375452D01*
X25528Y375022D01*
X25030Y374278D01*
X24856Y373400D01*
X25030Y372522D01*
X25528Y371778D01*
X26272Y371281D01*
X27150Y371106D01*
X28028Y371281D01*
X28700Y371730D01*
X29372Y371281D01*
X30250Y371106D01*
X31128Y371281D01*
X31872Y371778D01*
X32370Y372522D01*
X32544Y373400D01*
X32370Y374278D01*
X31872Y375022D01*
X31229Y375452D01*
Y379167D01*
X33233Y381171D01*
X177466D01*
X182771Y375867D01*
Y363655D01*
X182887Y363070D01*
X183219Y362574D01*
X185126Y360666D01*
X185246Y360068D01*
X185728Y359346D01*
X186449Y358864D01*
X187300Y358695D01*
X188151Y358864D01*
X188873Y359346D01*
X189355Y360068D01*
X189524Y360919D01*
X189355Y361770D01*
X188934Y362400D01*
X189355Y363030D01*
X189524Y363881D01*
X189355Y364732D01*
X188873Y365454D01*
X188151Y365936D01*
X187829Y366000D01*
Y377328D01*
X187713Y377914D01*
X187381Y378410D01*
X180010Y385781D01*
X179514Y386113D01*
X178928Y386229D01*
D02*
G37*
G36*
X156000Y358391D02*
X155122Y358276D01*
X154304Y357937D01*
X153602Y357398D01*
X153063Y356696D01*
X152724Y355878D01*
X152609Y355000D01*
X152724Y354122D01*
X153063Y353304D01*
X153602Y352602D01*
X154304Y352063D01*
X155122Y351724D01*
X156000Y351609D01*
X156878Y351724D01*
X157696Y352063D01*
X158398Y352602D01*
X158937Y353304D01*
X159276Y354122D01*
X159391Y355000D01*
X159276Y355878D01*
X158937Y356696D01*
X158398Y357398D01*
X157696Y357937D01*
X156878Y358276D01*
X156000Y358391D01*
D02*
G37*
G36*
X136315D02*
X135437Y358276D01*
X134619Y357937D01*
X133917Y357398D01*
X133378Y356696D01*
X133039Y355878D01*
X132924Y355000D01*
X133039Y354122D01*
X133378Y353304D01*
X133917Y352602D01*
X134619Y352063D01*
X135437Y351724D01*
X136315Y351609D01*
X137193Y351724D01*
X138011Y352063D01*
X138713Y352602D01*
X139252Y353304D01*
X139591Y354122D01*
X139706Y355000D01*
X139591Y355878D01*
X139252Y356696D01*
X138713Y357398D01*
X138011Y357937D01*
X137193Y358276D01*
X136315Y358391D01*
D02*
G37*
G36*
X55900Y357991D02*
X55022Y357876D01*
X54204Y357537D01*
X53502Y356998D01*
X52963Y356296D01*
X52624Y355478D01*
X52509Y354600D01*
X52624Y353722D01*
X52963Y352904D01*
X53502Y352202D01*
X54204Y351663D01*
X55022Y351324D01*
X55900Y351209D01*
X56778Y351324D01*
X57596Y351663D01*
X58298Y352202D01*
X58837Y352904D01*
X59176Y353722D01*
X59291Y354600D01*
X59176Y355478D01*
X58837Y356296D01*
X58298Y356998D01*
X57596Y357537D01*
X56778Y357876D01*
X55900Y357991D01*
D02*
G37*
G36*
X36215D02*
X35337Y357876D01*
X34519Y357537D01*
X33817Y356998D01*
X33278Y356296D01*
X32939Y355478D01*
X32824Y354600D01*
X32939Y353722D01*
X33278Y352904D01*
X33817Y352202D01*
X34519Y351663D01*
X35337Y351324D01*
X36215Y351209D01*
X37093Y351324D01*
X37911Y351663D01*
X38613Y352202D01*
X39152Y352904D01*
X39491Y353722D01*
X39606Y354600D01*
X39491Y355478D01*
X39152Y356296D01*
X38613Y356998D01*
X37911Y357537D01*
X37093Y357876D01*
X36215Y357991D01*
D02*
G37*
G36*
X367153Y356553D02*
X359247D01*
Y348647D01*
X367153D01*
Y356553D01*
D02*
G37*
G36*
X353200Y356587D02*
X352168Y356451D01*
X351207Y356053D01*
X350381Y355419D01*
X349747Y354593D01*
X349349Y353632D01*
X349213Y352600D01*
X349349Y351568D01*
X349747Y350607D01*
X350381Y349781D01*
X351207Y349147D01*
X352168Y348749D01*
X353200Y348613D01*
X354232Y348749D01*
X355193Y349147D01*
X356019Y349781D01*
X356653Y350607D01*
X357051Y351568D01*
X357187Y352600D01*
X357051Y353632D01*
X356653Y354593D01*
X356019Y355419D01*
X355193Y356053D01*
X354232Y356451D01*
X353200Y356587D01*
D02*
G37*
G36*
X161728Y367229D02*
X147772D01*
X147186Y367113D01*
X146690Y366781D01*
X144119Y364210D01*
X143787Y363714D01*
X143671Y363128D01*
Y355152D01*
X143028Y354722D01*
X142531Y353978D01*
X142356Y353100D01*
X142531Y352222D01*
X143028Y351478D01*
X143772Y350980D01*
X144650Y350806D01*
X145528Y350980D01*
X146200Y351430D01*
X146872Y350980D01*
X147750Y350806D01*
X148628Y350980D01*
X149372Y351478D01*
X149870Y352222D01*
X150044Y353100D01*
X149870Y353978D01*
X149372Y354722D01*
X148729Y355152D01*
Y361666D01*
X149233Y362171D01*
X160266D01*
X161671Y360767D01*
Y346572D01*
X161787Y345986D01*
X162119Y345490D01*
X165890Y341719D01*
X166386Y341387D01*
X166972Y341271D01*
X209302D01*
X209887Y341387D01*
X210383Y341719D01*
X213255Y344590D01*
X213586Y345086D01*
X213703Y345672D01*
Y350255D01*
X213586Y350840D01*
X213255Y351337D01*
X210110Y354481D01*
X209614Y354813D01*
X209028Y354929D01*
X203750D01*
X203165Y354813D01*
X203115Y354779D01*
X187723D01*
X187273Y355454D01*
X186551Y355936D01*
X185700Y356105D01*
X184849Y355936D01*
X184127Y355454D01*
X183645Y354732D01*
X183476Y353881D01*
X183645Y353030D01*
X184066Y352400D01*
X183645Y351770D01*
X183476Y350919D01*
X183645Y350068D01*
X184127Y349346D01*
X184849Y348864D01*
X185700Y348695D01*
X186551Y348864D01*
X187273Y349346D01*
X187723Y350021D01*
X203115D01*
X203165Y349987D01*
X203750Y349871D01*
X207566D01*
X208644Y348793D01*
Y347133D01*
X207840Y346329D01*
X168433D01*
X166729Y348033D01*
Y362228D01*
X166613Y362814D01*
X166281Y363310D01*
X162810Y366781D01*
X162314Y367113D01*
X161728Y367229D01*
D02*
G37*
G36*
X224300Y346244D02*
X223422Y346070D01*
X222678Y345572D01*
X222181Y344828D01*
X222006Y343950D01*
X222181Y343072D01*
X222630Y342400D01*
X222181Y341728D01*
X222006Y340850D01*
X222181Y339972D01*
X222678Y339228D01*
X223422Y338731D01*
X224300Y338556D01*
X225178Y338731D01*
X225922Y339228D01*
X226419Y339972D01*
X226439Y340073D01*
X228909D01*
X229973Y339009D01*
Y325355D01*
X229973Y325354D01*
X230081Y324808D01*
X230391Y324345D01*
X235145Y319591D01*
X235145Y319591D01*
X235608Y319281D01*
X236154Y319173D01*
X236155Y319173D01*
X256945D01*
X256946Y319173D01*
X257492Y319281D01*
X257955Y319591D01*
X262209Y323845D01*
X262209Y323845D01*
X262519Y324308D01*
X262627Y324854D01*
X262627Y324854D01*
Y336609D01*
X263991Y337973D01*
X267061D01*
X267080Y337872D01*
X267578Y337128D01*
X268322Y336631D01*
X269200Y336456D01*
X270078Y336631D01*
X270822Y337128D01*
X271320Y337872D01*
X271494Y338750D01*
X271320Y339628D01*
X270870Y340300D01*
X271320Y340972D01*
X271494Y341850D01*
X271320Y342728D01*
X270822Y343472D01*
X270078Y343969D01*
X269200Y344144D01*
X268322Y343969D01*
X267578Y343472D01*
X267080Y342728D01*
X267061Y342627D01*
X262654D01*
X262108Y342519D01*
X261645Y342209D01*
X261645Y342209D01*
X258391Y338955D01*
X258081Y338492D01*
X257973Y337946D01*
X257973Y337946D01*
Y326191D01*
X255609Y323827D01*
X237491D01*
X234627Y326691D01*
Y340400D01*
X234627Y340400D01*
X234519Y340946D01*
X234209Y341409D01*
X234209Y341409D01*
X231309Y344309D01*
X230846Y344619D01*
X230300Y344727D01*
X230300Y344727D01*
X226439D01*
X226419Y344828D01*
X225922Y345572D01*
X225178Y346070D01*
X224300Y346244D01*
D02*
G37*
G36*
X305300Y331494D02*
X304422Y331319D01*
X303678Y330822D01*
X303616Y330729D01*
X296662D01*
X296078Y331119D01*
X295200Y331294D01*
X294322Y331119D01*
X293578Y330622D01*
X293080Y329878D01*
X292906Y329000D01*
X293080Y328122D01*
X293578Y327378D01*
X294322Y326881D01*
X295200Y326706D01*
X296078Y326881D01*
X296822Y327378D01*
X297018Y327671D01*
X303616D01*
X303678Y327578D01*
X304422Y327080D01*
X305300Y326906D01*
X306178Y327080D01*
X306922Y327578D01*
X307419Y328322D01*
X307594Y329200D01*
X307419Y330078D01*
X306922Y330822D01*
X306178Y331319D01*
X305300Y331494D01*
D02*
G37*
G36*
X191000Y334055D02*
X190149Y333886D01*
X189427Y333404D01*
X188977Y332729D01*
X174696D01*
X174111Y332613D01*
X173614Y332281D01*
X171162Y329829D01*
X147523D01*
X147073Y330504D01*
X146351Y330986D01*
X145500Y331155D01*
X144649Y330986D01*
X143928Y330504D01*
X143446Y329782D01*
X143276Y328931D01*
X143446Y328080D01*
X143867Y327450D01*
X143446Y326820D01*
X143276Y325969D01*
X143446Y325118D01*
X143928Y324396D01*
X144649Y323914D01*
X145500Y323745D01*
X146351Y323914D01*
X147073Y324396D01*
X147523Y325071D01*
X172500D01*
X173085Y325187D01*
X173581Y325519D01*
X176033Y327971D01*
X180128D01*
X180280Y327471D01*
X180070Y327330D01*
X179539Y326536D01*
X179353Y325600D01*
X179539Y324664D01*
X180070Y323870D01*
X180864Y323339D01*
X181800Y323153D01*
X208687D01*
X209623Y323339D01*
X210417Y323870D01*
X210947Y324664D01*
X211134Y325600D01*
X210947Y326536D01*
X210417Y327330D01*
X209623Y327861D01*
X208687Y328047D01*
X193454D01*
X193137Y328433D01*
X193224Y328869D01*
X193054Y329720D01*
X192633Y330350D01*
X193054Y330980D01*
X193224Y331831D01*
X193054Y332682D01*
X192572Y333404D01*
X191851Y333886D01*
X191000Y334055D01*
D02*
G37*
G36*
X96100Y325822D02*
X96100Y325822D01*
X8900D01*
X8900Y325822D01*
X8221Y325733D01*
X7589Y325471D01*
X7046Y325054D01*
X7046Y325054D01*
X1446Y319454D01*
X1029Y318911D01*
X767Y318279D01*
X678Y317600D01*
X678Y317600D01*
Y255600D01*
X678Y255600D01*
X767Y254921D01*
X1029Y254289D01*
X1446Y253746D01*
X5146Y250046D01*
X5146Y250046D01*
X5689Y249629D01*
X6321Y249367D01*
X7000Y249278D01*
X7000Y249278D01*
X22100D01*
X22779Y249367D01*
X23411Y249629D01*
X23954Y250046D01*
X24371Y250589D01*
X24633Y251221D01*
X24722Y251900D01*
X24633Y252579D01*
X24371Y253211D01*
X24214Y253416D01*
X24591Y253747D01*
X25119Y253219D01*
X25615Y252887D01*
X26200Y252771D01*
X74000D01*
X74585Y252887D01*
X75081Y253219D01*
X77581Y255719D01*
X77913Y256215D01*
X78029Y256800D01*
Y257101D01*
X78529Y257308D01*
X83219Y252619D01*
X83715Y252287D01*
X84300Y252171D01*
X186000D01*
X186585Y252287D01*
X187081Y252619D01*
X189681Y255219D01*
X190013Y255715D01*
X190129Y256300D01*
Y282467D01*
X193992Y286329D01*
X207344D01*
X207378Y286278D01*
X208122Y285781D01*
X209000Y285606D01*
X209878Y285781D01*
X210622Y286278D01*
X210684Y286371D01*
X330600D01*
X331185Y286487D01*
X331681Y286819D01*
X344653Y299791D01*
X345217Y299557D01*
X346300Y299415D01*
X347383Y299557D01*
X348393Y299975D01*
X349259Y300641D01*
X349925Y301507D01*
X350343Y302517D01*
X350485Y303600D01*
X350343Y304683D01*
X349925Y305693D01*
X349259Y306559D01*
X348393Y307225D01*
X347383Y307643D01*
X346300Y307785D01*
X345217Y307643D01*
X344356Y307286D01*
X344073Y307710D01*
X345813Y309450D01*
X350450D01*
Y317750D01*
X342150D01*
Y310113D01*
X323816Y291779D01*
X206257D01*
X206222Y291831D01*
X205478Y292328D01*
X204600Y292503D01*
X203722Y292328D01*
X202978Y291831D01*
X202916Y291738D01*
X193446D01*
X192861Y291622D01*
X192365Y291290D01*
X185919Y284844D01*
X185587Y284348D01*
X185471Y283763D01*
Y277827D01*
X184973Y277673D01*
X184251Y278155D01*
X183400Y278324D01*
X182549Y278155D01*
X181827Y277673D01*
X181345Y276951D01*
X181176Y276100D01*
X181345Y275249D01*
X181827Y274528D01*
X181871Y274499D01*
Y261933D01*
X180067Y260129D01*
X98734D01*
X97529Y261333D01*
Y289000D01*
X97413Y289585D01*
X97081Y290081D01*
X94481Y292681D01*
X93985Y293013D01*
X93400Y293129D01*
X83500D01*
X82915Y293013D01*
X82419Y292681D01*
X80519Y290781D01*
X80187Y290285D01*
X80071Y289700D01*
Y283734D01*
X78048Y281711D01*
X51383D01*
X51354Y281754D01*
X50633Y282236D01*
X49782Y282405D01*
X48930Y282236D01*
X48338Y281840D01*
X47884Y281915D01*
X47757Y281978D01*
X47754Y281987D01*
X47997Y282349D01*
X48166Y283200D01*
X47997Y284051D01*
X47514Y284772D01*
X46793Y285255D01*
X45942Y285424D01*
X45091Y285255D01*
X44369Y284772D01*
X43887Y284051D01*
X43718Y283200D01*
X43887Y282349D01*
X44369Y281627D01*
X44412Y281599D01*
Y275758D01*
X44529Y275173D01*
X44861Y274677D01*
X47046Y272491D01*
X46854Y272029D01*
X45434D01*
X42913Y274550D01*
Y285583D01*
X42957Y285612D01*
X43439Y286333D01*
X43608Y287184D01*
X43439Y288035D01*
X42957Y288756D01*
X42235Y289239D01*
X41384Y289408D01*
X40979Y289327D01*
X40499Y289399D01*
X40436Y289690D01*
X40319Y290278D01*
X39822Y291022D01*
X39078Y291519D01*
X38200Y291694D01*
X37322Y291519D01*
X36578Y291022D01*
X36081Y290278D01*
X35906Y289400D01*
X36081Y288522D01*
X36578Y287778D01*
X36671Y287716D01*
Y265000D01*
X36787Y264415D01*
X37119Y263919D01*
X41719Y259319D01*
X42215Y258987D01*
X42800Y258871D01*
X64200D01*
X64785Y258987D01*
X65281Y259319D01*
X67581Y261619D01*
X67913Y262115D01*
X68029Y262700D01*
Y263416D01*
X68122Y263478D01*
X68619Y264222D01*
X68794Y265100D01*
X68619Y265978D01*
X68122Y266722D01*
X67378Y267219D01*
X66500Y267394D01*
X65622Y267219D01*
X64878Y266722D01*
X64381Y265978D01*
X64206Y265100D01*
X64381Y264222D01*
X64878Y263478D01*
X64660Y263022D01*
X63566Y261929D01*
X43433D01*
X39729Y265634D01*
Y272792D01*
X40229Y272944D01*
X40303Y272835D01*
X43719Y269419D01*
X44215Y269087D01*
X44800Y268971D01*
X74967D01*
X77671Y266266D01*
Y262879D01*
X77171Y262561D01*
X76500Y262694D01*
X75622Y262520D01*
X74878Y262022D01*
X74381Y261278D01*
X74206Y260400D01*
X74381Y259522D01*
X74878Y258778D01*
X74971Y258716D01*
Y257434D01*
X73366Y255829D01*
X26834D01*
X21129Y261533D01*
Y310067D01*
X24834Y313771D01*
X48816D01*
X48878Y313678D01*
X49622Y313180D01*
X50500Y313006D01*
X51378Y313180D01*
X52122Y313678D01*
X52619Y314422D01*
X52794Y315300D01*
X52619Y316178D01*
X52122Y316922D01*
X51378Y317420D01*
X50500Y317594D01*
X49622Y317420D01*
X48878Y316922D01*
X48816Y316829D01*
X24200D01*
X23615Y316713D01*
X23119Y316381D01*
X18519Y311781D01*
X18187Y311285D01*
X18071Y310700D01*
Y260900D01*
X18187Y260315D01*
X18519Y259819D01*
X23947Y254391D01*
X23616Y254014D01*
X23411Y254171D01*
X22779Y254433D01*
X22100Y254522D01*
X8086D01*
X5922Y256686D01*
Y270173D01*
X6422Y270342D01*
X6690Y269994D01*
X7392Y269455D01*
X8210Y269116D01*
X9088Y269001D01*
X11450D01*
X12327Y269116D01*
X13145Y269455D01*
X13848Y269994D01*
X14387Y270697D01*
X14726Y271515D01*
X14841Y272392D01*
X14726Y273270D01*
X14387Y274088D01*
X13848Y274790D01*
X13145Y275329D01*
X12327Y275668D01*
X11450Y275783D01*
X9088D01*
X8210Y275668D01*
X7392Y275329D01*
X6690Y274790D01*
X6422Y274442D01*
X5922Y274612D01*
Y304188D01*
X6422Y304358D01*
X6689Y304010D01*
X7392Y303471D01*
X8209Y303132D01*
X9087Y303017D01*
X11449D01*
X12327Y303132D01*
X13145Y303471D01*
X13847Y304010D01*
X14386Y304712D01*
X14725Y305530D01*
X14841Y306408D01*
X14725Y307285D01*
X14386Y308103D01*
X13847Y308806D01*
X13145Y309345D01*
X12327Y309683D01*
X11449Y309799D01*
X9087D01*
X8209Y309683D01*
X7392Y309345D01*
X6689Y308806D01*
X6422Y308458D01*
X5922Y308628D01*
Y316514D01*
X9986Y320578D01*
X95014D01*
X96378Y319214D01*
Y294300D01*
X96467Y293621D01*
X96729Y292989D01*
X97146Y292446D01*
X97689Y292029D01*
X98321Y291767D01*
X99000Y291678D01*
X99679Y291767D01*
X100311Y292029D01*
X100854Y292446D01*
X101271Y292989D01*
X101533Y293621D01*
X101622Y294300D01*
Y320300D01*
X101622Y320300D01*
X101533Y320979D01*
X101271Y321611D01*
X100854Y322154D01*
X100854Y322154D01*
X97954Y325054D01*
X97411Y325471D01*
X96779Y325733D01*
X96100Y325822D01*
D02*
G37*
G36*
X378750Y318050D02*
X370450D01*
Y309750D01*
X378750D01*
Y318050D01*
D02*
G37*
G36*
X136500Y307747D02*
X135564Y307561D01*
X134770Y307030D01*
X134239Y306236D01*
X134053Y305300D01*
X134239Y304364D01*
X134770Y303570D01*
X134870Y303470D01*
X135664Y302939D01*
X136600Y302753D01*
X157300D01*
X158236Y302939D01*
X159030Y303470D01*
X159561Y304264D01*
X159747Y305200D01*
X159561Y306136D01*
X159030Y306930D01*
X158236Y307461D01*
X157300Y307647D01*
X137003D01*
X136500Y307747D01*
D02*
G37*
G36*
X374600Y308085D02*
X373517Y307943D01*
X372507Y307525D01*
X371640Y306859D01*
X370975Y305993D01*
X370557Y304983D01*
X370415Y303900D01*
X370557Y302817D01*
X370975Y301807D01*
X371640Y300940D01*
X372507Y300275D01*
X373517Y299857D01*
X374600Y299715D01*
X375683Y299857D01*
X376693Y300275D01*
X377559Y300940D01*
X378225Y301807D01*
X378643Y302817D01*
X378785Y303900D01*
X378643Y304983D01*
X378225Y305993D01*
X377559Y306859D01*
X376693Y307525D01*
X375683Y307943D01*
X374600Y308085D01*
D02*
G37*
G36*
X28300Y309799D02*
X25151D01*
X24273Y309683D01*
X23455Y309344D01*
X22753Y308805D01*
X22214Y308103D01*
X21875Y307285D01*
X21759Y306407D01*
X21875Y305530D01*
X22214Y304712D01*
X22753Y304010D01*
X23388Y303522D01*
X23440Y303231D01*
X23422Y302943D01*
X22853Y302563D01*
X22306Y301744D01*
X22114Y300778D01*
X22306Y299812D01*
X22853Y298993D01*
X23672Y298445D01*
X24638Y298253D01*
X25605Y298445D01*
X26424Y298993D01*
X26971Y299812D01*
X27163Y300778D01*
X26971Y301744D01*
X26455Y302516D01*
X26578Y303016D01*
X28300D01*
X29178Y303132D01*
X29996Y303471D01*
X30698Y304010D01*
X31237Y304712D01*
X31576Y305530D01*
X31691Y306407D01*
X31576Y307285D01*
X31237Y308103D01*
X30698Y308805D01*
X29996Y309344D01*
X29178Y309683D01*
X28300Y309799D01*
D02*
G37*
G36*
X231300Y320824D02*
X230449Y320655D01*
X229728Y320173D01*
X229245Y319451D01*
X229076Y318600D01*
X229245Y317749D01*
X229728Y317027D01*
X229771Y316999D01*
Y299101D01*
X229728Y299073D01*
X229245Y298351D01*
X229076Y297500D01*
X229245Y296649D01*
X229728Y295928D01*
X230449Y295445D01*
X231300Y295276D01*
X232151Y295445D01*
X232873Y295928D01*
X233355Y296649D01*
X233524Y297500D01*
X233355Y298351D01*
X232873Y299073D01*
X232829Y299101D01*
Y316999D01*
X232873Y317027D01*
X233355Y317749D01*
X233524Y318600D01*
X233355Y319451D01*
X232873Y320173D01*
X232151Y320655D01*
X231300Y320824D01*
D02*
G37*
G36*
X214058Y303845D02*
X212924Y303695D01*
X211866Y303257D01*
X210958Y302561D01*
X210262Y301653D01*
X209824Y300595D01*
X209674Y299461D01*
X209824Y298326D01*
X210262Y297269D01*
X210958Y296361D01*
X211866Y295664D01*
X212924Y295226D01*
X214058Y295077D01*
X215193Y295226D01*
X216250Y295664D01*
X217158Y296361D01*
X217855Y297269D01*
X218293Y298326D01*
X218442Y299461D01*
X218293Y300595D01*
X217855Y301653D01*
X217158Y302561D01*
X216250Y303257D01*
X215193Y303695D01*
X214058Y303845D01*
D02*
G37*
G36*
X40100Y299094D02*
X39222Y298920D01*
X38478Y298422D01*
X37980Y297678D01*
X37812Y296829D01*
X27600D01*
X27015Y296713D01*
X26519Y296381D01*
X24909Y294772D01*
X24800Y294794D01*
X23922Y294619D01*
X23178Y294122D01*
X22681Y293378D01*
X22506Y292500D01*
X22681Y291622D01*
X23178Y290878D01*
X23922Y290381D01*
X24800Y290206D01*
X25678Y290381D01*
X26422Y290878D01*
X26919Y291622D01*
X27094Y292500D01*
X27072Y292609D01*
X28234Y293771D01*
X38600D01*
X39185Y293887D01*
X39681Y294219D01*
X39991Y294528D01*
X40100Y294506D01*
X40978Y294681D01*
X41722Y295178D01*
X42219Y295922D01*
X42394Y296800D01*
X42219Y297678D01*
X41722Y298422D01*
X40978Y298920D01*
X40100Y299094D01*
D02*
G37*
G36*
X374600Y298085D02*
X373517Y297943D01*
X372507Y297525D01*
X371640Y296860D01*
X370975Y295993D01*
X370557Y294983D01*
X370415Y293900D01*
X370557Y292817D01*
X370975Y291807D01*
X371640Y290940D01*
X372507Y290275D01*
X373517Y289857D01*
X374600Y289715D01*
X375683Y289857D01*
X376693Y290275D01*
X377559Y290940D01*
X378225Y291807D01*
X378643Y292817D01*
X378785Y293900D01*
X378643Y294983D01*
X378225Y295993D01*
X377559Y296860D01*
X376693Y297525D01*
X375683Y297943D01*
X374600Y298085D01*
D02*
G37*
G36*
X346300Y297785D02*
X345217Y297643D01*
X344207Y297225D01*
X343340Y296560D01*
X342675Y295693D01*
X342257Y294683D01*
X342115Y293600D01*
X342257Y292517D01*
X342491Y291953D01*
X335167Y284629D01*
X206284D01*
X206222Y284722D01*
X205478Y285220D01*
X204600Y285394D01*
X203722Y285220D01*
X202978Y284722D01*
X202481Y283978D01*
X202306Y283100D01*
X202481Y282222D01*
X202978Y281478D01*
X203722Y280980D01*
X204600Y280806D01*
X205478Y280980D01*
X206222Y281478D01*
X206651Y281220D01*
X206774Y281071D01*
X206696Y280678D01*
X206871Y279800D01*
X207368Y279055D01*
X208112Y278558D01*
X208990Y278383D01*
X209868Y278558D01*
X210612Y279055D01*
X210674Y279148D01*
X343378D01*
X343963Y279265D01*
X344459Y279596D01*
X344653Y279790D01*
X345217Y279557D01*
X346300Y279415D01*
X347383Y279557D01*
X348393Y279975D01*
X349259Y280641D01*
X349925Y281507D01*
X350343Y282517D01*
X350485Y283600D01*
X350343Y284683D01*
X349925Y285693D01*
X349259Y286560D01*
X348393Y287225D01*
X347383Y287643D01*
X346300Y287785D01*
X345217Y287643D01*
X344207Y287225D01*
X343340Y286560D01*
X342675Y285693D01*
X342257Y284683D01*
X342115Y283600D01*
X342232Y282707D01*
X341903Y282207D01*
X337723D01*
X337532Y282669D01*
X344653Y289791D01*
X345217Y289557D01*
X346300Y289415D01*
X347383Y289557D01*
X348393Y289975D01*
X349259Y290640D01*
X349925Y291507D01*
X350343Y292517D01*
X350485Y293600D01*
X350343Y294683D01*
X349925Y295693D01*
X349259Y296560D01*
X348393Y297225D01*
X347383Y297643D01*
X346300Y297785D01*
D02*
G37*
G36*
X374600Y288085D02*
X373517Y287943D01*
X372507Y287525D01*
X371640Y286859D01*
X370975Y285993D01*
X370557Y284983D01*
X370415Y283900D01*
X370557Y282817D01*
X370975Y281807D01*
X371640Y280941D01*
X372507Y280275D01*
X373517Y279857D01*
X374600Y279715D01*
X375683Y279857D01*
X376693Y280275D01*
X377559Y280941D01*
X378225Y281807D01*
X378643Y282817D01*
X378785Y283900D01*
X378643Y284983D01*
X378225Y285993D01*
X377559Y286859D01*
X376693Y287525D01*
X375683Y287943D01*
X374600Y288085D01*
D02*
G37*
G36*
Y278085D02*
X373517Y277943D01*
X372507Y277525D01*
X371640Y276859D01*
X370975Y275993D01*
X370557Y274983D01*
X370415Y273900D01*
X370557Y272817D01*
X370975Y271807D01*
X371640Y270940D01*
X372507Y270275D01*
X373517Y269857D01*
X374600Y269715D01*
X375683Y269857D01*
X376693Y270275D01*
X377559Y270940D01*
X378225Y271807D01*
X378643Y272817D01*
X378785Y273900D01*
X378643Y274983D01*
X378225Y275993D01*
X377559Y276859D01*
X376693Y277525D01*
X375683Y277943D01*
X374600Y278085D01*
D02*
G37*
G36*
X204700Y278394D02*
X203822Y278220D01*
X203078Y277722D01*
X202580Y276978D01*
X202406Y276100D01*
X202580Y275222D01*
X203078Y274478D01*
X203822Y273980D01*
X204700Y273806D01*
X205578Y273980D01*
X206322Y274478D01*
X206763Y274237D01*
X206899Y274071D01*
X206806Y273600D01*
X206980Y272722D01*
X207478Y271978D01*
X207850Y271729D01*
X207698Y271229D01*
X205600D01*
X205334Y271177D01*
X205000Y271243D01*
X204122Y271068D01*
X203378Y270571D01*
X202881Y269827D01*
X202706Y268949D01*
X202881Y268071D01*
X203378Y267327D01*
X204122Y266829D01*
X205000Y266655D01*
X205878Y266829D01*
X206482Y267233D01*
X206940Y266971D01*
X206906Y266800D01*
X207081Y265922D01*
X207578Y265178D01*
X208322Y264681D01*
X209200Y264506D01*
X210078Y264681D01*
X210822Y265178D01*
X211151Y265671D01*
X322066D01*
X342491Y245247D01*
X342257Y244683D01*
X342115Y243600D01*
X342257Y242517D01*
X342675Y241507D01*
X343340Y240640D01*
X344207Y239975D01*
X345217Y239557D01*
X346300Y239415D01*
X347383Y239557D01*
X348393Y239975D01*
X349259Y240640D01*
X349925Y241507D01*
X350343Y242517D01*
X350485Y243600D01*
X350343Y244683D01*
X349925Y245693D01*
X349259Y246560D01*
X348393Y247225D01*
X347383Y247643D01*
X346300Y247785D01*
X345217Y247643D01*
X344653Y247410D01*
X324354Y267709D01*
X324546Y268171D01*
X329567D01*
X342491Y255247D01*
X342257Y254683D01*
X342115Y253600D01*
X342257Y252517D01*
X342675Y251507D01*
X343340Y250641D01*
X344207Y249975D01*
X345217Y249557D01*
X346300Y249415D01*
X347383Y249557D01*
X348393Y249975D01*
X349259Y250641D01*
X349925Y251507D01*
X350343Y252517D01*
X350485Y253600D01*
X350343Y254683D01*
X349925Y255693D01*
X349259Y256559D01*
X348393Y257225D01*
X347383Y257643D01*
X346300Y257785D01*
X345217Y257643D01*
X344653Y257410D01*
X331281Y270781D01*
X330785Y271113D01*
X330200Y271229D01*
X210502D01*
X210350Y271729D01*
X210722Y271978D01*
X210784Y272071D01*
X334167D01*
X342175Y264062D01*
X342115Y263600D01*
X342257Y262517D01*
X342675Y261507D01*
X343340Y260641D01*
X344207Y259975D01*
X345217Y259557D01*
X346300Y259415D01*
X347383Y259557D01*
X348393Y259975D01*
X349259Y260641D01*
X349925Y261507D01*
X350343Y262517D01*
X350485Y263600D01*
X350343Y264683D01*
X349925Y265693D01*
X349259Y266560D01*
X348393Y267225D01*
X347383Y267643D01*
X346300Y267785D01*
X345217Y267643D01*
X344207Y267225D01*
X343716Y266847D01*
X336454Y274109D01*
X336646Y274571D01*
X341863D01*
X342193Y274195D01*
X342115Y273600D01*
X342257Y272517D01*
X342675Y271507D01*
X343340Y270640D01*
X344207Y269975D01*
X345217Y269557D01*
X346300Y269415D01*
X347383Y269557D01*
X348393Y269975D01*
X349259Y270640D01*
X349925Y271507D01*
X350343Y272517D01*
X350485Y273600D01*
X350343Y274683D01*
X349925Y275693D01*
X349259Y276559D01*
X348393Y277225D01*
X347383Y277643D01*
X346300Y277785D01*
X345217Y277643D01*
X344584Y277380D01*
X344385Y277513D01*
X343800Y277629D01*
X206384D01*
X206322Y277722D01*
X205578Y278220D01*
X204700Y278394D01*
D02*
G37*
G36*
X24638Y280547D02*
X23672Y280355D01*
X22853Y279807D01*
X22306Y278988D01*
X22114Y278022D01*
X22306Y277056D01*
X22853Y276237D01*
X23422Y275856D01*
X23440Y275567D01*
X23388Y275278D01*
X22752Y274790D01*
X22213Y274088D01*
X21874Y273270D01*
X21759Y272392D01*
X21874Y271514D01*
X22213Y270696D01*
X22752Y269994D01*
X23455Y269455D01*
X24272Y269116D01*
X25150Y269001D01*
X28300D01*
X29177Y269116D01*
X29995Y269455D01*
X30698Y269994D01*
X31237Y270696D01*
X31575Y271514D01*
X31691Y272392D01*
X31575Y273270D01*
X31237Y274088D01*
X30698Y274790D01*
X29995Y275329D01*
X29177Y275668D01*
X28300Y275783D01*
X26577D01*
X26455Y276283D01*
X26971Y277056D01*
X27163Y278022D01*
X26971Y278988D01*
X26424Y279807D01*
X25605Y280355D01*
X24638Y280547D01*
D02*
G37*
G36*
X374600Y268085D02*
X373517Y267943D01*
X372507Y267525D01*
X371640Y266860D01*
X370975Y265993D01*
X370557Y264983D01*
X370415Y263900D01*
X370557Y262817D01*
X370975Y261807D01*
X371640Y260941D01*
X372507Y260275D01*
X373517Y259857D01*
X374600Y259715D01*
X375683Y259857D01*
X376693Y260275D01*
X377559Y260941D01*
X378225Y261807D01*
X378643Y262817D01*
X378785Y263900D01*
X378643Y264983D01*
X378225Y265993D01*
X377559Y266860D01*
X376693Y267525D01*
X375683Y267943D01*
X374600Y268085D01*
D02*
G37*
G36*
Y258085D02*
X373517Y257943D01*
X372507Y257525D01*
X371640Y256859D01*
X370975Y255993D01*
X370557Y254983D01*
X370415Y253900D01*
X370557Y252817D01*
X370975Y251807D01*
X371640Y250940D01*
X372507Y250275D01*
X373517Y249857D01*
X374600Y249715D01*
X375683Y249857D01*
X376693Y250275D01*
X377559Y250940D01*
X378225Y251807D01*
X378643Y252817D01*
X378785Y253900D01*
X378643Y254983D01*
X378225Y255993D01*
X377559Y256859D01*
X376693Y257525D01*
X375683Y257943D01*
X374600Y258085D01*
D02*
G37*
G36*
X186753Y249053D02*
X178847D01*
Y241147D01*
X186753D01*
Y249053D01*
D02*
G37*
G36*
X172800Y249087D02*
X171768Y248951D01*
X170807Y248553D01*
X169981Y247919D01*
X169347Y247093D01*
X168949Y246132D01*
X168813Y245100D01*
X168949Y244068D01*
X169347Y243107D01*
X169981Y242281D01*
X170807Y241647D01*
X171768Y241249D01*
X172800Y241113D01*
X173832Y241249D01*
X174793Y241647D01*
X175619Y242281D01*
X176253Y243107D01*
X176651Y244068D01*
X176787Y245100D01*
X176651Y246132D01*
X176253Y247093D01*
X175619Y247919D01*
X174793Y248553D01*
X173832Y248951D01*
X172800Y249087D01*
D02*
G37*
G36*
X162800D02*
X161768Y248951D01*
X160807Y248553D01*
X159981Y247919D01*
X159347Y247093D01*
X158949Y246132D01*
X158813Y245100D01*
X158949Y244068D01*
X159347Y243107D01*
X159981Y242281D01*
X160807Y241647D01*
X161768Y241249D01*
X162800Y241113D01*
X163832Y241249D01*
X164793Y241647D01*
X165619Y242281D01*
X166253Y243107D01*
X166651Y244068D01*
X166787Y245100D01*
X166651Y246132D01*
X166253Y247093D01*
X165619Y247919D01*
X164793Y248553D01*
X163832Y248951D01*
X162800Y249087D01*
D02*
G37*
G36*
X374600Y248085D02*
X373517Y247943D01*
X372507Y247525D01*
X371640Y246860D01*
X370975Y245993D01*
X370557Y244983D01*
X370415Y243900D01*
X370557Y242817D01*
X370975Y241807D01*
X371640Y240940D01*
X372507Y240275D01*
X373517Y239857D01*
X374600Y239715D01*
X375683Y239857D01*
X376693Y240275D01*
X377559Y240940D01*
X378225Y241807D01*
X378643Y242817D01*
X378785Y243900D01*
X378643Y244983D01*
X378225Y245993D01*
X377559Y246860D01*
X376693Y247525D01*
X375683Y247943D01*
X374600Y248085D01*
D02*
G37*
G36*
X237500Y234294D02*
X236622Y234120D01*
X235878Y233622D01*
X235518Y233084D01*
X209680D01*
X209178Y233419D01*
X208300Y233594D01*
X207422Y233419D01*
X206678Y232922D01*
X206181Y232178D01*
X206006Y231300D01*
X206181Y230422D01*
X206678Y229678D01*
X207422Y229181D01*
X208300Y229006D01*
X209178Y229181D01*
X209680Y229516D01*
X236800D01*
X237483Y229651D01*
X237591Y229724D01*
X238378Y229880D01*
X239122Y230378D01*
X239619Y231122D01*
X239794Y232000D01*
X239619Y232878D01*
X239122Y233622D01*
X238378Y234120D01*
X237500Y234294D01*
D02*
G37*
G36*
X172800Y239087D02*
X171768Y238951D01*
X170807Y238553D01*
X169981Y237919D01*
X169347Y237093D01*
X168949Y236132D01*
X168813Y235100D01*
X168949Y234068D01*
X169347Y233107D01*
X169981Y232281D01*
X170807Y231647D01*
X171768Y231249D01*
X172800Y231113D01*
X173832Y231249D01*
X174793Y231647D01*
X175619Y232281D01*
X176253Y233107D01*
X176651Y234068D01*
X176787Y235100D01*
X176651Y236132D01*
X176253Y237093D01*
X175619Y237919D01*
X174793Y238553D01*
X173832Y238951D01*
X172800Y239087D01*
D02*
G37*
G36*
X162800D02*
X161768Y238951D01*
X160807Y238553D01*
X159981Y237919D01*
X159347Y237093D01*
X158949Y236132D01*
X158813Y235100D01*
X158949Y234068D01*
X159347Y233107D01*
X159981Y232281D01*
X160807Y231647D01*
X161768Y231249D01*
X162800Y231113D01*
X163832Y231249D01*
X164793Y231647D01*
X165619Y232281D01*
X166253Y233107D01*
X166651Y234068D01*
X166787Y235100D01*
X166651Y236132D01*
X166253Y237093D01*
X165619Y237919D01*
X164793Y238553D01*
X163832Y238951D01*
X162800Y239087D01*
D02*
G37*
G36*
X374600Y238085D02*
X373517Y237943D01*
X372507Y237525D01*
X371640Y236859D01*
X370975Y235993D01*
X370557Y234983D01*
X370415Y233900D01*
X370557Y232817D01*
X370975Y231807D01*
X371640Y230941D01*
X372507Y230275D01*
X373517Y229857D01*
X374600Y229715D01*
X375683Y229857D01*
X376693Y230275D01*
X377559Y230941D01*
X378225Y231807D01*
X378643Y232817D01*
X378785Y233900D01*
X378643Y234983D01*
X378225Y235993D01*
X377559Y236859D01*
X376693Y237525D01*
X375683Y237943D01*
X374600Y238085D01*
D02*
G37*
G36*
X205000Y264094D02*
X204122Y263919D01*
X203378Y263422D01*
X202881Y262678D01*
X202706Y261800D01*
X202881Y260922D01*
X203378Y260178D01*
X204122Y259681D01*
X205000Y259506D01*
X205878Y259681D01*
X206517Y260108D01*
X206909Y259921D01*
X206978Y259860D01*
X206906Y259500D01*
X207081Y258622D01*
X207578Y257878D01*
X208322Y257381D01*
X209200Y257206D01*
X210078Y257381D01*
X210822Y257878D01*
X210884Y257971D01*
X309767D01*
X342491Y225247D01*
X342257Y224683D01*
X342115Y223600D01*
X342257Y222517D01*
X342675Y221507D01*
X343340Y220640D01*
X344207Y219975D01*
X345217Y219557D01*
X346300Y219415D01*
X347383Y219557D01*
X348393Y219975D01*
X349259Y220640D01*
X349925Y221507D01*
X350343Y222517D01*
X350485Y223600D01*
X350343Y224683D01*
X349925Y225693D01*
X349259Y226559D01*
X348393Y227225D01*
X347383Y227643D01*
X346300Y227785D01*
X345217Y227643D01*
X344653Y227410D01*
X312254Y259809D01*
X312446Y260271D01*
X317466D01*
X342491Y235247D01*
X342257Y234683D01*
X342115Y233600D01*
X342257Y232517D01*
X342675Y231507D01*
X343340Y230641D01*
X344207Y229975D01*
X345217Y229557D01*
X346300Y229415D01*
X347383Y229557D01*
X348393Y229975D01*
X349259Y230641D01*
X349925Y231507D01*
X350343Y232517D01*
X350485Y233600D01*
X350343Y234683D01*
X349925Y235693D01*
X349259Y236560D01*
X348393Y237225D01*
X347383Y237643D01*
X346300Y237785D01*
X345217Y237643D01*
X344653Y237409D01*
X319181Y262881D01*
X318685Y263213D01*
X318100Y263329D01*
X210425D01*
X210173Y263379D01*
X206651D01*
X206622Y263422D01*
X205878Y263919D01*
X205000Y264094D01*
D02*
G37*
G36*
X182800Y239087D02*
X181768Y238951D01*
X180807Y238553D01*
X179981Y237919D01*
X179347Y237093D01*
X178949Y236132D01*
X178813Y235100D01*
X178949Y234068D01*
X179347Y233107D01*
X179981Y232281D01*
X180353Y231995D01*
Y229514D01*
X178186Y227347D01*
X124714D01*
X121630Y230430D01*
X120836Y230961D01*
X119900Y231147D01*
X93500D01*
X92564Y230961D01*
X91770Y230430D01*
X91239Y229636D01*
X91053Y228700D01*
X91239Y227764D01*
X91770Y226970D01*
X92564Y226439D01*
X93500Y226253D01*
X118886D01*
X121970Y223170D01*
X122764Y222639D01*
X123700Y222453D01*
X179200D01*
X180136Y222639D01*
X180930Y223170D01*
X184530Y226770D01*
X185061Y227564D01*
X185247Y228500D01*
Y231995D01*
X185619Y232281D01*
X186253Y233107D01*
X186651Y234068D01*
X186787Y235100D01*
X186651Y236132D01*
X186253Y237093D01*
X185619Y237919D01*
X184793Y238553D01*
X183832Y238951D01*
X182800Y239087D01*
D02*
G37*
G36*
X374600Y228085D02*
X373517Y227943D01*
X372507Y227525D01*
X371640Y226859D01*
X370975Y225993D01*
X370557Y224983D01*
X370415Y223900D01*
X370557Y222817D01*
X370975Y221807D01*
X371640Y220940D01*
X372507Y220275D01*
X373517Y219857D01*
X374600Y219715D01*
X375683Y219857D01*
X376693Y220275D01*
X377559Y220940D01*
X378225Y221807D01*
X378643Y222817D01*
X378785Y223900D01*
X378643Y224983D01*
X378225Y225993D01*
X377559Y226859D01*
X376693Y227525D01*
X375683Y227943D01*
X374600Y228085D01*
D02*
G37*
G36*
Y218085D02*
X373517Y217943D01*
X372507Y217525D01*
X371640Y216860D01*
X370975Y215993D01*
X370557Y214983D01*
X370415Y213900D01*
X370557Y212817D01*
X370975Y211807D01*
X371640Y210941D01*
X372507Y210275D01*
X373517Y209857D01*
X374600Y209715D01*
X375683Y209857D01*
X376693Y210275D01*
X377559Y210941D01*
X378225Y211807D01*
X378643Y212817D01*
X378785Y213900D01*
X378643Y214983D01*
X378225Y215993D01*
X377559Y216860D01*
X376693Y217525D01*
X375683Y217943D01*
X374600Y218085D01*
D02*
G37*
G36*
X205000Y256994D02*
X204122Y256820D01*
X203378Y256322D01*
X202881Y255578D01*
X202706Y254700D01*
X202881Y253822D01*
X203378Y253078D01*
X204122Y252580D01*
X205000Y252406D01*
X205878Y252580D01*
X206375Y252912D01*
X206938Y252768D01*
X206999Y252671D01*
X206906Y252200D01*
X207081Y251322D01*
X207578Y250578D01*
X207829Y250410D01*
X207723Y249879D01*
X207422Y249819D01*
X206678Y249322D01*
X206181Y248578D01*
X206006Y247700D01*
X206181Y246822D01*
X206678Y246078D01*
X207422Y245581D01*
X208300Y245406D01*
X209178Y245581D01*
X209680Y245916D01*
X221961D01*
X224538Y243338D01*
X225117Y242951D01*
X225800Y242816D01*
X236121D01*
X236622Y242480D01*
X237500Y242306D01*
X238378Y242480D01*
X239122Y242978D01*
X239619Y243722D01*
X239794Y244600D01*
X239619Y245478D01*
X239122Y246222D01*
X238378Y246720D01*
X237500Y246894D01*
X236622Y246720D01*
X236121Y246384D01*
X226539D01*
X223962Y248962D01*
X223383Y249348D01*
X222700Y249484D01*
X210180D01*
X210105Y249576D01*
X210099Y249684D01*
X210245Y250192D01*
X210822Y250578D01*
X210928Y250737D01*
X297000D01*
X342491Y205247D01*
X342257Y204683D01*
X342115Y203600D01*
X342257Y202517D01*
X342675Y201507D01*
X343340Y200641D01*
X344207Y199975D01*
X345217Y199557D01*
X346300Y199415D01*
X347383Y199557D01*
X348393Y199975D01*
X349259Y200641D01*
X349925Y201507D01*
X350343Y202517D01*
X350485Y203600D01*
X350343Y204683D01*
X349925Y205693D01*
X349259Y206559D01*
X348393Y207225D01*
X347383Y207643D01*
X346300Y207785D01*
X345217Y207643D01*
X344653Y207410D01*
X299354Y252709D01*
X299546Y253171D01*
X304567D01*
X342491Y215247D01*
X342257Y214683D01*
X342115Y213600D01*
X342257Y212517D01*
X342675Y211507D01*
X343340Y210641D01*
X344207Y209975D01*
X345217Y209557D01*
X346300Y209415D01*
X347383Y209557D01*
X348393Y209975D01*
X349259Y210641D01*
X349925Y211507D01*
X350343Y212517D01*
X350485Y213600D01*
X350343Y214683D01*
X349925Y215693D01*
X349259Y216560D01*
X348393Y217225D01*
X347383Y217643D01*
X346300Y217785D01*
X345217Y217643D01*
X344653Y217409D01*
X306281Y255781D01*
X305785Y256113D01*
X305200Y256229D01*
X206684D01*
X206622Y256322D01*
X205878Y256820D01*
X205000Y256994D01*
D02*
G37*
G36*
X374600Y208085D02*
X373517Y207943D01*
X372507Y207525D01*
X371640Y206859D01*
X370975Y205993D01*
X370557Y204983D01*
X370415Y203900D01*
X370557Y202817D01*
X370975Y201807D01*
X371640Y200940D01*
X372507Y200275D01*
X373517Y199857D01*
X374600Y199715D01*
X375683Y199857D01*
X376693Y200275D01*
X377559Y200940D01*
X378225Y201807D01*
X378643Y202817D01*
X378785Y203900D01*
X378643Y204983D01*
X378225Y205993D01*
X377559Y206859D01*
X376693Y207525D01*
X375683Y207943D01*
X374600Y208085D01*
D02*
G37*
G36*
Y198085D02*
X373517Y197943D01*
X372507Y197525D01*
X371640Y196860D01*
X370975Y195993D01*
X370557Y194983D01*
X370415Y193900D01*
X370557Y192817D01*
X370975Y191807D01*
X371640Y190940D01*
X372507Y190275D01*
X373517Y189857D01*
X374600Y189715D01*
X375683Y189857D01*
X376693Y190275D01*
X377559Y190940D01*
X378225Y191807D01*
X378643Y192817D01*
X378785Y193900D01*
X378643Y194983D01*
X378225Y195993D01*
X377559Y196860D01*
X376693Y197525D01*
X375683Y197943D01*
X374600Y198085D01*
D02*
G37*
G36*
X205200Y228794D02*
X204322Y228620D01*
X203578Y228122D01*
X203081Y227378D01*
X202906Y226500D01*
X203081Y225622D01*
X203578Y224878D01*
X204322Y224380D01*
X205200Y224206D01*
X206078Y224380D01*
X206822Y224878D01*
X206884Y224971D01*
X209354D01*
X209719Y224471D01*
X209606Y223900D01*
X209781Y223022D01*
X210278Y222278D01*
X211022Y221780D01*
X211900Y221606D01*
X212778Y221780D01*
X213522Y222278D01*
X213584Y222371D01*
X305366D01*
X342491Y185247D01*
X342257Y184683D01*
X342115Y183600D01*
X342257Y182517D01*
X342675Y181507D01*
X343340Y180640D01*
X344207Y179975D01*
X345217Y179557D01*
X346300Y179415D01*
X347383Y179557D01*
X348393Y179975D01*
X349259Y180640D01*
X349925Y181507D01*
X350343Y182517D01*
X350485Y183600D01*
X350343Y184683D01*
X349925Y185693D01*
X349259Y186559D01*
X348393Y187225D01*
X347383Y187643D01*
X346300Y187785D01*
X345217Y187643D01*
X344653Y187409D01*
X307554Y224509D01*
X307746Y224971D01*
X309067D01*
X341519Y192519D01*
X342015Y192187D01*
X342428Y192105D01*
X342675Y191507D01*
X343340Y190640D01*
X344207Y189975D01*
X345217Y189557D01*
X346300Y189415D01*
X347383Y189557D01*
X348393Y189975D01*
X349259Y190640D01*
X349925Y191507D01*
X350343Y192517D01*
X350485Y193600D01*
X350343Y194683D01*
X349925Y195693D01*
X349259Y196560D01*
X348393Y197225D01*
X347383Y197643D01*
X346300Y197785D01*
X345217Y197643D01*
X344207Y197225D01*
X343340Y196560D01*
X342980Y196090D01*
X342317Y196046D01*
X310781Y227581D01*
X310285Y227913D01*
X309700Y228029D01*
X206884D01*
X206822Y228122D01*
X206078Y228620D01*
X205200Y228794D01*
D02*
G37*
G36*
X160800Y193124D02*
X159949Y192955D01*
X159228Y192473D01*
X158746Y191751D01*
X158576Y190900D01*
X158746Y190049D01*
X158971Y189712D01*
Y187849D01*
X158471Y187697D01*
X158372Y187844D01*
X157651Y188326D01*
X156800Y188496D01*
X155949Y188326D01*
X155227Y187844D01*
X154745Y187123D01*
X154576Y186272D01*
X154745Y185421D01*
X155227Y184699D01*
X155271Y184670D01*
Y176801D01*
X155227Y176772D01*
X154745Y176051D01*
X154576Y175200D01*
X154745Y174349D01*
X155227Y173627D01*
X155949Y173145D01*
X156800Y172976D01*
X157651Y173145D01*
X158372Y173627D01*
X158854Y174349D01*
X159024Y175200D01*
X158872Y175963D01*
X159082Y176182D01*
X159277Y176294D01*
X159649Y176046D01*
X160500Y175876D01*
X161351Y176046D01*
X161874Y176395D01*
X162218Y176076D01*
X162243Y176040D01*
X162076Y175200D01*
X162246Y174349D01*
X162727Y173627D01*
X163449Y173145D01*
X164300Y172976D01*
X165151Y173145D01*
X165873Y173627D01*
X166355Y174349D01*
X166524Y175200D01*
X166355Y176051D01*
X165873Y176772D01*
X165829Y176801D01*
Y185566D01*
X166934Y186671D01*
X187999D01*
X188028Y186627D01*
X188749Y186145D01*
X189600Y185976D01*
X190451Y186145D01*
X191173Y186627D01*
X191655Y187349D01*
X191824Y188200D01*
X191655Y189051D01*
X191173Y189772D01*
X190451Y190254D01*
X189600Y190424D01*
X188749Y190254D01*
X188028Y189772D01*
X187999Y189729D01*
X166300D01*
X165715Y189613D01*
X165219Y189281D01*
X163219Y187281D01*
X162887Y186785D01*
X162771Y186200D01*
Y179747D01*
X162271Y179551D01*
X162029Y179776D01*
Y189098D01*
X162373Y189328D01*
X162855Y190049D01*
X163024Y190900D01*
X162855Y191751D01*
X162373Y192473D01*
X161651Y192955D01*
X160800Y193124D01*
D02*
G37*
G36*
X374600Y188085D02*
X373517Y187943D01*
X372507Y187525D01*
X371640Y186860D01*
X370975Y185993D01*
X370557Y184983D01*
X370415Y183900D01*
X370557Y182817D01*
X370975Y181807D01*
X371640Y180940D01*
X372507Y180275D01*
X373517Y179857D01*
X374600Y179715D01*
X375683Y179857D01*
X376693Y180275D01*
X377559Y180940D01*
X378225Y181807D01*
X378643Y182817D01*
X378785Y183900D01*
X378643Y184983D01*
X378225Y185993D01*
X377559Y186860D01*
X376693Y187525D01*
X375683Y187943D01*
X374600Y188085D01*
D02*
G37*
G36*
Y178085D02*
X373517Y177943D01*
X372507Y177525D01*
X371640Y176859D01*
X370975Y175993D01*
X370557Y174983D01*
X370415Y173900D01*
X370557Y172817D01*
X370975Y171807D01*
X371640Y170940D01*
X372507Y170275D01*
X373517Y169857D01*
X374600Y169715D01*
X375683Y169857D01*
X376693Y170275D01*
X377559Y170940D01*
X378225Y171807D01*
X378643Y172817D01*
X378785Y173900D01*
X378643Y174983D01*
X378225Y175993D01*
X377559Y176859D01*
X376693Y177525D01*
X375683Y177943D01*
X374600Y178085D01*
D02*
G37*
G36*
X205200Y221694D02*
X204322Y221519D01*
X203578Y221022D01*
X203081Y220278D01*
X202906Y219400D01*
X203081Y218522D01*
X203578Y217778D01*
X204322Y217281D01*
X205200Y217106D01*
X206078Y217281D01*
X206822Y217778D01*
X206884Y217871D01*
X209289D01*
X209700Y217371D01*
X209606Y216900D01*
X209781Y216022D01*
X210278Y215278D01*
X211022Y214780D01*
X211900Y214606D01*
X212778Y214780D01*
X213522Y215278D01*
X213651Y215471D01*
X292267D01*
X342491Y165247D01*
X342257Y164683D01*
X342115Y163600D01*
X342257Y162517D01*
X342675Y161507D01*
X343340Y160641D01*
X344207Y159975D01*
X345217Y159557D01*
X346300Y159415D01*
X347383Y159557D01*
X348393Y159975D01*
X349259Y160641D01*
X349925Y161507D01*
X350343Y162517D01*
X350485Y163600D01*
X350343Y164683D01*
X349925Y165693D01*
X349259Y166560D01*
X348393Y167225D01*
X347383Y167643D01*
X346300Y167785D01*
X345217Y167643D01*
X344653Y167410D01*
X294654Y217409D01*
X294846Y217871D01*
X299867D01*
X342491Y175247D01*
X342257Y174683D01*
X342115Y173600D01*
X342257Y172517D01*
X342675Y171507D01*
X343340Y170641D01*
X344207Y169975D01*
X345217Y169557D01*
X346300Y169415D01*
X347383Y169557D01*
X348393Y169975D01*
X349259Y170641D01*
X349925Y171507D01*
X350343Y172517D01*
X350485Y173600D01*
X350343Y174683D01*
X349925Y175693D01*
X349259Y176559D01*
X348393Y177225D01*
X347383Y177643D01*
X346300Y177785D01*
X345217Y177643D01*
X344653Y177410D01*
X301581Y220481D01*
X301085Y220813D01*
X300500Y220929D01*
X206884D01*
X206822Y221022D01*
X206078Y221519D01*
X205200Y221694D01*
D02*
G37*
G36*
X172300Y179824D02*
X171449Y179655D01*
X170728Y179173D01*
X170246Y178451D01*
X170076Y177600D01*
X170246Y176749D01*
X170728Y176028D01*
X170871Y175932D01*
Y172401D01*
X170827Y172372D01*
X170345Y171651D01*
X170176Y170800D01*
X170345Y169949D01*
X170827Y169228D01*
X171549Y168746D01*
X172400Y168576D01*
X173251Y168746D01*
X173972Y169228D01*
X174454Y169949D01*
X174624Y170800D01*
X174454Y171651D01*
X173972Y172372D01*
X173929Y172401D01*
Y176113D01*
X174355Y176749D01*
X174524Y177600D01*
X174355Y178451D01*
X173872Y179173D01*
X173151Y179655D01*
X172300Y179824D01*
D02*
G37*
G36*
X374600Y168085D02*
X373517Y167943D01*
X372507Y167525D01*
X371640Y166859D01*
X370975Y165993D01*
X370557Y164983D01*
X370415Y163900D01*
X370557Y162817D01*
X370975Y161807D01*
X371640Y160941D01*
X372507Y160275D01*
X373517Y159857D01*
X374600Y159715D01*
X375683Y159857D01*
X376693Y160275D01*
X377559Y160941D01*
X378225Y161807D01*
X378643Y162817D01*
X378785Y163900D01*
X378643Y164983D01*
X378225Y165993D01*
X377559Y166859D01*
X376693Y167525D01*
X375683Y167943D01*
X374600Y168085D01*
D02*
G37*
G36*
Y158085D02*
X373517Y157943D01*
X372507Y157525D01*
X371640Y156860D01*
X370975Y155993D01*
X370557Y154983D01*
X370415Y153900D01*
X370557Y152817D01*
X370975Y151807D01*
X371640Y150941D01*
X372507Y150275D01*
X373517Y149857D01*
X374600Y149715D01*
X375683Y149857D01*
X376693Y150275D01*
X377559Y150941D01*
X378225Y151807D01*
X378643Y152817D01*
X378785Y153900D01*
X378643Y154983D01*
X378225Y155993D01*
X377559Y156860D01*
X376693Y157525D01*
X375683Y157943D01*
X374600Y158085D01*
D02*
G37*
G36*
X205200Y214694D02*
X204322Y214520D01*
X203578Y214022D01*
X203081Y213278D01*
X202906Y212400D01*
X203081Y211522D01*
X203578Y210778D01*
X204322Y210280D01*
X205200Y210106D01*
X206078Y210280D01*
X206822Y210778D01*
X206884Y210871D01*
X209289D01*
X209700Y210371D01*
X209606Y209900D01*
X209781Y209022D01*
X210278Y208278D01*
X211022Y207781D01*
X211900Y207606D01*
X212778Y207781D01*
X213522Y208278D01*
X213584Y208371D01*
X279366D01*
X342491Y145247D01*
X342257Y144683D01*
X342115Y143600D01*
X342257Y142517D01*
X342675Y141507D01*
X343340Y140640D01*
X344207Y139975D01*
X345217Y139557D01*
X346300Y139415D01*
X347383Y139557D01*
X348393Y139975D01*
X349259Y140640D01*
X349925Y141507D01*
X350343Y142517D01*
X350485Y143600D01*
X350343Y144683D01*
X349925Y145693D01*
X349259Y146560D01*
X348393Y147225D01*
X347383Y147643D01*
X346300Y147785D01*
X345217Y147643D01*
X344653Y147409D01*
X281654Y210409D01*
X281846Y210871D01*
X286866D01*
X342491Y155247D01*
X342257Y154683D01*
X342115Y153600D01*
X342257Y152517D01*
X342675Y151507D01*
X343340Y150640D01*
X344207Y149975D01*
X345217Y149557D01*
X346300Y149415D01*
X347383Y149557D01*
X348393Y149975D01*
X349259Y150640D01*
X349925Y151507D01*
X350343Y152517D01*
X350485Y153600D01*
X350343Y154683D01*
X349925Y155693D01*
X349259Y156560D01*
X348393Y157225D01*
X347383Y157643D01*
X346300Y157785D01*
X345217Y157643D01*
X344653Y157410D01*
X288581Y213481D01*
X288085Y213813D01*
X287500Y213929D01*
X206884D01*
X206822Y214022D01*
X206078Y214520D01*
X205200Y214694D01*
D02*
G37*
G36*
X374600Y148085D02*
X373517Y147943D01*
X372507Y147525D01*
X371640Y146860D01*
X370975Y145993D01*
X370557Y144983D01*
X370415Y143900D01*
X370557Y142817D01*
X370975Y141807D01*
X371640Y140940D01*
X372507Y140275D01*
X373517Y139857D01*
X374600Y139715D01*
X375683Y139857D01*
X376693Y140275D01*
X377559Y140940D01*
X378225Y141807D01*
X378643Y142817D01*
X378785Y143900D01*
X378643Y144983D01*
X378225Y145993D01*
X377559Y146860D01*
X376693Y147525D01*
X375683Y147943D01*
X374600Y148085D01*
D02*
G37*
G36*
Y138085D02*
X373517Y137943D01*
X372507Y137525D01*
X371640Y136860D01*
X370975Y135993D01*
X370557Y134983D01*
X370415Y133900D01*
X370557Y132817D01*
X370975Y131807D01*
X371640Y130940D01*
X372507Y130275D01*
X373517Y129857D01*
X374600Y129715D01*
X375683Y129857D01*
X376693Y130275D01*
X377559Y130940D01*
X378225Y131807D01*
X378643Y132817D01*
X378785Y133900D01*
X378643Y134983D01*
X378225Y135993D01*
X377559Y136860D01*
X376693Y137525D01*
X375683Y137943D01*
X374600Y138085D01*
D02*
G37*
G36*
X205200Y207494D02*
X204322Y207319D01*
X203578Y206822D01*
X203081Y206078D01*
X202906Y205200D01*
X203081Y204322D01*
X203578Y203578D01*
X204322Y203081D01*
X205200Y202906D01*
X206078Y203081D01*
X206822Y203578D01*
X206884Y203671D01*
X209289D01*
X209700Y203171D01*
X209606Y202700D01*
X209781Y201822D01*
X210278Y201078D01*
X211022Y200581D01*
X211900Y200406D01*
X212778Y200581D01*
X213522Y201078D01*
X213584Y201171D01*
X266566D01*
X342491Y125247D01*
X342257Y124683D01*
X342115Y123600D01*
X342257Y122517D01*
X342675Y121507D01*
X343340Y120641D01*
X344207Y119975D01*
X345217Y119557D01*
X346300Y119415D01*
X347383Y119557D01*
X348393Y119975D01*
X349259Y120641D01*
X349925Y121507D01*
X350343Y122517D01*
X350485Y123600D01*
X350343Y124683D01*
X349925Y125693D01*
X349259Y126559D01*
X348393Y127225D01*
X347383Y127643D01*
X346300Y127785D01*
X345217Y127643D01*
X344653Y127410D01*
X268854Y203209D01*
X269046Y203671D01*
X274066D01*
X342491Y135247D01*
X342257Y134683D01*
X342115Y133600D01*
X342257Y132517D01*
X342675Y131507D01*
X343340Y130640D01*
X344207Y129975D01*
X345217Y129557D01*
X346300Y129415D01*
X347383Y129557D01*
X348393Y129975D01*
X349259Y130640D01*
X349925Y131507D01*
X350343Y132517D01*
X350485Y133600D01*
X350343Y134683D01*
X349925Y135693D01*
X349259Y136559D01*
X348393Y137225D01*
X347383Y137643D01*
X346300Y137785D01*
X345217Y137643D01*
X344653Y137409D01*
X275781Y206281D01*
X275285Y206613D01*
X274700Y206729D01*
X206884D01*
X206822Y206822D01*
X206078Y207319D01*
X205200Y207494D01*
D02*
G37*
G36*
X19890Y132584D02*
X19115Y132482D01*
X18393Y132183D01*
X17773Y131707D01*
X17297Y131087D01*
X16998Y130365D01*
X16896Y129590D01*
X16998Y128815D01*
X17297Y128093D01*
X17773Y127473D01*
X18393Y126997D01*
X19115Y126698D01*
X19890Y126596D01*
X20665Y126698D01*
X21387Y126997D01*
X22007Y127473D01*
X22483Y128093D01*
X22782Y128815D01*
X22884Y129590D01*
X22782Y130365D01*
X22483Y131087D01*
X22007Y131707D01*
X21387Y132183D01*
X20665Y132482D01*
X19890Y132584D01*
D02*
G37*
G36*
X374600Y128085D02*
X373517Y127943D01*
X372507Y127525D01*
X371640Y126859D01*
X370975Y125993D01*
X370557Y124983D01*
X370415Y123900D01*
X370557Y122817D01*
X370975Y121807D01*
X371640Y120940D01*
X372507Y120275D01*
X373517Y119857D01*
X374600Y119715D01*
X375683Y119857D01*
X376693Y120275D01*
X377559Y120940D01*
X378225Y121807D01*
X378643Y122817D01*
X378785Y123900D01*
X378643Y124983D01*
X378225Y125993D01*
X377559Y126859D01*
X376693Y127525D01*
X375683Y127943D01*
X374600Y128085D01*
D02*
G37*
G36*
X205200Y200494D02*
X204322Y200320D01*
X203578Y199822D01*
X203081Y199078D01*
X202906Y198200D01*
X203081Y197322D01*
X203578Y196578D01*
X204322Y196081D01*
X205200Y195906D01*
X206078Y196081D01*
X206822Y196578D01*
X206884Y196671D01*
X209289D01*
X209700Y196171D01*
X209606Y195700D01*
X209781Y194822D01*
X210278Y194078D01*
X211022Y193580D01*
X211900Y193406D01*
X212778Y193580D01*
X213522Y194078D01*
X213584Y194171D01*
X253567D01*
X342491Y105247D01*
X342257Y104683D01*
X342115Y103600D01*
X342257Y102517D01*
X342675Y101507D01*
X343340Y100640D01*
X344207Y99975D01*
X345217Y99557D01*
X346300Y99415D01*
X347383Y99557D01*
X348393Y99975D01*
X349259Y100640D01*
X349925Y101507D01*
X350343Y102517D01*
X350485Y103600D01*
X350343Y104683D01*
X349925Y105693D01*
X349259Y106560D01*
X348393Y107225D01*
X347383Y107643D01*
X346300Y107785D01*
X345217Y107643D01*
X344653Y107410D01*
X255854Y196209D01*
X256046Y196671D01*
X261067D01*
X342491Y115247D01*
X342257Y114683D01*
X342115Y113600D01*
X342257Y112517D01*
X342675Y111507D01*
X343340Y110641D01*
X344207Y109975D01*
X345217Y109557D01*
X346300Y109415D01*
X347383Y109557D01*
X348393Y109975D01*
X349259Y110641D01*
X349925Y111507D01*
X350343Y112517D01*
X350485Y113600D01*
X350343Y114683D01*
X349925Y115693D01*
X349259Y116560D01*
X348393Y117225D01*
X347383Y117643D01*
X346300Y117785D01*
X345217Y117643D01*
X344653Y117410D01*
X262781Y199281D01*
X262285Y199613D01*
X261700Y199729D01*
X206884D01*
X206822Y199822D01*
X206078Y200320D01*
X205200Y200494D01*
D02*
G37*
G36*
X374600Y98085D02*
X373517Y97943D01*
X372507Y97525D01*
X371640Y96860D01*
X370975Y95993D01*
X370557Y94983D01*
X370415Y93900D01*
X370557Y92817D01*
X370975Y91807D01*
X371640Y90940D01*
X372507Y90275D01*
X373517Y89857D01*
X374600Y89715D01*
X375683Y89857D01*
X376693Y90275D01*
X377559Y90940D01*
X378225Y91807D01*
X378643Y92817D01*
X378785Y93900D01*
X378643Y94983D01*
X378225Y95993D01*
X377559Y96860D01*
X376693Y97525D01*
X375683Y97943D01*
X374600Y98085D01*
D02*
G37*
G36*
X205200Y193290D02*
X204322Y193115D01*
X203578Y192618D01*
X203081Y191874D01*
X202906Y190996D01*
X203081Y190118D01*
X203578Y189374D01*
X204322Y188877D01*
X205200Y188702D01*
X206078Y188877D01*
X206822Y189374D01*
X206887Y189471D01*
X209285D01*
X209602Y189084D01*
X209506Y188600D01*
X209681Y187722D01*
X210178Y186978D01*
X210922Y186480D01*
X211800Y186306D01*
X212678Y186480D01*
X213422Y186978D01*
X213484Y187071D01*
X240667D01*
X342491Y85247D01*
X342257Y84683D01*
X342115Y83600D01*
X342257Y82517D01*
X342675Y81507D01*
X343340Y80641D01*
X344207Y79975D01*
X345217Y79557D01*
X346300Y79415D01*
X347383Y79557D01*
X348393Y79975D01*
X349259Y80641D01*
X349925Y81507D01*
X350343Y82517D01*
X350485Y83600D01*
X350343Y84683D01*
X349925Y85693D01*
X349259Y86559D01*
X348393Y87225D01*
X347383Y87643D01*
X346300Y87785D01*
X345217Y87643D01*
X344653Y87410D01*
X243054Y189009D01*
X243246Y189471D01*
X248267D01*
X342491Y95247D01*
X342257Y94683D01*
X342115Y93600D01*
X342257Y92517D01*
X342675Y91507D01*
X343340Y90640D01*
X344207Y89975D01*
X345217Y89557D01*
X346300Y89415D01*
X347383Y89557D01*
X348393Y89975D01*
X349259Y90640D01*
X349925Y91507D01*
X350343Y92517D01*
X350485Y93600D01*
X350343Y94683D01*
X349925Y95693D01*
X349259Y96560D01*
X348393Y97225D01*
X347383Y97643D01*
X346300Y97785D01*
X345217Y97643D01*
X344653Y97409D01*
X249981Y192081D01*
X249485Y192413D01*
X248900Y192529D01*
X206881D01*
X206822Y192618D01*
X206078Y193115D01*
X205200Y193290D01*
D02*
G37*
G36*
X374600Y88085D02*
X373517Y87943D01*
X372507Y87525D01*
X371640Y86860D01*
X370975Y85993D01*
X370557Y84983D01*
X370415Y83900D01*
X370557Y82817D01*
X370975Y81807D01*
X371640Y80941D01*
X372507Y80275D01*
X373517Y79857D01*
X374600Y79715D01*
X375683Y79857D01*
X376693Y80275D01*
X377559Y80941D01*
X378225Y81807D01*
X378643Y82817D01*
X378785Y83900D01*
X378643Y84983D01*
X378225Y85993D01*
X377559Y86860D01*
X376693Y87525D01*
X375683Y87943D01*
X374600Y88085D01*
D02*
G37*
G36*
Y78085D02*
X373517Y77943D01*
X372507Y77525D01*
X371640Y76859D01*
X370975Y75993D01*
X370557Y74983D01*
X370415Y73900D01*
X370557Y72817D01*
X370975Y71807D01*
X371640Y70941D01*
X372507Y70275D01*
X373517Y69857D01*
X374600Y69715D01*
X375683Y69857D01*
X376693Y70275D01*
X377559Y70941D01*
X378225Y71807D01*
X378643Y72817D01*
X378785Y73900D01*
X378643Y74983D01*
X378225Y75993D01*
X377559Y76859D01*
X376693Y77525D01*
X375683Y77943D01*
X374600Y78085D01*
D02*
G37*
G36*
X205200Y186194D02*
X204322Y186020D01*
X203578Y185522D01*
X203081Y184778D01*
X202906Y183900D01*
X203081Y183022D01*
X203578Y182278D01*
X204322Y181781D01*
X205200Y181606D01*
X206078Y181781D01*
X206822Y182278D01*
X206884Y182371D01*
X209385D01*
X209702Y181984D01*
X209606Y181500D01*
X209781Y180622D01*
X210278Y179878D01*
X211022Y179381D01*
X211900Y179206D01*
X212778Y179381D01*
X213522Y179878D01*
X213584Y179971D01*
X227766D01*
X342491Y65247D01*
X342257Y64683D01*
X342115Y63600D01*
X342257Y62517D01*
X342675Y61507D01*
X343340Y60641D01*
X344207Y59975D01*
X345217Y59557D01*
X346300Y59415D01*
X347383Y59557D01*
X348393Y59975D01*
X349259Y60641D01*
X349925Y61507D01*
X350343Y62517D01*
X350485Y63600D01*
X350343Y64683D01*
X349925Y65693D01*
X349259Y66559D01*
X348393Y67225D01*
X347383Y67643D01*
X346300Y67785D01*
X345217Y67643D01*
X344653Y67409D01*
X230154Y181909D01*
X230346Y182371D01*
X235367D01*
X342491Y75247D01*
X342257Y74683D01*
X342115Y73600D01*
X342257Y72517D01*
X342675Y71507D01*
X343340Y70640D01*
X344207Y69975D01*
X345217Y69557D01*
X346300Y69415D01*
X347383Y69557D01*
X348393Y69975D01*
X349259Y70640D01*
X349925Y71507D01*
X350343Y72517D01*
X350485Y73600D01*
X350343Y74683D01*
X349925Y75693D01*
X349259Y76560D01*
X348393Y77225D01*
X347383Y77643D01*
X346300Y77785D01*
X345217Y77643D01*
X344653Y77409D01*
X237081Y184981D01*
X236585Y185313D01*
X236000Y185429D01*
X206884D01*
X206822Y185522D01*
X206078Y186020D01*
X205200Y186194D01*
D02*
G37*
G36*
X374600Y68085D02*
X373517Y67943D01*
X372507Y67525D01*
X371640Y66860D01*
X370975Y65993D01*
X370557Y64983D01*
X370415Y63900D01*
X370557Y62817D01*
X370975Y61807D01*
X371640Y60940D01*
X372507Y60275D01*
X373517Y59857D01*
X374600Y59715D01*
X375683Y59857D01*
X376693Y60275D01*
X377559Y60940D01*
X378225Y61807D01*
X378643Y62817D01*
X378785Y63900D01*
X378643Y64983D01*
X378225Y65993D01*
X377559Y66860D01*
X376693Y67525D01*
X375683Y67943D01*
X374600Y68085D01*
D02*
G37*
G36*
X150800Y63823D02*
X150800Y63822D01*
X120000D01*
X119321Y63733D01*
X118689Y63471D01*
X118146Y63054D01*
X117729Y62511D01*
X117467Y61879D01*
X117378Y61200D01*
X117467Y60521D01*
X117729Y59889D01*
X118146Y59346D01*
X118689Y58929D01*
X119321Y58667D01*
X120000Y58578D01*
X150054D01*
X150321Y58467D01*
X151000Y58377D01*
X151679Y58467D01*
X152311Y58729D01*
X152854Y59146D01*
X153271Y59689D01*
X153533Y60321D01*
X153622Y61000D01*
X153533Y61679D01*
X153271Y62311D01*
X152854Y62854D01*
X152654Y63054D01*
X152111Y63471D01*
X151479Y63733D01*
X150800Y63823D01*
D02*
G37*
G36*
X374600Y58085D02*
X373517Y57943D01*
X372507Y57525D01*
X371640Y56859D01*
X370975Y55993D01*
X370557Y54983D01*
X370415Y53900D01*
X370557Y52817D01*
X370975Y51807D01*
X371640Y50941D01*
X372507Y50275D01*
X373517Y49857D01*
X374600Y49715D01*
X375683Y49857D01*
X376693Y50275D01*
X377559Y50941D01*
X378225Y51807D01*
X378643Y52817D01*
X378785Y53900D01*
X378643Y54983D01*
X378225Y55993D01*
X377559Y56859D01*
X376693Y57525D01*
X375683Y57943D01*
X374600Y58085D01*
D02*
G37*
G36*
X205200Y179094D02*
X204322Y178919D01*
X203578Y178422D01*
X203081Y177678D01*
X202906Y176800D01*
X203081Y175922D01*
X203578Y175178D01*
X204322Y174680D01*
X205200Y174506D01*
X206078Y174680D01*
X206822Y175178D01*
X206884Y175271D01*
X209385D01*
X209702Y174884D01*
X209606Y174400D01*
X209781Y173522D01*
X210278Y172778D01*
X211022Y172281D01*
X211900Y172106D01*
X212778Y172281D01*
X213522Y172778D01*
X213584Y172871D01*
X214866D01*
X239553Y148184D01*
X239307Y147723D01*
X238800Y147824D01*
X238749Y147814D01*
X233281Y153281D01*
X232785Y153613D01*
X232200Y153729D01*
X191601D01*
X191572Y153772D01*
X190851Y154254D01*
X190000Y154424D01*
X189149Y154254D01*
X188427Y153772D01*
X187945Y153051D01*
X187776Y152200D01*
X187945Y151349D01*
X188427Y150628D01*
X189149Y150145D01*
X190000Y149976D01*
X190851Y150145D01*
X191572Y150628D01*
X191601Y150671D01*
X231567D01*
X236586Y145651D01*
X236576Y145600D01*
X236745Y144749D01*
X237228Y144027D01*
X237949Y143545D01*
X238800Y143376D01*
X239651Y143545D01*
X240372Y144027D01*
X240855Y144749D01*
X241024Y145600D01*
X240923Y146107D01*
X241384Y146353D01*
X342491Y45247D01*
X342257Y44683D01*
X342115Y43600D01*
X342257Y42517D01*
X342472Y41998D01*
X342048Y41715D01*
X314581Y69181D01*
X314085Y69513D01*
X313500Y69629D01*
X300633D01*
X300584Y70129D01*
X301136Y70239D01*
X301930Y70770D01*
X302461Y71564D01*
X302647Y72500D01*
X302461Y73436D01*
X301930Y74230D01*
X290649Y85511D01*
X289855Y86042D01*
X288919Y86228D01*
X154581D01*
X153645Y86042D01*
X152851Y85511D01*
X148470Y81130D01*
X147939Y80336D01*
X147753Y79400D01*
Y74347D01*
X121214D01*
X114447Y81114D01*
Y170100D01*
X114261Y171036D01*
X113730Y171830D01*
X112936Y172361D01*
X112000Y172547D01*
X111064Y172361D01*
X110270Y171830D01*
X109739Y171036D01*
X109553Y170100D01*
Y151163D01*
X109053Y150956D01*
X103394Y156615D01*
X103271Y156911D01*
X102854Y157454D01*
X102311Y157871D01*
X101679Y158133D01*
X101000Y158222D01*
X72500D01*
X71821Y158133D01*
X71189Y157871D01*
X70646Y157454D01*
X70229Y156911D01*
X69967Y156279D01*
X69878Y155600D01*
X69967Y154921D01*
X70229Y154289D01*
X70646Y153746D01*
X71189Y153329D01*
X71821Y153067D01*
X72500Y152978D01*
X99614D01*
X104778Y147814D01*
Y46069D01*
X104778Y46069D01*
X104867Y45391D01*
X105129Y44758D01*
X105546Y44215D01*
X115715Y34046D01*
X115715Y34046D01*
X116258Y33629D01*
X116891Y33367D01*
X117569Y33278D01*
X117569Y33278D01*
X150900D01*
X151579Y33367D01*
X152211Y33629D01*
X152754Y34046D01*
X153171Y34589D01*
X153433Y35221D01*
X153522Y35900D01*
X153433Y36579D01*
X153171Y37211D01*
X152754Y37754D01*
X152211Y38171D01*
X151579Y38433D01*
X150900Y38522D01*
X118656D01*
X110022Y47155D01*
Y77910D01*
X110522Y78117D01*
X118470Y70170D01*
X119264Y69639D01*
X120200Y69453D01*
X150200D01*
X151136Y69639D01*
X151930Y70170D01*
X152461Y70964D01*
X152647Y71900D01*
Y78386D01*
X155595Y81334D01*
X181128D01*
X181445Y80948D01*
X181376Y80600D01*
X181545Y79749D01*
X182027Y79027D01*
X182173Y78931D01*
Y30991D01*
X179609Y28427D01*
X131969D01*
X131872Y28572D01*
X131151Y29055D01*
X130300Y29224D01*
X129449Y29055D01*
X128727Y28572D01*
X128245Y27851D01*
X128076Y27000D01*
X128245Y26149D01*
X128727Y25427D01*
X129411Y24971D01*
X129415Y24935D01*
X129107Y24471D01*
X127013D01*
X126916Y24616D01*
X126194Y25098D01*
X125343Y25267D01*
X124492Y25098D01*
X123771Y24616D01*
X123289Y23894D01*
X123119Y23043D01*
X123200Y22640D01*
X122750Y22339D01*
X122451Y22539D01*
X121600Y22708D01*
X120749Y22539D01*
X120027Y22057D01*
X119545Y21335D01*
X119376Y20484D01*
X119545Y19633D01*
X120027Y18912D01*
X120749Y18430D01*
X121600Y18260D01*
X122451Y18430D01*
X123172Y18912D01*
X123269Y19057D01*
X183784D01*
X183784Y19057D01*
X184330Y19165D01*
X184794Y19475D01*
X189353Y24034D01*
X189353Y24034D01*
X189662Y24497D01*
X189771Y25043D01*
Y70739D01*
X190187Y71053D01*
X190349Y70946D01*
X191200Y70776D01*
X192051Y70946D01*
X192772Y71428D01*
X193254Y72149D01*
X193424Y73000D01*
X193254Y73851D01*
X192772Y74572D01*
X192051Y75055D01*
X191200Y75224D01*
X190349Y75055D01*
X189628Y74572D01*
X189474Y74343D01*
X189354Y74319D01*
X188891Y74009D01*
X188891Y74009D01*
X188833Y73951D01*
X188371Y74143D01*
Y75526D01*
X188672Y75727D01*
X189155Y76449D01*
X189324Y77300D01*
X189155Y78151D01*
X188672Y78873D01*
X187951Y79355D01*
X187100Y79524D01*
X186249Y79355D01*
X185785Y79045D01*
X185425Y79405D01*
X185654Y79749D01*
X185824Y80600D01*
X185755Y80948D01*
X186072Y81334D01*
X287905D01*
X298470Y70770D01*
X299264Y70239D01*
X299816Y70129D01*
X299767Y69629D01*
X212479D01*
X212161Y70129D01*
X212294Y70800D01*
X212120Y71678D01*
X211622Y72422D01*
X210878Y72919D01*
X210000Y73094D01*
X209122Y72919D01*
X208378Y72422D01*
X208248Y72227D01*
X196300D01*
X196300Y72227D01*
X195754Y72119D01*
X195291Y71809D01*
X195291Y71809D01*
X191891Y68409D01*
X191581Y67946D01*
X191473Y67400D01*
X191473Y67400D01*
Y18600D01*
X191473Y18600D01*
X191581Y18054D01*
X191891Y17591D01*
X199391Y10091D01*
X199391Y10091D01*
X199854Y9781D01*
X200400Y9673D01*
X200400Y9673D01*
X217413D01*
X217647Y9107D01*
X218281Y8281D01*
X219107Y7647D01*
X220068Y7249D01*
X221100Y7113D01*
X222132Y7249D01*
X223093Y7647D01*
X223919Y8281D01*
X224553Y9107D01*
X224951Y10068D01*
X225087Y11100D01*
X224951Y12132D01*
X224553Y13093D01*
X223919Y13919D01*
X223093Y14553D01*
X222132Y14951D01*
X221100Y15087D01*
X220068Y14951D01*
X219107Y14553D01*
X218281Y13919D01*
X217647Y13093D01*
X217413Y12527D01*
X200991D01*
X194327Y19191D01*
Y66809D01*
X196891Y69373D01*
X203389D01*
X203660Y68873D01*
X203506Y68100D01*
X203680Y67222D01*
X204178Y66478D01*
X204922Y65981D01*
X205800Y65806D01*
X206678Y65981D01*
X207422Y66478D01*
X207484Y66571D01*
X312866D01*
X341519Y37919D01*
X342015Y37587D01*
X342600Y37471D01*
X351700D01*
X352285Y37587D01*
X352781Y37919D01*
X359081Y44219D01*
X359413Y44715D01*
X359529Y45300D01*
Y96667D01*
X372953Y110090D01*
X373517Y109857D01*
X374600Y109715D01*
X375683Y109857D01*
X376693Y110275D01*
X377559Y110941D01*
X378225Y111807D01*
X378643Y112817D01*
X378785Y113900D01*
X378643Y114983D01*
X378225Y115993D01*
X377559Y116859D01*
X376693Y117525D01*
X375683Y117943D01*
X374600Y118085D01*
X373517Y117943D01*
X372507Y117525D01*
X371640Y116859D01*
X370975Y115993D01*
X370557Y114983D01*
X370415Y113900D01*
X370557Y112817D01*
X370791Y112253D01*
X356919Y98381D01*
X356587Y97885D01*
X356471Y97300D01*
Y45933D01*
X351066Y40529D01*
X349804D01*
X349558Y41029D01*
X349925Y41507D01*
X350343Y42517D01*
X350485Y43600D01*
X350343Y44683D01*
X349925Y45693D01*
X349259Y46560D01*
X348393Y47225D01*
X347383Y47643D01*
X346300Y47785D01*
X345217Y47643D01*
X344653Y47409D01*
X217254Y174809D01*
X217446Y175271D01*
X222466D01*
X342491Y55247D01*
X342257Y54683D01*
X342115Y53600D01*
X342257Y52517D01*
X342675Y51507D01*
X343340Y50640D01*
X344207Y49975D01*
X345217Y49557D01*
X346300Y49415D01*
X347383Y49557D01*
X348393Y49975D01*
X349259Y50640D01*
X349925Y51507D01*
X350343Y52517D01*
X350485Y53600D01*
X350343Y54683D01*
X349925Y55693D01*
X349259Y56559D01*
X348393Y57225D01*
X347383Y57643D01*
X346300Y57785D01*
X345217Y57643D01*
X344653Y57410D01*
X224181Y177881D01*
X223685Y178213D01*
X223100Y178329D01*
X206884D01*
X206822Y178422D01*
X206078Y178919D01*
X205200Y179094D01*
D02*
G37*
G36*
X118100Y51547D02*
X117164Y51361D01*
X116370Y50830D01*
X115839Y50036D01*
X115653Y49100D01*
X115839Y48164D01*
X116370Y47370D01*
X118570Y45170D01*
X119364Y44639D01*
X120300Y44453D01*
X151600D01*
X152536Y44639D01*
X153330Y45170D01*
X153861Y45964D01*
X154047Y46900D01*
X153861Y47836D01*
X153330Y48630D01*
X152536Y49161D01*
X151600Y49347D01*
X121314D01*
X119830Y50830D01*
X119036Y51361D01*
X118100Y51547D01*
D02*
G37*
G36*
X50100Y50224D02*
X49249Y50055D01*
X48528Y49573D01*
X48045Y48851D01*
X47876Y48000D01*
X48045Y47149D01*
X48528Y46428D01*
X49249Y45945D01*
X50100Y45776D01*
X50271Y45810D01*
X51191Y44891D01*
X51191Y44891D01*
X51654Y44581D01*
X52200Y44473D01*
X52200Y44473D01*
X60331D01*
X60427Y44328D01*
X61149Y43845D01*
X62000Y43676D01*
X62851Y43845D01*
X63573Y44328D01*
X64055Y45049D01*
X64224Y45900D01*
X64055Y46751D01*
X63573Y47473D01*
X62851Y47955D01*
X62000Y48124D01*
X61149Y47955D01*
X60427Y47473D01*
X60331Y47327D01*
X52791D01*
X52290Y47829D01*
X52324Y48000D01*
X52154Y48851D01*
X51673Y49573D01*
X50951Y50055D01*
X50100Y50224D01*
D02*
G37*
G36*
X214058Y39860D02*
X213181Y39744D01*
X212363Y39405D01*
X211660Y38866D01*
X211121Y38164D01*
X210783Y37346D01*
X210667Y36468D01*
X210783Y35591D01*
X211121Y34773D01*
X211660Y34071D01*
X212363Y33532D01*
X213181Y33193D01*
X214058Y33077D01*
X214936Y33193D01*
X215754Y33532D01*
X216456Y34071D01*
X216995Y34773D01*
X217334Y35591D01*
X217449Y36468D01*
X217334Y37346D01*
X216995Y38164D01*
X216456Y38866D01*
X215754Y39405D01*
X214936Y39744D01*
X214058Y39860D01*
D02*
G37*
G36*
X275053Y15053D02*
X267147D01*
Y7147D01*
X275053D01*
Y15053D01*
D02*
G37*
G36*
X261100Y15087D02*
X260068Y14951D01*
X259107Y14553D01*
X258281Y13919D01*
X257647Y13093D01*
X257249Y12132D01*
X257113Y11100D01*
X257249Y10068D01*
X257647Y9107D01*
X258281Y8281D01*
X259107Y7647D01*
X260068Y7249D01*
X261100Y7113D01*
X262132Y7249D01*
X263093Y7647D01*
X263919Y8281D01*
X264553Y9107D01*
X264951Y10068D01*
X265087Y11100D01*
X264951Y12132D01*
X264553Y13093D01*
X263919Y13919D01*
X263093Y14553D01*
X262132Y14951D01*
X261100Y15087D01*
D02*
G37*
G36*
X251100D02*
X250068Y14951D01*
X249107Y14553D01*
X248281Y13919D01*
X247647Y13093D01*
X247249Y12132D01*
X247113Y11100D01*
X247249Y10068D01*
X247647Y9107D01*
X248281Y8281D01*
X249107Y7647D01*
X250068Y7249D01*
X251100Y7113D01*
X252132Y7249D01*
X253093Y7647D01*
X253919Y8281D01*
X254553Y9107D01*
X254951Y10068D01*
X255087Y11100D01*
X254951Y12132D01*
X254553Y13093D01*
X253919Y13919D01*
X253093Y14553D01*
X252132Y14951D01*
X251100Y15087D01*
D02*
G37*
G36*
X241100D02*
X240068Y14951D01*
X239107Y14553D01*
X238281Y13919D01*
X237647Y13093D01*
X237249Y12132D01*
X237113Y11100D01*
X237249Y10068D01*
X237647Y9107D01*
X238281Y8281D01*
X239107Y7647D01*
X240068Y7249D01*
X241100Y7113D01*
X242132Y7249D01*
X243093Y7647D01*
X243919Y8281D01*
X244553Y9107D01*
X244951Y10068D01*
X245087Y11100D01*
X244951Y12132D01*
X244553Y13093D01*
X243919Y13919D01*
X243093Y14553D01*
X242132Y14951D01*
X241100Y15087D01*
D02*
G37*
G36*
X231100D02*
X230068Y14951D01*
X229107Y14553D01*
X228281Y13919D01*
X227647Y13093D01*
X227249Y12132D01*
X227113Y11100D01*
X227249Y10068D01*
X227647Y9107D01*
X228281Y8281D01*
X229107Y7647D01*
X230068Y7249D01*
X231100Y7113D01*
X232132Y7249D01*
X233093Y7647D01*
X233919Y8281D01*
X234553Y9107D01*
X234951Y10068D01*
X235087Y11100D01*
X234951Y12132D01*
X234553Y13093D01*
X233919Y13919D01*
X233093Y14553D01*
X232132Y14951D01*
X231100Y15087D01*
D02*
G37*
%LPD*%
G36*
X342614Y305544D02*
X342257Y304683D01*
X342115Y303600D01*
X342257Y302517D01*
X342491Y301953D01*
X329966Y289429D01*
X326446D01*
X326254Y289891D01*
X342190Y305827D01*
X342614Y305544D01*
D02*
G37*
G36*
X94471Y288367D02*
Y260700D01*
X94587Y260115D01*
X94919Y259619D01*
X97019Y257519D01*
X97152Y257429D01*
X97000Y256929D01*
X86133D01*
X82829Y260233D01*
Y267800D01*
X82713Y268385D01*
X82381Y268881D01*
X77481Y273781D01*
X76985Y274113D01*
X76400Y274229D01*
X49633D01*
X47471Y276392D01*
Y278813D01*
X47971Y278965D01*
X48209Y278609D01*
X48930Y278127D01*
X49782Y277958D01*
X50633Y278127D01*
X51354Y278609D01*
X51383Y278652D01*
X78681D01*
X79267Y278768D01*
X79763Y279100D01*
X82681Y282019D01*
X83013Y282515D01*
X83047Y282687D01*
X83547Y282638D01*
Y281347D01*
X91453D01*
Y289253D01*
X84023D01*
X83841Y289692D01*
X84151Y290071D01*
X92766D01*
X94471Y288367D01*
D02*
G37*
%LPC*%
G36*
X87500Y269287D02*
X86468Y269151D01*
X85507Y268753D01*
X84681Y268119D01*
X84047Y267293D01*
X83649Y266332D01*
X83513Y265300D01*
X83649Y264268D01*
X84047Y263307D01*
X84681Y262481D01*
X85507Y261847D01*
X86468Y261449D01*
X87500Y261313D01*
X88532Y261449D01*
X89493Y261847D01*
X90319Y262481D01*
X90953Y263307D01*
X91351Y264268D01*
X91487Y265300D01*
X91351Y266332D01*
X90953Y267293D01*
X90319Y268119D01*
X89493Y268753D01*
X88532Y269151D01*
X87500Y269287D01*
D02*
G37*
%LPD*%
G36*
X185516Y30293D02*
Y27635D01*
X182352Y24471D01*
X131493D01*
X131185Y24935D01*
X131189Y24971D01*
X131872Y25427D01*
X131969Y25573D01*
X180200D01*
X180200Y25573D01*
X180746Y25681D01*
X181209Y25991D01*
X184609Y29391D01*
X184609Y29391D01*
X184919Y29854D01*
X185016Y30342D01*
X185516Y30293D01*
D02*
G37*
D10*
X31400Y384700D02*
X178928D01*
X27700Y381000D02*
X31400Y384700D01*
X27700Y373950D02*
Y381000D01*
X29700Y373950D02*
Y379800D01*
X32600Y382700D01*
X178100D01*
X178928Y384700D02*
X186300Y377328D01*
X187000Y257200D02*
Y283763D01*
X185200Y255400D02*
X187000Y257200D01*
X183400Y261300D02*
Y276100D01*
X180700Y258600D02*
X183400Y261300D01*
X98100Y258600D02*
X180700D01*
X145500Y328931D02*
X146131Y328300D01*
X145500Y325969D02*
X146131Y326600D01*
X172500D01*
X146131Y328300D02*
X171796D01*
X174696Y331200D01*
X172500Y326600D02*
X175400Y329500D01*
X174696Y331200D02*
X190369D01*
X191000Y331831D01*
X175400Y329500D02*
X190369D01*
X191000Y328869D01*
X203600Y351550D02*
X203750Y351400D01*
X186200Y351550D02*
X203600D01*
X203750Y351400D02*
X208200D01*
X185700Y350919D02*
Y351050D01*
X186200Y351550D01*
X208200Y351400D02*
X210173Y349427D01*
Y346500D02*
Y349427D01*
X208473Y344800D02*
X210173Y346500D01*
X161728Y365700D02*
X165200Y362228D01*
X147772Y365700D02*
X161728D01*
X145200Y363128D02*
X147772Y365700D01*
X145200Y353200D02*
Y363128D01*
X145100Y353100D02*
X145200Y353200D01*
X144650Y353100D02*
X145100D01*
X165200Y347400D02*
Y362228D01*
X167800Y344800D02*
X208473D01*
X165200Y347400D02*
X167800Y344800D01*
X203750Y353400D02*
X209028D01*
X185700Y353750D02*
Y353881D01*
X209028Y353400D02*
X212173Y350255D01*
X203600Y353250D02*
X203750Y353400D01*
X212173Y345672D02*
Y350255D01*
X209302Y342800D02*
X212173Y345672D01*
X185700Y353750D02*
X186200Y353250D01*
X203600D01*
X160900Y363700D02*
X163200Y361400D01*
X148600Y363700D02*
X160900D01*
X147200Y362300D02*
X148600Y363700D01*
X147200Y353200D02*
X147300Y353100D01*
X147200Y353200D02*
Y362300D01*
X147300Y353100D02*
X147750D01*
X163200Y346572D02*
Y361400D01*
X166972Y342800D02*
X209302D01*
X163200Y346572D02*
X166972Y342800D01*
X184300Y363655D02*
Y376500D01*
X178100Y382700D02*
X184300Y376500D01*
X29700Y373950D02*
X30250Y373400D01*
X186300Y364881D02*
Y377328D01*
X27150Y373400D02*
X27700Y373950D01*
X184300Y363655D02*
X187036Y360919D01*
X187300D01*
X186300Y364881D02*
X187300Y363881D01*
X231300Y297500D02*
Y318600D01*
X96000Y260700D02*
X98100Y258600D01*
X96000Y260700D02*
Y289000D01*
X93400Y291600D02*
X96000Y289000D01*
X83500Y291600D02*
X93400D01*
X81600Y289700D02*
X83500Y291600D01*
X81600Y283100D02*
Y289700D01*
X78681Y280182D02*
X81600Y283100D01*
X49782Y280182D02*
X78681D01*
X44800Y270500D02*
X75600D01*
X41384Y273916D02*
X44800Y270500D01*
X41384Y273916D02*
Y287184D01*
X81300Y259600D02*
Y267800D01*
X76400Y272700D02*
X81300Y267800D01*
X49000Y272700D02*
X76400D01*
X84300Y253700D02*
X186000D01*
X79200Y258800D02*
X84300Y253700D01*
X79200Y258800D02*
Y266900D01*
X188600Y256300D02*
Y283100D01*
X186000Y253700D02*
X188600Y256300D01*
Y283100D02*
X193359Y287859D01*
X193446Y290209D02*
X204600D01*
X187000Y283763D02*
X193446Y290209D01*
X85500Y255400D02*
X185200D01*
X81300Y259600D02*
X85500Y255400D01*
X45942Y275758D02*
X49000Y272700D01*
X45942Y275758D02*
Y283200D01*
X75600Y270500D02*
X79200Y266900D01*
X208959Y287859D02*
X209000Y287900D01*
X193359Y287859D02*
X208959D01*
X205200Y191000D02*
X248900D01*
X172300Y177600D02*
X172400Y177500D01*
Y170800D02*
Y177500D01*
X166300Y188200D02*
X189600D01*
X164300Y186200D02*
X166300Y188200D01*
X164300Y175200D02*
Y186200D01*
X160500Y190600D02*
X160800Y190900D01*
X160500Y178100D02*
Y190600D01*
X156800Y175200D02*
Y186272D01*
X232200Y152200D02*
X238800Y145600D01*
X190000Y152200D02*
X232200D01*
X295200Y329000D02*
X295400Y329200D01*
X305300D01*
X76500Y256800D02*
Y260400D01*
X74000Y254300D02*
X76500Y256800D01*
X26200Y254300D02*
X74000D01*
X19600Y260900D02*
X26200Y254300D01*
X19600Y260900D02*
Y310700D01*
X24200Y315300D01*
X50500D01*
X66500Y262700D02*
Y265100D01*
X64200Y260400D02*
X66500Y262700D01*
X42800Y260400D02*
X64200D01*
X38200Y265000D02*
X42800Y260400D01*
X38200Y265000D02*
Y289400D01*
X38600Y295300D02*
X40100Y296800D01*
X27600Y295300D02*
X38600D01*
X24800Y292500D02*
X27600Y295300D01*
X342600Y39000D02*
X351700D01*
X313500Y68100D02*
X342600Y39000D01*
X205800Y68100D02*
X313500D01*
X351700Y39000D02*
X358000Y45300D01*
Y97300D01*
X374600Y113900D01*
X215500Y174400D02*
X346300Y43600D01*
X211900Y174400D02*
X215500D01*
X205200Y176800D02*
X223100D01*
X346300Y53600D01*
X211900Y181500D02*
X228400D01*
X346300Y63600D01*
X205200Y183900D02*
X236000D01*
X346300Y73600D01*
X211800Y188600D02*
X241300D01*
X346300Y83600D01*
X205200Y190996D02*
Y191000D01*
X248900D02*
X346300Y93600D01*
X205200Y198200D02*
X261700D01*
X346300Y113600D01*
X211900Y195700D02*
X254200D01*
X346300Y103600D01*
X211900Y202700D02*
X267200D01*
X211800D02*
X211900D01*
X205200Y205200D02*
X274700D01*
X346300Y133600D01*
X267200Y202700D02*
X346300Y123600D01*
X211900Y209900D02*
X280000D01*
X346300Y143600D01*
X205200Y212400D02*
X287500D01*
X346300Y153600D01*
X211900Y217000D02*
X292900D01*
X211900Y216900D02*
Y217000D01*
X205200Y219400D02*
X300500D01*
X346300Y173600D01*
X292900Y217000D02*
X346300Y163600D01*
X318100Y261800D02*
X346300Y233600D01*
X210223Y261800D02*
X318100D01*
X310400Y259500D02*
X346300Y223600D01*
X209200Y259500D02*
X310400D01*
X305200Y254700D02*
X346300Y213600D01*
X205000Y254700D02*
X305200D01*
X209266Y252266D02*
X297634D01*
X209200Y252200D02*
X209266Y252266D01*
X297634D02*
X346300Y203600D01*
X334800Y273600D02*
X344800Y263600D01*
X209100Y273600D02*
X334800D01*
X343800Y276100D02*
X346300Y273600D01*
X204700Y276100D02*
X343800D01*
X343378Y280678D02*
X346300Y283600D01*
X208990Y280678D02*
X343378D01*
X335800Y283100D02*
X346300Y293600D01*
X204600Y283100D02*
X335800D01*
X330600Y287900D02*
X346300Y303600D01*
X209000Y287900D02*
X330600D01*
X324450Y290250D02*
X346300Y312100D01*
X306000Y223900D02*
X346300Y183600D01*
X211900Y223900D02*
X306000D01*
X211800Y224000D02*
X211900Y223900D01*
X205200Y226500D02*
X309700D01*
X342600Y193600D01*
X346300D01*
X205050Y261850D02*
X210173D01*
X205000Y261800D02*
X205050Y261850D01*
X210173D02*
X210223Y261800D01*
X330200Y269700D02*
X346300Y253600D01*
X205600Y269700D02*
X330200D01*
X205000Y269100D02*
X205600Y269700D01*
X209400Y266600D02*
X210000Y267200D01*
X322700D02*
X346300Y243600D01*
X210000Y267200D02*
X322700D01*
X209200Y266800D02*
X209400Y266600D01*
X205000Y268949D02*
Y269100D01*
X204641Y290250D02*
X324450D01*
X344800Y263600D02*
X346300D01*
Y312100D02*
Y313600D01*
X204600Y290209D02*
X204641Y290250D01*
D123*
X120200Y71900D02*
X150200D01*
X154581Y83781D02*
X288919D01*
X150200Y79400D02*
X154581Y83781D01*
X150200Y71900D02*
Y79400D01*
X288919Y83781D02*
X300200Y72500D01*
X55500Y11500D02*
X90300D01*
X159600D02*
X163700Y7400D01*
X90300Y11500D02*
X159600D01*
X58300Y2900D02*
X384000D01*
X390000Y8900D01*
Y99100D01*
X385200Y103900D02*
X390000Y99100D01*
X374600Y103900D02*
X385200D01*
X181800Y325600D02*
X208687D01*
X276600Y337800D02*
Y353600D01*
X270300Y359900D02*
X276600Y353600D01*
X208500Y359900D02*
X270300D01*
X360300Y390100D02*
X361300Y389100D01*
X216600Y390100D02*
X360300D01*
X207500Y381000D02*
X216600Y390100D01*
X207500Y364900D02*
Y381000D01*
X112000Y80100D02*
X120200Y71900D01*
X112000Y80100D02*
Y170100D01*
X93500Y228700D02*
X119900D01*
X123700Y224900D01*
X118100Y49100D02*
X120300Y46900D01*
X151600D01*
X94000Y15200D02*
Y50800D01*
X90300Y11500D02*
X94000Y15200D01*
X32350Y11500D02*
X55500D01*
X25800Y18050D02*
X32350Y11500D01*
X25800Y18050D02*
Y104000D01*
X35992Y114192D01*
X52008D01*
X48300Y210316D02*
X52008Y206608D01*
X48300Y210316D02*
Y211700D01*
X52008Y114192D02*
Y206608D01*
X182800Y228500D02*
Y235100D01*
X179200Y224900D02*
X182800Y228500D01*
X123700Y224900D02*
X179200D01*
X136500Y305300D02*
X136600Y305200D01*
X157300D01*
D124*
X200400Y11100D02*
X221100D01*
X192900Y18600D02*
X200400Y11100D01*
X50100Y48000D02*
X52200Y45900D01*
X62000D01*
X183600Y30400D02*
Y80600D01*
X180200Y27000D02*
X183600Y30400D01*
X130300Y27000D02*
X180200D01*
X188343Y25043D02*
Y71443D01*
X183784Y20484D02*
X188343Y25043D01*
X121600Y20484D02*
X183784D01*
X189900Y73000D02*
X191200D01*
X188343Y71443D02*
X189900Y73000D01*
X125343Y23043D02*
X182943D01*
X186943Y27043D01*
Y77143D01*
X187100Y77300D01*
X292108Y367408D02*
Y372908D01*
X292092Y372892D02*
X292108Y372908D01*
X229500Y341500D02*
X231400Y339600D01*
X225032Y341500D02*
X229500D01*
X224382Y340850D02*
X225032Y341500D01*
X230300Y343300D02*
X233200Y340400D01*
X224950Y343300D02*
X230300D01*
X224300Y343950D02*
X224950Y343300D01*
X233200Y326100D02*
Y340400D01*
X231400Y325354D02*
Y339600D01*
X268550Y341200D02*
X269200Y341850D01*
X259400Y337946D02*
X262654Y341200D01*
X268550D01*
X259400Y325600D02*
Y337946D01*
X256200Y322400D02*
X259400Y325600D01*
X236900Y322400D02*
X256200D01*
X233200Y326100D02*
X236900Y322400D01*
X268550Y339400D02*
X269200Y338750D01*
X263400Y339400D02*
X268550D01*
X261200Y337200D02*
X263400Y339400D01*
X261200Y324854D02*
Y337200D01*
X256946Y320600D02*
X261200Y324854D01*
X236154Y320600D02*
X256946D01*
X231400Y325354D02*
X236154Y320600D01*
X224300Y340850D02*
X224382D01*
X192900Y18600D02*
Y67400D01*
X196300Y70800D01*
X210000D01*
D125*
X101000Y155300D02*
X107400Y148900D01*
Y46069D02*
Y148900D01*
Y46069D02*
X117569Y35900D01*
X101000Y155300D02*
Y155600D01*
X72500D02*
X101000D01*
X150800Y61200D02*
X151000Y61000D01*
X120000Y61200D02*
X150800D01*
X117569Y35900D02*
X150900D01*
X7000Y251900D02*
X22100D01*
X3300Y255600D02*
X7000Y251900D01*
X3300Y255600D02*
Y317600D01*
X8900Y323200D01*
X96100D01*
X99000Y320300D01*
Y294300D02*
Y320300D01*
D129*
X282400Y313600D02*
X320500D01*
X320600Y313500D01*
X276600Y319400D02*
X282400Y313600D01*
X276600Y319400D02*
Y337800D01*
D130*
X225800Y244600D02*
X237500D01*
X222700Y247700D02*
X225800Y244600D01*
X208300Y247700D02*
X222700D01*
X236800Y231300D02*
X237500Y232000D01*
X208300Y231300D02*
X236800D01*
D133*
X92600Y375000D02*
D03*
X271100Y11100D02*
D03*
X363200Y352600D02*
D03*
X182800Y245100D02*
D03*
D134*
X102600Y375000D02*
D03*
X221100Y11100D02*
D03*
X231100D02*
D03*
X241100D02*
D03*
X251100D02*
D03*
X261100D02*
D03*
X87500Y275300D02*
D03*
Y265300D02*
D03*
X343200Y352600D02*
D03*
X353200D02*
D03*
X162800Y235100D02*
D03*
X172800D02*
D03*
X182800D02*
D03*
X162800Y245100D02*
D03*
X172800D02*
D03*
D135*
X60200Y288600D02*
D03*
X56400D02*
D03*
X60200Y292500D02*
D03*
X56400D02*
D03*
X52300Y288600D02*
D03*
Y292600D02*
D03*
X60200Y296300D02*
D03*
X56400D02*
D03*
X52300D02*
D03*
X267100Y369000D02*
D03*
X31575Y185900D02*
D03*
X18880Y223080D02*
D03*
X381800Y148500D02*
D03*
X35100Y279000D02*
D03*
X21000Y320000D02*
D03*
X40978Y303900D02*
D03*
X33100Y310000D02*
D03*
X35100Y300778D02*
D03*
X43400Y247900D02*
D03*
X54600Y245600D02*
D03*
X78000Y117700D02*
D03*
X74800Y125300D02*
D03*
X74121Y57500D02*
D03*
X77200Y56000D02*
D03*
X80200Y51800D02*
D03*
X75191Y60700D02*
D03*
X301900Y351300D02*
D03*
X313300Y354700D02*
D03*
X144650Y353100D02*
D03*
X147750D02*
D03*
X30250Y373400D02*
D03*
X27150D02*
D03*
X295200Y329000D02*
D03*
X305300Y329200D02*
D03*
X292092Y372892D02*
D03*
X292108Y367408D02*
D03*
X269200Y341850D02*
D03*
Y338750D02*
D03*
X224300Y343950D02*
D03*
Y340850D02*
D03*
X76500Y260400D02*
D03*
X50500Y315300D02*
D03*
X66500Y265100D02*
D03*
X38200Y289400D02*
D03*
X40100Y296800D02*
D03*
X24800Y292500D02*
D03*
X237500Y244600D02*
D03*
X208300Y247700D02*
D03*
X237500Y232000D02*
D03*
X208300Y231300D02*
D03*
X210000Y70800D02*
D03*
X68600Y216700D02*
D03*
X205800Y68100D02*
D03*
X211900Y174400D02*
D03*
X205200Y176800D02*
D03*
X211900Y181500D02*
D03*
X205200Y183900D02*
D03*
X211800Y188600D02*
D03*
X205200Y190996D02*
D03*
X211900Y195700D02*
D03*
X205200Y198200D02*
D03*
X211900Y202700D02*
D03*
X205200Y205200D02*
D03*
X211900Y209900D02*
D03*
X205200Y212400D02*
D03*
X211900Y216900D02*
D03*
X205200Y219400D02*
D03*
X211900Y223900D02*
D03*
X205200Y226500D02*
D03*
X209200Y252200D02*
D03*
X205000Y254700D02*
D03*
X209200Y259500D02*
D03*
X205000Y261800D02*
D03*
X209200Y266800D02*
D03*
X205000Y268949D02*
D03*
X209100Y273600D02*
D03*
X204700Y276100D02*
D03*
X209000Y287900D02*
D03*
X208990Y280678D02*
D03*
X204600Y283100D02*
D03*
Y290209D02*
D03*
D136*
X24638Y300778D02*
D03*
Y278022D02*
D03*
X304470Y368930D02*
D03*
X281714D02*
D03*
D137*
X10268Y306408D02*
D03*
X10269Y272392D02*
D03*
D138*
X26725Y272392D02*
D03*
X26725Y306407D02*
D03*
D139*
X19890Y129590D02*
D03*
X19900Y98100D02*
D03*
D140*
X374600Y313900D02*
D03*
X346300Y313600D02*
D03*
D141*
X374600Y303900D02*
D03*
Y293900D02*
D03*
Y283900D02*
D03*
Y273900D02*
D03*
Y263900D02*
D03*
Y253900D02*
D03*
Y243900D02*
D03*
Y233900D02*
D03*
Y223900D02*
D03*
Y213900D02*
D03*
Y203900D02*
D03*
Y193900D02*
D03*
Y183900D02*
D03*
Y173900D02*
D03*
Y163900D02*
D03*
Y153900D02*
D03*
Y143900D02*
D03*
Y133900D02*
D03*
Y123900D02*
D03*
Y113900D02*
D03*
Y103900D02*
D03*
Y93900D02*
D03*
Y83900D02*
D03*
Y73900D02*
D03*
Y63900D02*
D03*
Y53900D02*
D03*
Y43900D02*
D03*
Y33900D02*
D03*
Y23900D02*
D03*
X346300Y303600D02*
D03*
Y293600D02*
D03*
Y283600D02*
D03*
Y273600D02*
D03*
Y263600D02*
D03*
Y253600D02*
D03*
Y243600D02*
D03*
Y233600D02*
D03*
Y223600D02*
D03*
Y213600D02*
D03*
Y203600D02*
D03*
Y193600D02*
D03*
Y183600D02*
D03*
Y173600D02*
D03*
Y163600D02*
D03*
Y153600D02*
D03*
Y143600D02*
D03*
Y133600D02*
D03*
Y123600D02*
D03*
Y113600D02*
D03*
Y103600D02*
D03*
Y93600D02*
D03*
Y83600D02*
D03*
Y73600D02*
D03*
Y63600D02*
D03*
Y53600D02*
D03*
Y43600D02*
D03*
Y33600D02*
D03*
Y23600D02*
D03*
D142*
X310100Y383300D02*
D03*
X276084Y383300D02*
D03*
D143*
X276084Y366844D02*
D03*
X310100Y366843D02*
D03*
D144*
X87500Y285300D02*
D03*
D145*
X136315Y355000D02*
D03*
X156000D02*
D03*
X36215Y354600D02*
D03*
X55900D02*
D03*
D146*
X38211Y61545D02*
D03*
Y4453D02*
D03*
D147*
X14587Y61545D02*
D03*
Y4453D02*
D03*
D148*
X214058Y299461D02*
D03*
D149*
Y36468D02*
D03*
X72400Y30600D02*
D03*
X72475Y43100D02*
D03*
X300200Y72500D02*
D03*
X163700Y7400D02*
D03*
X58300Y2900D02*
D03*
X208687Y325600D02*
D03*
X181800D02*
D03*
X320600Y313500D02*
D03*
X276600Y337800D02*
D03*
X208500Y359900D02*
D03*
X361300Y389100D02*
D03*
X207500Y364900D02*
D03*
X128600Y71705D02*
D03*
X150200Y71900D02*
D03*
X112000Y170100D02*
D03*
X151000Y61000D02*
D03*
X120000Y61200D02*
D03*
X118100Y49100D02*
D03*
X151600Y46900D02*
D03*
X94000Y50800D02*
D03*
X55500Y11500D02*
D03*
X52008Y114192D02*
D03*
X48300Y211700D02*
D03*
X22100Y251900D02*
D03*
X72500Y155600D02*
D03*
X150900Y35900D02*
D03*
X99000Y294300D02*
D03*
X136500Y305300D02*
D03*
X157300Y305200D02*
D03*
X93500Y228700D02*
D03*
X145500Y328931D02*
D03*
Y325969D02*
D03*
X191000Y331831D02*
D03*
Y328869D02*
D03*
X185700Y350919D02*
D03*
Y353881D02*
D03*
X187300Y363881D02*
D03*
Y360919D02*
D03*
X231300Y297500D02*
D03*
Y318600D02*
D03*
X183400Y276100D02*
D03*
X49782Y280182D02*
D03*
X45942Y283200D02*
D03*
X41384Y287184D02*
D03*
X172300Y177600D02*
D03*
X172400Y170800D02*
D03*
X189600Y188200D02*
D03*
X164300Y175200D02*
D03*
X160800Y190900D02*
D03*
X156800Y186272D02*
D03*
X160500Y178100D02*
D03*
X156800Y175200D02*
D03*
X238800Y145600D02*
D03*
X190000Y152200D02*
D03*
X50100Y48000D02*
D03*
X62000Y45900D02*
D03*
X183600Y80600D02*
D03*
X130300Y27000D02*
D03*
X191200Y73000D02*
D03*
X121600Y20484D02*
D03*
X187100Y77300D02*
D03*
X125343Y23043D02*
D03*
D150*
X380000Y340000D02*
D03*
Y300000D02*
D03*
Y260000D02*
D03*
Y220000D02*
D03*
Y180000D02*
D03*
X390000Y120000D02*
D03*
X380000Y100000D02*
D03*
Y20000D02*
D03*
X370000Y360000D02*
D03*
X360000Y340000D02*
D03*
X370000Y320000D02*
D03*
Y80000D02*
D03*
Y40000D02*
D03*
X360000Y20000D02*
D03*
X340000Y340000D02*
D03*
X350000Y320000D02*
D03*
X340000Y20000D02*
D03*
X320000Y380000D02*
D03*
X330000Y360000D02*
D03*
Y40000D02*
D03*
X320000Y20000D02*
D03*
X310000Y320000D02*
D03*
Y40000D02*
D03*
X290000Y320000D02*
D03*
X280000Y300000D02*
D03*
X290000Y240000D02*
D03*
X280000Y100000D02*
D03*
X290000Y40000D02*
D03*
X260000Y380000D02*
D03*
X270000Y320000D02*
D03*
Y240000D02*
D03*
X260000Y100000D02*
D03*
Y60000D02*
D03*
X240000Y300000D02*
D03*
X250000Y240000D02*
D03*
Y120000D02*
D03*
X240000Y100000D02*
D03*
Y60000D02*
D03*
X220000Y380000D02*
D03*
X230000Y240000D02*
D03*
X220000Y60000D02*
D03*
X230000Y40000D02*
D03*
X220000Y20000D02*
D03*
X200000Y380000D02*
D03*
X210000Y320000D02*
D03*
X200000Y300000D02*
D03*
X210000Y240000D02*
D03*
Y160000D02*
D03*
Y120000D02*
D03*
Y40000D02*
D03*
X200000Y20000D02*
D03*
X190000Y240000D02*
D03*
Y200000D02*
D03*
Y160000D02*
D03*
Y120000D02*
D03*
X180000Y100000D02*
D03*
X160000Y300000D02*
D03*
X170000Y240000D02*
D03*
X160000Y220000D02*
D03*
X170000Y200000D02*
D03*
Y120000D02*
D03*
X160000Y100000D02*
D03*
X170000Y80000D02*
D03*
X150000Y240000D02*
D03*
X140000Y220000D02*
D03*
X150000Y120000D02*
D03*
Y40000D02*
D03*
X130000Y280000D02*
D03*
X120000Y140000D02*
D03*
X130000Y120000D02*
D03*
X120000Y100000D02*
D03*
X130000Y80000D02*
D03*
X100000Y340000D02*
D03*
X110000Y320000D02*
D03*
Y240000D02*
D03*
X100000Y140000D02*
D03*
Y100000D02*
D03*
Y60000D02*
D03*
X90000Y200000D02*
D03*
Y80000D02*
D03*
X80000Y60000D02*
D03*
X60000Y220000D02*
D03*
X70000Y200000D02*
D03*
Y160000D02*
D03*
Y80000D02*
D03*
X60000Y60000D02*
D03*
X50000Y360000D02*
D03*
X40000Y220000D02*
D03*
Y180000D02*
D03*
X50000Y80000D02*
D03*
X20000Y380000D02*
D03*
X30000Y360000D02*
D03*
X20000Y180000D02*
D03*
X30000Y120000D02*
D03*
Y80000D02*
D03*
Y40000D02*
D03*
X20000Y20000D02*
D03*
M02*
