G04*
G04 #@! TF.GenerationSoftware,Altium Limited,Altium Designer,21.1.1 (26)*
G04*
G04 Layer_Color=2752767*
%FSLAX25Y25*%
%MOIN*%
G70*
G04*
G04 #@! TF.SameCoordinates,B5F5DE5B-2645-439E-AC59-352A346880EA*
G04*
G04*
G04 #@! TF.FilePolarity,Positive*
G04*
G01*
G75*
%ADD152C,0.00200*%
%ADD153C,0.00267*%
%ADD154C,0.00133*%
D152*
X91800Y374200D02*
Y375800D01*
X93400D01*
Y374200D01*
X91800D01*
X101800D02*
Y375800D01*
X103400D01*
Y374200D01*
X101800D01*
X220300Y10300D02*
Y11900D01*
X221900D01*
Y10300D01*
X220300D01*
X230300D02*
Y11900D01*
X231900D01*
Y10300D01*
X230300D01*
X240300D02*
Y11900D01*
X241900D01*
Y10300D01*
X240300D01*
X250300D02*
Y11900D01*
X251900D01*
Y10300D01*
X250300D01*
X260300D02*
Y11900D01*
X261900D01*
Y10300D01*
X260300D01*
X270300D02*
Y11900D01*
X271900D01*
Y10300D01*
X270300D01*
X24638Y299978D02*
X23839Y301578D01*
X25438D01*
X24638Y299978D01*
Y277222D02*
X23839Y278822D01*
X25438D01*
X24638Y277222D01*
X10268Y305608D02*
X10668Y306008D01*
X11068D01*
X10668Y306408D01*
X11068Y306808D01*
X10668D01*
X10268Y307208D01*
X9868Y306808D01*
X9469D01*
X9868Y306408D01*
X9469Y306008D01*
X9868D01*
X10268Y305608D01*
Y271592D02*
X10668Y271992D01*
X11068D01*
X10668Y272392D01*
X11068Y272792D01*
X10668D01*
X10268Y273192D01*
X9868Y272792D01*
X9469D01*
X9868Y272392D01*
X9469Y271992D01*
X9868D01*
X10268Y271592D01*
X25925D02*
X26325Y272392D01*
X25925Y273192D01*
X26725Y272792D01*
X27525Y273192D01*
X27125Y272392D01*
X27525Y271592D01*
X26725Y271992D01*
X25925Y271592D01*
X26325Y306008D02*
Y305608D01*
X27125D01*
Y306008D01*
X27525D01*
Y306808D01*
X27125D01*
Y307208D01*
X26325D01*
Y306808D01*
X25925D01*
Y306008D01*
X26325D01*
X19090Y128790D02*
X19490D01*
X19890Y129190D01*
X20290Y128790D01*
X20690D01*
Y129190D01*
X20290Y129590D01*
X20690Y129990D01*
Y130390D01*
X20290D01*
X19890Y129990D01*
X19490Y130390D01*
X19090D01*
Y129990D01*
X19490Y129590D01*
X19090Y129190D01*
Y128790D01*
X19100Y97300D02*
X19500D01*
X19900Y97700D01*
X20300Y97300D01*
X20700D01*
Y97700D01*
X20300Y98100D01*
X20700Y98500D01*
Y98900D01*
X20300D01*
X19900Y98500D01*
X19500Y98900D01*
X19100D01*
Y98500D01*
X19500Y98100D01*
X19100Y97700D01*
Y97300D01*
X373800Y313900D02*
X374600Y314700D01*
X375400Y313900D01*
X374600Y313100D01*
X373800Y313900D01*
Y303900D02*
X374600Y304700D01*
X375400Y303900D01*
X374600Y303100D01*
X373800Y303900D01*
Y293900D02*
X374600Y294700D01*
X375400Y293900D01*
X374600Y293100D01*
X373800Y293900D01*
Y283900D02*
X374600Y284700D01*
X375400Y283900D01*
X374600Y283100D01*
X373800Y283900D01*
Y273900D02*
X374600Y274700D01*
X375400Y273900D01*
X374600Y273100D01*
X373800Y273900D01*
Y263900D02*
X374600Y264700D01*
X375400Y263900D01*
X374600Y263100D01*
X373800Y263900D01*
Y253900D02*
X374600Y254700D01*
X375400Y253900D01*
X374600Y253100D01*
X373800Y253900D01*
Y243900D02*
X374600Y244700D01*
X375400Y243900D01*
X374600Y243100D01*
X373800Y243900D01*
Y233900D02*
X374600Y234700D01*
X375400Y233900D01*
X374600Y233100D01*
X373800Y233900D01*
Y223900D02*
X374600Y224700D01*
X375400Y223900D01*
X374600Y223100D01*
X373800Y223900D01*
Y213900D02*
X374600Y214700D01*
X375400Y213900D01*
X374600Y213100D01*
X373800Y213900D01*
Y203900D02*
X374600Y204700D01*
X375400Y203900D01*
X374600Y203100D01*
X373800Y203900D01*
Y193900D02*
X374600Y194700D01*
X375400Y193900D01*
X374600Y193100D01*
X373800Y193900D01*
Y183900D02*
X374600Y184700D01*
X375400Y183900D01*
X374600Y183100D01*
X373800Y183900D01*
Y173900D02*
X374600Y174700D01*
X375400Y173900D01*
X374600Y173100D01*
X373800Y173900D01*
Y163900D02*
X374600Y164700D01*
X375400Y163900D01*
X374600Y163100D01*
X373800Y163900D01*
Y153900D02*
X374600Y154700D01*
X375400Y153900D01*
X374600Y153100D01*
X373800Y153900D01*
Y143900D02*
X374600Y144700D01*
X375400Y143900D01*
X374600Y143100D01*
X373800Y143900D01*
Y133900D02*
X374600Y134700D01*
X375400Y133900D01*
X374600Y133100D01*
X373800Y133900D01*
Y123900D02*
X374600Y124700D01*
X375400Y123900D01*
X374600Y123100D01*
X373800Y123900D01*
Y113900D02*
X374600Y114700D01*
X375400Y113900D01*
X374600Y113100D01*
X373800Y113900D01*
Y103900D02*
X374600Y104700D01*
X375400Y103900D01*
X374600Y103100D01*
X373800Y103900D01*
Y93900D02*
X374600Y94700D01*
X375400Y93900D01*
X374600Y93100D01*
X373800Y93900D01*
Y83900D02*
X374600Y84700D01*
X375400Y83900D01*
X374600Y83100D01*
X373800Y83900D01*
Y73900D02*
X374600Y74700D01*
X375400Y73900D01*
X374600Y73100D01*
X373800Y73900D01*
Y63900D02*
X374600Y64700D01*
X375400Y63900D01*
X374600Y63100D01*
X373800Y63900D01*
Y53900D02*
X374600Y54700D01*
X375400Y53900D01*
X374600Y53100D01*
X373800Y53900D01*
Y43900D02*
X374600Y44700D01*
X375400Y43900D01*
X374600Y43100D01*
X373800Y43900D01*
Y33900D02*
X374600Y34700D01*
X375400Y33900D01*
X374600Y33100D01*
X373800Y33900D01*
Y23900D02*
X374600Y24700D01*
X375400Y23900D01*
X374600Y23100D01*
X373800Y23900D01*
X345500Y313600D02*
X346300Y314400D01*
X347100Y313600D01*
X346300Y312800D01*
X345500Y313600D01*
Y303600D02*
X346300Y304400D01*
X347100Y303600D01*
X346300Y302800D01*
X345500Y303600D01*
Y293600D02*
X346300Y294400D01*
X347100Y293600D01*
X346300Y292800D01*
X345500Y293600D01*
Y283600D02*
X346300Y284400D01*
X347100Y283600D01*
X346300Y282800D01*
X345500Y283600D01*
Y273600D02*
X346300Y274400D01*
X347100Y273600D01*
X346300Y272800D01*
X345500Y273600D01*
Y263600D02*
X346300Y264400D01*
X347100Y263600D01*
X346300Y262800D01*
X345500Y263600D01*
Y253600D02*
X346300Y254400D01*
X347100Y253600D01*
X346300Y252800D01*
X345500Y253600D01*
Y243600D02*
X346300Y244400D01*
X347100Y243600D01*
X346300Y242800D01*
X345500Y243600D01*
Y233600D02*
X346300Y234400D01*
X347100Y233600D01*
X346300Y232800D01*
X345500Y233600D01*
Y223600D02*
X346300Y224400D01*
X347100Y223600D01*
X346300Y222800D01*
X345500Y223600D01*
Y213600D02*
X346300Y214400D01*
X347100Y213600D01*
X346300Y212800D01*
X345500Y213600D01*
Y203600D02*
X346300Y204400D01*
X347100Y203600D01*
X346300Y202800D01*
X345500Y203600D01*
Y193600D02*
X346300Y194400D01*
X347100Y193600D01*
X346300Y192800D01*
X345500Y193600D01*
Y183600D02*
X346300Y184400D01*
X347100Y183600D01*
X346300Y182800D01*
X345500Y183600D01*
Y173600D02*
X346300Y174400D01*
X347100Y173600D01*
X346300Y172800D01*
X345500Y173600D01*
Y163600D02*
X346300Y164400D01*
X347100Y163600D01*
X346300Y162800D01*
X345500Y163600D01*
Y153600D02*
X346300Y154400D01*
X347100Y153600D01*
X346300Y152800D01*
X345500Y153600D01*
Y143600D02*
X346300Y144400D01*
X347100Y143600D01*
X346300Y142800D01*
X345500Y143600D01*
Y133600D02*
X346300Y134400D01*
X347100Y133600D01*
X346300Y132800D01*
X345500Y133600D01*
Y123600D02*
X346300Y124400D01*
X347100Y123600D01*
X346300Y122800D01*
X345500Y123600D01*
Y113600D02*
X346300Y114400D01*
X347100Y113600D01*
X346300Y112800D01*
X345500Y113600D01*
Y103600D02*
X346300Y104400D01*
X347100Y103600D01*
X346300Y102800D01*
X345500Y103600D01*
Y93600D02*
X346300Y94400D01*
X347100Y93600D01*
X346300Y92800D01*
X345500Y93600D01*
Y83600D02*
X346300Y84400D01*
X347100Y83600D01*
X346300Y82800D01*
X345500Y83600D01*
Y73600D02*
X346300Y74400D01*
X347100Y73600D01*
X346300Y72800D01*
X345500Y73600D01*
Y63600D02*
X346300Y64400D01*
X347100Y63600D01*
X346300Y62800D01*
X345500Y63600D01*
Y53600D02*
X346300Y54400D01*
X347100Y53600D01*
X346300Y52800D01*
X345500Y53600D01*
Y43600D02*
X346300Y44400D01*
X347100Y43600D01*
X346300Y42800D01*
X345500Y43600D01*
Y33600D02*
X346300Y34400D01*
X347100Y33600D01*
X346300Y32800D01*
X345500Y33600D01*
Y23600D02*
X346300Y24400D01*
X347100Y23600D01*
X346300Y22800D01*
X345500Y23600D01*
X304470Y368130D02*
X303670Y369730D01*
X305270D01*
X304470Y368130D01*
X281714D02*
X280914Y369730D01*
X282514D01*
X281714Y368130D01*
X310100Y382500D02*
X310500Y382900D01*
X310900D01*
X310500Y383300D01*
X310900Y383700D01*
X310500D01*
X310100Y384100D01*
X309700Y383700D01*
X309300D01*
X309700Y383300D01*
X309300Y382900D01*
X309700D01*
X310100Y382500D01*
X276084D02*
X276484Y382900D01*
X276884D01*
X276484Y383300D01*
X276884Y383700D01*
X276484D01*
X276084Y384100D01*
X275684Y383700D01*
X275284D01*
X275684Y383300D01*
X275284Y382900D01*
X275684D01*
X276084Y382500D01*
X275284Y366043D02*
X275684Y366843D01*
X275284Y367643D01*
X276084Y367243D01*
X276884Y367643D01*
X276484Y366843D01*
X276884Y366043D01*
X276084Y366443D01*
X275284Y366043D01*
X309700Y366443D02*
Y366043D01*
X310500D01*
Y366443D01*
X310900D01*
Y367243D01*
X310500D01*
Y367643D01*
X309700D01*
Y367243D01*
X309300D01*
Y366443D01*
X309700D01*
X86700Y284500D02*
Y286100D01*
X88300D01*
Y284500D01*
X86700D01*
Y274500D02*
Y276100D01*
X88300D01*
Y274500D01*
X86700D01*
Y264500D02*
Y266100D01*
X88300D01*
Y264500D01*
X86700D01*
X135515Y354200D02*
Y355800D01*
X137115D01*
Y354200D01*
X135515D01*
X135915Y354600D02*
Y355400D01*
X136715D01*
Y354600D01*
X135915D01*
X155200Y354200D02*
Y355800D01*
X156800D01*
Y354200D01*
X155200D01*
X155600Y354600D02*
Y355400D01*
X156400D01*
Y354600D01*
X155600D01*
X35415Y353800D02*
Y355400D01*
X37015D01*
Y353800D01*
X35415D01*
X35815Y354200D02*
Y355000D01*
X36615D01*
Y354200D01*
X35815D01*
X55100Y353800D02*
Y355400D01*
X56700D01*
Y353800D01*
X55100D01*
X55500Y354200D02*
Y355000D01*
X56300D01*
Y354200D01*
X55500D01*
X342400Y351800D02*
Y353400D01*
X344000D01*
Y351800D01*
X342400D01*
X352400D02*
Y353400D01*
X354000D01*
Y351800D01*
X352400D01*
X362400D02*
Y353400D01*
X364000D01*
Y351800D01*
X362400D01*
X162000Y234300D02*
Y235900D01*
X163600D01*
Y234300D01*
X162000D01*
X172000D02*
Y235900D01*
X173600D01*
Y234300D01*
X172000D01*
X182000D02*
Y235900D01*
X183600D01*
Y234300D01*
X182000D01*
X162000Y244300D02*
Y245900D01*
X163600D01*
Y244300D01*
X162000D01*
X172000D02*
Y245900D01*
X173600D01*
Y244300D01*
X172000D01*
X182000D02*
Y245900D01*
X183600D01*
Y244300D01*
X182000D01*
X14591Y60742D02*
X13791Y62342D01*
X15391D01*
X14591Y60742D01*
Y61142D02*
X14191Y61942D01*
X14991D01*
X14591Y61142D01*
Y3656D02*
X13791Y5256D01*
X15391D01*
X14591Y3656D01*
Y4056D02*
X14191Y4856D01*
X14991D01*
X14591Y4056D01*
X214058Y298661D02*
X214458Y299061D01*
X214858D01*
X214458Y299461D01*
X214858Y299861D01*
X214458D01*
X214058Y300261D01*
X213658Y299861D01*
X213258D01*
X213658Y299461D01*
X213258Y299061D01*
X213658D01*
X214058Y298661D01*
Y299061D02*
X214258Y299261D01*
X214458D01*
X214258Y299461D01*
X214458Y299661D01*
X214258D01*
X214058Y299861D01*
X213858Y299661D01*
X213658D01*
X213858Y299461D01*
X213658Y299261D01*
X213858D01*
X214058Y299061D01*
X213258Y35669D02*
Y37268D01*
X214858D01*
Y35669D01*
X213258D01*
X213658Y36068D02*
Y36869D01*
X214458D01*
Y36068D01*
X213658D01*
X71600Y29800D02*
X72000Y30600D01*
X71600Y31400D01*
X72400Y31000D01*
X73200Y31400D01*
X72800Y30600D01*
X73200Y29800D01*
X72400Y30200D01*
X71600Y29800D01*
X72000Y30200D02*
X72200Y30600D01*
X72000Y31000D01*
X72400Y30800D01*
X72800Y31000D01*
X72600Y30600D01*
X72800Y30200D01*
X72400Y30400D01*
X72000Y30200D01*
X71675Y42300D02*
X72075Y43100D01*
X71675Y43900D01*
X72475Y43500D01*
X73275Y43900D01*
X72875Y43100D01*
X73275Y42300D01*
X72475Y42700D01*
X71675Y42300D01*
X72075Y42700D02*
X72275Y43100D01*
X72075Y43500D01*
X72475Y43300D01*
X72875Y43500D01*
X72675Y43100D01*
X72875Y42700D01*
X72475Y42900D01*
X72075Y42700D01*
X299400Y71700D02*
X299800Y72500D01*
X299400Y73300D01*
X300200Y72900D01*
X301000Y73300D01*
X300600Y72500D01*
X301000Y71700D01*
X300200Y72100D01*
X299400Y71700D01*
X299800Y72100D02*
X300000Y72500D01*
X299800Y72900D01*
X300200Y72700D01*
X300600Y72900D01*
X300400Y72500D01*
X300600Y72100D01*
X300200Y72300D01*
X299800Y72100D01*
X162900Y6600D02*
X163300Y7400D01*
X162900Y8200D01*
X163700Y7800D01*
X164500Y8200D01*
X164100Y7400D01*
X164500Y6600D01*
X163700Y7000D01*
X162900Y6600D01*
X163300Y7000D02*
X163500Y7400D01*
X163300Y7800D01*
X163700Y7600D01*
X164100Y7800D01*
X163900Y7400D01*
X164100Y7000D01*
X163700Y7200D01*
X163300Y7000D01*
X57500Y2100D02*
X57900Y2900D01*
X57500Y3700D01*
X58300Y3300D01*
X59100Y3700D01*
X58700Y2900D01*
X59100Y2100D01*
X58300Y2500D01*
X57500Y2100D01*
X57900Y2500D02*
X58100Y2900D01*
X57900Y3300D01*
X58300Y3100D01*
X58700Y3300D01*
X58500Y2900D01*
X58700Y2500D01*
X58300Y2700D01*
X57900Y2500D01*
X207887Y324800D02*
X208287Y325600D01*
X207887Y326400D01*
X208687Y326000D01*
X209487Y326400D01*
X209087Y325600D01*
X209487Y324800D01*
X208687Y325200D01*
X207887Y324800D01*
X208287Y325200D02*
X208487Y325600D01*
X208287Y326000D01*
X208687Y325800D01*
X209087Y326000D01*
X208887Y325600D01*
X209087Y325200D01*
X208687Y325400D01*
X208287Y325200D01*
X181000Y324800D02*
X181400Y325600D01*
X181000Y326400D01*
X181800Y326000D01*
X182600Y326400D01*
X182200Y325600D01*
X182600Y324800D01*
X181800Y325200D01*
X181000Y324800D01*
X181400Y325200D02*
X181600Y325600D01*
X181400Y326000D01*
X181800Y325800D01*
X182200Y326000D01*
X182000Y325600D01*
X182200Y325200D01*
X181800Y325400D01*
X181400Y325200D01*
X319800Y312700D02*
X320200Y313500D01*
X319800Y314300D01*
X320600Y313900D01*
X321400Y314300D01*
X321000Y313500D01*
X321400Y312700D01*
X320600Y313100D01*
X319800Y312700D01*
X320200Y313100D02*
X320400Y313500D01*
X320200Y313900D01*
X320600Y313700D01*
X321000Y313900D01*
X320800Y313500D01*
X321000Y313100D01*
X320600Y313300D01*
X320200Y313100D01*
X275800Y337000D02*
X276200Y337800D01*
X275800Y338600D01*
X276600Y338200D01*
X277400Y338600D01*
X277000Y337800D01*
X277400Y337000D01*
X276600Y337400D01*
X275800Y337000D01*
X276200Y337400D02*
X276400Y337800D01*
X276200Y338200D01*
X276600Y338000D01*
X277000Y338200D01*
X276800Y337800D01*
X277000Y337400D01*
X276600Y337600D01*
X276200Y337400D01*
X207700Y359100D02*
X208100Y359900D01*
X207700Y360700D01*
X208500Y360300D01*
X209300Y360700D01*
X208900Y359900D01*
X209300Y359100D01*
X208500Y359500D01*
X207700Y359100D01*
X208100Y359500D02*
X208300Y359900D01*
X208100Y360300D01*
X208500Y360100D01*
X208900Y360300D01*
X208700Y359900D01*
X208900Y359500D01*
X208500Y359700D01*
X208100Y359500D01*
X360500Y388300D02*
X360900Y389100D01*
X360500Y389900D01*
X361300Y389500D01*
X362100Y389900D01*
X361700Y389100D01*
X362100Y388300D01*
X361300Y388700D01*
X360500Y388300D01*
X360900Y388700D02*
X361100Y389100D01*
X360900Y389500D01*
X361300Y389300D01*
X361700Y389500D01*
X361500Y389100D01*
X361700Y388700D01*
X361300Y388900D01*
X360900Y388700D01*
X206700Y364100D02*
X207100Y364900D01*
X206700Y365700D01*
X207500Y365300D01*
X208300Y365700D01*
X207900Y364900D01*
X208300Y364100D01*
X207500Y364500D01*
X206700Y364100D01*
X207100Y364500D02*
X207300Y364900D01*
X207100Y365300D01*
X207500Y365100D01*
X207900Y365300D01*
X207700Y364900D01*
X207900Y364500D01*
X207500Y364700D01*
X207100Y364500D01*
X127800Y70905D02*
X128200Y71705D01*
X127800Y72505D01*
X128600Y72105D01*
X129400Y72505D01*
X129000Y71705D01*
X129400Y70905D01*
X128600Y71305D01*
X127800Y70905D01*
X128200Y71305D02*
X128400Y71705D01*
X128200Y72105D01*
X128600Y71905D01*
X129000Y72105D01*
X128800Y71705D01*
X129000Y71305D01*
X128600Y71505D01*
X128200Y71305D01*
X149400Y71100D02*
X149800Y71900D01*
X149400Y72700D01*
X150200Y72300D01*
X151000Y72700D01*
X150600Y71900D01*
X151000Y71100D01*
X150200Y71500D01*
X149400Y71100D01*
X149800Y71500D02*
X150000Y71900D01*
X149800Y72300D01*
X150200Y72100D01*
X150600Y72300D01*
X150400Y71900D01*
X150600Y71500D01*
X150200Y71700D01*
X149800Y71500D01*
X111200Y169300D02*
X111600Y170100D01*
X111200Y170900D01*
X112000Y170500D01*
X112800Y170900D01*
X112400Y170100D01*
X112800Y169300D01*
X112000Y169700D01*
X111200Y169300D01*
X111600Y169700D02*
X111800Y170100D01*
X111600Y170500D01*
X112000Y170300D01*
X112400Y170500D01*
X112200Y170100D01*
X112400Y169700D01*
X112000Y169900D01*
X111600Y169700D01*
X150200Y60200D02*
X150600Y61000D01*
X150200Y61800D01*
X151000Y61400D01*
X151800Y61800D01*
X151400Y61000D01*
X151800Y60200D01*
X151000Y60600D01*
X150200Y60200D01*
X150600Y60600D02*
X150800Y61000D01*
X150600Y61400D01*
X151000Y61200D01*
X151400Y61400D01*
X151200Y61000D01*
X151400Y60600D01*
X151000Y60800D01*
X150600Y60600D01*
X119200Y60400D02*
X119600Y61200D01*
X119200Y62000D01*
X120000Y61600D01*
X120800Y62000D01*
X120400Y61200D01*
X120800Y60400D01*
X120000Y60800D01*
X119200Y60400D01*
X119600Y60800D02*
X119800Y61200D01*
X119600Y61600D01*
X120000Y61400D01*
X120400Y61600D01*
X120200Y61200D01*
X120400Y60800D01*
X120000Y61000D01*
X119600Y60800D01*
X117300Y48300D02*
X117700Y49100D01*
X117300Y49900D01*
X118100Y49500D01*
X118900Y49900D01*
X118500Y49100D01*
X118900Y48300D01*
X118100Y48700D01*
X117300Y48300D01*
X117700Y48700D02*
X117900Y49100D01*
X117700Y49500D01*
X118100Y49300D01*
X118500Y49500D01*
X118300Y49100D01*
X118500Y48700D01*
X118100Y48900D01*
X117700Y48700D01*
X150800Y46100D02*
X151200Y46900D01*
X150800Y47700D01*
X151600Y47300D01*
X152400Y47700D01*
X152000Y46900D01*
X152400Y46100D01*
X151600Y46500D01*
X150800Y46100D01*
X151200Y46500D02*
X151400Y46900D01*
X151200Y47300D01*
X151600Y47100D01*
X152000Y47300D01*
X151800Y46900D01*
X152000Y46500D01*
X151600Y46700D01*
X151200Y46500D01*
X93200Y50000D02*
X93600Y50800D01*
X93200Y51600D01*
X94000Y51200D01*
X94800Y51600D01*
X94400Y50800D01*
X94800Y50000D01*
X94000Y50400D01*
X93200Y50000D01*
X93600Y50400D02*
X93800Y50800D01*
X93600Y51200D01*
X94000Y51000D01*
X94400Y51200D01*
X94200Y50800D01*
X94400Y50400D01*
X94000Y50600D01*
X93600Y50400D01*
X54700Y10700D02*
X55100Y11500D01*
X54700Y12300D01*
X55500Y11900D01*
X56300Y12300D01*
X55900Y11500D01*
X56300Y10700D01*
X55500Y11100D01*
X54700Y10700D01*
X55100Y11100D02*
X55300Y11500D01*
X55100Y11900D01*
X55500Y11700D01*
X55900Y11900D01*
X55700Y11500D01*
X55900Y11100D01*
X55500Y11300D01*
X55100Y11100D01*
X51208Y113392D02*
X51608Y114192D01*
X51208Y114992D01*
X52008Y114592D01*
X52808Y114992D01*
X52408Y114192D01*
X52808Y113392D01*
X52008Y113792D01*
X51208Y113392D01*
X51608Y113792D02*
X51808Y114192D01*
X51608Y114592D01*
X52008Y114392D01*
X52408Y114592D01*
X52208Y114192D01*
X52408Y113792D01*
X52008Y113992D01*
X51608Y113792D01*
X47500Y210900D02*
X47900Y211700D01*
X47500Y212500D01*
X48300Y212100D01*
X49100Y212500D01*
X48700Y211700D01*
X49100Y210900D01*
X48300Y211300D01*
X47500Y210900D01*
X47900Y211300D02*
X48100Y211700D01*
X47900Y212100D01*
X48300Y211900D01*
X48700Y212100D01*
X48500Y211700D01*
X48700Y211300D01*
X48300Y211500D01*
X47900Y211300D01*
X21300Y251100D02*
X21700Y251900D01*
X21300Y252700D01*
X22100Y252300D01*
X22900Y252700D01*
X22500Y251900D01*
X22900Y251100D01*
X22100Y251500D01*
X21300Y251100D01*
X21700Y251500D02*
X21900Y251900D01*
X21700Y252300D01*
X22100Y252100D01*
X22500Y252300D01*
X22300Y251900D01*
X22500Y251500D01*
X22100Y251700D01*
X21700Y251500D01*
X71700Y154800D02*
X72100Y155600D01*
X71700Y156400D01*
X72500Y156000D01*
X73300Y156400D01*
X72900Y155600D01*
X73300Y154800D01*
X72500Y155200D01*
X71700Y154800D01*
X72100Y155200D02*
X72300Y155600D01*
X72100Y156000D01*
X72500Y155800D01*
X72900Y156000D01*
X72700Y155600D01*
X72900Y155200D01*
X72500Y155400D01*
X72100Y155200D01*
X150100Y35100D02*
X150500Y35900D01*
X150100Y36700D01*
X150900Y36300D01*
X151700Y36700D01*
X151300Y35900D01*
X151700Y35100D01*
X150900Y35500D01*
X150100Y35100D01*
X150500Y35500D02*
X150700Y35900D01*
X150500Y36300D01*
X150900Y36100D01*
X151300Y36300D01*
X151100Y35900D01*
X151300Y35500D01*
X150900Y35700D01*
X150500Y35500D01*
X98200Y293500D02*
X98600Y294300D01*
X98200Y295100D01*
X99000Y294700D01*
X99800Y295100D01*
X99400Y294300D01*
X99800Y293500D01*
X99000Y293900D01*
X98200Y293500D01*
X98600Y293900D02*
X98800Y294300D01*
X98600Y294700D01*
X99000Y294500D01*
X99400Y294700D01*
X99200Y294300D01*
X99400Y293900D01*
X99000Y294100D01*
X98600Y293900D01*
X135700Y304500D02*
X136100Y305300D01*
X135700Y306100D01*
X136500Y305700D01*
X137300Y306100D01*
X136900Y305300D01*
X137300Y304500D01*
X136500Y304900D01*
X135700Y304500D01*
X136100Y304900D02*
X136300Y305300D01*
X136100Y305700D01*
X136500Y305500D01*
X136900Y305700D01*
X136700Y305300D01*
X136900Y304900D01*
X136500Y305100D01*
X136100Y304900D01*
X156500Y304400D02*
X156900Y305200D01*
X156500Y306000D01*
X157300Y305600D01*
X158100Y306000D01*
X157700Y305200D01*
X158100Y304400D01*
X157300Y304800D01*
X156500Y304400D01*
X156900Y304800D02*
X157100Y305200D01*
X156900Y305600D01*
X157300Y305400D01*
X157700Y305600D01*
X157500Y305200D01*
X157700Y304800D01*
X157300Y305000D01*
X156900Y304800D01*
X92700Y227900D02*
X93100Y228700D01*
X92700Y229500D01*
X93500Y229100D01*
X94300Y229500D01*
X93900Y228700D01*
X94300Y227900D01*
X93500Y228300D01*
X92700Y227900D01*
X93100Y228300D02*
X93300Y228700D01*
X93100Y229100D01*
X93500Y228900D01*
X93900Y229100D01*
X93700Y228700D01*
X93900Y228300D01*
X93500Y228500D01*
X93100Y228300D01*
X144700Y328131D02*
X145100Y328931D01*
X144700Y329731D01*
X145500Y329331D01*
X146300Y329731D01*
X145900Y328931D01*
X146300Y328131D01*
X145500Y328531D01*
X144700Y328131D01*
X145100Y328531D02*
X145300Y328931D01*
X145100Y329331D01*
X145500Y329131D01*
X145900Y329331D01*
X145700Y328931D01*
X145900Y328531D01*
X145500Y328731D01*
X145100Y328531D01*
X144700Y325169D02*
X145100Y325969D01*
X144700Y326769D01*
X145500Y326369D01*
X146300Y326769D01*
X145900Y325969D01*
X146300Y325169D01*
X145500Y325569D01*
X144700Y325169D01*
X145100Y325569D02*
X145300Y325969D01*
X145100Y326369D01*
X145500Y326169D01*
X145900Y326369D01*
X145700Y325969D01*
X145900Y325569D01*
X145500Y325769D01*
X145100Y325569D01*
X190200Y331031D02*
X190600Y331831D01*
X190200Y332631D01*
X191000Y332231D01*
X191800Y332631D01*
X191400Y331831D01*
X191800Y331031D01*
X191000Y331431D01*
X190200Y331031D01*
X190600Y331431D02*
X190800Y331831D01*
X190600Y332231D01*
X191000Y332031D01*
X191400Y332231D01*
X191200Y331831D01*
X191400Y331431D01*
X191000Y331631D01*
X190600Y331431D01*
X190200Y328069D02*
X190600Y328869D01*
X190200Y329669D01*
X191000Y329269D01*
X191800Y329669D01*
X191400Y328869D01*
X191800Y328069D01*
X191000Y328469D01*
X190200Y328069D01*
X190600Y328469D02*
X190800Y328869D01*
X190600Y329269D01*
X191000Y329069D01*
X191400Y329269D01*
X191200Y328869D01*
X191400Y328469D01*
X191000Y328669D01*
X190600Y328469D01*
X184900Y350119D02*
X185300Y350919D01*
X184900Y351719D01*
X185700Y351319D01*
X186500Y351719D01*
X186100Y350919D01*
X186500Y350119D01*
X185700Y350519D01*
X184900Y350119D01*
X185300Y350519D02*
X185500Y350919D01*
X185300Y351319D01*
X185700Y351119D01*
X186100Y351319D01*
X185900Y350919D01*
X186100Y350519D01*
X185700Y350719D01*
X185300Y350519D01*
X184900Y353081D02*
X185300Y353881D01*
X184900Y354681D01*
X185700Y354281D01*
X186500Y354681D01*
X186100Y353881D01*
X186500Y353081D01*
X185700Y353481D01*
X184900Y353081D01*
X185300Y353481D02*
X185500Y353881D01*
X185300Y354281D01*
X185700Y354081D01*
X186100Y354281D01*
X185900Y353881D01*
X186100Y353481D01*
X185700Y353681D01*
X185300Y353481D01*
X186500Y363081D02*
X186900Y363881D01*
X186500Y364681D01*
X187300Y364281D01*
X188100Y364681D01*
X187700Y363881D01*
X188100Y363081D01*
X187300Y363481D01*
X186500Y363081D01*
X186900Y363481D02*
X187100Y363881D01*
X186900Y364281D01*
X187300Y364081D01*
X187700Y364281D01*
X187500Y363881D01*
X187700Y363481D01*
X187300Y363681D01*
X186900Y363481D01*
X186500Y360119D02*
X186900Y360919D01*
X186500Y361719D01*
X187300Y361319D01*
X188100Y361719D01*
X187700Y360919D01*
X188100Y360119D01*
X187300Y360519D01*
X186500Y360119D01*
X186900Y360519D02*
X187100Y360919D01*
X186900Y361319D01*
X187300Y361119D01*
X187700Y361319D01*
X187500Y360919D01*
X187700Y360519D01*
X187300Y360719D01*
X186900Y360519D01*
X230500Y296700D02*
X230900Y297500D01*
X230500Y298300D01*
X231300Y297900D01*
X232100Y298300D01*
X231700Y297500D01*
X232100Y296700D01*
X231300Y297100D01*
X230500Y296700D01*
X230900Y297100D02*
X231100Y297500D01*
X230900Y297900D01*
X231300Y297700D01*
X231700Y297900D01*
X231500Y297500D01*
X231700Y297100D01*
X231300Y297300D01*
X230900Y297100D01*
X230500Y317800D02*
X230900Y318600D01*
X230500Y319400D01*
X231300Y319000D01*
X232100Y319400D01*
X231700Y318600D01*
X232100Y317800D01*
X231300Y318200D01*
X230500Y317800D01*
X230900Y318200D02*
X231100Y318600D01*
X230900Y319000D01*
X231300Y318800D01*
X231700Y319000D01*
X231500Y318600D01*
X231700Y318200D01*
X231300Y318400D01*
X230900Y318200D01*
X182600Y275300D02*
X183000Y276100D01*
X182600Y276900D01*
X183400Y276500D01*
X184200Y276900D01*
X183800Y276100D01*
X184200Y275300D01*
X183400Y275700D01*
X182600Y275300D01*
X183000Y275700D02*
X183200Y276100D01*
X183000Y276500D01*
X183400Y276300D01*
X183800Y276500D01*
X183600Y276100D01*
X183800Y275700D01*
X183400Y275900D01*
X183000Y275700D01*
X48981Y279381D02*
X49382Y280182D01*
X48981Y280981D01*
X49782Y280581D01*
X50582Y280981D01*
X50182Y280182D01*
X50582Y279381D01*
X49782Y279782D01*
X48981Y279381D01*
X49382Y279782D02*
X49582Y280182D01*
X49382Y280581D01*
X49782Y280381D01*
X50182Y280581D01*
X49981Y280182D01*
X50182Y279782D01*
X49782Y279981D01*
X49382Y279782D01*
X45142Y282400D02*
X45542Y283200D01*
X45142Y284000D01*
X45942Y283600D01*
X46742Y284000D01*
X46342Y283200D01*
X46742Y282400D01*
X45942Y282800D01*
X45142Y282400D01*
X45542Y282800D02*
X45742Y283200D01*
X45542Y283600D01*
X45942Y283400D01*
X46342Y283600D01*
X46142Y283200D01*
X46342Y282800D01*
X45942Y283000D01*
X45542Y282800D01*
X40584Y286384D02*
X40984Y287184D01*
X40584Y287984D01*
X41384Y287584D01*
X42184Y287984D01*
X41784Y287184D01*
X42184Y286384D01*
X41384Y286784D01*
X40584Y286384D01*
X40984Y286784D02*
X41184Y287184D01*
X40984Y287584D01*
X41384Y287384D01*
X41784Y287584D01*
X41584Y287184D01*
X41784Y286784D01*
X41384Y286984D01*
X40984Y286784D01*
X171500Y176800D02*
X171900Y177600D01*
X171500Y178400D01*
X172300Y178000D01*
X173100Y178400D01*
X172700Y177600D01*
X173100Y176800D01*
X172300Y177200D01*
X171500Y176800D01*
X171900Y177200D02*
X172100Y177600D01*
X171900Y178000D01*
X172300Y177800D01*
X172700Y178000D01*
X172500Y177600D01*
X172700Y177200D01*
X172300Y177400D01*
X171900Y177200D01*
X171600Y170000D02*
X172000Y170800D01*
X171600Y171600D01*
X172400Y171200D01*
X173200Y171600D01*
X172800Y170800D01*
X173200Y170000D01*
X172400Y170400D01*
X171600Y170000D01*
X172000Y170400D02*
X172200Y170800D01*
X172000Y171200D01*
X172400Y171000D01*
X172800Y171200D01*
X172600Y170800D01*
X172800Y170400D01*
X172400Y170600D01*
X172000Y170400D01*
X188800Y187400D02*
X189200Y188200D01*
X188800Y189000D01*
X189600Y188600D01*
X190400Y189000D01*
X190000Y188200D01*
X190400Y187400D01*
X189600Y187800D01*
X188800Y187400D01*
X189200Y187800D02*
X189400Y188200D01*
X189200Y188600D01*
X189600Y188400D01*
X190000Y188600D01*
X189800Y188200D01*
X190000Y187800D01*
X189600Y188000D01*
X189200Y187800D01*
X163500Y174400D02*
X163900Y175200D01*
X163500Y176000D01*
X164300Y175600D01*
X165100Y176000D01*
X164700Y175200D01*
X165100Y174400D01*
X164300Y174800D01*
X163500Y174400D01*
X163900Y174800D02*
X164100Y175200D01*
X163900Y175600D01*
X164300Y175400D01*
X164700Y175600D01*
X164500Y175200D01*
X164700Y174800D01*
X164300Y175000D01*
X163900Y174800D01*
X160000Y190100D02*
X160400Y190900D01*
X160000Y191700D01*
X160800Y191300D01*
X161600Y191700D01*
X161200Y190900D01*
X161600Y190100D01*
X160800Y190500D01*
X160000Y190100D01*
X160400Y190500D02*
X160600Y190900D01*
X160400Y191300D01*
X160800Y191100D01*
X161200Y191300D01*
X161000Y190900D01*
X161200Y190500D01*
X160800Y190700D01*
X160400Y190500D01*
X156000Y185472D02*
X156400Y186272D01*
X156000Y187072D01*
X156800Y186672D01*
X157600Y187072D01*
X157200Y186272D01*
X157600Y185472D01*
X156800Y185872D01*
X156000Y185472D01*
X156400Y185872D02*
X156600Y186272D01*
X156400Y186672D01*
X156800Y186472D01*
X157200Y186672D01*
X157000Y186272D01*
X157200Y185872D01*
X156800Y186072D01*
X156400Y185872D01*
X159700Y177300D02*
X160100Y178100D01*
X159700Y178900D01*
X160500Y178500D01*
X161300Y178900D01*
X160900Y178100D01*
X161300Y177300D01*
X160500Y177700D01*
X159700Y177300D01*
X160100Y177700D02*
X160300Y178100D01*
X160100Y178500D01*
X160500Y178300D01*
X160900Y178500D01*
X160700Y178100D01*
X160900Y177700D01*
X160500Y177900D01*
X160100Y177700D01*
X156000Y174400D02*
X156400Y175200D01*
X156000Y176000D01*
X156800Y175600D01*
X157600Y176000D01*
X157200Y175200D01*
X157600Y174400D01*
X156800Y174800D01*
X156000Y174400D01*
X156400Y174800D02*
X156600Y175200D01*
X156400Y175600D01*
X156800Y175400D01*
X157200Y175600D01*
X157000Y175200D01*
X157200Y174800D01*
X156800Y175000D01*
X156400Y174800D01*
X238000Y144800D02*
X238400Y145600D01*
X238000Y146400D01*
X238800Y146000D01*
X239600Y146400D01*
X239200Y145600D01*
X239600Y144800D01*
X238800Y145200D01*
X238000Y144800D01*
X238400Y145200D02*
X238600Y145600D01*
X238400Y146000D01*
X238800Y145800D01*
X239200Y146000D01*
X239000Y145600D01*
X239200Y145200D01*
X238800Y145400D01*
X238400Y145200D01*
X189200Y151400D02*
X189600Y152200D01*
X189200Y153000D01*
X190000Y152600D01*
X190800Y153000D01*
X190400Y152200D01*
X190800Y151400D01*
X190000Y151800D01*
X189200Y151400D01*
X189600Y151800D02*
X189800Y152200D01*
X189600Y152600D01*
X190000Y152400D01*
X190400Y152600D01*
X190200Y152200D01*
X190400Y151800D01*
X190000Y152000D01*
X189600Y151800D01*
X49300Y47200D02*
X49700Y48000D01*
X49300Y48800D01*
X50100Y48400D01*
X50900Y48800D01*
X50500Y48000D01*
X50900Y47200D01*
X50100Y47600D01*
X49300Y47200D01*
X49700Y47600D02*
X49900Y48000D01*
X49700Y48400D01*
X50100Y48200D01*
X50500Y48400D01*
X50300Y48000D01*
X50500Y47600D01*
X50100Y47800D01*
X49700Y47600D01*
X61200Y45100D02*
X61600Y45900D01*
X61200Y46700D01*
X62000Y46300D01*
X62800Y46700D01*
X62400Y45900D01*
X62800Y45100D01*
X62000Y45500D01*
X61200Y45100D01*
X61600Y45500D02*
X61800Y45900D01*
X61600Y46300D01*
X62000Y46100D01*
X62400Y46300D01*
X62200Y45900D01*
X62400Y45500D01*
X62000Y45700D01*
X61600Y45500D01*
X182800Y79800D02*
X183200Y80600D01*
X182800Y81400D01*
X183600Y81000D01*
X184400Y81400D01*
X184000Y80600D01*
X184400Y79800D01*
X183600Y80200D01*
X182800Y79800D01*
X183200Y80200D02*
X183400Y80600D01*
X183200Y81000D01*
X183600Y80800D01*
X184000Y81000D01*
X183800Y80600D01*
X184000Y80200D01*
X183600Y80400D01*
X183200Y80200D01*
X129500Y26200D02*
X129900Y27000D01*
X129500Y27800D01*
X130300Y27400D01*
X131100Y27800D01*
X130700Y27000D01*
X131100Y26200D01*
X130300Y26600D01*
X129500Y26200D01*
X129900Y26600D02*
X130100Y27000D01*
X129900Y27400D01*
X130300Y27200D01*
X130700Y27400D01*
X130500Y27000D01*
X130700Y26600D01*
X130300Y26800D01*
X129900Y26600D01*
X190400Y72200D02*
X190800Y73000D01*
X190400Y73800D01*
X191200Y73400D01*
X192000Y73800D01*
X191600Y73000D01*
X192000Y72200D01*
X191200Y72600D01*
X190400Y72200D01*
X190800Y72600D02*
X191000Y73000D01*
X190800Y73400D01*
X191200Y73200D01*
X191600Y73400D01*
X191400Y73000D01*
X191600Y72600D01*
X191200Y72800D01*
X190800Y72600D01*
X120800Y19684D02*
X121200Y20484D01*
X120800Y21284D01*
X121600Y20884D01*
X122400Y21284D01*
X122000Y20484D01*
X122400Y19684D01*
X121600Y20084D01*
X120800Y19684D01*
X121200Y20084D02*
X121400Y20484D01*
X121200Y20884D01*
X121600Y20684D01*
X122000Y20884D01*
X121800Y20484D01*
X122000Y20084D01*
X121600Y20284D01*
X121200Y20084D01*
X186300Y76500D02*
X186700Y77300D01*
X186300Y78100D01*
X187100Y77700D01*
X187900Y78100D01*
X187500Y77300D01*
X187900Y76500D01*
X187100Y76900D01*
X186300Y76500D01*
X186700Y76900D02*
X186900Y77300D01*
X186700Y77700D01*
X187100Y77500D01*
X187500Y77700D01*
X187300Y77300D01*
X187500Y76900D01*
X187100Y77100D01*
X186700Y76900D01*
X124543Y22243D02*
X124943Y23043D01*
X124543Y23843D01*
X125343Y23443D01*
X126143Y23843D01*
X125743Y23043D01*
X126143Y22243D01*
X125343Y22643D01*
X124543Y22243D01*
X124943Y22643D02*
X125143Y23043D01*
X124943Y23443D01*
X125343Y23243D01*
X125743Y23443D01*
X125543Y23043D01*
X125743Y22643D01*
X125343Y22843D01*
X124943Y22643D01*
D153*
X61000Y288600D02*
G03*
X61000Y288600I-800J0D01*
G01*
X57200D02*
G03*
X57200Y288600I-800J0D01*
G01*
X61000Y292500D02*
G03*
X61000Y292500I-800J0D01*
G01*
X57200D02*
G03*
X57200Y292500I-800J0D01*
G01*
X53100Y288600D02*
G03*
X53100Y288600I-800J0D01*
G01*
Y292600D02*
G03*
X53100Y292600I-800J0D01*
G01*
X61000Y296300D02*
G03*
X61000Y296300I-800J0D01*
G01*
X57200D02*
G03*
X57200Y296300I-800J0D01*
G01*
X53100D02*
G03*
X53100Y296300I-800J0D01*
G01*
X39013Y61542D02*
G03*
X39013Y61542I-800J0D01*
G01*
Y4456D02*
G03*
X39013Y4456I-800J0D01*
G01*
X380800Y340000D02*
G03*
X380800Y340000I-800J0D01*
G01*
Y300000D02*
G03*
X380800Y300000I-800J0D01*
G01*
Y260000D02*
G03*
X380800Y260000I-800J0D01*
G01*
Y220000D02*
G03*
X380800Y220000I-800J0D01*
G01*
Y180000D02*
G03*
X380800Y180000I-800J0D01*
G01*
X390800Y120000D02*
G03*
X390800Y120000I-800J0D01*
G01*
X380800Y100000D02*
G03*
X380800Y100000I-800J0D01*
G01*
Y20000D02*
G03*
X380800Y20000I-800J0D01*
G01*
X370800Y360000D02*
G03*
X370800Y360000I-800J0D01*
G01*
X360800Y340000D02*
G03*
X360800Y340000I-800J0D01*
G01*
X370800Y320000D02*
G03*
X370800Y320000I-800J0D01*
G01*
Y80000D02*
G03*
X370800Y80000I-800J0D01*
G01*
Y40000D02*
G03*
X370800Y40000I-800J0D01*
G01*
X360800Y20000D02*
G03*
X360800Y20000I-800J0D01*
G01*
X340800Y340000D02*
G03*
X340800Y340000I-800J0D01*
G01*
X350800Y320000D02*
G03*
X350800Y320000I-800J0D01*
G01*
X340800Y20000D02*
G03*
X340800Y20000I-800J0D01*
G01*
X320800Y380000D02*
G03*
X320800Y380000I-800J0D01*
G01*
X330800Y360000D02*
G03*
X330800Y360000I-800J0D01*
G01*
Y40000D02*
G03*
X330800Y40000I-800J0D01*
G01*
X320800Y20000D02*
G03*
X320800Y20000I-800J0D01*
G01*
X310800Y320000D02*
G03*
X310800Y320000I-800J0D01*
G01*
Y40000D02*
G03*
X310800Y40000I-800J0D01*
G01*
X290800Y320000D02*
G03*
X290800Y320000I-800J0D01*
G01*
X280800Y300000D02*
G03*
X280800Y300000I-800J0D01*
G01*
X290800Y240000D02*
G03*
X290800Y240000I-800J0D01*
G01*
X280800Y100000D02*
G03*
X280800Y100000I-800J0D01*
G01*
X290800Y40000D02*
G03*
X290800Y40000I-800J0D01*
G01*
X260800Y380000D02*
G03*
X260800Y380000I-800J0D01*
G01*
X270800Y320000D02*
G03*
X270800Y320000I-800J0D01*
G01*
Y240000D02*
G03*
X270800Y240000I-800J0D01*
G01*
X260800Y100000D02*
G03*
X260800Y100000I-800J0D01*
G01*
Y60000D02*
G03*
X260800Y60000I-800J0D01*
G01*
X240800Y300000D02*
G03*
X240800Y300000I-800J0D01*
G01*
X250800Y240000D02*
G03*
X250800Y240000I-800J0D01*
G01*
Y120000D02*
G03*
X250800Y120000I-800J0D01*
G01*
X240800Y100000D02*
G03*
X240800Y100000I-800J0D01*
G01*
Y60000D02*
G03*
X240800Y60000I-800J0D01*
G01*
X220800Y380000D02*
G03*
X220800Y380000I-800J0D01*
G01*
X230800Y240000D02*
G03*
X230800Y240000I-800J0D01*
G01*
X220800Y60000D02*
G03*
X220800Y60000I-800J0D01*
G01*
X230800Y40000D02*
G03*
X230800Y40000I-800J0D01*
G01*
X220800Y20000D02*
G03*
X220800Y20000I-800J0D01*
G01*
X200800Y380000D02*
G03*
X200800Y380000I-800J0D01*
G01*
X210800Y320000D02*
G03*
X210800Y320000I-800J0D01*
G01*
X200800Y300000D02*
G03*
X200800Y300000I-800J0D01*
G01*
X210800Y240000D02*
G03*
X210800Y240000I-800J0D01*
G01*
Y160000D02*
G03*
X210800Y160000I-800J0D01*
G01*
Y120000D02*
G03*
X210800Y120000I-800J0D01*
G01*
Y40000D02*
G03*
X210800Y40000I-800J0D01*
G01*
X200800Y20000D02*
G03*
X200800Y20000I-800J0D01*
G01*
X190800Y240000D02*
G03*
X190800Y240000I-800J0D01*
G01*
Y200000D02*
G03*
X190800Y200000I-800J0D01*
G01*
Y160000D02*
G03*
X190800Y160000I-800J0D01*
G01*
Y120000D02*
G03*
X190800Y120000I-800J0D01*
G01*
X180800Y100000D02*
G03*
X180800Y100000I-800J0D01*
G01*
X160800Y300000D02*
G03*
X160800Y300000I-800J0D01*
G01*
X170800Y240000D02*
G03*
X170800Y240000I-800J0D01*
G01*
X160800Y220000D02*
G03*
X160800Y220000I-800J0D01*
G01*
X170800Y200000D02*
G03*
X170800Y200000I-800J0D01*
G01*
Y120000D02*
G03*
X170800Y120000I-800J0D01*
G01*
X160800Y100000D02*
G03*
X160800Y100000I-800J0D01*
G01*
X170800Y80000D02*
G03*
X170800Y80000I-800J0D01*
G01*
X150800Y240000D02*
G03*
X150800Y240000I-800J0D01*
G01*
X140800Y220000D02*
G03*
X140800Y220000I-800J0D01*
G01*
X150800Y120000D02*
G03*
X150800Y120000I-800J0D01*
G01*
Y40000D02*
G03*
X150800Y40000I-800J0D01*
G01*
X130800Y280000D02*
G03*
X130800Y280000I-800J0D01*
G01*
X120800Y140000D02*
G03*
X120800Y140000I-800J0D01*
G01*
X130800Y120000D02*
G03*
X130800Y120000I-800J0D01*
G01*
X120800Y100000D02*
G03*
X120800Y100000I-800J0D01*
G01*
X130800Y80000D02*
G03*
X130800Y80000I-800J0D01*
G01*
X100800Y340000D02*
G03*
X100800Y340000I-800J0D01*
G01*
X110800Y320000D02*
G03*
X110800Y320000I-800J0D01*
G01*
Y240000D02*
G03*
X110800Y240000I-800J0D01*
G01*
X100800Y140000D02*
G03*
X100800Y140000I-800J0D01*
G01*
Y100000D02*
G03*
X100800Y100000I-800J0D01*
G01*
Y60000D02*
G03*
X100800Y60000I-800J0D01*
G01*
X90800Y200000D02*
G03*
X90800Y200000I-800J0D01*
G01*
Y80000D02*
G03*
X90800Y80000I-800J0D01*
G01*
X80800Y60000D02*
G03*
X80800Y60000I-800J0D01*
G01*
X60800Y220000D02*
G03*
X60800Y220000I-800J0D01*
G01*
X70800Y200000D02*
G03*
X70800Y200000I-800J0D01*
G01*
Y160000D02*
G03*
X70800Y160000I-800J0D01*
G01*
Y80000D02*
G03*
X70800Y80000I-800J0D01*
G01*
X60800Y60000D02*
G03*
X60800Y60000I-800J0D01*
G01*
X50800Y360000D02*
G03*
X50800Y360000I-800J0D01*
G01*
X40800Y220000D02*
G03*
X40800Y220000I-800J0D01*
G01*
Y180000D02*
G03*
X40800Y180000I-800J0D01*
G01*
X50800Y80000D02*
G03*
X50800Y80000I-800J0D01*
G01*
X20800Y380000D02*
G03*
X20800Y380000I-800J0D01*
G01*
X30800Y360000D02*
G03*
X30800Y360000I-800J0D01*
G01*
X20800Y180000D02*
G03*
X20800Y180000I-800J0D01*
G01*
X30800Y120000D02*
G03*
X30800Y120000I-800J0D01*
G01*
Y80000D02*
G03*
X30800Y80000I-800J0D01*
G01*
Y40000D02*
G03*
X30800Y40000I-800J0D01*
G01*
X20800Y20000D02*
G03*
X20800Y20000I-800J0D01*
G01*
X267900Y369000D02*
G03*
X267900Y369000I-800J0D01*
G01*
X32375Y185900D02*
G03*
X32375Y185900I-800J0D01*
G01*
X19681Y223080D02*
G03*
X19681Y223080I-800J0D01*
G01*
X382600Y148500D02*
G03*
X382600Y148500I-800J0D01*
G01*
X35900Y279000D02*
G03*
X35900Y279000I-800J0D01*
G01*
X21800Y320000D02*
G03*
X21800Y320000I-800J0D01*
G01*
X41778Y303900D02*
G03*
X41778Y303900I-800J0D01*
G01*
X33900Y310000D02*
G03*
X33900Y310000I-800J0D01*
G01*
X35900Y300778D02*
G03*
X35900Y300778I-800J0D01*
G01*
X44200Y247900D02*
G03*
X44200Y247900I-800J0D01*
G01*
X55400Y245600D02*
G03*
X55400Y245600I-800J0D01*
G01*
X78800Y117700D02*
G03*
X78800Y117700I-800J0D01*
G01*
X75600Y125300D02*
G03*
X75600Y125300I-800J0D01*
G01*
X74921Y57500D02*
G03*
X74921Y57500I-800J0D01*
G01*
X78000Y56000D02*
G03*
X78000Y56000I-800J0D01*
G01*
X81000Y51800D02*
G03*
X81000Y51800I-800J0D01*
G01*
X75991Y60700D02*
G03*
X75991Y60700I-800J0D01*
G01*
X302700Y351300D02*
G03*
X302700Y351300I-800J0D01*
G01*
X314100Y354700D02*
G03*
X314100Y354700I-800J0D01*
G01*
X145450Y353100D02*
G03*
X145450Y353100I-800J0D01*
G01*
X148550D02*
G03*
X148550Y353100I-800J0D01*
G01*
X31050Y373400D02*
G03*
X31050Y373400I-800J0D01*
G01*
X27950D02*
G03*
X27950Y373400I-800J0D01*
G01*
X296000Y329000D02*
G03*
X296000Y329000I-800J0D01*
G01*
X306100Y329200D02*
G03*
X306100Y329200I-800J0D01*
G01*
X292892Y372892D02*
G03*
X292892Y372892I-800J0D01*
G01*
X292908Y367408D02*
G03*
X292908Y367408I-800J0D01*
G01*
X270000Y341850D02*
G03*
X270000Y341850I-800J0D01*
G01*
Y338750D02*
G03*
X270000Y338750I-800J0D01*
G01*
X225100Y343950D02*
G03*
X225100Y343950I-800J0D01*
G01*
Y340850D02*
G03*
X225100Y340850I-800J0D01*
G01*
X77300Y260400D02*
G03*
X77300Y260400I-800J0D01*
G01*
X51300Y315300D02*
G03*
X51300Y315300I-800J0D01*
G01*
X67300Y265100D02*
G03*
X67300Y265100I-800J0D01*
G01*
X39000Y289400D02*
G03*
X39000Y289400I-800J0D01*
G01*
X40900Y296800D02*
G03*
X40900Y296800I-800J0D01*
G01*
X25600Y292500D02*
G03*
X25600Y292500I-800J0D01*
G01*
X238300Y244600D02*
G03*
X238300Y244600I-800J0D01*
G01*
X209100Y247700D02*
G03*
X209100Y247700I-800J0D01*
G01*
X238300Y232000D02*
G03*
X238300Y232000I-800J0D01*
G01*
X209100Y231300D02*
G03*
X209100Y231300I-800J0D01*
G01*
X210800Y70800D02*
G03*
X210800Y70800I-800J0D01*
G01*
X69400Y216700D02*
G03*
X69400Y216700I-800J0D01*
G01*
X206600Y68100D02*
G03*
X206600Y68100I-800J0D01*
G01*
X212700Y174400D02*
G03*
X212700Y174400I-800J0D01*
G01*
X206000Y176800D02*
G03*
X206000Y176800I-800J0D01*
G01*
X212700Y181500D02*
G03*
X212700Y181500I-800J0D01*
G01*
X206000Y183900D02*
G03*
X206000Y183900I-800J0D01*
G01*
X212600Y188600D02*
G03*
X212600Y188600I-800J0D01*
G01*
X206000Y190996D02*
G03*
X206000Y190996I-800J0D01*
G01*
X212700Y195700D02*
G03*
X212700Y195700I-800J0D01*
G01*
X206000Y198200D02*
G03*
X206000Y198200I-800J0D01*
G01*
X212700Y202700D02*
G03*
X212700Y202700I-800J0D01*
G01*
X206000Y205200D02*
G03*
X206000Y205200I-800J0D01*
G01*
X212700Y209900D02*
G03*
X212700Y209900I-800J0D01*
G01*
X206000Y212400D02*
G03*
X206000Y212400I-800J0D01*
G01*
X212700Y216900D02*
G03*
X212700Y216900I-800J0D01*
G01*
X206000Y219400D02*
G03*
X206000Y219400I-800J0D01*
G01*
X212700Y223900D02*
G03*
X212700Y223900I-800J0D01*
G01*
X206000Y226500D02*
G03*
X206000Y226500I-800J0D01*
G01*
X210000Y252200D02*
G03*
X210000Y252200I-800J0D01*
G01*
X205800Y254700D02*
G03*
X205800Y254700I-800J0D01*
G01*
X210000Y259500D02*
G03*
X210000Y259500I-800J0D01*
G01*
X205800Y261800D02*
G03*
X205800Y261800I-800J0D01*
G01*
X210000Y266800D02*
G03*
X210000Y266800I-800J0D01*
G01*
X205800Y268949D02*
G03*
X205800Y268949I-800J0D01*
G01*
X209900Y273600D02*
G03*
X209900Y273600I-800J0D01*
G01*
X205500Y276100D02*
G03*
X205500Y276100I-800J0D01*
G01*
X209800Y287900D02*
G03*
X209800Y287900I-800J0D01*
G01*
X209790Y280678D02*
G03*
X209790Y280678I-800J0D01*
G01*
X205400Y283100D02*
G03*
X205400Y283100I-800J0D01*
G01*
Y290209D02*
G03*
X205400Y290209I-800J0D01*
G01*
D154*
X38613Y61542D02*
G03*
X38613Y61542I-400J0D01*
G01*
Y4456D02*
G03*
X38613Y4456I-400J0D01*
G01*
M02*
