G04*
G04 #@! TF.GenerationSoftware,Altium Limited,Altium Designer,21.1.1 (26)*
G04*
G04 Layer_Color=255*
%FSLAX25Y25*%
%MOIN*%
G70*
G04*
G04 #@! TF.SameCoordinates,B5F5DE5B-2645-439E-AC59-352A346880EA*
G04*
G04*
G04 #@! TF.FilePolarity,Positive*
G04*
G01*
G75*
%ADD133R,0.05906X0.05906*%
%ADD134C,0.05906*%
%ADD135C,0.02500*%
%ADD136C,0.02953*%
%ADD137O,0.07087X0.04724*%
%ADD138O,0.07874X0.04724*%
%ADD139C,0.03937*%
%ADD140R,0.06299X0.06299*%
%ADD141C,0.06299*%
%ADD142O,0.04724X0.07087*%
%ADD143O,0.04724X0.07874*%
%ADD144R,0.05906X0.05906*%
%ADD145C,0.04724*%
%ADD146O,0.12989X0.05906*%
%ADD147O,0.10627X0.05906*%
%ADD148C,0.03347*%
%ADD149C,0.02362*%
D133*
X92600Y375000D02*
D03*
X271100Y11100D02*
D03*
X363200Y352600D02*
D03*
X182800Y245100D02*
D03*
D134*
X102600Y375000D02*
D03*
X221100Y11100D02*
D03*
X231100D02*
D03*
X241100D02*
D03*
X251100D02*
D03*
X261100D02*
D03*
X87500Y275300D02*
D03*
Y265300D02*
D03*
X343200Y352600D02*
D03*
X353200D02*
D03*
X162800Y235100D02*
D03*
X172800D02*
D03*
X182800D02*
D03*
X162800Y245100D02*
D03*
X172800D02*
D03*
D135*
X60200Y288600D02*
D03*
X56400D02*
D03*
X60200Y292500D02*
D03*
X56400D02*
D03*
X52300Y288600D02*
D03*
Y292600D02*
D03*
X60200Y296300D02*
D03*
X56400D02*
D03*
X52300D02*
D03*
D136*
X24638Y300778D02*
D03*
Y278022D02*
D03*
X304470Y368930D02*
D03*
X281714D02*
D03*
D137*
X10268Y306408D02*
D03*
X10269Y272392D02*
D03*
D138*
X26725Y272392D02*
D03*
X26725Y306407D02*
D03*
D139*
X19890Y129590D02*
D03*
X19900Y98100D02*
D03*
D140*
X374600Y313900D02*
D03*
X346300Y313600D02*
D03*
D141*
X374600Y303900D02*
D03*
Y293900D02*
D03*
Y283900D02*
D03*
Y273900D02*
D03*
Y263900D02*
D03*
Y253900D02*
D03*
Y243900D02*
D03*
Y233900D02*
D03*
Y223900D02*
D03*
Y213900D02*
D03*
Y203900D02*
D03*
Y193900D02*
D03*
Y183900D02*
D03*
Y173900D02*
D03*
Y163900D02*
D03*
Y153900D02*
D03*
Y143900D02*
D03*
Y133900D02*
D03*
Y123900D02*
D03*
Y113900D02*
D03*
Y103900D02*
D03*
Y93900D02*
D03*
Y83900D02*
D03*
Y73900D02*
D03*
Y63900D02*
D03*
Y53900D02*
D03*
Y43900D02*
D03*
Y33900D02*
D03*
Y23900D02*
D03*
X346300Y303600D02*
D03*
Y293600D02*
D03*
Y283600D02*
D03*
Y273600D02*
D03*
Y263600D02*
D03*
Y253600D02*
D03*
Y243600D02*
D03*
Y233600D02*
D03*
Y223600D02*
D03*
Y213600D02*
D03*
Y203600D02*
D03*
Y193600D02*
D03*
Y183600D02*
D03*
Y173600D02*
D03*
Y163600D02*
D03*
Y153600D02*
D03*
Y143600D02*
D03*
Y133600D02*
D03*
Y123600D02*
D03*
Y113600D02*
D03*
Y103600D02*
D03*
Y93600D02*
D03*
Y83600D02*
D03*
Y73600D02*
D03*
Y63600D02*
D03*
Y53600D02*
D03*
Y43600D02*
D03*
Y33600D02*
D03*
Y23600D02*
D03*
D142*
X310100Y383300D02*
D03*
X276084Y383300D02*
D03*
D143*
X276084Y366844D02*
D03*
X310100Y366843D02*
D03*
D144*
X87500Y285300D02*
D03*
D145*
X136315Y355000D02*
D03*
X156000D02*
D03*
X36215Y354600D02*
D03*
X55900D02*
D03*
D146*
X38211Y61545D02*
D03*
Y4453D02*
D03*
D147*
X14587Y61545D02*
D03*
Y4453D02*
D03*
D148*
X214058Y299461D02*
D03*
D149*
Y36468D02*
D03*
M02*
